<svg width="93" height="93" viewBox="0 0 93 93" fill="none" xmlns="http://www.w3.org/2000/svg">
<path d="M88.4172 10.2358H72.1211V4.5824C72.1211 4.24518 71.9871 3.92177 71.7487 3.68332C71.5102 3.44487 71.1868 3.31091 70.8496 3.31091H65.428C65.261 3.31082 65.0956 3.34364 64.9413 3.4075C64.787 3.47137 64.6468 3.56502 64.5287 3.68311C64.4106 3.8012 64.317 3.9414 64.2531 4.09571C64.1893 4.25002 64.1564 4.4154 64.1565 4.5824V10.2358H50.4819V4.5824C50.482 4.4154 50.4492 4.25002 50.3853 4.09571C50.3214 3.9414 50.2278 3.8012 50.1097 3.68311C49.9916 3.56502 49.8514 3.47137 49.6971 3.4075C49.5428 3.34364 49.3774 3.31082 49.2104 3.31091H43.7888C43.6218 3.31082 43.4564 3.34364 43.3021 3.4075C43.1478 3.47137 43.0076 3.56502 42.8895 3.68311C42.7714 3.8012 42.6778 3.9414 42.6139 4.09571C42.55 4.25002 42.5172 4.4154 42.5173 4.5824V10.2358H28.8441V4.5824C28.8442 4.4154 28.8114 4.25002 28.7475 4.09571C28.6837 3.9414 28.59 3.8012 28.4719 3.68311C28.3538 3.56502 28.2136 3.47137 28.0593 3.4075C27.905 3.34364 27.7397 3.31082 27.5726 3.31091H22.1496C21.8124 3.31091 21.489 3.44487 21.2505 3.68332C21.0121 3.92177 20.8781 4.24518 20.8781 4.5824V10.2358H4.58203C4.41503 10.2357 4.24965 10.2685 4.09534 10.3324C3.94104 10.3962 3.80083 10.4899 3.68274 10.608C3.56466 10.7261 3.471 10.8663 3.40714 11.0206C3.34327 11.1749 3.31045 11.3403 3.31055 11.5073V88.4175C3.31045 88.5845 3.34327 88.7499 3.40714 88.9042C3.471 89.0585 3.56466 89.1987 3.68274 89.3168C3.80083 89.4349 3.94104 89.5286 4.09534 89.5924C4.24965 89.6563 4.41503 89.6891 4.58203 89.689H88.4172C88.5842 89.6891 88.7496 89.6563 88.9039 89.5924C89.0582 89.5286 89.1984 89.4349 89.3165 89.3168C89.4345 89.1987 89.5282 89.0585 89.5921 88.9042C89.6559 88.7499 89.6888 88.5845 89.6887 88.4175V11.5073C89.6888 11.3403 89.6559 11.1749 89.5921 11.0206C89.5282 10.8663 89.4345 10.7261 89.3165 10.608C89.1984 10.4899 89.0582 10.3962 88.9039 10.3324C88.7496 10.2685 88.5842 10.2357 88.4172 10.2358ZM66.698 5.85388H69.5767V17.1606H66.698V5.85388ZM45.0588 5.85388H47.9375V17.1606H45.0603L45.0588 5.85388ZM23.4196 5.85388H26.3012V17.1606H23.4211L23.4196 5.85388ZM5.85352 12.7787H20.8781V18.4321C20.8781 18.7693 21.0121 19.0928 21.2505 19.3312C21.489 19.5697 21.8124 19.7036 22.1496 19.7036H27.5712C27.7382 19.7037 27.9036 19.6709 28.0579 19.607C28.2122 19.5432 28.3524 19.4495 28.4705 19.3314C28.5886 19.2133 28.6822 19.0731 28.7461 18.9188C28.81 18.7645 28.8428 18.5991 28.8427 18.4321V12.7787H42.5173V18.4321C42.5172 18.5991 42.55 18.7645 42.6139 18.9188C42.6778 19.0731 42.7714 19.2133 42.8895 19.3314C43.0076 19.4495 43.1478 19.5432 43.3021 19.607C43.4564 19.6709 43.6218 19.7037 43.7888 19.7036H49.2104C49.3774 19.7037 49.5428 19.6709 49.6971 19.607C49.8514 19.5432 49.9916 19.4495 50.1097 19.3314C50.2278 19.2133 50.3214 19.0731 50.3853 18.9188C50.4492 18.7645 50.482 18.5991 50.4819 18.4321V12.7787H64.1551V18.4321C64.155 18.5991 64.1878 18.7645 64.2517 18.9188C64.3155 19.0731 64.4092 19.2133 64.5273 19.3314C64.6454 19.4495 64.7856 19.5432 64.9399 19.607C65.0942 19.6709 65.2596 19.7037 65.4266 19.7036H70.8482C71.1854 19.7036 71.5088 19.5697 71.7472 19.3312C71.9857 19.0928 72.1197 18.7693 72.1197 18.4321V12.7787H87.1442V27.3282H5.85352V12.7787ZM5.85352 87.146V29.8711H87.1457V87.146H5.85352Z" fill="#00A9C6"/>
<path d="M20.0962 35.6124C18.9419 35.6124 17.8135 35.9547 16.8537 36.596C15.8939 37.2373 15.1458 38.1489 14.704 39.2153C14.2623 40.2818 14.1467 41.4553 14.3719 42.5875C14.5971 43.7197 15.153 44.7596 15.9692 45.5759C16.7855 46.3921 17.8254 46.948 18.9576 47.1732C20.0898 47.3984 21.2633 47.2828 22.3298 46.8411C23.3962 46.3993 24.3078 45.6512 24.9491 44.6914C25.5904 43.7316 25.9327 42.6032 25.9327 41.4489C25.9312 39.9014 25.3158 38.4178 24.2216 37.3236C23.1273 36.2293 21.6437 35.6139 20.0962 35.6124ZM20.0962 44.7424C19.4448 44.7424 18.8081 44.5492 18.2665 44.1873C17.7249 43.8254 17.3027 43.311 17.0534 42.7092C16.8042 42.1074 16.7389 41.4452 16.866 40.8063C16.9931 40.1675 17.3068 39.5806 17.7674 39.12C18.228 38.6594 18.8148 38.3457 19.4537 38.2186C20.0926 38.0916 20.7548 38.1568 21.3566 38.4061C21.9584 38.6553 22.4728 39.0775 22.8347 39.6191C23.1966 40.1607 23.3898 40.7975 23.3898 41.4489C23.389 42.3221 23.0417 43.1594 22.4243 43.7769C21.8068 44.3944 20.9695 44.7416 20.0962 44.7424Z" fill="#00A9C6"/>
<path d="M37.6988 35.6124C36.5444 35.6124 35.416 35.9547 34.4562 36.596C33.4964 37.2373 32.7483 38.1489 32.3066 39.2153C31.8648 40.2818 31.7493 41.4553 31.9745 42.5875C32.1997 43.7197 32.7555 44.7596 33.5718 45.5759C34.388 46.3921 35.428 46.948 36.5601 47.1732C37.6923 47.3984 38.8658 47.2828 39.9323 46.8411C40.9988 46.3993 41.9103 45.6512 42.5516 44.6914C43.193 43.7316 43.5353 42.6032 43.5353 41.4489C43.5335 39.9015 42.9181 38.4179 41.8239 37.3238C40.7297 36.2296 39.2462 35.6141 37.6988 35.6124ZM37.6988 44.7424C37.0474 44.7424 36.4106 44.5492 35.869 44.1873C35.3274 43.8254 34.9053 43.311 34.656 42.7092C34.4067 42.1074 34.3415 41.4452 34.4686 40.8063C34.5956 40.1675 34.9093 39.5806 35.3699 39.12C35.8305 38.6594 36.4174 38.3457 37.0563 38.2186C37.6951 38.0916 38.3573 38.1568 38.9592 38.4061C39.561 38.6553 40.0753 39.0775 40.4372 39.6191C40.7991 40.1607 40.9923 40.7975 40.9923 41.4489C40.9913 42.3221 40.644 43.1592 40.0266 43.7767C39.4091 44.3941 38.572 44.7414 37.6988 44.7424Z" fill="#00A9C6"/>
<path d="M55.3003 35.6124C54.146 35.6124 53.0176 35.9547 52.0578 36.596C51.098 37.2374 50.3499 38.1489 49.9081 39.2154C49.4664 40.2819 49.3508 41.4554 49.576 42.5875C49.8012 43.7197 50.3571 44.7597 51.1733 45.5759C51.9896 46.3921 53.0295 46.948 54.1617 47.1732C55.2939 47.3984 56.4674 47.2828 57.5339 46.8411C58.6003 46.3993 59.5119 45.6513 60.1532 44.6915C60.7945 43.7317 61.1368 42.6032 61.1368 41.4489C61.1351 39.9015 60.5196 38.418 59.4254 37.3238C58.3313 36.2296 56.8477 35.6142 55.3003 35.6124ZM55.3003 44.7424C54.6489 44.7424 54.0122 44.5492 53.4706 44.1873C52.929 43.8254 52.5068 43.3111 52.2575 42.7093C52.0083 42.1075 51.943 41.4452 52.0701 40.8064C52.1972 40.1675 52.5109 39.5806 52.9715 39.12C53.4321 38.6594 54.0189 38.3458 54.6578 38.2187C55.2967 38.0916 55.9589 38.1568 56.5607 38.4061C57.1625 38.6554 57.6769 39.0775 58.0388 39.6191C58.4007 40.1607 58.5939 40.7975 58.5939 41.4489C58.5931 42.3222 58.2458 43.1594 57.6284 43.7769C57.0109 44.3944 56.1736 44.7416 55.3003 44.7424Z" fill="#00A9C6"/>
<path d="M72.9026 35.6124C71.7483 35.6123 70.6198 35.9545 69.6599 36.5957C68.7 37.2369 67.9518 38.1484 67.5099 39.2149C67.0681 40.2813 66.9524 41.4549 67.1775 42.5871C67.4026 43.7193 67.9584 44.7593 68.7746 45.5757C69.5909 46.392 70.6308 46.9479 71.763 47.1732C72.8952 47.3984 74.0688 47.2829 75.1353 46.8412C76.2018 46.3994 77.1134 45.6514 77.7547 44.6916C78.3961 43.7317 78.7384 42.6033 78.7384 41.4489C78.7369 39.9016 78.1215 38.418 77.0275 37.3238C75.9334 36.2296 74.45 35.6142 72.9026 35.6124ZM72.9026 44.7424C72.2512 44.7426 71.6144 44.5495 71.0727 44.1877C70.531 43.8259 70.1087 43.3116 69.8593 42.7098C69.6099 42.108 69.5446 41.4457 69.6716 40.8068C69.7986 40.1679 70.1122 39.581 70.5728 39.1203C71.0334 38.6596 71.6202 38.3459 72.2591 38.2187C72.898 38.0916 73.5603 38.1568 74.1621 38.406C74.764 38.6553 75.2784 39.0774 75.6403 39.6191C76.0022 40.1607 76.1954 40.7975 76.1954 41.4489C76.1947 42.322 75.8475 43.1592 75.2302 43.7767C74.6129 44.3941 73.7758 44.7415 72.9026 44.7424Z" fill="#00A9C6"/>
<path d="M20.0967 52.6758C18.9422 52.6756 17.8135 53.0179 16.8535 53.6592C15.8934 54.3006 15.1452 55.2122 14.7033 56.2788C14.2614 57.3455 14.1457 58.5192 14.3709 59.6516C14.5961 60.784 15.1521 61.8241 15.9685 62.6405C16.7849 63.4569 17.825 64.0128 18.9574 64.2381C20.0898 64.4633 21.2635 64.3476 22.3301 63.9057C23.3968 63.4638 24.3084 62.7155 24.9498 61.7555C25.5911 60.7955 25.9333 59.6668 25.9332 58.5123C25.9315 56.9649 25.316 55.4813 24.2218 54.3872C23.1276 53.293 21.6441 52.6775 20.0967 52.6758ZM20.0967 61.8065C19.4452 61.8066 18.8082 61.6135 18.2663 61.2517C17.7245 60.8898 17.3022 60.3753 17.0527 59.7734C16.8033 59.1715 16.7379 58.5091 16.865 57.87C16.992 57.231 17.3057 56.6439 17.7664 56.1831C18.227 55.7224 18.814 55.4085 19.4531 55.2814C20.0921 55.1542 20.7545 55.2194 21.3565 55.4687C21.9585 55.718 22.473 56.1402 22.835 56.682C23.197 57.2237 23.3902 57.8607 23.3902 58.5123C23.3885 59.3849 23.0409 60.2214 22.4235 60.8382C21.8061 61.455 20.9694 61.8019 20.0967 61.8028V61.8065Z" fill="#00A9C6"/>
<path d="M37.6983 52.6758C36.5437 52.6756 35.4151 53.0179 34.455 53.6592C33.495 54.3006 32.7467 55.2122 32.3048 56.2788C31.8629 57.3455 31.7473 58.5192 31.9725 59.6516C32.1977 60.784 32.7536 61.8241 33.57 62.6405C34.3864 63.4569 35.4266 64.0128 36.559 64.2381C37.6913 64.4633 38.8651 64.3476 39.9317 63.9057C40.9983 63.4638 41.91 62.7155 42.5513 61.7555C43.1927 60.7955 43.5349 59.6668 43.5348 58.5123C43.5328 56.9649 42.9173 55.4815 41.8232 54.3874C40.729 53.2932 39.2456 52.6777 37.6983 52.6758ZM37.6983 61.8065C37.0467 61.8066 36.4097 61.6135 35.8679 61.2517C35.3261 60.8898 34.9037 60.3753 34.6543 59.7734C34.4048 59.1715 34.3395 58.5091 34.4665 57.87C34.5936 57.231 34.9072 56.6439 35.3679 56.1831C35.8286 55.7224 36.4156 55.4085 37.0546 55.2814C37.6937 55.1542 38.3561 55.2194 38.958 55.4687C39.56 55.718 40.0746 56.1402 40.4366 56.682C40.7986 57.2237 40.9918 57.8607 40.9918 58.5123C40.9899 59.3849 40.6422 60.2212 40.0249 60.838C39.4075 61.4547 38.5709 61.8017 37.6983 61.8028V61.8065Z" fill="#00A9C6"/>
<path d="M55.3008 52.6758C54.1463 52.6756 53.0176 53.0179 52.0576 53.6592C51.0975 54.3006 50.3493 55.2122 49.9074 56.2788C49.4655 57.3455 49.3498 58.5192 49.575 59.6516C49.8002 60.784 50.3562 61.8241 51.1726 62.6405C51.989 63.4569 53.0291 64.0128 54.1615 64.2381C55.2939 64.4633 56.4676 64.3476 57.5342 63.9057C58.6009 63.4638 59.5125 62.7155 60.1538 61.7555C60.7952 60.7955 61.1374 59.6668 61.1373 58.5123C61.1354 56.9649 60.5198 55.4815 59.4257 54.3874C58.3316 53.2932 56.8482 52.6777 55.3008 52.6758ZM55.3008 61.8065C54.6493 61.8066 54.0123 61.6135 53.4704 61.2517C52.9286 60.8898 52.5063 60.3753 52.2568 59.7734C52.0074 59.1715 51.942 58.5091 52.0691 57.87C52.1961 57.231 52.5098 56.6439 52.9705 56.1831C53.4311 55.7224 54.0181 55.4085 54.6571 55.2814C55.2962 55.1542 55.9586 55.2194 56.5606 55.4687C57.1626 55.718 57.6771 56.1402 58.0391 56.682C58.4011 57.2237 58.5943 57.8607 58.5943 58.5123C58.5926 59.3849 58.245 60.2214 57.6276 60.8382C57.0102 61.455 56.1735 61.8019 55.3008 61.8028V61.8065Z" fill="#00A9C6"/>
<path d="M72.9031 52.6758C71.7485 52.6755 70.6198 53.0176 69.6597 53.6589C68.6995 54.3001 67.9511 55.2117 67.5091 56.2783C67.0671 57.345 66.9514 58.5187 67.1765 59.6511C67.4016 60.7836 67.9575 61.8238 68.7739 62.6402C69.5902 63.4567 70.6304 64.0127 71.7628 64.238C72.8952 64.4633 74.0689 64.3477 75.1356 63.9058C76.2023 63.4639 77.114 62.7156 77.7554 61.7556C78.3967 60.7955 78.739 59.6668 78.7388 58.5123C78.7371 56.965 78.1217 55.4816 77.0277 54.3874C75.9337 53.2933 74.4504 52.6777 72.9031 52.6758ZM72.9031 61.8065C72.2515 61.8068 71.6145 61.6138 71.0725 61.252C70.5306 60.8902 70.1082 60.3758 69.8586 59.7739C69.609 59.172 69.5436 58.5096 69.6705 57.8705C69.7975 57.2314 70.1111 56.6442 70.5718 56.1834C71.0324 55.7225 71.6194 55.4087 72.2584 55.2814C72.8975 55.1542 73.5599 55.2194 74.162 55.4686C74.764 55.7179 75.2786 56.1402 75.6406 56.6819C76.0026 57.2237 76.1959 57.8607 76.1959 58.5123C76.1942 59.3848 75.8466 60.2211 75.2294 60.8379C74.6122 61.4547 73.7757 61.8017 72.9031 61.8028V61.8065Z" fill="#00A9C6"/>
<path d="M20.0962 69.7325C18.9419 69.7325 17.8135 70.0748 16.8537 70.7161C15.8939 71.3575 15.1458 72.269 14.704 73.3355C14.2623 74.4019 14.1467 75.5755 14.3719 76.7076C14.5971 77.8398 15.153 78.8798 15.9692 79.696C16.7855 80.5123 17.8254 81.0681 18.9576 81.2933C20.0898 81.5185 21.2633 81.403 22.3298 80.9612C23.3962 80.5195 24.3078 79.7714 24.9491 78.8116C25.5904 77.8518 25.9327 76.7233 25.9327 75.569C25.9312 74.0215 25.3158 72.5379 24.2216 71.4437C23.1273 70.3495 21.6437 69.7341 20.0962 69.7325ZM20.0962 78.8625C19.4448 78.8625 18.8081 78.6693 18.2665 78.3075C17.7249 77.9456 17.3027 77.4312 17.0534 76.8294C16.8042 76.2276 16.7389 75.5653 16.866 74.9265C16.9931 74.2876 17.3068 73.7007 17.7674 73.2401C18.228 72.7795 18.8148 72.4659 19.4537 72.3388C20.0926 72.2117 20.7548 72.2769 21.3566 72.5262C21.9584 72.7755 22.4728 73.1976 22.8347 73.7392C23.1966 74.2808 23.3898 74.9176 23.3898 75.569C23.389 76.4423 23.0417 77.2795 22.4243 77.897C21.8068 78.5145 20.9695 78.8617 20.0962 78.8625Z" fill="#00A9C6"/>
<path d="M37.6988 69.7325C36.5444 69.7325 35.416 70.0748 34.4562 70.7161C33.4964 71.3575 32.7483 72.269 32.3066 73.3355C31.8648 74.4019 31.7493 75.5755 31.9745 76.7076C32.1997 77.8398 32.7555 78.8798 33.5718 79.696C34.388 80.5123 35.428 81.0681 36.5601 81.2933C37.6923 81.5185 38.8658 81.403 39.9323 80.9612C40.9988 80.5195 41.9103 79.7714 42.5516 78.8116C43.193 77.8518 43.5353 76.7233 43.5353 75.569C43.5335 74.0216 42.9181 72.5381 41.8239 71.4439C40.7297 70.3497 39.2462 69.7342 37.6988 69.7325ZM37.6988 78.8625C37.0474 78.8625 36.4106 78.6693 35.869 78.3075C35.3274 77.9456 34.9053 77.4312 34.656 76.8294C34.4067 76.2276 34.3415 75.5653 34.4686 74.9265C34.5956 74.2876 34.9093 73.7007 35.3699 73.2401C35.8305 72.7795 36.4174 72.4659 37.0563 72.3388C37.6951 72.2117 38.3573 72.2769 38.9592 72.5262C39.561 72.7755 40.0753 73.1976 40.4372 73.7392C40.7991 74.2808 40.9923 74.9176 40.9923 75.569C40.9913 76.4422 40.644 77.2794 40.0266 77.8968C39.4091 78.5142 38.572 78.8615 37.6988 78.8625Z" fill="#00A9C6"/>
<path d="M55.3003 69.7325C54.146 69.7325 53.0176 70.0748 52.0578 70.7162C51.098 71.3575 50.3499 72.269 49.9081 73.3355C49.4664 74.402 49.3508 75.5755 49.576 76.7077C49.8012 77.8398 50.3571 78.8798 51.1733 79.696C51.9896 80.5123 53.0295 81.0682 54.1617 81.2934C55.2939 81.5186 56.4674 81.403 57.5339 80.9612C58.6003 80.5195 59.5119 79.7714 60.1532 78.8116C60.7945 77.8518 61.1368 76.7234 61.1368 75.569C61.1351 74.0216 60.5196 72.5381 59.4254 71.4439C58.3313 70.3497 56.8477 69.7343 55.3003 69.7325ZM55.3003 78.8625C54.6489 78.8625 54.0122 78.6694 53.4706 78.3075C52.929 77.9456 52.5068 77.4312 52.2575 76.8294C52.0083 76.2276 51.943 75.5654 52.0701 74.9265C52.1972 74.2876 52.5109 73.7008 52.9715 73.2402C53.4321 72.7796 54.0189 72.4659 54.6578 72.3388C55.2967 72.2117 55.9589 72.2769 56.5607 72.5262C57.1625 72.7755 57.6769 73.1976 58.0388 73.7393C58.4007 74.2809 58.5939 74.9176 58.5939 75.569C58.5931 76.4423 58.2458 77.2796 57.6284 77.897C57.0109 78.5145 56.1736 78.8618 55.3003 78.8625Z" fill="#00A9C6"/>
<path d="M72.9026 69.7325C71.7483 69.7324 70.6198 70.0746 69.6599 70.7158C68.7 71.357 67.9518 72.2685 67.5099 73.335C67.0681 74.4015 66.9524 75.575 67.1775 76.7072C67.4026 77.8394 67.9584 78.8795 68.7746 79.6958C69.5909 80.5121 70.6308 81.0681 71.763 81.2933C72.8952 81.5186 74.0688 81.403 75.1353 80.9613C76.2018 80.5196 77.1134 79.7715 77.7547 78.8117C78.3961 77.8519 78.7384 76.7234 78.7384 75.569C78.7369 74.0217 78.1215 72.5382 77.0275 71.444C75.9334 70.3498 74.45 69.7343 72.9026 69.7325ZM72.9026 78.8625C72.2512 78.8627 71.6144 78.6697 71.0727 78.3078C70.531 77.946 70.1087 77.4317 69.8593 76.8299C69.6099 76.2281 69.5446 75.5659 69.6716 74.9269C69.7986 74.288 70.1122 73.7011 70.5728 73.2404C71.0334 72.7797 71.6202 72.466 72.2591 72.3389C72.898 72.2117 73.5603 72.2769 74.1621 72.5262C74.764 72.7754 75.2784 73.1975 75.6403 73.7392C76.0022 74.2808 76.1954 74.9176 76.1954 75.569C76.1947 76.4422 75.8475 77.2793 75.2302 77.8968C74.6129 78.5143 73.7758 78.8616 72.9026 78.8625Z" fill="#00A9C6"/>
</svg>
