<svg width="59" height="30" viewBox="0 0 59 30" fill="none" xmlns="http://www.w3.org/2000/svg">
<path fill-rule="evenodd" clip-rule="evenodd" d="M32.1169 13.1791C31.6591 11.3179 30.5147 9.67352 28.8944 8.56522C28.9185 8.33633 28.9245 8.11347 28.9245 7.88458C28.9245 3.5357 25.2743 0 20.7869 0C19.793 0 18.8172 0.174669 17.8896 0.518001V2.19252C17.954 2.15843 18.0208 2.12911 18.087 2.10006C18.126 2.08291 18.1649 2.06585 18.2029 2.04796C19.0281 1.71065 19.8954 1.53592 20.7869 1.53592C24.4009 1.53592 27.3464 4.385 27.3464 7.88458C27.3464 8.19779 27.3223 8.517 27.2741 8.83021L27.1958 9.3302L27.6355 9.59519C29.2196 10.5409 30.3219 12.101 30.6472 13.8658L30.7315 14.2995L31.1592 14.4501C31.5361 14.5833 31.8836 14.7671 32.1948 14.9918V21.2984C31.5187 21.7865 30.6808 22.0757 29.7738 22.0757H27.641V17.2749V16.6606H27.0086H24.9546H22.8946H22.2621V17.2749V22.0757H17.8896V23.6116H19.8344L20.3889 24.1476L24.5028 28.1351L24.9546 28.5688L25.4003 28.1351L29.5143 24.1476L30.0769 23.6038C30.8315 23.565 31.5471 23.3822 32.1948 23.0832V29.6711H44.5308H45.7835H58.1195V0.0421677H45.7835H44.5308H32.1948V13.2142C32.169 13.2024 32.143 13.1907 32.1169 13.1791ZM33.4477 16.4765V19.816C33.6951 19.3079 33.8335 18.7405 33.8335 18.1424C33.8335 17.5549 33.6967 16.9882 33.4477 16.4765ZM33.4477 22.2923C34.6533 21.2888 35.4177 19.8012 35.4177 18.1424C35.4177 16.5272 34.6719 15.022 33.4477 14.0032V1.29503H44.5307V3.34899H35.4836V6.07153H44.5307V6.54737H35.4836V9.276H44.5307V9.75185H35.4836V12.4744H44.5307V12.9502H35.4836V15.6728H44.5307V16.1487H35.4836V18.8772H44.5307V19.3531H35.4836V22.0757H44.5307V28.4183H33.4477V22.2923ZM27.0086 17.2749V22.0757H22.8946V17.2749H24.9546H27.0086ZM22.8946 23.714V23.6116H27.0086V23.714H29.0686L24.9546 27.7014L20.8346 23.714H22.8946ZM6.48916 21.9695L7.40243 21.0818L11.5224 17.0943L11.9681 16.6606L12.4139 17.0943L16.5338 21.0818L17.5563 22.0756H17.8894V23.6115C17.8894 23.6115 16.4959 23.6185 14.6606 23.6203V27.9544V28.5688H14.0281H11.9681H9.91416H9.27569V27.9544V23.6031C8.26162 23.5934 7.37443 23.5788 6.7703 23.5573C6.66791 23.5513 6.37877 23.5091 6.37877 23.5091C2.74668 22.9188 0 19.8469 0 16.2088C0 12.4622 2.87316 9.34818 6.63777 8.87233C7.33648 6.5714 9.52296 4.95111 12.0467 4.95111C12.4322 4.95111 12.8117 4.99324 13.1852 5.06552C13.9682 3.1019 15.5644 1.4756 17.5762 0.638352C17.6178 0.622161 17.6586 0.606863 17.6988 0.591771L17.699 0.591685L17.6992 0.591624C17.7635 0.567466 17.8265 0.543834 17.8894 0.517914V2.19243C16.221 2.98752 14.95 4.46922 14.4621 6.20997L14.2393 7.01113L13.4261 6.72798C12.9744 6.56534 12.5105 6.4871 12.0467 6.4871C10.0831 6.4871 8.40863 7.84838 8.05928 9.72165L7.94483 10.318L7.31842 10.348C4.10193 10.5107 1.58415 13.0826 1.58415 16.2088C1.58415 19.0429 3.68509 21.4447 6.48916 21.9695ZM9.91416 23.6085V27.9544H11.9681H14.0281V23.6207C12.7121 23.621 11.239 23.6182 9.91416 23.6085ZM14.0281 22.0756V21.5154H16.0881L11.9681 17.528L7.85418 21.5154H9.91416V22.0756H14.0281ZM36.7364 4.60186H44.5308H45.7835H53.5779V4.81866H45.7835H44.5308H36.7364V4.60186ZM36.7364 7.80023H44.5308H45.7835H53.5779V8.02314H45.7835H44.5308H36.7364V7.80023ZM36.7364 11.0047H44.5308H45.7835H53.5779V11.2215H45.7835H44.5308H36.7364V11.0047ZM36.7364 14.2031H44.5308H45.7835H53.5779V14.42H45.7835H44.5308H36.7364V14.2031ZM36.7364 17.4015H44.5308H45.7835H53.5779V17.6244H45.7835H44.5308H36.7364V17.4015ZM36.7364 20.6059H44.5308H45.7835H53.5779V20.8228H45.7835H44.5308H36.7364V20.6059ZM45.7836 1.29503V3.34899H54.8307V6.07153H45.7836V6.54737H54.8307V9.276H45.7836V9.75185H54.8307V12.4744H45.7836V12.9502H54.8307V15.6728H45.7836V16.1487H54.8307V18.8772H45.7836V19.3531H54.8307V22.0757H45.7836V28.4183H56.8666V1.29503H45.7836Z" fill="#61C1D1"/>
</svg>
