<svg width="52" height="52" viewBox="0 0 52 52" fill="none" xmlns="http://www.w3.org/2000/svg">
<path d="M22.608 12.5383L22.0189 15.9215C21.9995 16.0335 22.0117 16.1487 22.0543 16.2541C22.0969 16.3595 22.1681 16.4509 22.26 16.5179C22.3518 16.585 22.4605 16.625 22.5739 16.6335C22.6873 16.6419 22.8007 16.6185 22.9015 16.5659L25.9448 14.9753L28.9804 16.5806C29.0809 16.6337 29.1943 16.6577 29.3076 16.6498C29.421 16.6419 29.5299 16.6024 29.6221 16.5359C29.7142 16.4693 29.7859 16.3783 29.829 16.2731C29.8722 16.168 29.885 16.0529 29.8662 15.9408L29.2939 12.5549L31.7586 10.1639C31.8402 10.0847 31.898 9.98431 31.9255 9.87399C31.9531 9.76367 31.9492 9.64785 31.9143 9.53963C31.8794 9.43141 31.815 9.3351 31.7282 9.2616C31.6415 9.1881 31.5359 9.14033 31.4234 9.12369L28.0268 8.62136L26.5145 5.53833C26.4644 5.43626 26.3868 5.35024 26.2904 5.28999C26.1939 5.22974 26.0826 5.19766 25.9689 5.19739H25.9674C25.8539 5.19739 25.7427 5.22907 25.6463 5.28886C25.5499 5.34865 25.472 5.43417 25.4216 5.53579L23.8945 8.61131L20.4949 9.09688C20.3823 9.11296 20.2765 9.16021 20.1894 9.23329C20.1023 9.30637 20.0374 9.40237 20.002 9.51042C19.9666 9.61847 19.9621 9.73428 19.9891 9.84473C20.0161 9.95519 20.0734 10.0559 20.1546 10.1355L22.608 12.5383ZM24.3839 9.77258C24.4817 9.7586 24.5747 9.72106 24.6548 9.66316C24.7349 9.60527 24.7996 9.52877 24.8436 9.44026L25.9641 7.18365L27.0737 9.44534C27.1172 9.53403 27.1816 9.61082 27.2614 9.66908C27.3412 9.72734 27.4339 9.76533 27.5316 9.77979L30.0242 10.1481L28.2157 11.9032C28.1448 11.972 28.0916 12.057 28.0609 12.1509C28.0301 12.2448 28.0227 12.3447 28.0392 12.4421L28.4591 14.9265L26.2317 13.7483C26.1444 13.7022 26.0471 13.6779 25.9483 13.6777C25.8495 13.6775 25.7522 13.7013 25.6646 13.747L23.4317 14.914L23.8636 12.4317C23.8805 12.3344 23.8735 12.2344 23.8432 12.1404C23.8129 12.0463 23.7602 11.9611 23.6896 11.892L21.8897 10.1289L24.3839 9.77258Z" fill="#07B7D2"/>
<path d="M38.4406 14.7721L37.9233 17.7443C37.9038 17.8563 37.9161 17.9715 37.9586 18.077C38.0012 18.1824 38.0725 18.2738 38.1643 18.3408C38.2561 18.4079 38.3648 18.4479 38.4782 18.4564C38.5916 18.4649 38.7051 18.4415 38.8059 18.3888L41.4796 16.9914L44.1464 18.4017C44.2469 18.4548 44.3603 18.4788 44.4736 18.4709C44.587 18.463 44.6959 18.4235 44.7881 18.3569C44.8802 18.2904 44.9519 18.1994 44.995 18.0942C45.0382 17.9891 45.051 17.8739 45.0322 17.7619L44.5294 14.7873L46.6947 12.6867C46.7764 12.6075 46.8342 12.5071 46.8617 12.3968C46.8892 12.2864 46.8853 12.1706 46.8504 12.0624C46.8156 11.9542 46.7511 11.8579 46.6644 11.7844C46.5776 11.7109 46.4721 11.6631 46.3596 11.6465L43.3753 11.2055L42.0467 8.49661C41.9966 8.39453 41.919 8.3085 41.8226 8.24825C41.7261 8.18799 41.6147 8.15593 41.501 8.15567H41.4996C41.3862 8.15567 41.2749 8.18735 41.1785 8.24714C41.0821 8.30693 41.0043 8.39245 40.9538 8.49408L39.6122 11.1956L36.6257 11.6222C36.5132 11.6383 36.4074 11.6855 36.3203 11.7586C36.2332 11.8317 36.1683 11.9276 36.1328 12.0357C36.0974 12.1437 36.093 12.2595 36.1199 12.3699C36.1469 12.4804 36.2042 12.5811 36.2854 12.6607L38.4406 14.7721ZM40.1015 12.3572C40.1993 12.3432 40.2923 12.3057 40.3724 12.2478C40.4524 12.1899 40.5172 12.1134 40.5612 12.0249L41.4962 10.1419L42.4221 12.0295C42.4656 12.1182 42.53 12.1949 42.6098 12.2532C42.6896 12.3115 42.7823 12.3495 42.8801 12.3639L44.9599 12.6712L43.4508 14.1352C43.3799 14.2039 43.3268 14.2889 43.2961 14.3828C43.2653 14.4767 43.2579 14.5766 43.2743 14.674L43.6247 16.7471L41.7661 15.7643C41.6788 15.7181 41.5815 15.6938 41.4827 15.6935C41.3839 15.6933 41.2865 15.7171 41.199 15.7629L39.3357 16.7367L39.6962 14.6648C39.7131 14.5675 39.7061 14.4675 39.6758 14.3735C39.6455 14.2795 39.5928 14.1942 39.5222 14.1251L38.0203 12.6547L40.1015 12.3572Z" fill="#07B7D2"/>
<path d="M7.37514 14.7721L6.85798 17.7443C6.83848 17.8563 6.85072 17.9716 6.89331 18.077C6.9359 18.1824 7.00714 18.2739 7.09898 18.3409C7.19082 18.408 7.29958 18.448 7.41298 18.4565C7.52638 18.4649 7.63989 18.4415 7.74066 18.3888L10.4143 16.9914L13.0814 18.4017C13.1819 18.4549 13.2953 18.4788 13.4087 18.4709C13.5221 18.463 13.631 18.4236 13.7231 18.357C13.8153 18.2905 13.887 18.1994 13.9301 18.0943C13.9733 17.9891 13.9861 17.874 13.9673 17.7619L13.4644 14.7873L15.6297 12.6867C15.7113 12.6075 15.7692 12.5071 15.7967 12.3968C15.8242 12.2865 15.8203 12.1706 15.7854 12.0624C15.7506 11.9542 15.6861 11.8579 15.5994 11.7844C15.5126 11.7109 15.4071 11.6631 15.2946 11.6465L12.3096 11.2051L10.9812 8.49661C10.9311 8.39455 10.8535 8.30852 10.7571 8.24827C10.6607 8.18802 10.5493 8.15595 10.4356 8.15567H10.4341C10.3206 8.15567 10.2094 8.18735 10.113 8.24714C10.0166 8.30693 9.93875 8.39245 9.8883 8.49408L8.54666 11.1956L5.56022 11.6222C5.44768 11.6383 5.34188 11.6856 5.25479 11.7586C5.1677 11.8317 5.10279 11.9277 5.0674 12.0357C5.032 12.1437 5.02753 12.2595 5.0545 12.37C5.08146 12.4804 5.13878 12.5811 5.21998 12.6607L7.37514 14.7721ZM9.03619 12.3572C9.13408 12.3433 9.22711 12.3058 9.30726 12.2479C9.38742 12.1901 9.45228 12.1135 9.49627 12.025L10.4314 10.142L11.3572 12.0296C11.4007 12.1183 11.4651 12.1951 11.5449 12.2533C11.6247 12.3116 11.7175 12.3496 11.8152 12.364L13.895 12.6713L12.386 14.1353C12.3151 14.204 12.262 14.289 12.2312 14.3829C12.2004 14.4768 12.193 14.5767 12.2094 14.6742L12.5598 16.7472L10.7012 15.7644C10.6139 15.7182 10.5166 15.6939 10.4178 15.6936C10.319 15.6934 10.2216 15.7172 10.1341 15.763L8.27041 16.7367L8.63075 14.6648C8.64768 14.5675 8.6407 14.4675 8.61041 14.3735C8.58012 14.2795 8.52743 14.1942 8.45688 14.1251L6.95497 12.6547L9.03619 12.3572Z" fill="#07B7D2"/>
<path d="M26.0003 19.007C24.7049 19.0085 23.4629 19.5238 22.547 20.4398C21.631 21.3558 21.1157 22.5978 21.1143 23.8932V26.7444C21.1143 28.0402 21.629 29.283 22.5454 30.1993C23.4617 31.1156 24.7045 31.6304 26.0003 31.6304C27.2962 31.6304 28.539 31.1156 29.4553 30.1993C30.3716 29.283 30.8864 28.0402 30.8864 26.7444V23.8932C30.8849 22.5978 30.3697 21.3558 29.4537 20.4398C28.5377 19.5238 27.2958 19.0085 26.0003 19.007ZM29.6676 26.7444C29.6676 27.717 29.2813 28.6498 28.5935 29.3375C27.9058 30.0253 26.973 30.4117 26.0003 30.4117C25.0277 30.4117 24.0949 30.0253 23.4071 29.3375C22.7194 28.6498 22.333 27.717 22.333 26.7444V23.8932C22.333 22.9206 22.7194 21.9878 23.4071 21.3C24.0949 20.6122 25.0277 20.2259 26.0003 20.2259C26.973 20.2259 27.9058 20.6122 28.5935 21.3C29.2813 21.9878 29.6676 22.9206 29.6676 23.8932V26.7444Z" fill="#07B7D2"/>
<path d="M41.1633 21.4232C39.971 21.4245 38.8278 21.8988 37.9847 22.7419C37.1416 23.585 36.6674 24.7281 36.666 25.9205V28.5123C36.666 29.7051 37.1398 30.849 37.9832 31.6924C38.8266 32.5358 39.9705 33.0096 41.1633 33.0096C42.3561 33.0096 43.5 32.5358 44.3434 31.6924C45.1868 30.849 45.6606 29.7051 45.6606 28.5123V25.9205C45.6592 24.7281 45.185 23.585 44.3419 22.7419C43.4988 21.8988 42.3556 21.4245 41.1633 21.4232ZM44.4418 28.5122C44.4418 29.3818 44.0964 30.2157 43.4816 30.8305C42.8667 31.4454 42.0328 31.7908 41.1633 31.7908C40.2938 31.7908 39.4599 31.4454 38.845 30.8305C38.2302 30.2157 37.8848 29.3818 37.8848 28.5122V25.9204C37.8848 25.0508 38.2302 24.2169 38.845 23.6021C39.4599 22.9872 40.2938 22.6418 41.1633 22.6418C42.0328 22.6418 42.8667 22.9872 43.4816 23.6021C44.0964 24.2169 44.4418 25.0508 44.4418 25.9204V28.5122Z" fill="#07B7D2"/>
<path d="M46.3469 33.92H44.7084C44.5616 33.9199 44.4209 33.8615 44.3171 33.7577C44.2133 33.6539 44.1549 33.5132 44.1547 33.3664C44.1547 33.2229 44.104 33.0841 44.0116 32.9743C43.9193 32.8645 43.7911 32.7908 43.6498 32.7662C43.5084 32.7416 43.3629 32.7677 43.2389 32.8399C43.1149 32.912 43.0203 33.0256 42.9718 33.1606L42.3202 34.9762C42.2348 35.214 42.0777 35.4195 41.8706 35.5642C41.6635 35.7089 41.4165 35.7858 41.1639 35.7842C40.9112 35.7825 40.6653 35.7025 40.46 35.5551C40.2548 35.4077 40.1003 35.2002 40.0181 34.9613L39.395 33.1535C39.3613 33.0558 39.3033 32.9683 39.2265 32.8992C39.1497 32.83 39.0565 32.7816 38.9558 32.7584C38.8551 32.7351 38.7502 32.7379 38.6509 32.7664C38.5515 32.7949 38.4611 32.8482 38.388 32.9213L38.3733 32.9359C38.259 33.0502 38.1948 33.2051 38.1948 33.3667C38.1946 33.5135 38.1362 33.6542 38.0324 33.758C37.9286 33.8618 37.7879 33.9202 37.6411 33.9203H35.979C35.716 33.9204 35.4533 33.9404 35.1932 33.9803C34.2033 33.1857 32.9717 32.753 31.7023 32.7539H29.9C29.7222 32.7539 29.5517 32.6833 29.426 32.5576C29.3003 32.4318 29.2297 32.2613 29.2297 32.0836C29.2296 31.9401 29.179 31.8012 29.0866 31.6914C28.9942 31.5816 28.8661 31.508 28.7247 31.4834C28.5834 31.4588 28.4379 31.4849 28.3139 31.557C28.1899 31.6292 28.0953 31.7428 28.0468 31.8778L27.3305 33.875C27.2323 34.1485 27.0517 34.3848 26.8135 34.5512C26.5753 34.7176 26.2913 34.806 26.0008 34.8041C25.7102 34.8023 25.4274 34.7103 25.1914 34.5408C24.9554 34.3713 24.7778 34.1328 24.6831 33.8581L23.9977 31.869C23.964 31.7712 23.906 31.6836 23.8291 31.6145C23.7522 31.5453 23.659 31.4969 23.5582 31.4737C23.4574 31.4505 23.3524 31.4534 23.2531 31.482C23.1537 31.5106 23.0632 31.564 22.9902 31.6372L22.974 31.6534C22.8601 31.7676 22.7961 31.9223 22.7961 32.0837C22.7961 32.2615 22.7255 32.4319 22.5998 32.5577C22.4741 32.6834 22.3036 32.754 22.1258 32.754H20.2977C19.028 32.7531 17.7962 33.1859 16.8062 33.9808C16.5463 33.9407 16.2839 33.9205 16.021 33.9203H14.3825C14.2357 33.9202 14.0949 33.8618 13.9911 33.758C13.8873 33.6542 13.8289 33.5135 13.8288 33.3667C13.8287 33.2232 13.778 33.0844 13.6857 32.9746C13.5933 32.8648 13.4652 32.7911 13.3238 32.7665C13.1825 32.7419 13.037 32.768 12.9129 32.8402C12.7889 32.9123 12.6943 33.0259 12.6459 33.1609L11.9945 34.9762C11.9092 35.214 11.7521 35.4194 11.5449 35.5642C11.3378 35.7089 11.0908 35.7857 10.8382 35.7841C10.5855 35.7825 10.3396 35.7024 10.1343 35.5551C9.92906 35.4077 9.77462 35.2002 9.69231 34.9613L9.06923 33.1535C9.03555 33.0558 8.97756 32.9682 8.90072 32.8991C8.82388 32.83 8.73071 32.7815 8.62998 32.7583C8.52925 32.7351 8.42427 32.7378 8.32492 32.7664C8.22556 32.7949 8.1351 32.8482 8.06203 32.9214L8.04741 32.936C7.93322 33.0502 7.86907 33.2052 7.86906 33.3667C7.8689 33.5135 7.81052 33.6542 7.70673 33.758C7.60294 33.8618 7.46222 33.9202 7.31545 33.9203H5.65317C4.28907 33.9219 2.98128 34.4644 2.01668 35.429C1.05209 36.3935 0.509452 37.7013 0.507812 39.0654V46.1932C0.507813 46.3548 0.572014 46.5098 0.686294 46.6241C0.800574 46.7384 0.955571 46.8026 1.11719 46.8026H50.8828C51.0444 46.8026 51.1994 46.7384 51.3137 46.6241C51.428 46.5098 51.4922 46.3548 51.4922 46.1932V39.0654C51.4907 37.7012 50.9481 36.3934 49.9835 35.4288C49.0189 34.4642 47.7111 33.9216 46.3469 33.92ZM14.6988 38.3526V45.5839H1.72656V39.0654C1.72775 38.0243 2.14182 37.0263 2.87795 36.2902C3.61407 35.554 4.61213 35.14 5.65317 35.1388H7.31524C7.68641 35.1393 8.04827 35.0226 8.34925 34.8054L8.53988 35.3589C8.70445 35.8363 9.01318 36.2509 9.42344 36.5454C9.83369 36.8399 10.3253 36.9998 10.8303 37.003C11.3353 37.0062 11.8288 36.8526 12.2428 36.5633C12.6568 36.2741 12.9707 35.8634 13.1414 35.3881L13.3501 34.8067C13.6349 35.0117 13.9743 35.1272 14.3251 35.1383C14.3362 35.1383 14.3474 35.1391 14.3587 35.1391H15.717C15.0536 36.0793 14.6979 37.2019 14.6988 38.3526ZM36.0824 45.5839H15.9176V38.3526C15.9189 37.1914 16.3808 36.0781 17.202 35.2569C18.0231 34.4358 19.1364 33.9739 20.2977 33.9726H22.1258C22.5497 33.9731 22.9612 33.8303 23.2938 33.5675L23.5307 34.2554C23.7076 34.7687 24.0395 35.2144 24.4805 35.5311C24.9215 35.8477 25.45 36.0196 25.9929 36.0231C26.5358 36.0265 27.0664 35.8613 27.5115 35.5504C27.9565 35.2394 28.294 34.7979 28.4774 34.2869L28.7349 33.5694C29.0506 33.8182 29.4379 33.9592 29.8397 33.9716C29.851 33.9723 29.8625 33.9726 29.874 33.9726H31.7021C32.8634 33.9739 33.9768 34.4359 34.7979 35.257C35.619 36.0782 36.0809 37.1915 36.0822 38.3528L36.0824 45.5839ZM50.2734 45.5839H37.3012V38.3526C37.3021 37.2018 36.9463 36.079 36.2828 35.1388H37.6411C38.0122 35.1393 38.374 35.0226 38.675 34.8054L38.8656 35.3589C39.0302 35.8363 39.3389 36.2509 39.7492 36.5454C40.1594 36.8399 40.651 36.9998 41.156 37.003C41.661 37.0062 42.1546 36.8526 42.5686 36.5633C42.9825 36.2741 43.2965 35.8634 43.4671 35.3881L43.6758 34.8067C43.9606 35.0117 44.3001 35.1272 44.6508 35.1383C44.6619 35.1383 44.6732 35.1391 44.6843 35.1391H46.3465C47.3876 35.1402 48.3857 35.5542 49.1218 36.2902C49.858 37.0263 50.2722 38.0243 50.2734 39.0654V45.5839Z" fill="#07B7D2"/>
<path d="M6.33984 25.9204V28.5123C6.33984 29.1029 6.45617 29.6877 6.68218 30.2334C6.90819 30.779 7.23946 31.2748 7.65707 31.6924C8.07468 32.11 8.57046 32.4413 9.1161 32.6673C9.66173 32.8933 10.2465 33.0096 10.8371 33.0096C11.4277 33.0096 12.0125 32.8933 12.5582 32.6673C13.1038 32.4413 13.5996 32.11 14.0172 31.6924C14.4348 31.2748 14.7661 30.779 14.9921 30.2334C15.2181 29.6877 15.3344 29.1029 15.3344 28.5123V25.9204C15.3344 24.7277 14.8606 23.5838 14.0172 22.7404C13.1738 21.897 12.0299 21.4232 10.8371 21.4232C9.64438 21.4232 8.50047 21.897 7.65707 22.7404C6.81366 23.5838 6.33984 24.7277 6.33984 25.9204ZM14.1157 25.9204V28.5123C14.1157 29.3818 13.7703 30.2158 13.1554 30.8306C12.5406 31.4454 11.7067 31.7909 10.8371 31.7909C9.96761 31.7909 9.1337 31.4454 8.51886 30.8306C7.90401 30.2158 7.55859 29.3818 7.55859 28.5123V25.9204C7.55859 25.0509 7.90401 24.217 8.51886 23.6022C9.1337 22.9873 9.96761 22.6419 10.8371 22.6419C11.7067 22.6419 12.5406 22.9873 13.1554 23.6022C13.7703 24.217 14.1157 25.0509 14.1157 25.9204Z" fill="#07B7D2"/>
</svg>
