<svg width="66" height="82" viewBox="0 0 66 82" fill="none" xmlns="http://www.w3.org/2000/svg">
<path fill-rule="evenodd" clip-rule="evenodd" d="M64.8564 11.8311L54.1064 1.08105C53.9817 0.956268 53.8335 0.8573 53.6705 0.789764C53.5074 0.72226 53.3328 0.6875 53.1562 0.6875H10.1562C9.7998 0.6875 9.45813 0.829071 9.20605 1.08109C8.9541 1.33307 8.8125 1.67487 8.8125 2.03125V8.75H2.09375C1.7373 8.75 1.39563 8.89157 1.14355 9.14359C0.891602 9.39557 0.75 9.73737 0.75 10.0938V79.9688C0.75 80.3251 0.891602 80.6669 1.14355 80.9189C1.39563 81.1709 1.7373 81.3125 2.09375 81.3125H55.8438C56.2002 81.3125 56.5419 81.1709 56.7939 80.9189C57.0459 80.6669 57.1875 80.3251 57.1875 79.9688V73.25H63.9062C64.2627 73.25 64.6044 73.1084 64.8564 72.8564C65.1084 72.6044 65.25 72.2626 65.25 71.9062V12.7812C65.25 12.6048 65.2152 12.4301 65.1477 12.267C65.0802 12.104 64.9812 11.9558 64.8564 11.8311ZM54.5 5.27524L60.6622 11.4375H54.5V5.27524ZM3.4375 78.625V11.4375H8.8125V71.9062C8.8125 72.2626 8.9541 72.6044 9.20605 72.8564C9.45813 73.1084 9.7998 73.25 10.1562 73.25H54.5V78.625H3.4375ZM11.5 70.5625V3.375H51.8125V12.7812C51.8125 13.1376 51.9541 13.4794 52.2061 13.7314C52.4581 13.9834 52.7998 14.125 53.1562 14.125H62.5625V70.5625H11.5ZM30.3125 11.4375H43.75C44.1064 11.4375 44.4481 11.2959 44.7002 11.0439C44.9521 10.7919 45.0938 10.4501 45.0938 10.0938C45.0938 9.73737 44.9521 9.39557 44.7002 9.14359C44.4481 8.89157 44.1064 8.75 43.75 8.75H30.3125C29.9561 8.75 29.6144 8.89157 29.3623 9.14359C29.1104 9.39557 28.9688 9.73737 28.9688 10.0938C28.9688 10.4501 29.1104 10.7919 29.3623 11.0439C29.6144 11.2959 29.9561 11.4375 30.3125 11.4375ZM26.2812 19.5H53.1562C53.5127 19.5 53.8544 19.3584 54.1064 19.1064C54.3584 18.8544 54.5 18.5126 54.5 18.1562C54.5 17.7999 54.3584 17.4581 54.1064 17.2061C53.8544 16.9541 53.5127 16.8125 53.1562 16.8125H26.2812C25.9248 16.8125 25.5831 16.9541 25.3311 17.2061C25.0791 17.4581 24.9375 17.7999 24.9375 18.1562C24.9375 18.5126 25.0791 18.8544 25.3311 19.1064C25.5831 19.3584 25.9248 19.5 26.2812 19.5ZM43.75 35.625H18.2188C17.8623 35.625 17.5206 35.4834 17.2686 35.2314C17.0166 34.9794 16.875 34.6376 16.875 34.2812C16.875 33.9249 17.0166 33.5831 17.2686 33.3311C17.5206 33.0791 17.8623 32.9375 18.2188 32.9375H43.75C44.1064 32.9375 44.4481 33.0791 44.7002 33.3311C44.9521 33.5831 45.0938 33.9249 45.0938 34.2812C45.0938 34.6376 44.9521 34.9794 44.7002 35.2314C44.4481 35.4834 44.1064 35.625 43.75 35.625ZM18.2188 27.5625H33C33.3564 27.5625 33.6981 27.4209 33.9502 27.1689C34.2021 26.9169 34.3438 26.5751 34.3438 26.2188C34.3438 25.8624 34.2021 25.5206 33.9502 25.2686C33.6981 25.0166 33.3564 24.875 33 24.875H18.2188C17.8623 24.875 17.5206 25.0166 17.2686 25.2686C17.0166 25.5206 16.875 25.8624 16.875 26.2188C16.875 26.5751 17.0166 26.9169 17.2686 27.1689C17.5206 27.4209 17.8623 27.5625 18.2188 27.5625ZM49.125 32.9375H55.8438C56.2002 32.9375 56.5419 33.0791 56.7939 33.3311C57.0459 33.5831 57.1875 33.9249 57.1875 34.2812C57.1875 34.6376 57.0459 34.9794 56.7939 35.2314C56.5419 35.4834 56.2002 35.625 55.8438 35.625H49.125C48.7686 35.625 48.4269 35.4834 48.1748 35.2314C47.9229 34.9794 47.7812 34.6376 47.7812 34.2812C47.7812 33.9249 47.9229 33.5831 48.1748 33.3311C48.4269 33.0791 48.7686 32.9375 49.125 32.9375ZM18.2188 43.6875H30.3125C30.6689 43.6875 31.0106 43.5459 31.2627 43.2939C31.5146 43.0419 31.6562 42.7001 31.6562 42.3438C31.6562 41.9874 31.5146 41.6456 31.2627 41.3936C31.0106 41.1416 30.6689 41 30.3125 41H18.2188C17.8623 41 17.5206 41.1416 17.2686 41.3936C17.0166 41.6456 16.875 41.9874 16.875 42.3438C16.875 42.7001 17.0166 43.0419 17.2686 43.2939C17.5206 43.5459 17.8623 43.6875 18.2188 43.6875ZM26.2812 51.75H18.2188C17.8623 51.75 17.5206 51.6084 17.2686 51.3564C17.0166 51.1044 16.875 50.7626 16.875 50.4062C16.875 50.0499 17.0166 49.7081 17.2686 49.4561C17.5206 49.2041 17.8623 49.0625 18.2188 49.0625H26.2812C26.6377 49.0625 26.9794 49.2041 27.2314 49.4561C27.4834 49.7081 27.625 50.0499 27.625 50.4062C27.625 50.7626 27.4834 51.1044 27.2314 51.3564C26.9794 51.6084 26.6377 51.75 26.2812 51.75ZM27.625 57.125H18.2188C17.8623 57.125 17.5206 57.2666 17.2686 57.5186C17.0166 57.7706 16.875 58.1124 16.875 58.4688C16.875 58.8251 17.0166 59.1669 17.2686 59.4189C17.5206 59.6709 17.8623 59.8125 18.2188 59.8125H27.625C27.9814 59.8125 28.3231 59.6709 28.5752 59.4189C28.8271 59.1669 28.9688 58.8251 28.9688 58.4688C28.9688 58.1124 28.8271 57.7706 28.5752 57.5186C28.3231 57.2666 27.9814 57.125 27.625 57.125ZM37.4248 27.1689C37.1729 26.9169 37.0312 26.5751 37.0312 26.2188C37.0312 25.8624 37.1729 25.5206 37.4248 25.2686C37.6769 25.0166 38.0186 24.875 38.375 24.875H55.8438C56.2002 24.875 56.5419 25.0166 56.7939 25.2686C57.0459 25.5206 57.1875 25.8624 57.1875 26.2188C57.1875 26.5751 57.0459 26.9169 56.7939 27.1689C56.5419 27.4209 56.2002 27.5625 55.8438 27.5625H38.375C38.0186 27.5625 37.6769 27.4209 37.4248 27.1689ZM45.0938 38.3125C42.1703 38.3125 39.3125 39.1794 36.8817 40.8036C34.4509 42.4278 32.5564 44.7363 31.4376 47.4372C30.3188 50.1381 30.0262 53.1101 30.5966 55.9774C31.1669 58.8447 32.5746 61.4785 34.6418 63.5457C36.709 65.6129 39.3428 67.0206 42.2101 67.591C45.0774 68.1613 48.0493 67.8686 50.7502 66.7498C53.4512 65.6311 55.7598 63.7365 57.3839 61.3058C59.0081 58.875 59.875 56.0172 59.875 53.0938C59.8706 49.1749 58.3118 45.4178 55.5408 42.6467C52.7697 39.8757 49.0126 38.317 45.0938 38.3125ZM45.0938 65.1875C42.7018 65.1875 40.3636 64.4782 38.3749 63.1493C36.386 61.8204 34.8359 59.9317 33.9205 57.7218C33.0052 55.512 32.7657 53.0803 33.2324 50.7344C33.699 48.3884 34.8508 46.2335 36.5422 44.5422C38.2335 42.8508 40.3884 41.699 42.7344 41.2324C45.0803 40.7657 47.512 41.0052 49.7218 41.9206C51.9316 42.8359 53.8204 44.386 55.1493 46.3748C56.4783 48.3636 57.1875 50.7018 57.1875 53.0938C57.184 56.3001 55.9086 59.3741 53.6414 61.6413C51.3741 63.9086 48.3002 65.1839 45.0938 65.1875ZM50.8624 46.7686L41.2714 56.3596L39.493 53.6921C39.3956 53.5443 39.2699 53.4171 39.1232 53.318C38.9764 53.2189 38.8116 53.1498 38.6381 53.1146C38.4645 53.0794 38.2858 53.0789 38.1119 53.113C37.9382 53.1472 37.7729 53.2153 37.6256 53.3136C37.4783 53.4118 37.3518 53.5382 37.2535 53.6854C37.1553 53.8327 37.0869 53.9979 37.0527 54.1717C37.0312 54.2807 37.0234 54.3918 37.0293 54.5023C37.0327 54.5678 37.0409 54.6331 37.054 54.6977C37.089 54.8713 37.1581 55.0362 37.2571 55.183L39.9446 59.2142C40.0548 59.3796 40.2004 59.5185 40.371 59.6208C40.5414 59.7232 40.7324 59.7864 40.9302 59.806C40.9504 59.808 40.9706 59.8095 40.9907 59.8106C41.0148 59.8119 41.0387 59.8125 41.0626 59.8125C41.239 59.8125 41.4138 59.7778 41.5768 59.7103C41.7399 59.6427 41.8879 59.5438 42.0128 59.419L52.7628 48.669C53.0148 48.417 53.1564 48.0752 53.1564 47.7188C53.1564 47.3624 53.0148 47.0206 52.7628 46.7686C52.5107 46.5166 52.1689 46.375 51.8126 46.375C51.4562 46.375 51.1144 46.5166 50.8624 46.7686Z" fill="#00A9C6"/>
</svg>
