<svg width="25" height="25" viewBox="0 0 25 25" fill="none" xmlns="http://www.w3.org/2000/svg">
<path d="M24.4186 24.9076H0.581395C0.260465 24.9076 0 24.6471 0 24.3262V17.5233C0 17.2023 0.260465 16.9419 0.581395 16.9419C0.902326 16.9419 1.16279 17.2023 1.16279 17.5233V23.7448H23.8372V17.6247C23.8372 17.3038 24.0977 17.0433 24.4186 17.0433C24.7395 17.0433 25 17.3038 25 17.6247V24.3265C25 24.6474 24.7395 24.9076 24.4186 24.9076ZM12.4488 21.2831C12.2866 21.2831 12.1323 21.2157 12.0221 21.0965L5.90436 14.4846C5.68634 14.2488 5.70058 13.8811 5.93634 13.6628C6.17238 13.4448 6.53953 13.459 6.75814 13.6948L11.8619 19.2113V0.581395C11.8619 0.260465 12.1224 0 12.4433 0C12.7642 0 13.0247 0.260465 13.0247 0.581395V19.2238L18.1421 13.6948C18.3602 13.459 18.7282 13.4448 18.9637 13.6631C19.1994 13.8811 19.2137 14.2491 18.9953 14.4846L12.8756 21.0965C12.7654 21.2157 12.6108 21.2831 12.4488 21.2831Z" fill="#00A9C6"/>
</svg>
