<svg width="24" height="15" viewBox="0 0 24 15" fill="none" xmlns="http://www.w3.org/2000/svg">
<path fill-rule="evenodd" clip-rule="evenodd" d="M12 0C18.53 0 23.565 6.85242 23.78 7.14496L24 7.4375L23.78 7.73004C23.565 8.02258 18.53 14.875 12 14.875C5.46997 14.875 0.434998 8.02258 0.219971 7.73004L0 7.4375L0.219971 7.14496C0.434998 6.85242 5.46997 0 12 0ZM1.255 7.4375C2.31 8.73659 6.71002 13.8833 12 13.8833C17.29 13.8833 21.69 8.73659 22.745 7.4375C21.69 6.13841 17.29 0.991669 12 0.991669C6.71002 0.991669 2.31 6.13841 1.255 7.4375ZM9.77771 4.13963C10.4355 3.70377 11.2089 3.47113 12 3.47113C13.0609 3.47113 14.0783 3.88904 14.8284 4.63293C15.5786 5.37683 16 6.38577 16 7.43779C16 8.22234 15.7654 8.98924 15.3259 9.64156C14.8864 10.2939 14.2617 10.8023 13.5308 11.1025C12.7998 11.4027 11.9955 11.4813 11.2197 11.3282C10.4437 11.1752 9.73096 10.7974 9.17157 10.2427C8.61218 9.68791 8.2312 8.98111 8.07684 8.21165C7.92255 7.4422 8.00171 6.64464 8.3045 5.91982C8.60724 5.19501 9.11993 4.5755 9.77771 4.13963ZM10.3333 9.91142C10.8267 10.2383 11.4067 10.4128 12 10.4128C12.7957 10.4128 13.5587 10.0994 14.1213 9.54144C14.684 8.98352 15 8.22682 15 7.43779C15 6.8494 14.824 6.27422 14.4944 5.78497C14.1648 5.29575 13.6962 4.91443 13.1481 4.68925C12.5999 4.46408 11.9967 4.40517 11.4147 4.51996C10.8328 4.63475 10.2982 4.91809 9.87866 5.33415C9.45911 5.75021 9.1734 6.2803 9.05762 6.85741C8.94189 7.43449 9.00128 8.03267 9.22839 8.57628C9.45544 9.11989 9.83997 9.58452 10.3333 9.91142Z" fill="#00A9C6"/>
</svg>
