<svg width="56" height="36" viewBox="0 0 56 36" fill="none" xmlns="http://www.w3.org/2000/svg">
<path fill-rule="evenodd" clip-rule="evenodd" d="M4.65613 30.3186C5.54759 29.9572 6.49323 29.65 7.48106 29.403C7.96895 30.9992 8.61348 32.3544 9.3905 33.3905C7.56541 32.7701 5.94513 31.7039 4.65613 30.3186ZM1.6143 23.3073H6.53542C6.57758 24.9397 6.77027 26.4757 7.07747 27.8791C5.86677 28.1863 4.7103 28.5718 3.63211 29.0416C2.48767 27.3912 1.75886 25.4276 1.6143 23.3073ZM3.63211 15.9889C4.7103 16.4588 5.86677 16.8503 7.07747 17.1515C6.77027 18.5549 6.57758 20.0909 6.53542 21.7232H1.6143C1.75886 19.603 2.48767 17.6393 3.63211 15.9889ZM9.3905 11.6401C8.61348 12.6761 7.96895 14.0374 7.48106 15.6275C6.49323 15.3806 5.54759 15.0734 4.65613 14.712C5.94513 13.3266 7.56541 12.2605 9.3905 11.6401ZM9.01705 29.0838C10.3121 28.861 11.6673 28.7404 13.0647 28.7404V27.1563C11.5288 27.1563 10.041 27.2948 8.61949 27.5478C8.34241 26.2829 8.16174 24.8554 8.11957 23.3073H13.0647V21.7232H8.11957C8.16174 20.1752 8.34241 18.7477 8.61949 17.4828C10.041 17.7418 11.5288 17.8742 13.0647 17.8742V16.2901C11.6673 16.2901 10.3121 16.1697 9.01705 15.9468C9.97477 12.8689 11.5529 11.0377 13.0647 11.0377V9.45358C9.10136 9.45358 5.54759 11.2305 3.15029 14.0254C2.80093 14.4289 2.48163 14.8506 2.18649 15.2903C0.807135 17.3623 0 19.8439 0 22.5183C0 25.1867 0.807135 27.6683 2.18649 29.7403C2.48163 30.1861 2.80093 30.6017 3.15029 31.0052C5.54759 33.8001 9.10136 35.583 13.0647 35.583V33.9988C11.5529 33.9988 9.97477 32.1618 9.01705 29.0838Z" fill="#61C1D1"/>
<path fill-rule="evenodd" clip-rule="evenodd" d="M22.4971 29.0416C21.4189 28.5718 20.2624 28.1863 19.0517 27.8791C19.3588 26.4757 19.5516 24.9397 19.5938 23.3073H24.5149C24.3703 25.4276 23.6415 27.3912 22.4971 29.0416ZM16.7387 33.3905C17.5157 32.3544 18.1663 30.9992 18.6481 29.403C19.636 29.65 20.5816 29.9572 21.4731 30.3186C20.1901 31.7039 18.5698 32.7701 16.7387 33.3905ZM16.7387 11.6401C18.5698 12.2605 20.1901 13.3266 21.4731 14.712C20.5816 15.0734 19.636 15.3806 18.6481 15.6275C18.1663 14.0374 17.5157 12.6761 16.7387 11.6401ZM24.5149 21.7232H19.5938C19.5516 20.0909 19.3588 18.5549 19.0517 17.1515C20.2624 16.8503 21.4189 16.4588 22.4971 15.9889C23.6415 17.6393 24.3703 19.603 24.5149 21.7232ZM23.9426 15.2903C23.6475 14.8506 23.3283 14.4289 22.9849 14.0254C20.5876 11.2305 17.0278 9.45358 13.0645 9.45358V11.0377C14.5763 11.0377 16.1544 12.8689 17.1121 15.9468C15.8171 16.1697 14.4619 16.2901 13.0645 16.2901V17.8742C14.6004 17.8742 16.0882 17.7418 17.5157 17.4828C17.7868 18.7477 17.9675 20.1752 18.0096 21.7232H13.0645V23.3073H18.0096C17.9675 24.8554 17.7868 26.2829 17.5157 27.5478C16.0882 27.2888 14.6004 27.1563 13.0645 27.1563V28.7404C14.4619 28.7404 15.8171 28.861 17.1121 29.0838C16.1544 32.1618 14.5763 33.9988 13.0645 33.9988V35.583C17.0278 35.583 20.5876 33.8001 22.9849 31.0052C23.3283 30.6017 23.6475 30.1861 23.9426 29.7403C25.322 27.6683 26.1291 25.1867 26.1291 22.5183C26.1291 19.8439 25.322 17.3623 23.9426 15.2903Z" fill="#61C1D1"/>
<path fill-rule="evenodd" clip-rule="evenodd" d="M35.418 21.6027V23.4699H32.6292V24.3613H25.9975L25.6963 25.8492H32.6292V26.6984H35.418H36.3938V25.8492V24.3613V23.4699V21.6027H35.418Z" fill="#61C1D1"/>
<path fill-rule="evenodd" clip-rule="evenodd" d="M40.1582 24.3613V23.4699H37.3693V21.6027H36.3936V23.4699V24.3613V25.8492V26.6984H37.3693H40.1582V25.8492H46.5971V24.3613H40.1582Z" fill="#61C1D1"/>
<path fill-rule="evenodd" clip-rule="evenodd" d="M36.393 6.02029V4.659H27.2194C26.6532 4.659 26.1895 5.12277 26.1895 5.68897V20.5728C26.1895 21.139 26.6532 21.6028 27.2194 21.6028H35.4172H36.393V20.8317V19.0368H26.9122V6.02029H36.393Z" fill="#61C1D1"/>
<path fill-rule="evenodd" clip-rule="evenodd" d="M45.5671 4.659H36.3936V6.02029H45.8743V19.0368H36.3936V20.8317V21.6028H37.3693H45.5671C46.1333 21.6028 46.5971 21.139 46.5971 20.5728V5.68897C46.5971 5.12277 46.1333 4.659 45.5671 4.659Z" fill="#61C1D1"/>
<path fill-rule="evenodd" clip-rule="evenodd" d="M37.3686 22.5423H35.417V21.6027H37.3686V22.5423Z" fill="#61C1D1"/>
<path fill-rule="evenodd" clip-rule="evenodd" d="M53.0477 12.152L52.5477 11.6521L51.7828 10.8871C49.6987 12.9712 46.3256 12.9712 44.2415 10.8871C42.1575 8.80306 42.1575 5.42996 44.2415 3.34587L42.9826 2.08701C40.1998 4.86378 40.1998 9.36924 42.9826 12.152C45.4703 14.6397 49.3373 14.8987 52.1201 12.9291L53.0477 12.152Z" fill="#61C1D1"/>
<path fill-rule="evenodd" clip-rule="evenodd" d="M53.8245 11.2246C55.7941 8.44179 55.5352 4.57475 53.0475 2.0871C50.2647 -0.6957 45.7592 -0.6957 42.9824 2.0871L44.2414 3.34596C46.3254 1.26188 49.6985 1.26188 51.7826 3.34596C53.8667 5.43005 53.8667 8.80315 51.7826 10.8872L52.5475 11.6522L53.0475 12.1521L53.8245 11.2246Z" fill="#61C1D1"/>
<path fill-rule="evenodd" clip-rule="evenodd" d="M49.0908 6.94797C49.0908 7.58645 48.5729 8.09838 47.9404 8.09838V5.79749C48.5729 5.79749 49.0908 6.31552 49.0908 6.94797Z" fill="#61C1D1"/>
<path fill-rule="evenodd" clip-rule="evenodd" d="M46.79 6.94797C46.79 6.31552 47.302 5.79749 47.9405 5.79749V8.09838C47.302 8.09838 46.79 7.58645 46.79 6.94797Z" fill="#61C1D1"/>
<path fill-rule="evenodd" clip-rule="evenodd" d="M49.398 6.94797C49.398 6.14084 48.7476 5.49029 47.9404 5.49029V3.3399C48.2235 3.3399 48.5006 3.37607 48.7656 3.4363C48.5729 3.91817 48.7536 4.47234 49.2174 4.73737C49.6752 5.0024 50.2474 4.8819 50.5666 4.47833C50.9461 4.8819 51.2292 5.36979 51.3918 5.90587C50.8858 5.97815 50.4943 6.41792 50.4943 6.94797C50.4943 7.47803 50.8858 7.91773 51.3918 7.99001C51.2292 8.53211 50.9461 9.02 50.5666 9.41754C50.2474 9.01398 49.6752 8.89348 49.2174 9.15851C48.7536 9.42353 48.5729 9.98373 48.7656 10.4656C48.5006 10.5258 48.2235 10.556 47.9404 10.556V8.40558C48.7476 8.40558 49.398 7.75511 49.398 6.94797Z" fill="#61C1D1"/>
<path fill-rule="evenodd" clip-rule="evenodd" d="M45.3859 6.94797C45.3859 6.41792 44.9944 5.97815 44.4824 5.90587C44.6451 5.36979 44.9342 4.8819 45.3076 4.47833C45.6269 4.8819 46.2051 5.0024 46.6629 4.73737C47.1207 4.47234 47.3074 3.91817 47.1146 3.4363C47.3797 3.37607 47.6567 3.3399 47.9398 3.3399V5.49029C47.1327 5.49029 46.4822 6.14084 46.4822 6.94797C46.4822 7.75511 47.1327 8.40558 47.9398 8.40558V10.556C47.6567 10.556 47.3797 10.5258 47.1146 10.4656C47.3074 9.98373 47.1207 9.42353 46.6629 9.15851C46.2051 8.89348 45.6269 9.01398 45.3076 9.41754C44.9342 9.02 44.6451 8.53211 44.4824 7.99001C44.9944 7.91773 45.3859 7.47803 45.3859 6.94797Z" fill="#61C1D1"/>
</svg>
