<svg width="16" height="12" viewBox="0 0 16 12" fill="none" xmlns="http://www.w3.org/2000/svg">
<path fill-rule="evenodd" clip-rule="evenodd" d="M15.0002 0.5H1.00024C0.501221 0.5 0.105225 0.871994 0.0302734 1.351L8.00024 6.60201L15.9702 1.351C15.8953 0.871994 15.4993 0.5 15.0002 0.5ZM16.0005 9.49196L10.6064 6.08195L16.0005 2.52795V9.49196ZM0 9.49202V2.52802L5.39404 6.08202L0 9.49202ZM8.27527 7.61806L9.69019 6.68607L15.9683 10.6561C15.8912 11.1311 15.4972 11.5001 15.0002 11.5001H1.00024C0.503174 11.5001 0.109253 11.1311 0.0322266 10.6561L6.31018 6.68506L7.72522 7.61806C7.8092 7.67307 7.90417 7.70006 8.00024 7.70006C8.09619 7.70006 8.19128 7.67307 8.27527 7.61806Z" fill="#00A9C6"/>
</svg>
