<svg width="57" height="35" viewBox="0 0 57 35" fill="none" xmlns="http://www.w3.org/2000/svg">
<path fill-rule="evenodd" clip-rule="evenodd" d="M45.862 2.44128C48.7139 5.29319 49.0671 9.68182 46.9405 12.9232V13.3249L48.1201 14.4985L48.9135 13.7052L55.6541 20.439C56.2238 21.0086 56.2238 21.9309 55.6541 22.5006L54.9189 23.2294L54.108 24.0403C53.5383 24.61 52.6228 24.61 52.0532 24.0403L46.9405 18.9277V32.259H52.4199V32.354C52.4199 33.5611 51.4433 34.5376 50.243 34.5376H27H26.21H2.18361C0.976535 34.5376 0 33.5611 0 32.354V32.259H5.47949V4.93042C5.47949 3.77759 6.42212 2.83492 7.57494 2.83492H26.2101L33.6864 2.83493C33.8045 2.70077 33.9276 2.56949 34.0557 2.44135C37.3176 -0.813697 42.6069 -0.813769 45.862 2.44128ZM45.4758 29.8722V17.4629L45.3193 17.3065L45.4758 17.1487V15.869L44.777 15.1699C41.5152 17.4756 36.9785 17.1705 34.0557 14.2478C31.716 11.9128 31.0546 8.53104 32.0715 5.60177H26.21L6.95103 5.60176V29.8722H26.2101L45.4758 29.8722ZM44.3836 12.7692C44.8289 12.324 45.1929 11.8282 45.4758 11.3003V5.60177H34.3362C33.1963 7.93473 33.5956 10.8309 35.5341 12.7693C37.9821 15.2106 41.9424 15.2105 44.3836 12.7692ZM42.9167 2.83493L37.0003 2.83493C38.8435 1.84483 41.0758 1.84658 42.9167 2.83493ZM25.3351 20.826L27.9594 23.2876L34.2118 15.1026L35.2562 16.0315L28.4409 25.3423L25.3012 22.7112L22.1004 26.0272L19.3878 22.467L15.0342 28.1159L14.4307 27.3158C15.2037 26.0985 16.0361 24.9593 16.8686 23.82C17.701 22.6807 18.5334 21.5414 19.3064 20.3242L22.0665 23.8437L22.0764 23.8346C23.1649 22.834 24.2533 21.8334 25.3351 20.826Z" fill="#61C1D1"/>
</svg>
