<svg width="87" height="87" viewBox="0 0 87 87" fill="none" xmlns="http://www.w3.org/2000/svg">
<g clip-path="url(#clip0_368_138)">
<path d="M14.7419 66.5343C18.7331 66.5302 21.9669 63.2964 21.9711 59.3058V56.9138C21.9711 52.9212 18.7345 49.6846 14.7419 49.6846C10.7493 49.6846 7.5127 52.9212 7.5127 56.9138V59.3065C7.51757 63.2964 10.7514 66.5302 14.7419 66.5343ZM10.01 56.9138C10.01 54.3008 12.1289 52.1819 14.7419 52.1819C17.3555 52.1819 19.4738 54.3008 19.4738 56.9138V59.3065C19.4738 61.9195 17.3555 64.0384 14.7419 64.0384C12.1289 64.0384 10.01 61.9195 10.01 59.3065V56.9138Z" fill="#00A9C6"/>
<path d="M64.918 56.9138V59.3066C64.918 63.2992 68.1546 66.5358 72.1472 66.5358C76.1398 66.5358 79.3764 63.2992 79.3764 59.3066V56.9138C79.3764 52.9212 76.1398 49.6846 72.1472 49.6846C68.1546 49.6846 64.918 52.9212 64.918 56.9138ZM67.4153 56.9138C67.4153 54.3008 69.5335 52.1819 72.1472 52.1819C74.7601 52.1819 76.8791 54.3008 76.8791 56.9138V59.3066C76.8763 61.9181 74.7594 64.035 72.1472 64.0385C69.5349 64.035 67.4181 61.9181 67.4153 59.3066V56.9138Z" fill="#00A9C6"/>
<path d="M79.3588 66.657H77.8482C77.3277 66.657 76.8615 66.9803 76.6789 67.468L75.2296 71.3436L74.0653 69.2643C73.8444 68.87 73.4284 68.6261 72.9762 68.6261H71.5513C71.0851 68.6261 70.6573 68.886 70.4427 69.2999L69.4895 71.1401L68.2387 67.5008C68.0659 66.997 67.5914 66.6584 67.0584 66.6584H65.3554C63.2574 66.6577 61.2555 67.5412 59.8417 69.0915C58.4272 70.6419 57.7312 72.7155 57.9235 74.8052V79.3936L49.6052 73.2876C50.2776 71.5345 50.1417 69.5744 49.2352 67.9307C48.3287 66.287 46.7435 65.1268 44.9019 64.7596V54.8938C44.9019 54.2046 44.343 53.6451 43.6532 53.6451C42.9641 53.6451 42.4046 54.2046 42.4046 54.8938V64.7596C40.563 65.1268 38.9771 66.287 38.0705 67.9321C37.164 69.5765 37.0295 71.5373 37.7026 73.2897L29.383 79.395V74.8052C29.576 72.7155 28.8806 70.6419 27.4668 69.0908C26.053 67.5405 24.0518 66.657 21.9531 66.6563H20.4432C19.922 66.6563 19.4558 66.9796 19.2733 67.468L17.8239 71.3436L16.6603 69.2643C16.4394 68.87 16.0227 68.6261 15.5705 68.6261H14.1463C13.6794 68.6261 13.2516 68.886 13.037 69.2999L12.0838 71.1394L10.833 67.5008C10.6595 66.9963 10.1857 66.6577 9.65198 66.6577H7.94973C5.851 66.6577 3.84982 67.5412 2.43534 69.0915C1.02155 70.6419 0.325457 72.7155 0.517771 74.8052V85.7511C0.517771 86.4402 1.07729 86.9997 1.76642 86.9997L28.1343 86.997C28.8241 86.997 29.383 86.4374 29.383 85.7483V82.4922L39.0426 75.4038C40.2431 76.6684 41.9105 77.384 43.6546 77.384C45.3987 77.3833 47.0654 76.667 48.266 75.4024L57.9235 82.4922V85.7511C57.9235 86.4409 58.483 86.9997 59.1721 86.9997L85.54 86.997C86.2291 86.997 86.7887 86.4374 86.7887 85.7483V74.8052C86.9817 72.7155 86.2863 70.6419 84.8725 69.0908C83.4587 67.5405 81.4568 66.657 79.3588 66.657ZM26.8926 74.6192C26.8878 74.6617 26.8857 74.7035 26.8857 74.7453V84.4997L3.01576 84.5024V74.7453C3.01576 74.7028 3.01367 74.661 3.00879 74.6192C2.86804 73.2221 3.32444 71.8306 4.2658 70.7896C5.20786 69.7479 6.54639 69.1536 7.95042 69.1543H8.76149L10.67 74.7091C10.8268 75.1648 11.2309 75.4895 11.7096 75.5445C12.1883 75.5989 12.6558 75.3731 12.9102 74.9648C12.9283 74.9362 12.945 74.907 12.9603 74.877L14.8737 71.1847L16.962 74.9139C17.1996 75.3383 17.6616 75.5856 18.1465 75.5487C18.6315 75.5118 19.0503 75.1968 19.221 74.7411L21.3093 69.1543H21.9538C23.3571 69.155 24.695 69.7493 25.6363 70.7903C26.5777 71.832 27.0341 73.2228 26.8926 74.6192ZM43.6532 74.8867C41.5224 74.8742 39.8014 73.1441 39.8 71.0133C39.7986 68.8825 41.5169 67.1496 43.6476 67.1336H43.6588C45.7903 67.1496 47.5086 68.8825 47.5072 71.0133C47.5058 73.1441 45.784 74.8742 43.6532 74.8867ZM84.2976 74.6192C84.2935 74.6617 84.2914 74.7035 84.2914 74.7453V84.4997L60.4208 84.5024V74.7453C60.4208 74.7028 60.4187 74.661 60.4145 74.6192C60.273 73.2221 60.7301 71.8306 61.6715 70.7896C62.6129 69.7479 63.9514 69.1536 65.3554 69.1543H66.1672L68.0757 74.7091C68.2318 75.1648 68.6366 75.4895 69.1153 75.5445C69.594 75.5989 70.0608 75.3731 70.3159 74.9648C70.334 74.9362 70.3507 74.907 70.366 74.877L72.2794 71.1847L74.367 74.9139C74.6046 75.3383 75.0673 75.5856 75.5522 75.5487C76.0365 75.5118 76.456 75.1968 76.626 74.7411L78.715 69.1543H79.3588C80.7628 69.155 82.1007 69.7493 83.042 70.7903C83.9827 71.832 84.4391 73.2228 84.2983 74.6192H84.2976Z" fill="#00A9C6"/>
<path d="M43.444 27.3149C47.4346 27.31 50.6691 24.0762 50.6732 20.0857V17.6936C50.6537 13.7149 47.4227 10.4999 43.444 10.4999C39.4654 10.4999 36.2344 13.7149 36.2148 17.6936V20.0857C36.2197 24.0762 39.4535 27.31 43.444 27.3149ZM38.7121 17.6929C38.7121 15.0799 40.8304 12.961 43.444 12.961C46.0577 12.961 48.1759 15.0799 48.1759 17.6929V20.0857C48.1759 22.6986 46.0577 24.8176 43.444 24.8176C40.8304 24.8176 38.7121 22.6986 38.7121 20.0857V17.6929Z" fill="#00A9C6"/>
<path d="M18.6803 27.4208H21.3713C22.0193 38.7965 31.0978 47.8764 42.4729 48.5258V51.0586C42.4729 51.7485 43.0324 52.3073 43.7215 52.3073C44.4113 52.3073 44.9702 51.7485 44.9702 51.0586V48.5258C56.3459 47.8764 65.4244 38.7965 66.0724 27.4208H68.6262C69.316 27.4208 69.8748 26.8619 69.8748 26.1721C69.8748 25.4823 69.316 24.9235 68.6262 24.9235H66.0717C65.4202 13.5505 56.3425 4.47478 44.9695 3.82537V1.24865C44.9695 0.558825 44.4106 0 43.7208 0C43.0317 0 42.4722 0.558825 42.4722 1.24865V3.82537C31.0992 4.47478 22.0221 13.5505 21.3706 24.9235H18.6803C17.9912 24.9235 17.4316 25.4823 17.4316 26.1721C17.4316 26.8619 17.9912 27.4208 18.6803 27.4208ZM31.7116 35.3997C31.5709 34.0026 32.0273 32.6111 32.9687 31.5694C33.9107 30.5284 35.2492 29.9341 36.6533 29.9341H37.4636L39.3721 35.4896C39.5303 35.9488 39.94 36.2756 40.4229 36.3257C40.9065 36.3766 41.3747 36.1425 41.6249 35.7258C41.6381 35.7035 41.6507 35.6805 41.6625 35.6575L43.5759 31.9652L45.6642 35.6944C45.9018 36.1188 46.3637 36.3661 46.8487 36.3292C47.3337 36.2923 47.7524 35.9773 47.9232 35.5216L50.0121 29.9348H50.656C52.0593 29.9348 53.3971 30.5291 54.3385 31.5708C55.2799 32.6125 55.7363 34.0033 55.5948 35.3997C55.5906 35.4422 55.5878 35.484 55.5878 35.5258V42.1258C48.4973 47.4151 38.7625 47.3726 31.7179 42.0227V35.5265C31.7186 35.484 31.7165 35.4415 31.7116 35.3997ZM43.7215 6.28713C51.6858 6.28295 58.8837 11.033 62.0122 18.3576C65.1408 25.6816 63.5953 34.1664 58.0858 39.9177V35.5857C58.2788 33.4961 57.5834 31.4217 56.1697 29.8714C54.7559 28.321 52.7547 27.4375 50.656 27.4368H49.146C48.6248 27.4368 48.1587 27.7601 47.9761 28.2485L46.5268 32.1241L45.3631 30.0449C45.1423 29.6505 44.7256 29.4059 44.2734 29.4059H42.8484C42.3823 29.4059 41.9545 29.6658 41.7398 30.0804L40.7866 31.9199L39.5366 28.2813C39.3631 27.7768 38.8886 27.4382 38.3555 27.4382H36.6526C34.5539 27.4382 32.5527 28.3217 31.1382 29.8721C29.7244 31.4231 29.0283 33.4975 29.2213 35.5871V39.772C23.794 33.9929 22.3196 25.5408 25.4705 18.2649C28.6207 10.9898 35.7934 6.28225 43.7222 6.28644L43.7215 6.28713Z" fill="#00A9C6"/>
</g>
<defs>
<clipPath id="clip0_368_138">
<rect width="87" height="87" fill="white"/>
</clipPath>
</defs>
</svg>
