<svg width="52" height="30" viewBox="0 0 52 30" fill="none" xmlns="http://www.w3.org/2000/svg">
<path fill-rule="evenodd" clip-rule="evenodd" d="M25.9748 25.4789H6.88046V2.60817H25.9748V0H7.50764C6.36096 0 5.42969 0.885454 5.42969 1.97568V27.7256H25.9748V25.4789Z" fill="#61C1D1"/>
<path fill-rule="evenodd" clip-rule="evenodd" d="M45.0753 2.60817V25.4789H25.9746V27.7256H46.526V1.97568C46.526 0.885454 45.5948 0 44.4544 0H25.9746V2.60817H45.0753Z" fill="#61C1D1"/>
<path fill-rule="evenodd" clip-rule="evenodd" d="M0 27.7255V27.8218C0 28.9542 0.962948 29.8758 2.15397 29.8758H25.9744V27.7255H0Z" fill="#61C1D1"/>
<path fill-rule="evenodd" clip-rule="evenodd" d="M25.9746 27.7255V29.8758H49.8014C50.9924 29.8758 51.9553 28.9542 51.9553 27.8218V27.7255H25.9746Z" fill="#61C1D1"/>
<path fill-rule="evenodd" clip-rule="evenodd" d="M25.3789 1.32512C25.3789 1.00588 25.645 0.75293 25.9808 0.75293C26.3102 0.75293 26.5763 1.00588 26.5763 1.32512C26.5763 1.63834 26.3102 1.89731 25.9808 1.89731C25.645 1.89731 25.3789 1.63834 25.3789 1.32512Z" fill="#61C1D1"/>
<path fill-rule="evenodd" clip-rule="evenodd" d="M18.0367 11.625C18.0367 9.95049 19.4684 8.58918 21.2296 8.58918V6.31233C20.0703 6.31233 19.1137 5.49911 18.9489 4.439C17.7643 4.7763 16.7063 5.37268 15.8257 6.15572C16.7126 6.81829 16.9724 8.01689 16.3959 8.96859C15.813 9.9263 14.5903 10.3058 13.545 9.9143C13.4056 10.4624 13.3359 11.0347 13.3359 11.625C13.3359 12.2153 13.4056 12.7874 13.545 13.3416C14.5903 12.944 15.813 13.3235 16.3959 14.2812C16.9724 15.239 16.7126 16.4315 15.8257 17.1001C16.7063 17.8832 17.7643 18.4796 18.9489 18.8169C19.1137 17.7567 20.0703 16.9375 21.2296 16.9375V14.6608C19.4684 14.6608 18.0367 13.2995 18.0367 11.625Z" fill="#61C1D1"/>
<path fill-rule="evenodd" clip-rule="evenodd" d="M28.9204 9.9143C27.8688 10.3058 26.6524 9.9263 26.0696 8.96859C25.4867 8.01689 25.7528 6.81829 26.6334 6.15572C25.7592 5.37268 24.6948 4.7763 23.5165 4.439C23.3518 5.49911 22.3952 6.31233 21.2295 6.31233V8.58918C22.9907 8.58918 24.4224 9.95049 24.4224 11.625C24.4224 13.2995 22.9907 14.6608 21.2295 14.6608V16.9375C22.3952 16.9375 23.3518 17.7567 23.5165 18.8169C24.6948 18.4796 25.7592 17.8832 26.6334 17.1001C25.7528 16.4315 25.4867 15.239 26.0696 14.2812C26.6524 13.3235 27.8688 12.944 28.9204 13.3416C29.0535 12.7874 29.1295 12.2153 29.1295 11.625C29.1295 11.0347 29.0535 10.4624 28.9204 9.9143Z" fill="#61C1D1"/>
<path fill-rule="evenodd" clip-rule="evenodd" d="M30.0917 17.7147C30.0917 16.4618 31.1624 15.4499 32.4801 15.4499V12.1071C32.0176 12.1071 31.5615 12.1552 31.1307 12.2516C31.4411 12.9985 31.1434 13.8658 30.3895 14.2814C29.6419 14.691 28.698 14.5043 28.1785 13.8779C27.564 14.4983 27.0952 15.2572 26.8291 16.0945C27.659 16.2089 28.3052 16.8895 28.3052 17.7147C28.3052 18.5399 27.659 19.2207 26.8291 19.3351C27.0952 20.1784 27.564 20.9313 28.1785 21.5517C28.698 20.9252 29.6419 20.7384 30.3895 21.154C31.1434 21.5636 31.4411 22.4311 31.1307 23.1779C31.5615 23.2743 32.0176 23.3285 32.4801 23.3285V19.9855C31.1624 19.9855 30.0917 18.9676 30.0917 17.7147Z" fill="#61C1D1"/>
<path fill-rule="evenodd" clip-rule="evenodd" d="M36.6564 17.7147C36.6564 16.8895 37.2962 16.2089 38.1261 16.0945C37.86 15.2572 37.3976 14.4983 36.7767 13.8779C36.2572 14.5043 35.3196 14.691 34.5657 14.2814C33.8182 13.8658 33.5141 12.9985 33.8245 12.2516C33.3937 12.1552 32.9439 12.1071 32.4814 12.1071V15.4499C33.7992 15.4499 34.8635 16.4618 34.8635 17.7147C34.8635 18.9676 33.7992 19.9855 32.4814 19.9855V23.3285C32.9439 23.3285 33.3937 23.2743 33.8245 23.1779C33.5141 22.4311 33.8182 21.5636 34.5657 21.154C35.3196 20.7384 36.2572 20.9252 36.7767 21.5517C37.3976 20.9313 37.86 20.1784 38.1261 19.3351C37.2962 19.2207 36.6564 18.5399 36.6564 17.7147Z" fill="#61C1D1"/>
<path fill-rule="evenodd" clip-rule="evenodd" d="M18.0367 11.625C18.0367 9.95049 19.4684 8.58918 21.2296 8.58918V6.31233C20.0703 6.31233 19.1137 5.49911 18.9489 4.439C17.7643 4.7763 16.7063 5.37268 15.8257 6.15572C16.7126 6.81829 16.9724 8.01689 16.3959 8.96859C15.813 9.9263 14.5903 10.3058 13.545 9.9143C13.4056 10.4624 13.3359 11.0347 13.3359 11.625C13.3359 12.2153 13.4056 12.7874 13.545 13.3416C14.5903 12.944 15.813 13.3235 16.3959 14.2812C16.9724 15.239 16.7126 16.4315 15.8257 17.1001C16.7063 17.8832 17.7643 18.4796 18.9489 18.8169C19.1137 17.7567 20.0703 16.9375 21.2296 16.9375V14.6608C19.4684 14.6608 18.0367 13.2995 18.0367 11.625Z" fill="#61C1D1"/>
<path fill-rule="evenodd" clip-rule="evenodd" d="M28.9204 9.9143C27.8688 10.3058 26.6524 9.9263 26.0696 8.96859C25.4867 8.01689 25.7528 6.81829 26.6334 6.15572C25.7592 5.37268 24.6948 4.7763 23.5165 4.439C23.3518 5.49911 22.3952 6.31233 21.2295 6.31233V8.58918C22.9907 8.58918 24.4224 9.95049 24.4224 11.625C24.4224 13.2995 22.9907 14.6608 21.2295 14.6608V16.9375C22.3952 16.9375 23.3518 17.7567 23.5165 18.8169C24.6948 18.4796 25.7592 17.8832 26.6334 17.1001C25.7528 16.4315 25.4867 15.239 26.0696 14.2812C26.6524 13.3235 27.8688 12.944 28.9204 13.3416C29.0535 12.7874 29.1295 12.2153 29.1295 11.625C29.1295 11.0347 29.0535 10.4624 28.9204 9.9143Z" fill="#61C1D1"/>
<path fill-rule="evenodd" clip-rule="evenodd" d="M30.0917 17.7147C30.0917 16.4618 31.1624 15.4499 32.4801 15.4499V12.1071C32.0176 12.1071 31.5615 12.1552 31.1307 12.2516C31.4411 12.9985 31.1434 13.8658 30.3895 14.2814C29.6419 14.691 28.698 14.5043 28.1785 13.8779C27.564 14.4983 27.0952 15.2572 26.8291 16.0945C27.659 16.2089 28.3052 16.8895 28.3052 17.7147C28.3052 18.5399 27.659 19.2207 26.8291 19.3351C27.0952 20.1784 27.564 20.9313 28.1785 21.5517C28.698 20.9252 29.6419 20.7384 30.3895 21.154C31.1434 21.5636 31.4411 22.4311 31.1307 23.1779C31.5615 23.2743 32.0176 23.3285 32.4801 23.3285V19.9855C31.1624 19.9855 30.0917 18.9676 30.0917 17.7147Z" fill="#61C1D1"/>
<path fill-rule="evenodd" clip-rule="evenodd" d="M36.6564 17.7147C36.6564 16.8895 37.2962 16.2089 38.1261 16.0945C37.86 15.2572 37.3976 14.4983 36.7767 13.8779C36.2572 14.5043 35.3196 14.691 34.5657 14.2814C33.8182 13.8658 33.5141 12.9985 33.8245 12.2516C33.3937 12.1552 32.9439 12.1071 32.4814 12.1071V15.4499C33.7992 15.4499 34.8635 16.4618 34.8635 17.7147C34.8635 18.9676 33.7992 19.9855 32.4814 19.9855V23.3285C32.9439 23.3285 33.3937 23.2743 33.8245 23.1779C33.5141 22.4311 33.8182 21.5636 34.5657 21.154C35.3196 20.7384 36.2572 20.9252 36.7767 21.5517C37.3976 20.9313 37.86 20.1784 38.1261 19.3351C37.2962 19.2207 36.6564 18.5399 36.6564 17.7147Z" fill="#61C1D1"/>
</svg>
