<svg width="12" height="14" viewBox="0 0 12 14" fill="none" xmlns="http://www.w3.org/2000/svg">
<path fill-rule="evenodd" clip-rule="evenodd" d="M3.62851 5.75594C4.29975 6.41155 5.12126 6.74384 6.06998 6.74384C7.01848 6.74384 7.83989 6.41144 8.51123 5.75605C9.18257 5.10055 9.52295 4.2984 9.52295 3.37181C9.52295 2.44544 9.18257 1.64329 8.51134 0.987789C7.84011 0.332289 7.01881 0 6.06998 0C5.12137 0 4.29996 0.332289 3.62862 0.987682C2.95728 1.6434 2.61701 2.44555 2.61701 3.37181C2.61701 4.2984 2.95728 5.10044 3.62851 5.75594ZM0.144997 9.88065C0.0873556 10.1949 0.0481997 10.4925 0.0288401 10.7653C0.00969982 11.0319 -3.43323e-05 11.3101 -0.000144005 11.5922C-0.000144005 12.3233 0.237746 12.915 0.706965 13.351C1.17039 13.7817 1.78322 14 2.52872 14H9.43159C10.1771 14 10.7901 13.7816 11.2534 13.351C11.7226 12.9147 11.9604 12.3231 11.9604 11.5923C11.9604 11.3115 11.9508 11.0335 11.9318 10.7656C11.9124 10.4921 11.8733 10.1945 11.8156 9.88065C11.7574 9.56406 11.6825 9.26488 11.5929 8.99134C11.5002 8.7084 11.3742 8.4293 11.2186 8.16174C11.0571 7.88414 10.8671 7.64242 10.6542 7.44333C10.4312 7.23494 10.1583 7.06756 9.84306 6.94569C9.52882 6.82414 9.18057 6.76251 8.80782 6.76251C8.66148 6.76251 8.51984 6.82115 8.24684 6.99493C8.07611 7.10356 7.87923 7.22746 7.66168 7.36322C7.47411 7.48007 7.2197 7.58955 6.90579 7.68856C6.59889 7.78544 6.28771 7.83458 5.98048 7.83458C5.67325 7.83458 5.36197 7.78544 5.05539 7.68856C4.74115 7.58944 4.48675 7.47996 4.29895 7.36311C4.07932 7.22607 3.88256 7.10217 3.71434 6.99504C3.44101 6.82126 3.29948 6.76262 3.15314 6.76262C2.7805 6.76262 2.43214 6.82414 2.11779 6.94559C1.80236 7.06767 1.52957 7.23504 1.30678 7.44322C1.09372 7.64221 0.90384 7.88403 0.742184 8.16174C0.586434 8.4293 0.460434 8.7085 0.367793 8.99123C0.278106 9.26478 0.203184 9.56406 0.144997 9.88065Z" fill="#00A9C6"/>
</svg>
