<svg width="87" height="87" viewBox="0 0 87 87" fill="none" xmlns="http://www.w3.org/2000/svg">
<g clip-path="url(#clip0_368_109)">
<path d="M39.1504 5.79999H42.0504V8.69999H39.1504V5.79999Z" fill="#00A9C6"/>
<path d="M44.9502 5.79999H47.8502V8.69999H44.9502V5.79999Z" fill="#00A9C6"/>
<path d="M39.1504 11.6H42.0504V14.5H39.1504V11.6Z" fill="#00A9C6"/>
<path d="M44.9502 11.6H47.8502V14.5H44.9502V11.6Z" fill="#00A9C6"/>
<path d="M39.1504 17.4H42.0504V20.3H39.1504V17.4Z" fill="#00A9C6"/>
<path d="M44.9502 17.4H47.8502V20.3H44.9502V17.4Z" fill="#00A9C6"/>
<path d="M39.1504 23.2H42.0504V26.1H39.1504V23.2Z" fill="#00A9C6"/>
<path d="M44.9502 23.2H47.8502V26.1H44.9502V23.2Z" fill="#00A9C6"/>
<path d="M39.1504 29H42.0504V31.9H39.1504V29Z" fill="#00A9C6"/>
<path d="M44.9502 29H47.8502V31.9H44.9502V29Z" fill="#00A9C6"/>
<path d="M56.5498 29H59.4498V31.9H56.5498V29Z" fill="#00A9C6"/>
<path d="M56.5498 34.8H59.4498V37.7H56.5498V34.8Z" fill="#00A9C6"/>
<path d="M56.5498 40.6H59.4498V43.5H56.5498V40.6Z" fill="#00A9C6"/>
<path d="M56.5498 46.4H59.4498V49.3H56.5498V46.4Z" fill="#00A9C6"/>
<path d="M27.5498 29H30.4498V31.9H27.5498V29Z" fill="#00A9C6"/>
<path d="M27.5498 34.8H30.4498V37.7H27.5498V34.8Z" fill="#00A9C6"/>
<path d="M27.5498 40.6H30.4498V43.5H27.5498V40.6Z" fill="#00A9C6"/>
<path d="M27.5498 46.4H30.4498V49.3H27.5498V46.4Z" fill="#00A9C6"/>
<path d="M85.55 14.5H84.1V10.15C84.1 9.34924 83.4508 8.7 82.65 8.7H66.7C65.8992 8.7 65.25 9.34924 65.25 10.15V14.5H63.8C62.9992 14.5 62.35 15.1492 62.35 15.95V23.2H59.45V10.15C59.45 9.34924 58.8008 8.7 58 8.7H53.65V1.45C53.65 0.649243 53.0008 0 52.2 0H34.8C33.9992 0 33.35 0.649243 33.35 1.45V8.7H29C28.1992 8.7 27.55 9.34924 27.55 10.15V23.2H24.65V15.95C24.65 15.1492 24.0008 14.5 23.2 14.5H21.75V10.15C21.75 9.34924 21.1008 8.7 20.3 8.7H4.35C3.54924 8.7 2.9 9.34924 2.9 10.15V14.5H1.45C0.649243 14.5 0 15.1492 0 15.95V47.85H2.9V17.4H21.75V36.25H24.65V26.1H33.35V34.8H36.25V2.9H50.75V34.8H53.65V26.1H62.35V43.5H65.25V17.4H84.1V47.85H87V15.95C87 15.1492 86.3508 14.5 85.55 14.5ZM5.8 14.5V11.6H18.85V14.5H5.8ZM30.45 23.2V11.6H33.35V23.2H30.45ZM53.65 23.2V11.6H56.55V23.2H53.65ZM68.15 14.5V11.6H81.2V14.5H68.15Z" fill="#00A9C6"/>
<path d="M68.1504 20.3H73.9504V23.2H68.1504V20.3Z" fill="#00A9C6"/>
<path d="M76.8496 20.3H82.6496V23.2H76.8496V20.3Z" fill="#00A9C6"/>
<path d="M68.1504 26.1H73.9504V29H68.1504V26.1Z" fill="#00A9C6"/>
<path d="M76.8496 26.1H82.6496V29H76.8496V26.1Z" fill="#00A9C6"/>
<path d="M79.75 49.3H79.7125C80.6718 48.0525 81.1943 46.5239 81.2 44.95V42.05C81.2 38.0462 77.9538 34.8 73.95 34.8C69.9462 34.8 66.7 38.0462 66.7 42.05V44.95C66.7057 46.5239 67.2282 48.0525 68.1875 49.3H68.15C64.9399 49.2979 62.0356 51.206 60.7634 54.1534L58.725 58.4914L56.6951 54.181C55.4306 51.2187 52.52 49.2979 49.3 49.3H49.2625C50.2218 48.0525 50.7443 46.5239 50.75 44.95V42.05C50.75 38.0462 47.5038 34.8 43.5 34.8C39.4962 34.8 36.25 38.0462 36.25 42.05V44.95C36.2557 46.5239 36.7782 48.0525 37.7375 49.3H37.7C34.4991 49.3007 31.6033 51.1996 30.3268 54.1343L28.2764 58.4843L26.2466 54.169C24.9778 51.2116 22.0679 49.2958 18.85 49.3H18.8125C19.7718 48.0525 20.2943 46.5239 20.3 44.95V42.05C20.3 38.0462 17.0538 34.8 13.05 34.8C9.04622 34.8 5.8 38.0462 5.8 42.05V44.95C5.80566 46.5239 6.32817 48.0525 7.28752 49.3H7.25C3.24763 49.305 0.00495606 52.5476 0 56.55V69.6C0 70.4008 0.649243 71.05 1.45 71.05H5.8V84.1H0V87H87V84.1H81.2V71.05H85.55C86.3508 71.05 87 70.4008 87 69.6V56.55C86.995 52.5476 83.7524 49.305 79.75 49.3ZM69.6 44.95V42.05C69.6 39.6477 71.5477 37.7 73.95 37.7C76.3523 37.7 78.3 39.6477 78.3 42.05V44.95C78.3 47.3523 76.3523 49.3 73.95 49.3C71.5477 49.3 69.6 47.3523 69.6 44.95ZM39.15 44.95V42.05C39.15 39.6477 41.0977 37.7 43.5 37.7C45.9023 37.7 47.85 39.6477 47.85 42.05V44.95C47.85 47.3523 45.9023 49.3 43.5 49.3C41.0977 49.3 39.15 47.3523 39.15 44.95ZM8.7 44.95V42.05C8.7 39.6477 10.6477 37.7 13.05 37.7C15.4523 37.7 17.4 39.6477 17.4 42.05V44.95C17.4 47.3523 15.4523 49.3 13.05 49.3C10.6477 49.3 8.7 47.3523 8.7 44.95ZM14.5 84.1V69.6H11.6V84.1H8.7V56.55H5.8V68.15H2.9V56.55C2.9 54.1477 4.84773 52.2 7.25 52.2H18.85C20.9259 52.2028 22.7986 53.4503 23.6 55.3655L29.616 68.15H25.5463L20.1549 57.3522C19.8589 56.7405 19.1785 56.4169 18.5179 56.572C17.8567 56.7277 17.3922 57.321 17.4 58V84.1H14.5ZM32.2915 70.9919C32.3319 70.9785 32.3715 70.9629 32.4105 70.9459C32.4926 70.9162 32.5712 70.8794 32.6469 70.8355C32.7546 70.764 32.8551 70.6818 32.9471 70.5905C32.9825 70.5523 33.0158 70.5119 33.047 70.4701C33.0746 70.4404 33.1008 70.4093 33.1256 70.3774C33.1468 70.3413 33.1574 70.3016 33.1772 70.2655C33.1978 70.2294 33.2119 70.2174 33.2254 70.1884L36.25 63.3823V84.1H20.3V64.142L23.3522 70.2478C23.5979 70.7399 24.1006 71.05 24.65 71.05H31.9C32.0324 71.0493 32.1641 71.0295 32.2915 70.9919ZM44.95 84.1V71.05H42.05V84.1H39.15V56.55C39.15 55.8647 38.6707 55.2735 38.0009 55.1312C37.3311 54.9888 36.6529 55.3351 36.3746 55.9616L31.8625 66.1117L29.8786 61.8948L32.9712 55.3188C33.3698 54.3885 34.0332 53.5962 34.88 53.0411C35.7155 52.4875 36.6975 52.195 37.7 52.2H49.3C51.3766 52.2043 53.2471 53.4539 54.0472 55.3698L57.1199 61.8948L55.0596 66.2752L50.6049 57.3522C50.3089 56.7405 49.6285 56.4169 48.9679 56.572C48.3067 56.7277 47.8422 57.321 47.85 58V84.1H44.95ZM63.6754 70.1884L66.7 63.3823V84.1H50.75V64.142L53.7951 70.2478C53.8051 70.2684 53.8228 70.2846 53.8341 70.3031C53.8454 70.3222 53.8532 70.354 53.8674 70.3774C53.8978 70.4178 53.9304 70.456 53.9644 70.4935C53.9955 70.5353 54.0281 70.5749 54.0635 70.6139C54.1194 70.6663 54.1796 70.7144 54.2433 70.7583C54.2837 70.7873 54.3198 70.8192 54.3623 70.844C54.4359 70.885 54.5138 70.9197 54.5938 70.9473C54.6334 70.9615 54.6695 70.982 54.7099 70.9934C54.8366 71.0295 54.9683 71.0486 55.1 71.05H62.35C62.9235 71.05 63.4425 70.7123 63.6754 70.1884ZM84.1 68.15H81.2V55.1H78.3V84.1H75.4V69.6H72.5V84.1H69.6V56.55C69.6 55.8647 69.1207 55.2735 68.4509 55.1312C67.7811 54.9888 67.1029 55.3351 66.8246 55.9616L61.4091 68.15H57.384L63.4 55.3655C63.4071 55.3492 63.4127 55.3351 63.4184 55.3188C64.2291 53.4256 66.0904 52.1986 68.15 52.2H79.75C82.1523 52.2 84.1 54.1477 84.1 56.55V68.15Z" fill="#00A9C6"/>
<path d="M5.7998 20.3H18.8498V23.2H5.7998V20.3Z" fill="#00A9C6"/>
<path d="M5.7998 26.1H18.8498V29H5.7998V26.1Z" fill="#00A9C6"/>
</g>
<defs>
<clipPath id="clip0_368_109">
<rect width="87" height="87" fill="white"/>
</clipPath>
</defs>
</svg>
