<svg width="50" height="50" viewBox="0 0 50 50" fill="none" xmlns="http://www.w3.org/2000/svg">
<path d="M41.2005 24.1667V42.5H36.2005C35.7403 42.5 35.3672 42.8731 35.3672 43.3333V48.3333H4.53385V1.66667H41.2005V12.5H42.8672V0.833333C42.8672 0.373125 42.4941 0 42.0339 0H3.70052C3.24031 0 2.86719 0.373125 2.86719 0.833333V49.1667C2.86719 49.6269 3.24031 50 3.70052 50H36.2005C36.4215 49.9995 36.6332 49.9118 36.7897 49.7558L42.623 43.9225C42.6927 43.8517 42.7492 43.769 42.7897 43.6783C42.8014 43.6525 42.808 43.6275 42.8172 43.6008C42.8411 43.5308 42.8557 43.458 42.8605 43.3842C42.8605 43.3667 42.8705 43.3508 42.8705 43.3333V24.1667H41.2005ZM37.0339 47.155V44.1667H40.0222L37.0339 47.155Z" fill="#00A9C6"/>
<path d="M46.373 13.9942C45.3442 13.0107 43.7235 13.0107 42.6947 13.9942L28.1114 28.5775C27.9551 28.7338 27.8672 28.9457 27.8672 29.1667V31.6667C27.8672 32.1269 28.2403 32.5 28.7005 32.5H31.2005C31.4216 32.5 31.6334 32.4121 31.7897 32.2559L46.373 17.6726C47.387 16.6561 47.387 15.0107 46.373 13.9942ZM30.8555 30.8334H29.5339V29.5117L39.9505 19.0951L41.2722 20.4167L30.8555 30.8334ZM42.4505 19.2384L41.1289 17.9167L42.0339 17.0117L43.3555 18.3334L42.4505 19.2384ZM45.1947 16.4942L44.5339 17.1551L43.2122 15.8334L43.873 15.1726C44.2428 14.8193 44.8249 14.8193 45.1947 15.1726C45.558 15.5382 45.558 16.1286 45.1947 16.4942Z" fill="#00A9C6"/>
<path d="M10.3665 10.8333C8.5256 10.8333 7.0332 12.3257 7.0332 14.1667C7.0332 16.0076 8.5256 17.5 10.3665 17.5C12.2075 17.5 13.6999 16.0076 13.6999 14.1667C13.6999 12.3257 12.2075 10.8333 10.3665 10.8333ZM10.3665 15.8333C9.44602 15.8333 8.69987 15.0872 8.69987 14.1667C8.69987 13.2462 9.44602 12.5 10.3665 12.5C11.2871 12.5 12.0332 13.2462 12.0332 14.1667C12.0332 15.0872 11.287 15.8333 10.3665 15.8333Z" fill="#00A9C6"/>
<path d="M25.9557 3.92247L24.7773 2.74414L22.8665 4.65497L20.9557 2.74414L19.7773 3.92247L21.6882 5.83331L19.7773 7.74414L20.9557 8.92247L22.8665 7.01164L24.7773 8.92247L25.9557 7.74414L24.0448 5.83331L25.9557 3.92247Z" fill="#00A9C6"/>
<path d="M33.7005 10C31.8596 10 30.3672 11.4924 30.3672 13.3333C30.3672 15.1743 31.8596 16.6667 33.7005 16.6667C35.5415 16.6667 37.0339 15.1743 37.0339 13.3333C37.0339 11.4924 35.5415 10 33.7005 10ZM33.7005 15C32.78 15 32.0339 14.2539 32.0339 13.3333C32.0339 12.4128 32.78 11.6667 33.7005 11.6667C34.621 11.6667 35.3672 12.4128 35.3672 13.3333C35.3672 14.2539 34.6209 15 33.7005 15Z" fill="#00A9C6"/>
<path d="M12.8665 34.1667C11.0256 34.1667 9.5332 35.6591 9.5332 37.5C9.5332 39.341 11.0256 40.8334 12.8665 40.8334C14.7075 40.8334 16.1999 39.341 16.1999 37.5C16.1999 35.6591 14.7075 34.1667 12.8665 34.1667ZM12.8665 39.1667C11.946 39.1667 11.1999 38.4205 11.1999 37.5C11.1999 36.5795 11.946 35.8334 12.8665 35.8334C13.7871 35.8334 14.5332 36.5795 14.5332 37.5C14.5332 38.4205 13.787 39.1667 12.8665 39.1667Z" fill="#00A9C6"/>
<path d="M16.7897 23.0892L15.6113 21.9108L13.7005 23.8217L11.7897 21.9108L10.6113 23.0892L12.5222 25L10.6113 26.9108L11.7897 28.0892L13.7005 26.1783L15.6113 28.0892L16.7897 26.9108L14.8788 25L16.7897 23.0892Z" fill="#00A9C6"/>
<path d="M37.6227 34.7558L36.4443 33.5775L34.5335 35.4883L32.6227 33.5775L31.4443 34.7558L33.3552 36.6667L31.4443 38.5775L32.6227 39.7558L34.5335 37.845L36.4443 39.7558L37.6227 38.5775L35.7118 36.6667L37.6227 34.7558Z" fill="#00A9C6"/>
<path d="M18.0723 16.6667H19.4889V15H16.1556C15.6954 15 15.3223 15.3731 15.3223 15.8333V19.1667H16.9889V18C20.6038 22.6607 20.3436 29.2457 16.3723 33.6067L17.6064 34.7283C22.2252 29.6588 22.4235 21.9676 18.0723 16.6667Z" fill="#00A9C6"/>
<path d="M22.8665 38.3333C21.0256 38.3333 19.5332 39.8257 19.5332 41.6667C19.5332 43.5076 21.0256 45 22.8665 45C24.7075 45 26.1999 43.5076 26.1999 41.6667C26.1999 39.8257 24.7075 38.3333 22.8665 38.3333ZM22.8665 43.3333C21.946 43.3333 21.1999 42.5872 21.1999 41.6667C21.1999 40.7462 21.946 40 22.8665 40C23.7871 40 24.5332 40.7462 24.5332 41.6667C24.5332 42.5872 23.787 43.3333 22.8665 43.3333Z" fill="#00A9C6"/>
<path d="M28.4563 11.9108L25.9563 9.41083L24.778 10.5892L25.8555 11.6667H15.3672V13.3333H25.8555L24.778 14.4108L25.9563 15.5892L28.4563 13.0892C28.7817 12.7637 28.7817 12.2362 28.4563 11.9108Z" fill="#00A9C6"/>
<path d="M30.3666 16.6667H27.0333V18.3333H28.3833C24.2902 22.6909 22.0183 28.4489 22.0333 34.4275V36.6667H23.6999V34.4275C23.6862 28.9051 25.7713 23.5837 29.5333 19.5408V20.8333H31.2V17.5C31.2 17.0398 30.8268 16.6667 30.3666 16.6667Z" fill="#00A9C6"/>
</svg>
