<svg width="87" height="87" viewBox="0 0 87 87" fill="none" xmlns="http://www.w3.org/2000/svg">
<path d="M87 33.6438C87 30.5215 84.9904 27.8206 82.0003 26.9223L72.9677 24.2139V22.0837C75.583 20.257 77.1774 17.2416 77.1774 14.0323V9.82258C77.1774 4.40632 72.7711 0 67.3548 0C61.9386 0 57.5323 4.40632 57.5323 9.82258V14.0323C57.5323 17.243 59.1266 20.257 61.7419 22.0837V24.2139L55.4274 26.1084L49.1129 24.2139V22.0837C51.7282 20.257 53.3226 17.2416 53.3226 14.0323V9.82258C53.3226 4.40632 48.9163 0 43.5 0C38.0837 0 33.6774 4.40632 33.6774 9.82258V14.0323C33.6774 17.243 35.2718 20.257 37.8871 22.0837V24.2139L31.5726 26.1084L25.2581 24.2139V22.0837C27.8734 20.257 29.4677 17.2416 29.4677 14.0323V9.82258C29.4677 4.40632 25.0614 0 19.6452 0C14.2289 0 9.82258 4.40632 9.82258 9.82258V14.0323C9.82258 17.243 11.417 20.257 14.0323 22.0837V24.2139L4.99968 26.9237C2.0096 27.8206 0 30.5215 0 33.6438V46.3064H7.01613V63.1452H23.8548V75.7742H14.0323V87H36.4839V75.7742H26.6613V63.1452H30.871V64.1572L32.6867 64.7628C32.9278 65.6316 33.2732 66.4641 33.7192 67.2507L32.8621 68.9643L36.2776 72.3812L37.9912 71.5241C38.7778 71.9688 39.6103 72.3141 40.4791 72.5553L41.0848 74.371H45.9152L46.5195 72.5539C47.3883 72.3127 48.2201 71.9674 49.0074 71.5227L50.721 72.3799L54.1366 68.9629L53.2794 67.2493C53.7241 66.4607 54.0694 65.6303 54.312 64.7615L56.129 64.1572V63.1452H60.3387V75.7742H50.5161V87H72.9677V75.7742H63.1452V63.1452H79.9839V46.3064H87V33.6438ZM33.6774 84.1936H16.8387V78.5806H33.6774V84.1936ZM70.1613 84.1936H53.3226V78.5806H70.1613V84.1936ZM67.3548 2.80645C70.7423 2.80645 73.5769 5.22167 74.2291 8.41935H70.4922C68.6573 8.41935 66.819 7.98564 65.1753 7.16344L64.2702 6.71191L63.5549 7.42723C62.9266 8.05759 62.0523 8.41935 61.1609 8.41935H60.4805C61.1328 5.22167 63.9674 2.80645 67.3548 2.80645ZM60.3387 14.0323V11.2258H61.1609C62.4757 11.2258 63.7262 10.8188 64.7718 10.0651C66.5758 10.827 68.5347 11.2258 70.4922 11.2258H74.371V14.0323C74.371 16.5215 73.0267 18.8483 70.8615 20.1029L70.1613 20.5085V24.5071L67.3548 26.3776L64.5484 24.5071V20.5085L63.8481 20.1029C61.683 18.8483 60.3387 16.5215 60.3387 14.0323ZM43.5 2.80645C46.8875 2.80645 49.722 5.22167 50.3743 8.41935H46.6374C44.8025 8.41935 42.9642 7.98564 41.3205 7.16344L40.4154 6.71191L39.7001 7.42723C39.0718 8.05759 38.1975 8.41935 37.3061 8.41935H36.6257C37.278 5.22167 40.1125 2.80645 43.5 2.80645ZM36.4839 14.0323V11.2258H37.3061C38.6209 11.2258 39.8713 10.8188 40.9169 10.0651C42.721 10.827 44.6799 11.2258 46.6374 11.2258H50.5161V14.0323C50.5161 16.5215 49.1718 18.8483 47.0067 20.1029L46.3064 20.5085V24.5071L43.5 26.3776L40.6935 24.5071V20.5085L39.9933 20.1029C37.8282 18.8483 36.4839 16.5215 36.4839 14.0323ZM39.0615 26.7915L43.5 29.7514L47.9385 26.7915L57.3384 29.6109C59.1335 30.1495 60.3387 31.7706 60.3387 33.6438V43.5H26.6613V33.6438C26.6613 31.7706 27.8665 30.1495 29.6616 29.6109L39.0615 26.7915ZM19.6452 2.80645C23.0326 2.80645 25.8672 5.22167 26.5195 8.41935H25.8391C24.9477 8.41935 24.0734 8.05759 23.4437 7.42723L22.7277 6.71191L21.8226 7.16344C20.181 7.98564 18.3427 8.41935 16.5078 8.41935H12.7709C13.4231 5.22167 16.2577 2.80645 19.6452 2.80645ZM12.629 14.0323V11.2258H16.5078C18.4653 11.2258 20.4242 10.827 22.2282 10.0651C23.2738 10.8188 24.5256 11.2258 25.8391 11.2258H26.6613V14.0323C26.6613 16.5215 25.317 18.8483 23.1519 20.1029L22.4516 20.5085V24.5071L19.6452 26.3776L16.8387 24.5071V20.5085L16.1385 20.1029C13.9733 18.8483 12.629 16.5215 12.629 14.0323ZM2.80645 33.6438C2.80645 31.7706 4.01166 30.1495 5.80681 29.6109L15.2066 26.7901L19.6452 29.7514L24.0837 26.7915L27.1526 27.7123C25.1334 28.9683 23.8548 31.1656 23.8548 33.6438V43.5H2.80645V33.6438ZM53.3226 62.1332L51.9139 62.6018L51.7535 63.4007C51.5391 64.4758 51.1198 65.4843 50.5093 66.4018L50.0571 67.0787L50.7224 68.4086L50.1681 68.9643L48.8395 68.2976L48.1612 68.7498C47.2451 69.3617 46.2352 69.7783 45.1602 69.9941L44.3613 70.1531L43.8912 71.5645H43.1088L42.6387 70.1544L41.8398 69.9955C40.7648 69.781 39.7562 69.3631 38.8388 68.7512L38.1605 68.299L36.8319 68.9657L36.2776 68.41L36.9429 67.0801L36.4907 66.4031C35.8789 65.4871 35.4609 64.4771 35.2465 63.4021L35.0861 62.6032L33.6774 62.1332V61.3493L35.0861 60.8807L35.2465 60.0818C35.4609 59.0054 35.8802 57.9968 36.4907 57.0807L36.9429 56.4038L36.2776 55.0725L36.8319 54.5182L38.1605 55.1849L38.8388 54.7327C39.7549 54.1208 40.7648 53.7042 41.8398 53.4884L42.6387 53.3294L43.1088 51.9194H43.8912L44.3613 53.3294L45.1602 53.4884C46.2352 53.7029 47.2438 54.1208 48.1612 54.7327L48.8395 55.1849L50.1681 54.5182L50.7224 55.0725L50.0571 56.4038L50.5093 57.0807C51.1211 57.9954 51.5391 59.0054 51.7535 60.0818L51.9139 60.8807L53.3226 61.3507V62.1332ZM77.1774 60.3387H56.129V59.3267L54.3133 58.721C54.0722 57.8522 53.7268 57.0184 53.2808 56.2332L54.1379 54.5182L50.7224 51.1026L49.0088 51.9598C48.2222 51.5151 47.3897 51.1698 46.5209 50.9286L45.9152 49.1129H41.0848L40.4805 50.93C39.6117 51.1712 38.7799 51.5165 37.9926 51.9611L36.279 51.104L32.8634 54.5196L33.7206 56.2345C33.2759 57.0218 32.9306 57.8536 32.688 58.7224L30.871 59.3267V60.3387H9.82258V46.3064H77.1774V60.3387ZM84.1936 43.5H63.1452V33.6438C63.1452 31.1656 61.8666 28.9683 59.8474 27.7123L62.9163 26.7915L67.3548 29.7514L71.7934 26.7915L81.1932 29.6109C82.9883 30.1495 84.1936 31.7706 84.1936 33.6438V43.5Z" fill="#00A9C6"/>
<path d="M43.4996 56.129C40.404 56.129 37.8867 58.6463 37.8867 61.7419C37.8867 64.8375 40.404 67.3548 43.4996 67.3548C46.5952 67.3548 49.1125 64.8375 49.1125 61.7419C49.1125 58.6463 46.5952 56.129 43.4996 56.129ZM43.4996 64.5484C41.9518 64.5484 40.6932 63.2897 40.6932 61.7419C40.6932 60.1941 41.9518 58.9355 43.4996 58.9355C45.0474 58.9355 46.3061 60.1941 46.3061 61.7419C46.3061 63.2897 45.0474 64.5484 43.4996 64.5484Z" fill="#00A9C6"/>
<path d="M12.6289 54.7258H15.4354V57.5323H12.6289V54.7258Z" fill="#00A9C6"/>
<path d="M18.2422 54.7258H21.0486V57.5323H18.2422V54.7258Z" fill="#00A9C6"/>
<path d="M23.8555 54.7258H26.6619V57.5323H23.8555V54.7258Z" fill="#00A9C6"/>
<path d="M60.3389 54.7258H63.1453V57.5323H60.3389V54.7258Z" fill="#00A9C6"/>
<path d="M65.9512 54.7258H68.7576V57.5323H65.9512V54.7258Z" fill="#00A9C6"/>
<path d="M71.5645 54.7258H74.3709V57.5323H71.5645V54.7258Z" fill="#00A9C6"/>
</svg>
