<svg width="52" height="52" viewBox="0 0 52 52" fill="none" xmlns="http://www.w3.org/2000/svg">
<path d="M47.6802 12.9579H47.1531C46.8415 11.8636 46.4063 10.8137 45.853 9.82105L46.2276 9.44629C46.6563 9.01781 46.8922 8.44633 46.8922 7.83707C46.8922 7.22782 46.6563 6.65644 46.2273 6.22745L43.731 3.73405C43.3023 3.30273 42.7301 3.06528 42.1197 3.06528C41.5094 3.06528 40.9372 3.30273 40.5106 3.73192L40.1364 4.10617C39.143 3.55114 38.0927 3.11505 36.9991 2.80356V2.27657C36.9992 1.02129 35.978 0 34.7226 0H31.1932C29.9379 0 28.9166 1.02129 28.9166 2.27657V2.80356C27.8232 3.11494 26.7723 3.55114 25.7769 4.10658L25.4044 3.73405C24.9755 3.30273 24.4033 3.06528 23.793 3.06538C23.1828 3.06538 22.6106 3.30293 22.184 3.73202L19.6882 6.22796C19.2595 6.65644 19.0236 7.22792 19.0236 7.83718C19.0236 8.44643 19.2595 9.01781 19.6881 9.44629L20.0626 9.82094C19.507 10.8166 19.0715 11.8668 18.7616 12.9579H18.2326C16.9773 12.9579 15.9561 13.9792 15.9561 15.2345V18.767C15.9561 20.0222 16.9773 21.0435 18.2326 21.0435H18.7616C19.0715 22.1346 19.507 23.1847 20.0626 24.1805L19.6881 24.5552C19.2594 24.9836 19.0235 25.5551 19.0235 26.1644C19.0235 26.7735 19.2594 27.345 19.688 27.7735L22.1819 30.2674C22.6106 30.6987 23.1827 30.9362 23.7929 30.9362H23.793C24.4033 30.9362 24.9756 30.6987 25.4022 30.2695L25.7768 29.8949C26.7732 30.4508 27.8241 30.8864 28.9165 31.1962V31.725C28.9165 32.9803 29.9378 34.0015 31.1931 34.0015H34.7225C35.9778 34.0015 36.9991 32.9803 36.9991 31.725V31.1962C38.0917 30.8863 39.1419 30.4509 40.1364 29.8953L40.5085 30.2674C40.9372 30.6987 41.5093 30.9362 42.1196 30.9362C42.73 30.9362 43.3023 30.6986 43.7284 30.2699L46.2276 27.7735C46.6562 27.3449 46.8921 26.7734 46.8921 26.1643C46.8921 25.555 46.6562 24.9836 46.2276 24.5552L45.8529 24.1804C46.4062 23.1878 46.8413 22.1378 47.153 21.0435H47.6801C48.9354 21.0435 49.9567 20.0222 49.9567 18.767V15.2345C49.9568 13.9792 48.9356 12.9579 47.6802 12.9579ZM34.968 31.7249C34.968 31.8579 34.8556 31.9702 34.7226 31.9702H31.1932C31.0601 31.9702 30.9478 31.8579 30.9478 31.7249V30.4063V24.0037C30.9478 23.579 30.6836 23.1991 30.2854 23.0515C27.5563 22.0393 25.7228 19.4128 25.7228 16.5157C25.7228 14.2197 26.866 12.0675 28.7804 10.7589C28.8664 10.7001 28.9423 10.6522 29.0087 10.6129C29.0051 10.7449 28.9957 10.8705 28.9908 10.936C28.9831 11.0391 28.9771 11.1204 28.9771 11.2011V15.9945C28.9771 18.1946 30.6962 20.032 32.8906 20.1775C32.9353 20.1805 32.9802 20.1805 33.025 20.1775C35.2179 20.0321 36.9357 18.1947 36.9357 15.9945V11.2011C36.9357 11.1208 36.9297 11.04 36.9222 10.9375C36.9173 10.8717 36.908 10.7454 36.9044 10.6128C36.9706 10.652 37.0462 10.6998 37.1318 10.7584C39.0467 12.0673 40.19 14.2196 40.19 16.5156C40.19 19.4124 38.3574 22.039 35.6299 23.0515C35.2319 23.1992 34.9678 23.579 34.9678 24.0036V30.4062V31.7249H34.968ZM47.9256 18.767C47.9256 18.8977 47.8109 19.0123 47.6802 19.0123H46.3646C45.8901 19.0123 45.4788 19.3409 45.3741 19.8037C45.0525 21.2248 44.4954 22.5686 43.7184 23.7978C43.4647 24.1992 43.523 24.7228 43.8587 25.0586L44.7916 25.9914C44.8521 26.0519 44.8611 26.1257 44.8611 26.1643C44.8611 26.2028 44.8521 26.2766 44.7919 26.3367L42.2905 28.8353C42.2334 28.8928 42.166 28.9049 42.1197 28.9049C42.0735 28.9049 42.0063 28.8928 41.947 28.8331L41.0141 27.9002C40.6779 27.5641 40.1537 27.5062 39.7524 27.7605C38.8854 28.3098 37.9627 28.7457 36.9992 29.0679V24.6792C40.15 23.2128 42.2214 20.0175 42.2214 16.5155C42.2214 13.5482 40.7472 10.7691 38.2783 9.08149C37.9001 8.82302 36.7499 8.03664 35.744 8.61563C34.7562 9.18437 34.8546 10.5175 34.8966 11.0869C34.9002 11.1363 34.9038 11.1779 34.9046 11.2011V15.9945C34.9046 17.1061 34.0549 18.0382 32.9579 18.1453C31.8593 18.0381 31.0084 17.106 31.0084 15.9945L31.0082 11.2085C31.0092 11.1779 31.0128 11.1363 31.0165 11.0867C31.0588 10.5176 31.1581 9.18518 30.1711 8.61614C29.1655 8.03613 28.0137 8.82281 27.6347 9.08149C25.1656 10.7692 23.6916 13.5483 23.6916 16.5156C23.6916 20.0181 25.7641 23.2137 28.9166 24.6796V29.068C27.9529 28.7458 27.029 28.3097 26.1596 27.7601C25.9924 27.6545 25.8043 27.603 25.6171 27.603C25.3548 27.603 25.0946 27.7044 24.8987 27.9004L23.964 28.8353C23.9068 28.8929 23.8394 28.905 23.7931 28.905C23.7468 28.905 23.6797 28.8929 23.6204 28.8333L21.1244 26.3372C21.0638 26.2767 21.0548 26.2029 21.0548 26.1644C21.0548 26.1258 21.0638 26.052 21.1244 25.9914L22.0572 25.0586C22.3929 24.7228 22.4512 24.1992 22.1975 23.7978C21.4165 22.5621 20.8596 21.2189 20.5422 19.8054C20.4382 19.3418 20.0265 19.0122 19.5513 19.0122H18.2328C18.1021 19.0122 17.9875 18.8976 17.9875 18.7668V15.2344C17.9875 15.1013 18.0998 14.989 18.2328 14.989H19.5513C20.0265 14.989 20.4381 14.6595 20.5422 14.1958C20.8596 12.7823 21.4164 11.439 22.1975 10.2034C22.4512 9.80206 22.3929 9.27841 22.0572 8.94266L21.1243 8.00983C21.0638 7.9493 21.0548 7.87557 21.0548 7.83697C21.0548 7.79838 21.0638 7.72465 21.1244 7.66402L23.6225 5.16585C23.6797 5.10836 23.7469 5.09628 23.7932 5.09628C23.8395 5.09628 23.9068 5.10836 23.9661 5.16798L24.8988 6.10081C25.2348 6.43666 25.7584 6.49486 26.1597 6.24116C27.3937 5.46098 28.7385 4.90291 30.1562 4.58269C30.6193 4.47808 30.948 4.06666 30.948 3.59207V2.27657C30.948 2.14352 31.0603 2.0312 31.1934 2.0312H34.7228C34.8558 2.0312 34.9682 2.14352 34.9682 2.27657V3.59228C34.9682 4.06697 35.2969 4.47828 35.7599 4.58289C37.1789 4.90341 38.5222 5.46118 39.7526 6.24086C40.154 6.49516 40.6781 6.43727 41.0143 6.10111L41.9492 5.16615C42.0064 5.10867 42.0737 5.09658 42.1199 5.09658C42.1662 5.09658 42.2335 5.10867 42.2932 5.16869L44.7918 7.66432C44.8523 7.72485 44.8613 7.79858 44.8613 7.83718C44.8613 7.87577 44.8523 7.9495 44.7917 8.01013L43.8589 8.94296C43.5232 9.27872 43.4649 9.80236 43.7186 10.2037C44.4955 11.4329 45.0527 12.7766 45.3743 14.1979C45.479 14.6607 45.8903 14.9892 46.3648 14.9892H47.6804C47.8135 14.9892 47.9258 15.1016 47.9258 15.2346V18.767H47.9256Z" fill="#00A9C6"/>
<path d="M38.8756 44.719C38.479 45.1156 38.479 45.7587 38.8756 46.1554C39.0739 46.3536 39.3338 46.4529 39.5937 46.4529C39.8536 46.4529 40.1135 46.3536 40.3119 46.1554L40.3147 46.1525C40.7113 45.7559 40.7099 45.1143 40.3132 44.7177C39.9165 44.3211 39.2722 44.3226 38.8756 44.719Z" fill="#00A9C6"/>
<path d="M43.5806 34.8807L35.5176 39.0214C34.8341 38.3135 33.8764 37.8719 32.817 37.8719H27.2926C26.9832 37.8719 26.9077 37.8474 26.9026 37.8456C26.8578 37.8221 26.7162 37.689 26.6026 37.5822L26.5522 37.5349C22.0828 33.3275 18.3073 33.5941 14.0138 35.2886C13.3192 35.5628 13.3058 35.5634 12.6081 35.5931L11.359 35.5941C11.0031 34.5205 9.99034 33.7435 8.79894 33.7435H4.73695C3.25143 33.7435 2.04297 34.9534 2.04297 36.4405V47.1011C2.04297 48.5865 3.25143 49.7951 4.73695 49.7951H8.79894C9.99024 49.7951 11.0029 49.0191 11.3589 47.9468H13.644C13.8458 47.9468 13.8458 47.9468 14.0805 48.0129C14.1658 48.037 14.2696 48.0662 14.4036 48.1023L24.9145 50.9143C25.3778 51.0394 25.8027 51.1626 26.2137 51.2816C27.5604 51.6718 28.6924 51.9999 29.8722 51.9999C31.2057 51.9999 32.6 51.5808 34.4339 50.3586C34.4427 50.3528 34.4515 50.3467 34.4603 50.3405L36.4669 48.9096C36.9236 48.5839 37.0299 47.9497 36.7041 47.493C36.3784 47.0362 35.7441 46.9301 35.2877 47.2558L33.2944 48.6771C30.6331 50.4472 29.503 50.12 26.779 49.3307C26.3594 49.2091 25.9255 49.0834 25.442 48.9528L14.9303 46.1407C14.8072 46.1075 14.7106 46.0803 14.6314 46.058C14.2479 45.9499 14.1045 45.9158 13.6441 45.9158H11.4959V37.6261H12.5934C12.608 37.6261 12.6225 37.6258 12.6371 37.6252L12.695 37.6227C13.5464 37.5864 13.7845 37.5631 14.7597 37.1781C18.5305 35.69 21.4412 35.5132 25.1614 39.0153L25.2116 39.0625C25.8474 39.66 26.2135 39.9033 27.2927 39.9033H32.8171C33.4655 39.9033 34.0309 40.2633 34.3256 40.7935C34.3288 40.7994 34.3324 40.805 34.3357 40.8109C34.4673 41.0543 34.5422 41.3328 34.5422 41.6285C34.5422 42.5782 33.7685 43.3508 32.8172 43.3508H23.864C23.3032 43.3508 22.8484 43.8055 22.8484 44.3664C22.8484 44.9273 23.3032 45.382 23.864 45.382H32.8172C34.8885 45.382 36.5734 43.6982 36.5734 41.6285C36.5734 41.3472 36.5414 41.0734 36.4824 40.8097L44.5085 36.6879C45.2682 36.2979 46.3069 36.3397 46.8227 37.1766C47.2789 37.9142 47.0279 38.8947 46.2393 39.4569L42.7185 41.9644C42.2616 42.2898 42.155 42.9239 42.4804 43.3809C42.6785 43.659 42.9911 43.8074 43.3085 43.8074C43.5123 43.8074 43.7181 43.7462 43.8967 43.619L47.4179 41.1112C49.0902 39.919 49.5769 37.7681 48.5509 36.1096C47.542 34.4722 45.4054 33.9439 43.5806 34.8807ZM9.46456 47.1011C9.46456 47.4604 9.15978 47.7639 8.79894 47.7639H4.73695C4.37763 47.7639 4.07417 47.4603 4.07417 47.1011V36.4406C4.07417 36.0735 4.37153 35.7748 4.73695 35.7748H8.79894C9.15978 35.7748 9.46456 36.0796 9.46456 36.4406V47.1011Z" fill="#00A9C6"/>
</svg>
