<svg width="33" height="38" viewBox="0 0 33 38" fill="none" xmlns="http://www.w3.org/2000/svg">
<path fill-rule="evenodd" clip-rule="evenodd" d="M0.360352 11.4837H11.4381V32.0792H2.82368C1.46403 32.0792 0.360352 30.9756 0.360352 29.6159V11.4837ZM1.63967 12.763V29.6159C1.63967 30.269 2.17058 30.7999 2.82368 30.7999H10.1588V12.763H1.63967Z" fill="#61C1D1"/>
<path fill-rule="evenodd" clip-rule="evenodd" d="M10.1582 11.4837H21.236V29.6159C21.236 30.9774 20.132 32.0792 18.7727 32.0792H10.1582V11.4837ZM11.4375 12.763V30.7999H18.7727C19.4261 30.7999 19.9567 30.2702 19.9567 29.6159V12.763H11.4375Z" fill="#61C1D1"/>
<path fill-rule="evenodd" clip-rule="evenodd" d="M10.1582 0.360291H19.2476V12.7615H10.1582V0.360291ZM11.4375 1.63961V11.4822H17.9683V1.63961H11.4375ZM12.2564 4.189H16.5121V8.44631H12.2564V4.189ZM13.5357 5.46831V7.16699H15.2328V5.46831H13.5357Z" fill="#61C1D1"/>
<path fill-rule="evenodd" clip-rule="evenodd" d="M2.34473 0.360291H11.4356V12.7615H2.34473V0.360291ZM3.62404 1.63961V11.4822H10.1563V1.63961H3.62404ZM5.08179 4.189H9.33903V8.44631H5.08179V4.189ZM6.36111 5.46831V7.16699H8.05971V5.46831H6.36111Z" fill="#61C1D1"/>
<path fill-rule="evenodd" clip-rule="evenodd" d="M10.7979 13.6733H1.69629V12.853H10.7979V13.6733Z" fill="#61C1D1"/>
<path fill-rule="evenodd" clip-rule="evenodd" d="M19.8979 13.6733H10.7979V12.853H19.8979V13.6733Z" fill="#61C1D1"/>
<path fill-rule="evenodd" clip-rule="evenodd" d="M15.1149 29.5248C12.1949 24.374 12.6691 19.4533 12.6691 19.4533C12.6691 19.4533 15.1316 18.7808 17.5424 17.5656C19.6679 16.4952 21.5602 14.5313 21.5602 14.5313V12.6817C21.5602 12.6817 19.3356 14.9872 16.838 16.2467C14.0033 17.6739 11.1108 18.4653 11.1108 18.4653C11.1108 18.4653 10.5527 24.2489 13.985 30.3024C17.2771 36.1119 21.5588 37.5132 21.5588 37.5132V35.6621C21.5588 35.6621 17.9145 34.4697 15.1134 29.5263L15.1149 29.5248Z" fill="#61C1D1"/>
<path fill-rule="evenodd" clip-rule="evenodd" d="M32.0116 18.4653C32.0116 18.4653 29.119 17.6739 26.2844 16.2467C23.7868 14.9872 21.562 12.6817 21.562 12.6817V14.5313C21.562 14.5313 23.4559 16.4936 25.5799 17.5656C27.9922 18.7808 30.4532 19.4533 30.4532 19.4533C30.4532 19.4533 30.9274 24.3755 28.0074 29.5248C25.2048 34.4682 21.5605 35.6605 21.5605 35.6605V37.5117C21.5605 37.5117 25.8422 36.1119 29.1358 30.3009C32.5666 24.2474 32.01 18.4638 32.01 18.4638L32.0116 18.4653Z" fill="#61C1D1"/>
<path fill-rule="evenodd" clip-rule="evenodd" d="M16.7112 23.5669C16.7112 22.5742 17.5163 21.7691 18.5105 21.7691V20.4197C17.8563 20.4197 17.3166 19.9363 17.2236 19.3081C16.5587 19.5079 15.961 19.8615 15.4655 20.3235C15.9626 20.7184 16.112 21.426 15.7841 21.9917C15.4563 22.559 14.7686 22.7846 14.1785 22.5498C14.1023 22.8761 14.0596 23.2162 14.0596 23.5654C14.0596 23.9146 14.1008 24.2546 14.1785 24.5809C14.7686 24.3476 15.4563 24.5732 15.7841 25.1389C16.1105 25.7046 15.9626 26.4137 15.4655 26.8071C15.9595 27.2722 16.5587 27.6244 17.2236 27.8241C17.315 27.1944 17.8548 26.7125 18.5105 26.7125V25.3631C17.5178 25.3631 16.7112 24.558 16.7112 23.5654V23.5669Z" fill="#61C1D1"/>
<path fill-rule="evenodd" clip-rule="evenodd" d="M22.8383 22.5572C22.2482 22.7921 21.5604 22.5665 21.2326 21.9993C20.9063 21.4336 21.0542 20.7245 21.5513 20.3311C21.0573 19.8675 20.458 19.5153 19.7932 19.3155C19.7017 19.9438 19.162 20.4271 18.5078 20.4271V21.7765C19.5005 21.7765 20.3056 22.5816 20.3056 23.5743C20.3056 24.5669 19.5005 25.372 18.5078 25.372V26.7216C19.162 26.7216 19.7017 27.2034 19.7932 27.8332C20.458 27.6334 21.0573 27.2797 21.5513 26.8161C21.0542 26.4227 20.9063 25.7152 21.2326 25.1479C21.5604 24.5807 22.2482 24.355 22.8383 24.5898C22.913 24.2635 22.9557 23.925 22.9557 23.5743C22.9557 23.2251 22.913 22.8852 22.8383 22.5589V22.5572Z" fill="#61C1D1"/>
<path fill-rule="evenodd" clip-rule="evenodd" d="M17.0898 23.5718C17.0898 24.3555 17.7257 24.9913 18.5095 24.9913V22.1522C17.7257 22.1522 17.0898 22.7865 17.0898 23.5718Z" fill="#61C1D1"/>
<path fill-rule="evenodd" clip-rule="evenodd" d="M19.9274 23.5718C19.9274 22.788 19.2916 22.1522 18.5078 22.1522V24.9913C19.2916 24.9913 19.9274 24.3555 19.9274 23.5718Z" fill="#61C1D1"/>
<path fill-rule="evenodd" clip-rule="evenodd" d="M23.5001 27.1738C23.5001 26.4312 24.1008 25.8289 24.8434 25.8289V23.8498C24.5827 23.8498 24.328 23.8803 24.0856 23.9382C24.2609 24.3789 24.0917 24.8927 23.6678 25.1366C23.2454 25.3806 22.7163 25.2709 22.4205 24.8988C22.0744 25.2678 21.8106 25.716 21.6611 26.2116C22.1308 26.2802 22.4906 26.6844 22.4906 27.1738C22.4906 27.6618 22.1308 28.0658 21.6611 28.1344C21.8121 28.6315 22.0744 29.0799 22.4205 29.4473C22.7148 29.0753 23.2439 28.9654 23.6678 29.2094C24.0902 29.4534 24.2594 29.9688 24.0856 30.4094C24.328 30.4674 24.5827 30.4979 24.8434 30.4979V28.5171C24.1008 28.5171 23.5001 27.9164 23.5001 27.1753V27.1738Z" fill="#61C1D1"/>
<path fill-rule="evenodd" clip-rule="evenodd" d="M27.195 27.1738C27.195 26.6844 27.5563 26.2817 28.026 26.2116C27.875 25.716 27.6128 25.2663 27.2666 24.8988C26.9723 25.2709 26.4417 25.3806 26.0194 25.1366C25.597 24.8927 25.4277 24.3789 25.6031 23.9382C25.3591 23.8803 25.106 23.8498 24.8438 23.8498V25.8289C25.5863 25.8289 26.1871 26.4312 26.1871 27.1738C26.1871 27.9149 25.5848 28.5156 24.8438 28.5156V30.4964C25.106 30.4964 25.3591 30.4659 25.6031 30.4079C25.4277 29.9673 25.597 29.4534 26.0194 29.2079C26.4417 28.9639 26.9723 29.0737 27.2666 29.4457C27.6128 29.0782 27.8765 28.63 28.026 28.1329C27.5563 28.0643 27.195 27.6618 27.195 27.1723V27.1738Z" fill="#61C1D1"/>
<path fill-rule="evenodd" clip-rule="evenodd" d="M23.7832 27.1744C23.7832 27.76 24.2589 28.2342 24.8445 28.2342V26.1132C24.2589 26.1132 23.7832 26.5874 23.7832 27.1744Z" fill="#61C1D1"/>
<path fill-rule="evenodd" clip-rule="evenodd" d="M25.905 27.1744C25.905 26.5889 25.4293 26.1132 24.8438 26.1132V28.2342C25.4293 28.2342 25.905 27.76 25.905 27.1744Z" fill="#61C1D1"/>
<path fill-rule="evenodd" clip-rule="evenodd" d="M32.0116 18.4653C32.0116 18.4653 29.119 17.6739 26.2844 16.2467C23.7868 14.9872 21.562 12.6817 21.562 12.6817V14.5313C21.562 14.5313 23.4559 16.4936 25.5799 17.5656C27.9922 18.7808 30.4532 19.4533 30.4532 19.4533C30.4532 19.4533 30.9274 24.3755 28.0074 29.5248C25.2048 34.4682 21.5605 35.6605 21.5605 35.6605V37.5117C21.5605 37.5117 25.8422 36.1119 29.1358 30.3009C32.5666 24.2474 32.01 18.4638 32.01 18.4638L32.0116 18.4653Z" fill="#61C1D1"/>
<path fill-rule="evenodd" clip-rule="evenodd" d="M16.7112 23.5669C16.7112 22.5742 17.5163 21.7691 18.5105 21.7691V20.4197C17.8563 20.4197 17.3166 19.9363 17.2236 19.3081C16.5587 19.5079 15.961 19.8615 15.4655 20.3235C15.9626 20.7184 16.112 21.426 15.7841 21.9917C15.4563 22.559 14.7686 22.7846 14.1785 22.5498C14.1023 22.8761 14.0596 23.2162 14.0596 23.5654C14.0596 23.9146 14.1008 24.2546 14.1785 24.5809C14.7686 24.3476 15.4563 24.5732 15.7841 25.1389C16.1105 25.7046 15.9626 26.4137 15.4655 26.8071C15.9595 27.2722 16.5587 27.6244 17.2236 27.8241C17.315 27.1944 17.8548 26.7125 18.5105 26.7125V25.3631C17.5178 25.3631 16.7112 24.558 16.7112 23.5654V23.5669Z" fill="#61C1D1"/>
<path fill-rule="evenodd" clip-rule="evenodd" d="M22.8383 22.5572C22.2482 22.7921 21.5604 22.5665 21.2326 21.9993C20.9063 21.4336 21.0542 20.7245 21.5513 20.3311C21.0573 19.8675 20.458 19.5153 19.7932 19.3155C19.7017 19.9438 19.162 20.4271 18.5078 20.4271V21.7765C19.5005 21.7765 20.3056 22.5816 20.3056 23.5743C20.3056 24.5669 19.5005 25.372 18.5078 25.372V26.7216C19.162 26.7216 19.7017 27.2034 19.7932 27.8332C20.458 27.6334 21.0573 27.2797 21.5513 26.8161C21.0542 26.4227 20.9063 25.7152 21.2326 25.1479C21.5604 24.5807 22.2482 24.355 22.8383 24.5898C22.913 24.2635 22.9557 23.925 22.9557 23.5743C22.9557 23.2251 22.913 22.8852 22.8383 22.5589V22.5572Z" fill="#61C1D1"/>
<path fill-rule="evenodd" clip-rule="evenodd" d="M17.0898 23.5718C17.0898 24.3555 17.7257 24.9913 18.5095 24.9913V22.1522C17.7257 22.1522 17.0898 22.7865 17.0898 23.5718Z" fill="#61C1D1"/>
<path fill-rule="evenodd" clip-rule="evenodd" d="M19.9274 23.5718C19.9274 22.788 19.2916 22.1522 18.5078 22.1522V24.9913C19.2916 24.9913 19.9274 24.3555 19.9274 23.5718Z" fill="#61C1D1"/>
<path fill-rule="evenodd" clip-rule="evenodd" d="M23.5001 27.1738C23.5001 26.4312 24.1008 25.8289 24.8434 25.8289V23.8498C24.5827 23.8498 24.328 23.8803 24.0856 23.9382C24.2609 24.3789 24.0917 24.8927 23.6678 25.1366C23.2454 25.3806 22.7163 25.2709 22.4205 24.8988C22.0744 25.2678 21.8106 25.716 21.6611 26.2116C22.1308 26.2802 22.4906 26.6844 22.4906 27.1738C22.4906 27.6618 22.1308 28.0658 21.6611 28.1344C21.8121 28.6315 22.0744 29.0799 22.4205 29.4473C22.7148 29.0753 23.2439 28.9654 23.6678 29.2094C24.0902 29.4534 24.2594 29.9688 24.0856 30.4094C24.328 30.4674 24.5827 30.4979 24.8434 30.4979V28.5171C24.1008 28.5171 23.5001 27.9164 23.5001 27.1753V27.1738Z" fill="#61C1D1"/>
<path fill-rule="evenodd" clip-rule="evenodd" d="M27.195 27.1738C27.195 26.6844 27.5563 26.2817 28.026 26.2116C27.875 25.716 27.6128 25.2663 27.2666 24.8988C26.9723 25.2709 26.4417 25.3806 26.0194 25.1366C25.597 24.8927 25.4277 24.3789 25.6031 23.9382C25.3591 23.8803 25.106 23.8498 24.8438 23.8498V25.8289C25.5863 25.8289 26.1871 26.4312 26.1871 27.1738C26.1871 27.9149 25.5848 28.5156 24.8438 28.5156V30.4964C25.106 30.4964 25.3591 30.4659 25.6031 30.4079C25.4277 29.9673 25.597 29.4534 26.0194 29.2079C26.4417 28.9639 26.9723 29.0737 27.2666 29.4457C27.6128 29.0782 27.8765 28.63 28.026 28.1329C27.5563 28.0643 27.195 27.6618 27.195 27.1723V27.1738Z" fill="#61C1D1"/>
<path fill-rule="evenodd" clip-rule="evenodd" d="M23.7832 27.1744C23.7832 27.76 24.2589 28.2342 24.8445 28.2342V26.1132C24.2589 26.1132 23.7832 26.5874 23.7832 27.1744Z" fill="#61C1D1"/>
<path fill-rule="evenodd" clip-rule="evenodd" d="M25.905 27.1744C25.905 26.5889 25.4293 26.1132 24.8438 26.1132V28.2342C25.4293 28.2342 25.905 27.76 25.905 27.1744Z" fill="#61C1D1"/>
</svg>
