<svg width="27" height="31" viewBox="0 0 27 31" fill="none" xmlns="http://www.w3.org/2000/svg">
<path fill-rule="evenodd" clip-rule="evenodd" d="M15.2268 27.1368L11.3263 26.8033L19.1392 15.1971L11.6003 3.69801L15.4531 3.3943L12.958 0L0 0.0417254L10.2723 15.0184L0.035692 30.2453L13.0533 30.3405L15.2268 27.1368Z" fill="#FEFEFE"/>
<path fill-rule="evenodd" clip-rule="evenodd" d="M16.2807 27.2259L17.7218 24.8737L24.0698 15.2624C23.0515 13.3866 18.49 6.80043 17.7218 5.37124L16.4713 3.29297L15.4529 3.39416L11.6001 3.69787L19.1391 15.1969L11.3262 26.8031L16.2807 27.2259Z" fill="#EBECEC"/>
<path fill-rule="evenodd" clip-rule="evenodd" d="M17.7227 24.8736H20.2177L26.9469 15.1194L20.6703 5.37109H17.7227L24.0707 15.2623C24.0707 15.429 18.3301 23.7362 17.7227 24.8736Z" fill="#D9DADA"/>
</svg>
