<svg width="74" height="66" viewBox="0 0 74 66" fill="none" xmlns="http://www.w3.org/2000/svg">
<path fill-rule="evenodd" clip-rule="evenodd" d="M34.9372 58.1698V58.3258L35.0074 58.4741L35.0855 58.6225L35.1557 58.7004L35.2337 58.8486L35.3118 58.997L35.382 59.1453L35.4601 59.2232L35.5381 59.3716L35.6083 59.5198L35.6863 59.6681L35.7566 59.7462L35.8347 59.8944L35.9127 60.3471L34.789 60.425L34.7811 57.9513L34.9372 58.1698ZM73.465 55.8521V61.7673L34.3363 61.8454L34.4065 61.9936V62.22L34.3363 62.3682V62.4463L34.188 62.5244L33.9617 62.5945L33.8135 62.6726L33.6573 62.7428L33.4388 62.8209L33.2828 62.8912L33.0642 62.9691L32.9082 63.0472L32.6897 63.1175L32.5336 63.1954L32.3073 63.2736L32.0887 63.3437L31.9405 63.4218L31.7142 63.4921L31.4878 63.57L31.2616 63.6481L31.0352 63.7182L30.8089 63.7964L30.5905 63.8667L30.3641 63.9446L30.1378 64.0227L29.9115 64.093L29.615 64.1709L29.3886 64.2412L29.0843 64.3192L28.8657 64.3973L28.5614 64.4676L28.2648 64.5455L27.9605 64.6158L27.664 64.6937L27.3674 64.7719L26.9851 64.8422L26.6182 64.9201L26.2358 64.9904L25.8612 65.0685L25.4165 65.1464L24.9638 65.2167L24.5112 65.2946L23.9181 65.3728L23.3874 65.4431L22.6382 65.521L21.7408 65.5913L20.539 65.6692H16.7931L15.5211 65.5913L14.6236 65.521L13.9447 65.4431L13.2736 65.3728L12.743 65.2946L12.2201 65.2167L11.6972 65.1464L11.2446 65.0685L10.87 64.9904L10.4954 64.9201L10.1208 64.8422L9.74619 64.7719L9.37161 64.6937L8.99704 64.6158L8.70049 64.5455L8.39613 64.4676L8.09958 64.3973L7.79521 64.3192L7.49866 64.2412L7.1943 64.1709L6.89775 64.093L6.6715 64.0227L6.44515 63.9446L6.1486 63.8667L5.92226 63.7964L5.6258 63.7182L5.39946 63.6481L5.17312 63.57L4.94677 63.4921L4.72833 63.4218L4.50199 63.3437L4.27565 63.2736L4.12742 63.1954L3.90108 63.1175L3.67483 63.0472L3.44848 62.9691L3.30016 62.8912L3.07391 62.8209L2.92559 62.7428L2.69934 62.6726L2.55102 62.5945L2.32467 62.5244L2.17645 62.4463V62.3682L2.09843 62.142V61.9936L2.17645 61.8454L2.25447 61.6972L2.32467 61.5489L2.40279 61.3927L2.473 61.2445L2.55102 61.0962H2.69934L2.92559 61.1742L3.07391 61.2445L3.22214 61.3226L3.44848 61.3927L3.59671 61.4708L3.82306 61.5489L4.0494 61.619L4.19763 61.6972L4.42397 61.7673L4.65031 61.8454L4.87656 61.9235L5.02489 61.9936L5.25113 62.0717L5.47748 62.142L5.69601 62.22L5.92226 62.2981L6.22662 62.3682L6.44515 62.4463L6.6715 62.5244L6.97586 62.5945L7.1943 62.6726L7.49866 62.7428L7.725 62.8209L8.02156 62.8912L8.32592 62.9691L8.62247 63.0472L8.91902 63.1175L9.30141 63.1954L9.59796 63.2736L9.97253 63.3437L10.2691 63.4218L10.7217 63.4921L11.0962 63.57L11.5489 63.6481L11.9937 63.7182L12.4464 63.7964L12.9692 63.8667L13.4921 63.9446L14.171 64.0227L14.8422 64.093L15.7474 64.1709L17.0897 64.2412H20.2425L21.5145 64.1709L22.4119 64.093L23.0908 64.0227L23.6917 63.9446L24.2146 63.8667L24.7375 63.7964L25.1901 63.7182L25.6427 63.6481L26.0173 63.57L26.392 63.4921L26.6885 63.4218L27.0631 63.3437L27.3674 63.2736L27.664 63.1954L27.9605 63.1175L28.2648 63.0472L28.5614 62.9691L28.8657 62.8912L29.0843 62.8209L29.3106 62.7428L29.615 62.6726L29.8334 62.5945L30.0597 62.5244L30.2861 62.4463L30.5123 62.3682L30.7387 62.2981L30.965 62.22L31.1836 62.142L31.4098 62.0717L31.5581 61.9936L31.7844 61.9235L32.0107 61.8454L32.1746 61.8063L27.8122 61.7673V61.6972L27.8902 61.619L27.9605 61.5489L28.0386 61.4708L28.1166 61.3226L28.1868 61.2445L28.2648 61.1742L28.3351 61.0962L28.4131 61.0181L28.4912 60.948L28.5614 60.8699L28.6395 60.7996L28.7097 60.7217L28.7877 60.6436L28.8657 60.4953L28.936 60.4172L29.0141 60.3471L29.0843 60.269L29.1623 60.1987L29.2403 60.1208L29.3106 60.0505H29.3886L29.4588 60.4172H30.965V58.4741V58.3961H31.4098V60.425L32.6897 60.3471V58.4741H33.1345V60.425L34.3363 60.3471L34.2582 57.124L34.188 56.9758L34.11 56.8977L34.0319 56.7494L33.9617 56.6012L33.8837 56.4452L33.8135 56.3749L33.7354 56.2266L33.6573 56.0706L33.5871 55.9222L33.5091 55.8521L33.4388 55.696L33.3608 55.5476L33.2828 55.3994L33.2126 55.3212L33.1345 55.173L33.0642 55.0248H32.9862L32.9082 55.0951L32.838 55.173L32.7599 55.2511L32.6897 55.3212L32.6116 55.3994L32.5336 55.4775L32.4633 55.5476L32.3853 55.6257L32.3073 55.696L32.2371 55.7739L32.159 55.8521L32.0887 55.9222L32.0107 56.0003L31.9405 56.0706L31.8625 56.1485L31.7844 56.2266L31.7142 56.2967L31.6362 56.3749L31.5581 56.4452L31.4878 56.5231L31.4098 56.6012L31.3396 56.6715L31.2616 56.7494L31.1836 56.8197L31.1133 56.8977L31.0352 56.9758L30.965 57.0461L30.887 57.124L30.8089 57.2021L30.7387 57.2722L30.6607 57.3503L30.5905 57.4206L30.5123 57.4986L30.4343 57.5689L30.3641 57.647L30.2861 57.7249L30.2158 57.7952L30.1378 57.8731L30.0597 57.9513L29.9895 58.0216L29.9115 58.0995L29.8334 58.1698L29.7632 58.2477L29.6852 58.3258L29.615 58.3961L29.5369 58.4741L29.4588 58.5444L29.3886 58.6225L29.3106 58.7004L29.2403 58.7707L29.1623 58.8486L29.0843 58.9189L29.0141 58.997L28.936 59.075L28.8657 59.1453L28.7877 59.2232L28.7097 59.2935L28.6395 59.3716L28.5614 59.4495L28.4912 59.5198L28.4131 59.598L28.3351 59.6681L28.2648 59.7462L28.1868 59.8241L28.1166 59.8944L28.0386 59.9725L27.9605 60.0505L27.8902 60.1208L27.8122 60.1987L27.742 60.269L27.664 60.3471L27.5859 60.4172L27.5157 60.4953L27.4377 60.5734L27.3674 60.6436L27.2893 60.7217L27.2113 60.7996L27.1411 60.8699L27.0631 60.948L26.9851 61.0181L26.9148 61.0962L26.8367 61.1742L26.7665 61.2445L26.6885 61.3226L26.6182 61.3927L26.5402 61.4708L26.4622 61.5489L26.392 61.619L26.3138 61.6972L26.2358 61.7673L26.0876 61.8454L26.0173 61.9235L25.791 61.9936H25.1121L24.9638 61.9235L24.8156 61.8454L24.6672 61.7673L24.5892 61.6972L24.5112 61.619L24.441 61.5489L24.3629 61.4708L24.2927 61.3927L24.2146 61.3226L24.1366 61.2445L24.0663 61.1742L23.9883 61.0962L23.9181 61.0181L23.8401 60.948L23.762 60.8699L23.6917 60.7996L23.6137 60.7217L23.5435 60.6436L23.4655 60.5734L23.3874 60.4953L23.3172 60.4172L23.2392 60.3471L23.1689 60.269L23.0908 60.1987L23.0128 60.1208L22.9426 60.0505L22.8646 59.9725L22.7944 59.8944L22.7163 59.8241L22.6382 59.7462L22.568 59.6681L22.49 59.598L22.4119 59.5198L22.3417 59.4495L22.2637 59.3716L22.1935 59.2935L22.1153 59.2232L22.0451 59.1453L21.9671 59.075L21.8891 58.997L21.8189 58.9189L21.7408 58.8486L21.6628 58.7707L21.5925 58.7004L21.5145 58.6225L21.4442 58.5444L21.3662 58.4741L21.2882 58.3961L21.218 58.3258L21.1399 58.2477L21.0696 58.1698L20.9916 58.0995L20.9136 58.0216L20.8434 57.9513L20.7653 57.8731L20.6951 57.7952L20.6171 57.7249L20.539 57.647L20.4687 57.5689L20.3907 57.4986L20.3205 57.4206L20.2425 57.3503L20.1644 57.2722L20.0942 57.2021L20.0161 57.124L19.9459 57.0461L19.8679 56.9758L19.7898 56.8977L19.7196 56.8197L19.6416 56.7494L19.5635 56.6715L19.4932 56.6012L19.4152 56.5231L19.345 56.4452L19.267 56.3749L19.1889 56.2967L19.1187 56.2266L19.0407 56.1485L18.9704 56.0706L18.8924 56.0003L18.8143 55.9222L18.7441 55.8521L18.6661 55.7739L18.5959 55.696L18.5178 55.6257L18.4397 55.5476L18.3695 55.4775L18.2915 55.3994L18.2212 55.3212L18.1432 55.2511L18.0652 55.173L17.995 55.0951L17.9169 55.0248L17.8466 54.9467L17.7686 54.8766L17.6906 54.7984L17.6204 54.7283L17.5423 54.6502L17.4721 54.5721L17.394 54.502L17.316 54.4239L17.2457 54.3458L17.1677 54.2757L17.0897 54.1975L17.0195 54.1274L16.9415 53.9712L16.8711 53.9011L16.7931 53.7528L16.7229 53.4484V53.1519L16.7931 52.8475L16.8711 52.6992L16.9415 52.551L17.0195 52.4729L17.0897 52.4026L17.1677 52.3247L17.2457 52.2466L17.316 52.1764L17.394 52.0983L17.4721 52.028L17.5423 51.9501L17.6204 51.872L17.6906 51.8019L17.7686 51.7238L17.8466 51.6535L17.9169 51.5755L17.995 51.4974L18.0652 51.4271L18.1432 51.3492L18.2212 51.2789L18.2915 51.201L18.3695 51.1228L18.4397 51.0525L18.5178 50.9746L18.5959 50.9043L18.6661 50.8264L18.7441 50.7483L18.8143 50.678L18.8924 50.6L18.9704 50.5219L19.0407 50.4516L19.1187 50.3737L19.1889 50.3034L19.267 50.2255L19.345 50.1552L19.4152 50.0771L19.4932 49.9991L19.5635 49.9288L19.6416 49.8509L19.7196 49.7728L19.7898 49.7025L19.8679 49.6246L19.9459 49.5543L20.0161 49.4761L20.0942 49.3982L20.1644 49.3279L20.2425 49.25L20.3205 49.1797L20.3907 49.1016L20.4687 49.0236L20.539 48.9533L20.6171 48.8754L20.6951 48.8051L20.7653 48.727L20.8434 48.6491L20.9136 48.5788L20.9916 48.5007L21.0696 48.4305L21.1399 48.3524L21.218 48.2745L21.2882 48.2042L21.3662 48.1261L21.4442 48.056L21.5145 47.9779L21.5925 47.8999L21.6628 47.8296L21.7408 47.7515L21.8189 47.6736L21.8891 47.6033L21.9671 47.5252L22.0451 47.4551L22.1153 47.3769L22.1935 47.3068L22.2637 47.2287L22.3417 47.1506L22.4119 47.0805L22.49 47.0024L22.568 46.9244L22.6382 46.8541L22.7163 46.776L22.7944 46.7059L22.8646 46.6278L22.9426 46.5497L23.0128 46.4796L23.0908 46.4015L23.1689 46.3313L23.2392 46.2532L23.3172 46.1751L23.3874 46.105L23.4655 46.0269L23.5435 45.9566L23.6137 45.8787L23.6917 45.8005L23.762 45.7304L23.8401 45.6523L23.9181 45.582L23.9883 45.5041L24.0663 45.426L24.1366 45.3559L24.2146 45.2777L24.2927 45.1996L24.3629 45.1295L24.441 45.0514L24.5112 44.9811L24.5892 44.9032L24.6672 44.8329L24.7375 44.7549L24.8156 44.6768L24.8936 44.6065L24.9638 44.5286L25.0418 44.4505L25.1121 44.3804L25.1901 44.3022L25.2681 44.2319L25.3384 44.154L25.4165 44.0759L25.4867 44.0056L25.5647 43.9277L25.6427 43.8574L25.713 43.7794L25.791 43.7013L25.8612 43.631V43.5531L25.791 43.3268L25.713 43.1785V42.9522L25.5647 43.0301L25.4867 43.1082L25.4165 43.1785L25.3384 43.2565L25.2681 43.3268L25.1901 43.4049L25.1121 43.4828L25.0418 43.5531L24.9638 43.631L24.8936 43.7013L24.8156 43.7794L24.7375 43.8574L24.6672 43.9277H24.5892L24.5112 40.1037L24.441 39.8775L24.3629 39.659L24.2927 39.5029L24.2146 39.2844L24.1366 39.1282L24.0663 38.9098L23.9883 38.7536L23.9181 38.5353L23.8401 38.379L23.762 38.1605L23.6917 37.9343L23.6137 37.7859L23.5435 37.5598L23.4655 37.4113L23.3874 37.185L23.3172 37.029L23.2392 36.8104L23.1689 36.6544L23.0908 36.4359L23.0128 36.2095L22.9426 36.0613L22.8646 35.8349L22.7944 35.6867L22.7163 35.4604L22.6382 35.3121L22.568 35.0858L22.49 34.8595L22.4119 34.7112L22.3417 34.4849L22.2637 34.3367L22.1935 34.1103L22.1153 33.9621L22.0451 33.7357L21.9671 33.5875L21.8891 33.3612L21.8189 33.1348L21.7408 32.9866L21.6628 32.7603L21.5925 32.612L21.5145 32.3857L21.4442 32.2375L21.3662 32.0111L21.2882 31.7848L21.218 31.6365L21.1399 31.4102L21.0696 31.262L20.9916 31.0356L20.9136 30.8874L20.8434 30.6611L20.7653 30.5128L20.6951 30.2865L20.6171 30.0601L20.539 29.9119L20.4687 29.6856L20.3907 29.5373L20.3205 29.311L20.2425 29.1628L20.1644 28.9364L20.0942 28.788L20.0161 28.5619L19.9459 28.3355L19.8679 28.1873L19.7898 27.9609L19.7196 27.8125L19.6416 27.5864L19.5635 27.4379L19.4932 27.2118L19.4152 26.9855L19.345 26.837L19.267 26.6109L19.1889 26.4625L19.1187 26.2363L19.0407 26.0879L18.9704 25.8615L18.8924 25.7133L18.8143 25.487L18.7441 25.2608L18.6661 25.1124L18.5959 24.8861L18.5178 24.7378L18.4397 24.5115L18.3695 24.3633L18.2915 24.1369L18.2525 23.9809L18.2212 24.215L18.1432 24.3633L18.0652 24.5896L17.995 24.7378L17.9169 24.9642L17.8466 25.1124L17.7686 25.3387L17.6906 25.5651L17.6204 25.7133L17.5423 25.9397L17.4721 26.0879L17.394 26.3142L17.316 26.4625L17.2457 26.6888L17.1677 26.837L17.0897 27.0634L17.0195 27.2897L16.9415 27.4379L16.8711 27.6643L16.7931 27.8125L16.7229 28.0389L16.6449 28.1873L16.5668 28.4134L16.4966 28.5619L16.4186 28.788L16.3405 29.0143L16.2702 29.1628L16.1922 29.3889L16.122 29.5373L16.044 29.7635L15.966 29.9119L15.8957 30.1383L15.8176 30.3644L15.7474 30.5128L15.6694 30.739L15.5913 30.8874L15.5211 31.1137L15.4431 31.262L15.3729 31.4883L15.2947 31.6365L15.2167 31.8629L15.1465 32.0892L15.0685 32.2375L14.9982 32.456L14.9202 32.612L14.8422 32.8384L14.7719 32.9866L14.6939 33.2129L14.6236 33.3612L14.5456 33.5875L14.4676 33.806L14.3974 33.9621L14.3193 34.1806L14.2412 34.3367L14.171 34.5552L14.093 34.7112L14.0227 34.9376L13.9447 35.0858L13.8667 35.3121L13.7965 35.5307L13.7184 35.6867L13.6481 35.9053L13.5701 36.0613L13.4921 36.2798L13.4219 36.4359L13.3438 36.6544L13.2736 36.8807L13.1955 37.029L13.1175 37.2553L13.0472 37.4113L12.9692 37.6299L12.899 37.7859L12.821 38.0045L12.743 38.1605L12.6726 38.379L12.5946 38.6054L12.5244 38.7536L12.4464 38.9799L12.3683 39.1282L12.2981 39.3545L12.2201 39.5029L12.1498 39.7291L12.0717 39.8775L11.9937 40.1037L11.9235 40.33L11.8455 40.4784L11.7675 40.7046L11.6972 40.853L11.6191 41.0791L11.5489 41.2276L11.4709 41.4539L11.3928 41.6021L11.3226 41.8285L11.2446 42.0546L11.1744 42.203L11.0962 42.4294L11.0182 42.5776L10.948 42.804L10.87 42.9522L10.7997 43.1785L10.7217 43.4049L10.6437 43.5531L10.5734 43.7794L10.4954 43.9277L10.4251 44.154L10.3471 44.3022L10.2691 44.5286L10.1989 44.6768L10.1208 44.9032L10.0505 45.1295L9.97253 45.2777L9.89451 45.5041L9.82421 45.6523L9.74619 45.8787L9.66817 46.0269L9.59796 46.2532L9.51994 46.4015L9.44963 46.6278L9.37161 46.8541L9.30141 47.0024L9.22339 47.2287L9.14527 47.3769L9.07506 47.6033L8.99704 47.7515L8.91902 47.9779L8.84872 48.1261L8.7707 48.3524L8.70049 48.5788L8.62247 48.727L8.54445 48.9533L8.47415 49.1016L8.39613 49.1797L8.32592 49.25L8.2479 49.3279L8.16978 49.3982L8.09958 49.4761L8.02156 49.5543L7.95135 49.6246L7.87323 49.7025L7.79521 49.7728L7.64698 49.8509L7.57678 49.9288L7.49866 49.9991L7.42064 50.0771L7.35043 50.1552L7.27241 50.2255L7.1943 50.3034L7.12409 50.3737L7.04607 50.4516L6.97586 50.5219L6.89775 50.6L6.82754 50.678L6.74952 50.7483L6.6715 50.8264L6.60129 50.9043L6.44515 50.9746L6.37495 51.0525L6.29693 51.1228L6.22662 51.201L6.1486 51.2789L6.07058 51.3492L6.00037 51.4271L5.92226 51.4974L5.85205 51.5755L5.77403 51.6535L5.69601 51.7238L5.6258 51.8019L5.54769 51.872L5.47748 51.9501L5.39946 52.028L5.25113 52.0983L5.17312 52.1764L5.10291 52.2466L5.02489 52.3247L4.94677 52.4026L4.87656 52.551L4.79854 52.6992L4.72833 52.8475L4.65031 52.9256L4.5722 53.0738L4.50199 53.222L4.42397 53.3781L4.34595 53.4484L4.27565 53.5966L4.19763 53.7528L4.12742 53.9011L4.0494 53.9712L3.9791 54.1274L3.90108 54.2757L3.82306 54.4239L3.75285 54.502L3.67483 54.6502L3.59671 54.7984L3.5265 54.9467L3.44848 55.0248L3.37828 55.173L3.30016 55.3212L3.22214 55.4775L3.15193 55.5476L3.07391 55.696L3.00361 55.8521L2.92559 56.0003L2.84757 56.0706L2.77736 56.2266L2.69934 56.3749L2.62904 56.5231L2.55102 56.6012L2.473 56.7494L2.40279 56.8977L2.32467 57.0461L2.25447 57.124L2.17645 57.2722L2.09843 57.4206L2.02812 57.5689L1.9501 57.647L1.87208 57.7952L1.80187 57.9513L1.72385 58.0995L1.65355 58.1698L1.57553 58.3258L1.50532 58.4741L1.4273 58.6225L1.34919 58.7004L1.27898 58.8486L1.20096 58.997L1.12294 59.1453L1.05264 59.2232L0.974615 59.3716L0.904407 59.5198L0.826387 59.6681L0.748367 59.7462L0.678064 59.8944L0.600044 60.0505L0.529835 60.1987L0.451815 60.269L0.3737 60.4172L0.303492 60.5734L0.225472 60.7217H0.155264L0.0771484 60.5734V60.1987L0.155264 59.8944L0.225472 59.598L0.303492 59.2232L0.3737 58.9189L0.451815 58.5444L0.529835 58.2477L0.600044 57.8731L0.678064 57.5689L0.748367 57.2021L0.826387 56.8977L0.904407 56.5231L0.974615 56.2266L1.05264 55.9222L1.12294 55.5476L1.20096 55.2511L1.27898 54.8766L1.34919 54.5721L1.4273 54.1975L1.50532 53.9011L1.57553 53.5265L1.65355 53.222L1.72385 52.8475L1.80187 52.551L1.87208 52.2466L1.9501 51.872L2.02812 51.5755V50.3737L1.9501 49.4761L1.87208 48.5788L1.80187 47.6736V46.5497L1.87208 46.3313L1.9501 46.105L2.02812 45.9566L2.09843 45.7304L2.17645 45.5041L2.25447 45.3559L2.32467 45.1295L2.40279 44.9032L2.473 44.6768L2.55102 44.5286L2.62904 44.3022L2.69934 44.0759L2.77736 43.9277L2.84757 43.7013L2.92559 43.4828L3.00361 43.2565L3.07391 43.1082L3.15193 42.8819L3.22214 42.6555L3.30016 42.4294L3.37828 42.281L3.44848 42.0546L3.5265 41.8285L3.59671 41.6801L3.67483 41.4539L3.75285 41.2276L3.82306 41.009L3.90108 40.853L3.9791 40.6345L4.0494 40.4081L4.12742 40.2599L4.19763 40.0335L4.27565 39.8072L4.34595 39.5809L4.42397 39.4326L4.50199 39.2063L4.5722 38.9799L4.65031 38.7536L4.72833 38.6054L4.79854 38.379L4.87656 38.1605L4.94677 38.0045L5.02489 37.7859L5.10291 37.5598L5.17312 37.3334L5.25113 37.185L5.32144 36.9589L5.39946 36.7325L5.47748 36.5843L5.54769 36.3579L5.6258 36.1316L5.69601 35.9053L5.77403 35.757L5.85205 35.5307L5.92226 35.3121L6.00037 35.1561L6.07058 34.9376L6.1486 34.7112L6.22662 34.4849L6.29693 34.3367L6.37495 34.1103L6.44515 33.884L6.52317 33.6578L6.60129 33.5094L6.6715 33.2831L6.74952 33.0569L6.82754 32.9085L6.89775 32.6823L6.97586 32.456L7.04607 32.2375L7.12409 32.0892L7.1943 31.8629L7.27241 31.6365L7.35043 31.4883L7.42064 31.262L7.49866 31.0356L7.58449 30.8874H4.27565V33.4315H2.69934V26.7669H4.19763V29.311H8.2479V29.1628V29.0143L8.32592 28.788L8.39613 28.5619L8.47415 28.4134L8.54445 28.1873L8.62247 27.9609L8.70049 27.7346L8.7707 27.5864L8.84872 27.36L8.91902 27.1337L8.99704 26.9855L9.07506 26.7669L9.14527 26.5406L9.22339 26.3142L9.30141 26.166L9.37161 25.9397L9.44963 25.7133L9.51994 25.5651L9.59796 25.3387L9.66817 25.1124L9.74619 24.8861L9.82421 24.7378L9.89451 24.5115L9.97253 24.2853L10.0505 24.1369L10.1208 23.9106L10.1989 23.6922L10.2691 23.4659L10.3471 23.3177L10.4251 23.0913L10.4954 22.865L10.5734 22.7167L10.6437 22.4904L10.7217 22.2641L10.7997 22.0377L10.87 21.8895L10.948 21.6631L11.0182 21.4368L11.0962 21.2183L11.1744 21.0622L11.2446 20.8437L11.3226 20.6174L11.3928 20.4691L11.4709 20.2428V20.0164L11.3928 19.9385L11.3226 19.7903L11.2446 19.6419L11.1744 19.4936L11.0962 19.3454L11.0182 19.2673L10.948 19.0409L10.87 18.8927L10.7997 18.7445L10.7217 18.5181L10.6437 18.2918L10.5734 17.9953L10.4954 17.6909L10.4251 17.3163L10.3471 16.7935V15.2952L10.4251 14.7722L10.4954 14.3899L10.5734 14.0934L10.6437 13.7968L10.7217 13.5704L10.7997 13.4222L10.87 13.1958L10.948 13.0476L11.0182 12.8916L11.0962 12.7433L11.1744 12.5949L11.2446 12.4467L11.3226 12.2985L11.3928 12.2204L11.4709 12.0721L11.5489 11.9161L11.6191 11.8458L11.6972 11.7679L11.7675 11.6194L11.8455 11.5493L11.9235 11.4712L11.9937 11.323L12.0717 11.2449L12.1498 11.1669L12.2201 11.0966L12.2981 11.0187L12.3683 10.9484L12.4464 10.8703L12.5244 10.7924L12.5946 10.7221L12.6726 10.644L12.743 10.5738L12.821 10.4957L12.899 10.4178L12.9692 10.3475L13.1175 10.2694L13.1955 10.1993L13.2736 10.1212L13.4219 10.0432L13.4921 9.97292L13.5701 9.89481L13.7184 9.82469L13.8667 9.74658L13.9447 9.66846L14.093 9.59835L14.2412 9.52024L14.3974 9.45012L14.5456 9.37201L14.6939 9.29389L14.8422 9.22378L15.0685 9.14566L15.2167 9.06774L15.4431 8.99744L15.6694 8.91932L15.966 8.84921L16.3405 8.77109H16.7229L16.7931 0.0776367H18.7441L18.8143 8.77109H19.1889L19.5635 8.84921L19.7898 8.91932L20.0942 8.99744L20.3205 9.06774L20.4687 9.14566L20.6951 9.22378L20.8434 9.29389L20.9916 9.37201L21.1399 9.45012L21.2882 9.52024L21.4442 9.59835L21.5925 9.66846L21.6628 9.74658L21.8189 9.82469L21.8891 9.89481L22.0451 9.97292L22.1153 10.0432L22.2637 10.1212L22.3417 10.1993L22.4119 10.2694L22.49 10.3475L22.6382 10.4178L22.7163 10.4957L22.7944 10.5738L22.8646 10.644L22.9426 10.7221L23.0128 10.7924L23.0908 10.8703L23.1689 10.9484L23.2392 11.0187L23.3172 11.0966L23.3874 11.1669L23.4655 11.323L23.5435 11.3933L23.6137 11.4712L23.6917 11.5493L23.762 11.6976L23.8401 11.7679L23.9181 11.8458L23.9883 11.9942L24.0663 12.0721L24.1366 12.2204L24.2146 12.3688L24.2927 12.4467L24.3629 12.5949L24.441 12.7433L24.5112 12.8916L24.558 13.0554L24.5892 9.59835L24.6672 9.52024L24.7375 9.45012L24.8156 9.37201L24.8936 9.29389H25.4867L25.6427 9.37201L25.713 9.45012L25.791 9.52024L25.8612 9.59835L25.9393 9.66846L26.0173 9.74658L26.0876 9.82469L26.1656 9.89481L26.2358 9.97292L26.3138 10.0432L26.392 10.1212L26.4622 10.1993L26.5402 10.2694L26.6182 10.3475L26.6885 10.4178L26.7665 10.4957L26.8367 10.5738L26.9148 10.644L26.9851 10.7221L27.0631 10.7924L27.1411 10.8703L27.2113 10.9484L27.2893 11.0187L27.3674 11.0966L27.4377 11.1669L27.5157 11.2449L27.5859 11.323L27.664 11.3933L27.742 11.4712L27.8122 11.5493L27.8902 11.6194L27.9605 11.6976L28.0386 11.7679L28.1166 11.8458L28.1868 11.9161L28.2648 11.9942L28.3351 12.0721L28.4131 12.1424L28.4912 12.2204L28.5614 12.2985L28.6395 12.3688L28.7097 12.4467L28.7877 12.517L28.8657 12.5949L28.936 12.673L29.0141 12.7433L29.0843 12.8213L29.1623 12.8916L29.2403 12.9697L29.3106 13.0476L29.3886 13.1179L29.4588 13.1958L29.5369 13.2661L29.615 13.3443L29.6852 13.4222L29.7632 13.4925L29.8334 13.5704L29.9115 13.6407L29.9895 13.7188L30.0597 13.7968L30.1378 13.8671L30.2158 13.9452L30.2861 14.0231L30.3641 14.0934L30.4343 14.1713L30.5123 14.2416L30.5905 14.3197L30.6607 14.3899L30.7387 14.468L30.8089 14.5459L30.887 14.6162L30.965 14.6943L31.0352 14.7722L31.1133 14.8425L31.1836 14.9207L31.2616 14.9908L31.3396 15.0689L31.4098 15.1468L31.4878 15.2171L31.5581 15.2952L31.6362 15.3653L31.7142 15.4435L31.7844 15.5214L31.8625 15.5917L31.9405 15.6698L32.0107 15.7399L32.0887 15.818L32.159 15.8961L32.2371 15.9663L32.3073 16.0444L32.3853 16.1145L32.4633 16.1926L32.5336 16.2707L32.6116 16.3408L32.6897 16.4189L32.7599 16.4893L32.838 16.5672L32.9082 16.6453L32.9862 16.7154L33.0642 16.7935L33.1345 16.8716L33.2126 16.9417L33.2828 17.0199L33.3608 17.09L33.4388 17.1681L33.5091 17.2384L33.5871 17.3163L33.6573 17.3944L33.7354 17.4647L33.8135 17.5427L33.8837 17.6208L33.9617 17.6909L34.0319 17.769L34.11 17.8393L34.188 17.9172L34.2582 17.9953L34.3363 18.0655L34.4065 18.1436L34.4846 18.2139L34.5626 18.2918L34.6328 18.3699L34.7108 18.4402L34.7811 18.5181L34.8592 18.5885L34.9372 18.6664L35.0074 18.7445L35.0855 18.8148L35.1557 18.8927L35.2337 18.963L35.3118 19.0409L35.382 19.1191L35.4601 19.1894L35.5381 19.2673L35.6083 19.3454L35.6863 19.4157L35.7566 19.4936L35.8347 19.5639L35.9127 19.6419L35.9829 19.72L36.061 19.7903L36.1312 19.8682L36.2092 19.9385L36.2872 20.0164L36.3575 20.0946L36.4356 20.1649L36.5058 20.2428L36.5838 20.3131L36.6618 20.3912L36.7321 20.4691L36.8101 20.5394L36.8803 20.6174L36.9584 20.6877L37.0365 20.7658L37.1067 20.8437L37.1847 20.914L37.2627 20.9919L37.3329 21.0622L37.4111 21.1403L37.4813 21.2183L37.5593 21.2886L37.6373 21.3667L37.7076 21.4368L37.7856 21.5149L37.8558 21.5928L37.9339 21.6631L38.012 21.7413L38.0822 21.8114L38.1602 21.8895L38.2304 21.9674L38.3084 22.0377L38.3865 22.1158L38.4567 22.1938L38.5348 22.2641L38.605 22.3422L38.6831 22.4123L38.7611 22.4904L38.8313 22.5683L38.9093 22.6386L38.9796 22.7167L39.0577 22.7869L39.1357 22.865L39.2059 22.9429L39.2839 23.0132L39.3542 23.0913L39.4322 23.1614L39.5103 23.2395L39.5805 23.3177L39.6586 23.3878L39.7288 23.4659L39.8068 23.536L39.8848 23.6141L39.9551 23.6922L40.0331 23.7623L40.1112 23.8405L40.1814 23.9106L40.2594 23.9887L40.3297 24.0668L40.4077 24.1369L40.4779 24.215L40.556 24.2853L40.6341 24.3633L40.7043 24.4414L40.7823 24.5115L40.8603 24.5896L40.9306 24.6677L41.0086 24.7378L41.0788 24.8159L41.1569 24.8861L41.2349 24.9642L41.3052 25.0423L41.3832 25.1124L41.4534 25.1905L41.5314 25.2608L41.6096 25.3387L41.6798 25.4169L41.7578 25.487L41.8358 25.5651L41.9061 25.6354L41.9841 25.7133L42.0543 25.7914L42.1324 25.8615L42.2027 25.9397L42.2807 26.01L42.3587 26.0879V26.2363L42.2807 26.3142L42.2027 26.3845L42.1324 26.4625L42.0543 26.5406L41.9841 26.6109L41.9061 26.6888L41.8358 26.7669L41.7578 26.837L41.6798 26.9151L41.6096 26.9855L41.5314 27.0634L41.4534 27.1337L41.3832 27.2118L41.3052 27.2897L41.2349 27.36L41.1569 27.4379L41.0788 27.5161L41.0086 27.5864L40.9306 27.6643L40.8603 27.7346L40.7823 27.8125L40.7043 27.8906L40.6341 27.9609L40.556 28.0389L40.4779 28.1092L40.4077 28.1873L40.3297 28.2652L40.2594 28.3355L40.1814 28.4134L40.1112 28.4837L40.0331 28.5619L39.9551 28.6398L39.8848 28.7101L39.8068 28.788L39.7288 28.8583L39.6586 28.9364H39.4322L39.3542 28.8583V28.7101L39.4322 28.6398L39.5103 28.5619L39.5805 28.4837L39.6586 28.4134L39.7288 28.3355L39.8068 28.2652L39.8848 28.1873L39.9551 28.1092L40.0331 28.0389L40.1112 27.9609L40.1814 27.8906L40.2594 27.8125L40.3297 27.7346L40.4077 27.6643L40.4779 27.5864L40.556 27.5161L40.6341 27.4379L40.7043 27.36L40.7823 27.2897L40.8603 27.2118L40.9306 27.1337L41.0086 27.0634L41.0788 26.9855L41.1569 26.9151V26.837L41.0788 26.7669L41.0086 26.6888L40.9306 26.6109L40.8603 26.5406L40.7823 26.4625L40.7043 26.3845H40.6341L40.556 26.4625L40.4779 26.5406L40.4077 26.6109L40.3297 26.6888L40.2594 26.7669L40.1814 26.837L40.1112 26.9151L40.0331 26.9855L39.9551 27.0634L39.8848 27.1337L39.8068 27.2118H39.6586L39.5805 27.1337L39.5103 27.0634V26.837L39.5805 26.7669L39.6586 26.6888L39.7288 26.6109L39.8068 26.5406L39.8848 26.4625L39.9551 26.3845L40.0331 26.3142L40.1112 26.2363L40.1814 26.166L40.2594 26.0879V25.9397L40.1814 25.8615L40.1112 25.7914L40.0331 25.7133L39.9551 25.6354L39.8848 25.5651L39.8068 25.487H39.7288L39.6586 25.5651L39.5805 25.6354L39.5103 25.7133L39.4322 25.7914L39.3542 25.8615L39.2839 25.9397L39.2059 26.01L39.1357 26.0879L39.0577 26.166L38.9796 26.2363L38.9093 26.3142H38.7611L38.6831 26.2363L38.605 26.166V25.9397L38.6831 25.8615L38.7611 25.7914L38.8313 25.7133L38.9093 25.6354L38.9796 25.5651L39.0577 25.487L39.1357 25.4169L39.2059 25.3387L39.2839 25.2608L39.3542 25.1905V25.0423L39.2839 24.9642L39.2059 24.8861L39.1357 24.8159L39.0577 24.7378L38.9796 24.6677H38.9093L38.8313 24.7378L38.7611 24.8159L38.6831 24.8861L38.605 24.9642L38.5348 25.0423L38.4567 25.1124L38.3865 25.1905L38.3084 25.2608L38.2304 25.3387L38.1602 25.4169L38.0822 25.487H37.9339L37.8558 25.4169L37.7856 25.3387L37.7076 25.2608V25.1905L37.7856 25.1124L37.8558 25.0423L37.9339 24.9642L38.012 24.8861L38.0822 24.8159L38.1602 24.7378L38.2304 24.6677L38.3084 24.5896L38.3865 24.5115L38.4567 24.4414L38.5348 24.3633V24.215L38.4567 24.1369L38.3865 24.0668L38.3084 23.9887L38.2304 23.9106L38.1602 23.8405H38.012L37.9339 23.9106L37.8558 23.9887L37.7856 24.0668L37.7076 24.1369L37.6373 24.215L37.5593 24.2853L37.4813 24.3633L37.4111 24.4414L37.3329 24.5115L37.2627 24.5896L37.1847 24.6677L37.1067 24.7378L37.0365 24.8159L36.9584 24.8861L36.8803 24.9642L36.8101 25.0423L36.7321 25.1124L36.6618 25.1905L36.5838 25.2608L36.5058 25.3387L36.4356 25.4169L36.3575 25.487L36.2872 25.5651L36.2092 25.6354H36.1312L36.061 25.5651L35.9829 25.487L35.9127 25.4169V25.2608L35.9829 25.1905L36.061 25.1124L36.1312 25.0423L36.2092 24.9642L36.2872 24.8861L36.3575 24.8159L36.4356 24.7378L36.5058 24.6677L36.5838 24.5896L36.6618 24.5115L36.7321 24.4414L36.8101 24.3633L36.8803 24.2853L36.9584 24.215L37.0365 24.1369L37.1067 24.0668L37.1847 23.9887L37.2627 23.9106L37.3329 23.8405L37.4813 23.7623L37.5593 23.6922L37.6373 23.6141L37.7076 23.536V23.3878L37.6373 23.3177L37.5593 23.2395L37.4813 23.1614H37.4111L37.3329 23.2395L37.2627 23.3177L37.1847 23.3878L37.1067 23.4659L37.0365 23.536L36.9584 23.6141L36.8803 23.6922L36.8101 23.7623L36.7321 23.8405L36.6618 23.9106L36.5838 23.9887H36.4356L36.3575 23.9106L36.2872 23.8405L36.2092 23.7623V23.6922L36.2872 23.6141L36.3575 23.536L36.4356 23.4659L36.5058 23.3878L36.5838 23.3177L36.6618 23.2395L36.7321 23.1614L36.8101 23.0913L36.8803 23.0132L36.9584 22.9429L37.0365 22.865V22.7167L36.9584 22.6386L36.8803 22.5683L36.8101 22.4904L36.7321 22.4123L36.6618 22.3422L36.5838 22.2641H36.5058L36.4356 22.3422L36.3575 22.4123L36.2872 22.4904L36.2092 22.5683L36.1312 22.6386L36.061 22.7167L35.9829 22.7869L35.9127 22.865L35.8347 22.9429L35.7566 23.0132L35.6863 23.0913H35.5381L35.4601 23.0132L35.382 22.9429L35.3118 22.865V22.7869L35.382 22.7167L35.4601 22.6386L35.5381 22.5683L35.6083 22.4904L35.6863 22.4123L35.7566 22.3422L35.8347 22.2641L35.9127 22.1938L35.9829 22.1158L36.061 22.0377L36.1312 21.9674V21.8114L36.061 21.7413L35.9829 21.6631L35.9127 21.5928L35.8347 21.5149L35.7566 21.4368H35.6863L35.6083 21.5149L35.5381 21.5928L35.4601 21.6631L35.382 21.7413L35.3118 21.8114L35.2337 21.8895L35.1557 21.9674L35.0855 22.0377L35.0074 22.1158L34.9372 22.1938L34.8592 22.2641H34.7108L34.6328 22.1938L34.4846 22.1158V21.9674L34.5626 21.8895L34.6328 21.8114L34.7108 21.7413L34.7811 21.6631L34.8592 21.5928L34.9372 21.5149L35.0074 21.4368L35.0855 21.3667L35.1557 21.2886L35.2337 21.2183L35.3118 21.1403V20.9919L35.2337 20.914L35.1557 20.8437L35.0855 20.7658L34.9372 20.6877H34.8592L34.7811 20.7658L34.7108 20.8437L34.6328 20.914L34.5626 20.9919L34.4846 21.0622L34.4065 21.1403L34.3363 21.2183L34.2582 21.2886L34.188 21.3667L34.11 21.4368L34.0319 21.5149L33.9617 21.5928L33.8837 21.6631L33.8135 21.7413L33.7354 21.8114L33.6573 21.8895L33.5871 21.9674L33.5091 22.0377L33.4388 22.1158L33.3608 22.1938L33.2828 22.2641L33.2126 22.3422L33.1345 22.4123H32.9082L32.838 22.3422L32.7599 22.2641V22.1158L32.838 22.0377L32.9082 21.9674L32.9862 21.8895L33.0642 21.8114L33.1345 21.7413L33.2126 21.6631L33.2828 21.5928L33.3608 21.5149L33.4388 21.4368L33.5091 21.3667L33.5871 21.2886L33.6573 21.2183L33.7354 21.1403L33.8135 21.0622L33.8837 20.9919L33.9617 20.914L34.0319 20.8437L34.11 20.7658L34.188 20.6877L34.2582 20.6174L34.3363 20.5394L34.4065 20.4691L34.4846 20.3912L34.5626 20.3131V20.2428L34.4846 20.1649L34.4065 20.0946L34.3363 20.0164L34.188 19.9385H34.11L34.0319 20.0164L33.9617 20.0946L33.8837 20.1649L33.7354 20.2428L33.6573 20.3131L33.5871 20.3912L33.5091 20.4691L33.4388 20.5394L33.3608 20.6174L33.2828 20.6877H33.1345L33.0642 20.6174L32.9862 20.5394V20.3912L33.0642 20.3131L33.1345 20.2428L33.2126 20.1649L33.2828 20.0946L33.3608 20.0164L33.4388 19.9385L33.5091 19.8682L33.5871 19.7903L33.6573 19.72L33.7354 19.6419L33.8135 19.5639V19.4936L33.7354 19.4157L33.6573 19.3454L33.5871 19.2673L33.5091 19.1894L33.4388 19.1191L33.3608 19.0409L33.2828 18.963H33.2126L33.1345 19.0409L33.0642 19.1191L32.9862 19.1894L32.9082 19.2673L32.838 19.3454L32.7599 19.4157L32.6897 19.4936L32.6116 19.5639L32.5336 19.72L32.4633 19.7903H32.2371L32.159 19.72L32.0887 19.6419V19.4936L32.159 19.4157L32.2371 19.3454L32.3073 19.2673L32.3853 19.1894L32.4633 19.1191L32.5336 19.0409L32.6116 18.963L32.6897 18.8927L32.7599 18.8148L32.838 18.7445L32.9082 18.6664V18.5885L32.838 18.5181L32.7599 18.4402L32.6897 18.3699L32.6116 18.2918L32.5336 18.2139L32.4633 18.1436H32.3853L32.3073 18.2139L32.2371 18.2918L32.159 18.3699L32.0887 18.4402L32.0107 18.5181L31.9405 18.5885L31.8625 18.6664L31.7844 18.7445L31.7142 18.8148L31.6362 18.8927L31.5581 18.963H31.4098L31.3396 18.8927L31.2616 18.8148L31.1836 18.7445V18.6664L31.2616 18.5885L31.3396 18.5181L31.4098 18.4402L31.4878 18.3699L31.5581 18.2918L31.6362 18.2139L31.7142 18.1436L31.7844 18.0655L31.8625 17.9953L31.9405 17.9172L32.0107 17.8393V17.6909L31.9405 17.6208L31.8625 17.5427L31.7844 17.4647L31.7142 17.3944L31.6362 17.3163H31.5581L31.4878 17.3944L31.4098 17.4647L31.3396 17.5427L31.2616 17.6208L31.1836 17.6909L31.1133 17.769L31.0352 17.8393L30.965 17.9172L30.887 17.9953L30.8089 18.0655L30.7387 18.1436L30.6607 18.2139L30.5905 18.2918L30.5123 18.3699L30.4343 18.4402L30.3641 18.5181L30.2861 18.5885L30.2158 18.6664L30.1378 18.7445L30.0597 18.8148L29.9895 18.8927L29.9115 18.963L29.8334 19.0409L29.7632 19.1191H29.615L29.5369 19.0409L29.4588 18.963L29.3886 18.8927V18.8148L29.4588 18.7445L29.5369 18.6664L29.615 18.5885L29.6852 18.5181L29.7632 18.4402L29.8334 18.3699L29.9115 18.2918L29.9895 18.2139L30.0597 18.1436L30.1378 18.0655L30.2158 17.9953L30.2861 17.9172L30.3641 17.8393L30.4343 17.769L30.5123 17.6909L30.5905 17.6208L30.6607 17.5427L30.7387 17.4647L30.8089 17.3944L30.887 17.3163L30.965 17.2384L31.0352 17.1681L31.1133 17.09L31.1836 17.0199V16.8716L31.1133 16.7935L31.0352 16.7154L30.965 16.6453L30.887 16.5672L30.8089 16.4893H30.7387L30.6607 16.5672L30.5905 16.6453L30.5123 16.7154L30.4343 16.7935L30.3641 16.8716L30.2861 16.9417L30.2158 17.0199L30.1378 17.09L30.0597 17.1681L29.9895 17.2384L29.9115 17.3163H29.7632L29.6852 17.2384L29.615 17.1681L29.5369 17.09V17.0199L29.615 16.9417L29.6852 16.8716L29.7632 16.7935L29.8334 16.7154L29.9115 16.6453L29.9895 16.5672L30.0597 16.4893L30.1378 16.4189L30.2158 16.3408L30.2861 16.2707L30.3641 16.1926H30.4343L30.5123 16.0444H30.3641H30.2861L30.2158 15.9663L30.1378 15.818L30.0597 15.7399L29.9895 15.6698L29.9115 15.5917H29.8334L29.7632 15.6698L29.6852 15.7399L29.615 15.818L29.5369 15.8961L29.4588 15.9663L29.3886 16.0444L29.3106 16.1145L29.2403 16.1926L29.1623 16.2707L29.0843 16.3408L29.0141 16.4189H28.8657L28.7877 16.3408L28.7097 16.2707L28.6395 16.1926V16.1145L28.7097 16.0444L28.7877 15.9663L28.8657 15.8961L28.936 15.818L29.0141 15.7399L29.0843 15.6698L29.1623 15.5917L29.2403 15.5214L29.3106 15.4435L29.3886 15.3653L29.4588 15.2952V15.1468L29.3886 15.0689L29.3106 14.9908L29.2403 14.9207L29.1623 14.8425L29.0843 14.7722H28.936L28.8657 14.8425L28.7877 14.9207L28.7097 14.9908L28.6395 15.0689L28.5614 15.1468L28.4912 15.2171L28.4131 15.2952L28.3351 15.3653L28.2648 15.4435L28.1868 15.5214L28.1166 15.5917H28.0386L27.9605 15.5214L27.8902 15.4435L27.8122 15.3653V15.2171L27.8902 15.1468L27.9605 15.0689L28.0386 14.9908L28.1166 14.9207L28.1868 14.8425L28.2648 14.7722L28.3351 14.6943L28.4131 14.6162L28.4912 14.5459L28.5614 14.468H28.6395H28.7955L28.7097 14.3197H28.6395L28.5614 14.2416L28.4912 14.1713L28.4131 14.0934L28.3351 14.0231L28.2648 13.9452H28.1166L28.0386 14.0231L27.9605 14.0934L27.8902 14.1713L27.8122 14.2416L27.742 14.3197L27.664 14.3899L27.5859 14.468L27.5157 14.5459L27.4377 14.6162L27.3674 14.6943L27.2893 14.7722L27.2113 14.8425L27.1411 14.9207L26.9851 14.9908L26.9148 15.0689L26.8367 15.1468L26.7665 15.2171L26.6885 15.2952L26.6182 15.3653L26.5402 15.4435L26.4622 15.5214L26.392 15.5917L26.3138 15.6698H26.1656L26.0876 15.5917L26.0173 15.5214V15.2952L26.0876 15.2171L26.1656 15.1468L26.2358 15.0689L26.3138 14.9908L26.392 14.9207L26.4622 14.8425L26.5402 14.7722L26.6885 14.6943L26.7665 14.6162L26.8367 14.5459L26.9148 14.468L26.9851 14.3899L27.0631 14.3197L27.1411 14.2416L27.2113 14.1713L27.2893 14.0934L27.3674 14.0231L27.4377 13.9452L27.5157 13.8671L27.5859 13.7968L27.664 13.7188L27.742 13.6407L27.8122 13.5704V13.4925L27.742 13.4222L27.664 13.3443L27.5859 13.2661L27.5157 13.1958L27.4377 13.1179L27.3674 13.0476L27.2893 12.9697L27.2113 12.8916L27.1411 12.8213L27.0631 12.7433L26.9851 12.673L26.9148 12.5949L26.8367 12.517L26.7665 12.4467L26.6885 12.3688L26.6182 12.2985L26.5402 12.2204L26.4622 12.1424L26.392 12.0721L26.3138 11.9942L26.2358 11.9161L26.1656 11.8458L26.0876 11.7679L26.0173 11.6976L25.9393 11.6194V22.7167L26.0173 22.9429L26.0876 23.1614L26.1656 23.3177L26.2358 23.536L26.3138 23.7623L26.392 23.9106L26.4622 24.1369L26.5402 24.3633L26.6182 24.5896L26.6885 24.7378L26.7665 24.9642L26.8367 25.1905L26.9148 25.3387L26.9851 25.5651L27.0631 25.7914L27.1411 26.01L27.2113 26.166L27.2893 26.3845L27.3674 26.6109L27.4377 26.7669L27.5157 26.9855L27.5859 27.2118L27.664 27.4379L27.742 27.5864L27.8122 27.8125L27.8902 28.0389L27.9605 28.1873L28.0386 28.4134L28.1166 28.6398L28.1868 28.8583L28.2648 29.0143L28.3351 29.2329L29.5369 29.3188V21.5928L29.615 21.5149L29.6852 21.4368L29.7632 21.3667L29.8334 21.2886H30.4343L30.5905 21.3667L30.6607 21.4368L30.7387 21.5149L30.8089 21.5928L30.887 21.6631L30.965 21.7413L31.0352 21.8114L31.1133 21.8895L31.1836 21.9674L31.2616 22.0377L31.3396 22.1158L31.4098 22.1938L31.4878 22.2641L31.5581 22.3422L31.6362 22.4123L31.7142 22.4904L31.7844 22.5683L31.8625 22.6386L31.9405 22.7167L32.0107 22.7869L32.0887 22.865L32.159 22.9429L32.2371 23.0132L32.3073 23.0913L32.3853 23.1614L32.4633 23.2395L32.5336 23.3177L32.6116 23.3878L32.6897 23.4659L32.7599 23.536L32.838 23.6141L32.9082 23.6922L32.9862 23.7623L33.0642 23.8405L33.1345 23.9106L33.2126 23.9887L33.2828 24.0668L33.3608 24.1369L33.4388 24.215L33.5091 24.2853L33.5871 24.3633L33.6573 24.4414L33.7354 24.5115L33.8135 24.5896L33.8837 24.6677L33.9617 24.7378L34.0319 24.8159L34.11 24.8861L34.188 24.9642L34.2582 25.0423L34.3363 25.1124L34.4065 25.1905L34.4846 25.2608L34.5626 25.3387L34.6328 25.4169L34.7108 25.487L34.7811 25.5651L34.8592 25.6354L34.9372 25.7133L35.0074 25.7914L35.0855 25.8615L35.1557 25.9397L35.2337 26.01L35.3118 26.0879L35.382 26.166L35.4601 26.2363L35.5381 26.3142L35.6083 26.3845L35.6863 26.4625L35.7566 26.5406L35.8347 26.6109L35.9127 26.6888L35.9829 26.7669L36.061 26.837L36.1312 26.9151L36.2092 26.9855L36.2872 27.0634L36.3575 27.1337L36.4356 27.2118L36.5058 27.2897L36.5838 27.36L36.6618 27.4379L36.7321 27.5161L36.8101 27.5864L36.8803 27.6643L36.9584 27.7346L37.0365 27.8125L37.1067 27.8906L37.1847 27.9609L37.2627 28.0389L37.3329 28.1092L37.4111 28.1873L37.4813 28.2652L37.5593 28.3355L37.6373 28.4134L37.7076 28.4837L37.7856 28.5619L37.8558 28.6398L37.9339 28.7101L38.012 28.788L38.0822 28.8583L38.1602 28.9364L38.2304 29.0143L38.3084 29.0847L38.3865 29.1628L38.4567 29.2329L38.5348 29.311L38.605 29.3889L38.6831 29.4592L38.7611 29.5373L38.8313 29.6153V29.7635L38.7611 29.8338L38.6831 29.9119L38.605 29.9898L38.5348 30.0601L38.4567 30.1383L38.3865 30.2084L38.3084 30.2865L38.2304 30.3644L38.1602 30.4347L38.0822 30.5128L38.012 30.5829H37.8558L37.7856 30.5128L37.7076 30.4347L37.6373 30.3644L37.5593 30.2865L37.4813 30.2084L37.4111 30.1383L37.3329 30.0601L37.2627 29.9898L37.1847 29.9119L37.1067 29.8338L37.0365 29.7635L36.9584 29.6856L36.8803 29.6153L36.8101 29.5373L36.7321 29.4592L36.6618 29.3889L36.5838 29.311L36.5058 29.2329L36.4356 29.1628L36.3575 29.0847L36.2872 29.0143L36.2092 28.9364L36.1312 28.8583L36.061 28.788L35.9829 28.7101L35.9127 28.6398L35.8347 28.5619L35.7566 28.4837L35.6863 28.4134L35.6083 28.3355L35.5381 28.2652L35.4601 28.1873L35.382 28.1092L35.3118 28.0389L35.2337 27.9609L35.1557 27.8906L35.0855 27.8125L35.0074 27.7346L34.9372 27.6643L34.8592 27.5864L34.7811 27.5161L34.7108 27.4379L34.6328 27.36L34.5626 27.2897L34.4846 27.2118L34.4065 27.1337L34.3363 27.0634L34.2582 26.9855L34.188 26.9151L34.11 26.837L34.0319 26.7669L33.9617 26.6888L33.8837 26.6109L33.8135 26.5406L33.7354 26.4625L33.6573 26.3845L33.5871 26.3142L33.5091 26.2363L33.4388 26.166L33.3608 26.0879L33.2828 26.01L33.2126 25.9397L33.1345 25.8615L33.0642 25.7914L32.9862 25.7133L32.9082 25.6354L32.838 25.5651L32.7599 25.487L32.6897 25.4169L32.6116 25.3387L32.5336 25.2608L32.4633 25.1905L32.3853 25.1124L32.3073 25.0423L32.2371 24.9642L32.159 24.8861L32.0887 24.8159L32.0107 24.7378L31.9405 24.6677L31.8625 24.5896L31.7844 24.5115L31.7142 24.4414L31.6362 24.3633L31.5581 24.2853L31.4878 24.215L31.4098 24.1369L31.3396 24.0668L31.2616 23.9887L31.1836 23.9106L31.1133 23.8405L31.0352 23.7623L30.965 23.6922L30.887 23.6141L30.8089 29.311H32.0887V26.7669H33.6573V33.4315H32.0887V30.9575H30.8089L30.887 36.1316L30.965 36.3579L31.0352 36.5843L31.1133 36.7325L31.1836 36.9589L31.2616 37.185L31.3396 37.4113L31.4098 37.5598L31.4878 37.7859L31.5581 37.9343L31.6362 37.8562L31.7142 37.7859L31.7844 37.708L31.8625 37.6299L31.9405 37.5598L32.0107 37.4817L32.0887 37.4113L32.159 37.3334L32.2371 37.2553L32.3073 37.185L32.3853 37.1071L32.4633 37.029L32.5336 36.9589L32.6116 36.8807L32.6897 36.8104L32.7599 36.7325L32.838 36.6544L32.9082 36.5843L32.9862 36.5062L33.0642 36.4359L33.1345 36.3579L33.2126 36.2798L33.2828 36.2095L33.3608 36.1316L33.4388 36.0613L33.5091 35.9834L33.5871 35.9053L33.6573 35.8349L33.7354 35.757L33.8135 35.6867L33.8837 35.6088L33.9617 35.5307L34.0319 35.4604L34.11 35.3825L34.188 35.3121L34.2582 35.234L34.3363 35.1561L34.4065 35.0858L34.4846 35.0079L34.5626 34.9376L34.6328 34.8595L34.7108 34.7815L34.7811 34.7112L34.8592 34.6333L34.9372 34.5552L35.0074 34.4849L35.0855 34.407L35.1557 34.3367L35.2337 34.2585L35.3118 34.1806L35.382 34.1103L35.4601 34.0324L35.5381 33.9621L35.6083 33.884L35.6863 33.806L35.7566 33.7357L35.8347 33.6578L35.9127 33.5875L35.9829 33.5094L36.061 33.4315L36.1312 33.3612L36.2092 33.2831L36.2872 33.2129L36.3575 33.1348L36.4356 33.0569L36.5058 32.9866L36.5838 32.9085L36.6618 32.8384L36.7321 32.7603L36.8101 32.6823L36.8803 32.612L36.9584 32.5339L37.0365 32.456L37.1067 32.3857L37.1847 32.3076L37.2627 32.2375L37.3329 32.1593L37.4111 32.0892L37.4813 32.0111L37.5593 31.933L37.6373 31.8629L37.7076 31.7848L37.7856 31.7068L37.8558 31.6365L37.9339 31.5584L38.012 31.4883L38.0822 31.4102L38.1602 31.3321L38.2304 31.262L38.3084 31.1839L38.3865 31.1137L38.4567 31.0356L38.5348 30.9575L38.605 30.8874L38.6831 30.8093L38.7611 30.739L38.8313 30.6611L38.9093 30.5829L38.9796 30.5128L39.0577 30.4347L39.1357 30.3644L39.2059 30.2865L39.2839 30.2084L39.3542 30.1383L39.4322 30.0601L39.5103 29.9898L39.5805 29.9119L39.6586 29.8338L39.7288 29.7635L39.8068 29.6856L39.8848 29.6153L39.9551 29.5373L40.0331 29.4592L40.1112 29.3889L40.1814 29.311L40.2594 29.2329L40.3297 29.1628L40.4077 29.0847L40.4779 29.0143L40.556 28.9364L40.6341 28.8583L40.7043 28.788L40.7823 28.7101L40.8603 28.6398L40.9306 28.5619L41.0086 28.4837L41.0788 28.4134L41.1569 28.3355L41.2349 28.2652L41.3052 28.1873L41.3832 28.1092L41.4534 28.0389L41.5314 27.9609L41.6096 27.8906L41.6798 27.8125L41.7578 27.7346L41.8358 27.6643L41.9061 27.5864L41.9841 27.5161L42.0543 27.4379L42.1324 27.36L42.2027 27.2897L42.2807 27.2118L42.3587 27.1337L42.4289 27.0634L42.5069 26.9855L42.585 26.9151L42.6552 26.837L42.7333 26.7669L42.8035 26.6888L42.8816 26.6109L42.9596 26.5406L43.0298 26.4625L43.1078 26.3845L43.1781 26.3142L43.2562 26.2363L43.3342 26.166L43.4044 26.0879L43.4824 26.01L43.5527 25.9397L43.6307 25.8615L43.7088 25.7914L43.779 25.7133L43.8571 25.6354L43.9273 25.5651L44.0053 25.487L44.0833 25.4169L44.1536 25.3387L44.2317 25.2608L44.3019 25.1905L44.3799 25.1124L44.4579 25.0423L44.5282 24.9642L44.6062 24.8861L44.6764 24.8159L44.7545 24.7378L44.8326 24.6677L44.9028 24.5896L44.9808 24.5115L45.051 24.4414L45.1291 24.3633L45.2071 24.2853L45.2773 24.215L45.3554 24.1369L45.4334 24.0668L45.5037 23.9887L45.5817 23.9106L45.6519 23.8405L45.7299 23.7623L45.8002 23.6922L45.8783 23.6141L45.9563 23.536L46.0265 23.4659L46.1046 23.3878L46.1826 23.3177L46.2528 23.2395L46.3309 23.1614L46.4012 23.0913L46.4792 23.0132L46.5572 22.9429L46.6274 22.865L46.7054 22.7869L46.7757 22.7167L46.8537 22.6386L46.9318 22.5683L47.002 22.4904L47.0801 22.4123L47.1581 22.3422L47.2283 22.2641L47.3063 22.1938L47.3766 22.1158L47.4547 22.0377L47.5249 21.9674L47.6029 21.8895L47.6809 21.8114L47.7512 21.7413L47.8292 21.6631L47.9073 21.5928L47.9775 21.5149L48.0556 21.4368L48.1258 21.3667L48.2038 21.2886L48.2818 21.2183L48.3521 21.1403L48.4301 21.0622L48.5004 20.9919L48.5784 20.914L48.6564 20.8437L48.7267 20.7658L48.8047 20.6877L48.8749 20.6174L48.9529 20.5394L49.0311 20.4691L49.1013 20.3912L49.1793 20.3131L49.3276 20.2428L49.4758 20.1649H50.225L50.4513 20.2428L50.5294 20.3131L50.6777 20.3912L50.7557 20.4691L50.8259 20.5394L50.9039 20.6174L50.9742 20.6877L51.0522 20.7658L51.1303 20.8437L51.2005 20.914L51.2786 20.9919L51.3488 21.0622L51.4268 21.1403L51.5048 21.2183L51.575 21.2886L51.6532 21.3667L51.7234 21.4368L51.8014 21.5149L51.8794 21.5928L51.9497 21.6631L52.0277 21.7413L52.0979 21.8114L52.176 21.8895L52.2541 21.9674L52.3243 22.0377L52.4023 22.1158L52.4803 22.1938L52.5505 22.2641L52.6287 22.3422L52.6989 22.4123L52.7769 22.4904L52.8549 22.5683L52.9252 22.6386L53.0032 22.7167L53.0734 22.7869L53.1514 22.865L53.2296 22.9429L53.2998 23.0132L53.3778 23.0913L53.448 23.1614L53.526 23.2395L53.6041 23.3177L53.6743 23.3878L53.7524 23.4659L53.8226 23.536L53.9007 23.6141L53.9787 23.6922L54.0489 23.7623L54.1269 23.8405L54.1972 23.9106L54.2753 23.9887L54.3533 24.0668L54.4235 24.1369L54.5015 24.215L54.5718 24.2853L54.6498 24.3633L54.7279 24.4414L54.7981 24.5115L54.8762 24.5896L54.9464 24.6677L55.0244 24.7378L55.1024 24.8159L55.1727 24.8861L55.2507 24.9642L55.3288 25.0423L55.399 25.1124L55.477 25.1905L55.5473 25.2608L55.6253 25.3387L55.6955 25.4169L55.7735 25.487L55.8517 25.5651L55.9219 25.6354L55.9999 25.7133L56.0779 25.7914L56.1482 25.8615L56.2262 25.9397L56.2964 26.01L56.3745 26.0879L56.4525 26.166L56.5228 26.2363L56.6008 26.3142L56.671 26.3845L56.749 26.4625L56.8271 26.5406L56.8974 26.6109L56.9754 26.6888L57.0456 26.7669L57.1237 26.837L57.2017 26.9151L57.2719 26.9855L57.3499 27.0634L57.4203 27.1337L57.4983 27.2118L57.5763 27.2897L57.6465 27.36L57.7245 27.4379L57.8026 27.5161L57.8728 27.5864L57.9509 27.6643L58.0211 27.7346L58.0992 27.8125L58.1772 27.8906L58.2474 27.9609L58.3254 28.0389L58.3957 28.1873L58.4738 28.2652L58.5518 28.4134L58.622 28.7101V29.0847L58.5518 29.311L58.4738 29.4592L58.3957 29.6153L58.3254 29.6856L58.2474 29.7635L58.1772 29.8338L58.0992 29.9119L58.0211 29.9898L57.9509 30.0601L57.8728 30.1383L57.8026 30.2084L57.7245 30.2865L57.6465 30.3644L57.5763 30.4347L57.4983 30.5128L57.4203 30.5829L57.3499 30.6611L57.2719 30.739L57.2017 30.8093L57.1237 30.8874L57.0456 30.9575L56.9754 31.0356L56.8974 31.1137L56.8271 31.1839L56.749 31.262L56.671 31.3321L56.6008 31.4102L56.5228 31.4883L56.4525 31.5584L56.3745 31.6365L56.2964 31.7068L56.2262 31.7848L56.1482 31.8629L56.0779 31.933L55.9999 32.0111L55.9219 32.0892L55.8517 32.1593L55.7735 32.2375L55.6955 32.3076L55.6253 32.3857L55.5473 32.456L55.477 32.5339L55.399 32.612L55.3288 32.6823L55.2507 32.7603L55.1727 32.8384L55.1024 32.9085L55.0244 32.9866L54.9464 33.0569L54.8762 33.1348L54.7981 33.2129L54.7279 33.2831L54.6498 33.3612L54.5718 33.4315L54.5015 33.5094L54.4235 33.5875L54.3533 33.6578L54.2753 33.7357L54.1972 33.806L54.1269 33.884L54.0489 33.9621L53.9787 34.0324L53.9007 34.1103L53.8226 34.1806L53.7524 34.2585L53.6743 34.3367L53.6041 34.407L53.526 34.4849L53.448 34.5552L53.3778 34.6333L53.2998 34.7112L53.2296 34.7815L53.1514 34.8595L53.0734 34.9376L53.0032 35.0079L52.9252 35.0858L52.8549 35.1561L52.7769 35.234L52.6989 35.3121L52.6287 35.3825L52.5505 35.4604L52.4803 35.5307L52.4023 35.6088L52.3243 35.6867L52.2541 35.757L52.176 35.8349L52.0979 35.9053L52.0277 35.9834L51.9497 36.0613L51.8794 36.1316L51.8014 36.2095L51.7234 36.2798L51.6532 36.3579L51.575 36.4359L51.5048 36.5062L51.4268 36.5843L51.3488 36.6544L51.2786 36.7325L51.2005 36.8104L51.1303 36.8807L51.0522 36.9589L50.9742 37.029L50.9039 37.1071L50.8259 37.185L50.7557 37.2553L50.6777 37.3334L50.5996 37.4113L50.5294 37.4817L50.4513 37.5598L50.3733 37.6299L50.3031 37.708L50.225 37.7859L50.1548 37.8562L50.0768 37.9343L50.0065 38.0045L49.9284 38.0826L49.8504 38.1605L49.7802 38.2308L49.7022 38.3089L49.6241 38.379L49.5539 38.4571L49.4758 38.5353L49.4056 38.6054L49.3276 38.6835L49.2495 38.7536L49.1793 38.8317L49.1013 38.9098L49.0311 38.9799L48.9529 39.0581L48.8749 39.1282L48.8047 39.2063L48.7267 39.2844L48.6564 39.3545L48.5784 39.4326L48.5004 39.5029L48.4301 39.5809L48.3521 39.659L48.2818 39.7291L48.2038 39.8072L48.1258 39.8775L48.0556 39.9554L47.9775 40.0335L47.9073 40.1037L47.8292 40.1818L47.7512 40.2599L47.6809 40.33L47.6029 40.4081L47.5249 40.4784L47.4547 40.5563L47.3766 40.6345L47.3063 40.7046L47.2283 40.7827L47.1581 40.853L47.0801 40.9309L47.002 41.009L46.9318 41.0791L46.8537 41.1573L46.7757 41.2276L46.7054 41.3055L46.6274 41.3836L46.5572 41.4539L46.4792 41.5318L46.4012 41.6021L46.3309 41.6801L46.2528 41.7582L46.1826 41.8285L46.1046 41.9064L46.0265 41.9845L45.9563 42.0546L45.8783 42.1327L45.8002 42.203L45.7299 42.281L45.6519 42.3513L45.5817 42.4294L45.5037 42.5073L45.4334 42.5776L45.3554 42.6555L45.2773 42.7337L45.2071 42.804L45.1291 42.8819L45.051 42.9522L44.9808 43.0301L44.9028 43.1082L44.8326 43.1785L44.7545 43.2565L44.6764 43.3268L44.6062 43.4049L44.5282 43.4828L44.4579 43.5531L44.3799 43.631L44.3019 43.7013L44.2317 43.7794L44.1536 43.8574L44.0833 43.9277L44.0053 44.0056L43.9273 44.0759L43.8571 44.154L43.779 44.2319L43.7088 44.3022L43.6307 44.3804L43.5527 44.4505L43.4824 44.5286L43.4044 44.6065L43.3342 44.6768L43.2562 44.7549L43.1781 44.8329L43.1078 44.9032L43.0298 44.9811L42.9596 45.0514L42.8816 45.1295L42.8035 45.1996L42.7333 45.2777L42.6552 45.3559L42.585 45.426L42.5069 45.5041L42.4289 45.582L42.3587 45.6523L42.2807 45.7304L42.2027 45.8005L42.1324 45.8787L42.0543 45.9566L41.9841 46.0269L41.9061 46.105L41.8358 46.1751L41.7578 46.2532L41.6798 46.3313L41.6096 46.4015L41.5314 46.4796L41.4534 46.5497L41.3832 46.6278L41.3052 46.7059L41.2349 46.776L41.1569 46.8541L41.0788 46.9244L41.0086 47.0024L40.9306 47.0805L40.8603 47.1506L40.7823 47.2287L40.7043 47.3068L40.6341 47.3769L40.556 47.4551L40.4779 47.5252L40.4077 47.6033L40.3297 47.6736L40.2594 47.7515L40.1814 47.8296L40.1112 47.8999L40.0331 47.9779L39.9551 48.056L39.8848 48.1261L39.8068 48.2042L39.7288 48.2745L39.6586 48.3524L39.5805 48.4305L39.5103 48.5007L39.4322 48.5788L39.3542 48.6491L39.2839 48.727L39.2059 48.8051L39.1357 48.8754L39.0577 48.9533L38.9796 49.0236L38.9093 49.1016L38.8313 49.1797L38.7611 49.25L38.6831 49.3279L38.605 49.3982L38.5348 49.4761L38.4567 49.5543L38.3865 49.6246L38.3084 49.7025L38.2304 49.7728L38.1602 49.8509L38.0822 49.9288L38.012 49.9991L37.9339 50.0771L37.8558 50.1552L37.7856 50.2255L37.7076 50.3034L37.6373 50.3737L37.5593 50.4516L37.4813 50.5219L37.4111 50.6L37.3329 50.678L37.2627 50.7483L37.1847 50.8264L37.1067 50.9043L37.0365 50.9746L36.9584 51.0525L36.8803 51.1228L36.8101 51.201L36.7321 51.2789L36.6618 51.3492L36.5838 51.4271L36.5058 51.4974L36.4356 51.5755L36.3575 51.6535L36.2872 51.7238L36.2092 51.8019L36.1312 51.872L36.061 51.9501L35.9829 52.028L35.9127 52.0983L35.8347 52.1764L35.7566 52.2466L35.6863 52.3247L35.6083 52.4026L35.5381 52.4729L35.4601 52.551L35.382 52.6289L35.3118 52.6992L35.2337 52.7774L35.1557 52.8475L35.0855 52.9256L35.0074 53.0035L34.9372 53.0738L34.8592 53.1519V53.222L34.9372 53.5265L35.0074 53.9011V54.1975L35.023 54.4395L35.1557 54.2757V54.1975L35.2337 54.1274L35.3118 54.0493L35.382 53.9712L35.4601 53.9011L35.5381 53.823L35.6083 53.7528L35.6863 53.6747L35.7566 53.5966L64.6934 53.5265L64.6232 53.3002L64.5452 53.0035L64.4671 52.8475L64.3969 52.6289L64.3189 52.4026L64.2487 52.1764L64.1705 52.028L64.0925 51.8019L64.0223 51.6535L63.9443 51.4974L63.874 51.3492L63.796 51.201L63.718 51.0525L63.6477 50.9043L63.5697 50.7483L63.4994 50.6L63.4214 50.4516L63.3434 50.3034L63.2732 50.1552L63.1951 50.0771L63.1249 49.9288L63.0468 49.7728L62.9688 49.7025L62.8985 49.5543L62.8205 49.4761L62.7503 49.3279L62.6723 49.25L62.5942 49.1016L62.5239 49.0236L62.4459 48.8754L62.3679 48.8051L62.2977 48.727L62.2196 48.5788L62.1494 48.5007L62.0713 48.4305L61.9933 48.2745L61.923 48.2042L61.845 48.1261L61.7748 48.056L61.6968 47.8999L61.6188 47.8296L61.5484 47.7515L61.4704 47.6736L61.4002 47.6033L61.3222 47.5252L61.2441 47.4551L61.1739 47.3769L61.0959 47.3068L61.0257 47.2287L60.9475 47.0805L60.8695 47.0024L60.7993 46.9244L60.7213 46.8541L60.573 46.776L60.4949 46.7059L60.4247 46.6278L60.3467 46.5497L60.2686 46.4796L60.1984 46.4015L60.1204 46.3313L60.0502 46.2532L59.972 46.1751L59.8238 46.105L59.7458 46.0269L59.6755 45.9566L59.5975 45.8787L59.4492 45.8005L59.3712 45.7304L59.3009 45.6523L59.2229 45.582L59.0747 45.5041L58.9966 45.426L58.8483 45.3559L58.7703 45.2777L58.7 45.1996L58.5518 45.1295L58.4738 45.0514L58.3254 44.9811L58.2474 44.9032L58.0992 44.8329L57.9509 44.7549L57.8728 44.6768L57.7245 44.6065L57.5763 44.5286L57.4203 44.4505L57.3499 44.3804L57.2017 44.3022L57.0456 44.2319L56.8974 44.154L56.749 44.0759L56.6008 44.0056L56.4525 43.9277L56.2964 43.8574L56.0779 43.7794L55.9219 43.7013L55.7735 43.631L55.5473 43.5531L55.3288 43.4828L55.1727 43.4049L54.9464 43.3268L54.7279 43.2565L54.5015 43.1785L54.1972 43.1082L53.9787 43.0301L53.6743 42.9522L53.2998 42.8819L53.0032 42.804L52.5505 42.7337L52.0979 42.6555L51.4268 42.5776H48.8047L48.1258 42.6555L47.6809 42.7337L47.2283 42.804H46.9318L46.7054 42.7337V42.6555L46.7757 42.5776L46.8537 42.5073L46.9318 42.4294L47.002 42.3513L47.0801 42.281L47.1581 42.203L47.2283 42.1327L47.3063 42.0546L47.3766 41.9845L47.4547 41.9064L47.5249 41.8285L47.6029 41.7582L47.6809 41.6801L47.7512 41.6021L47.8292 41.5318L47.9073 41.4539L47.9775 41.3836L48.0556 41.3055L48.1258 41.2276L48.2038 41.1573L48.6564 41.0791L49.7802 41.009H50.3733L51.7234 41.0791L52.4023 41.1573L52.8549 41.2276L53.2998 41.3055L53.6743 41.3836L53.9787 41.4539L54.2753 41.5318L54.5718 41.6021L54.7981 41.6801L55.0244 41.7582L55.2507 41.8285L55.477 41.9064L55.6955 41.9845L55.9219 42.0546L56.1482 42.1327L56.2964 42.203L56.4525 42.281L56.671 42.3513L56.8271 42.4294L56.9754 42.5073L57.1237 42.5776L57.3499 42.6555L57.4983 42.7337L57.6465 42.804L57.8026 42.8819L57.8728 42.9522L58.0211 43.0301L58.1772 43.1082L58.3254 43.1785L58.4738 43.2565L58.5518 43.3268L58.7 43.4049L58.8483 43.4828L58.9263 43.5531L59.0747 43.631L59.1449 43.7013L59.3009 43.7794L59.3712 43.8574L59.5195 43.9277L59.5975 44.0056L59.7458 44.0759L59.8238 44.154L59.894 44.2319L60.0502 44.3022L60.1204 44.3804L60.1984 44.4505L60.3467 44.5286L60.4247 44.6065L60.4949 44.6768L60.651 44.7549L60.7213 44.8329L60.7993 44.9032L60.8695 44.9811L60.9475 45.0514L61.0257 45.1295L61.1739 45.1996L61.2441 45.2777L61.3222 45.3559L61.4002 45.426L61.4704 45.5041L61.5484 45.582L61.6188 45.6523L61.6968 45.7304L61.7748 45.8005L61.845 45.8787L61.923 45.9566L61.9933 46.0269L62.0713 46.105L62.1494 46.1751L62.2196 46.2532L62.2977 46.3313L62.3679 46.4015L62.4459 46.4796L62.5239 46.5497L62.5942 46.6278L62.6723 46.7059L62.7503 46.8541L62.8205 46.9244L62.8985 47.0024L62.9688 47.0805L63.0468 47.1506L63.1249 47.3068L63.1951 47.3769L63.2732 47.4551L63.3434 47.5252L63.4214 47.6736L63.4994 47.7515L63.5697 47.8296L63.6477 47.9779L63.718 48.056L63.796 48.2042L63.874 48.2745L63.9443 48.3524L64.0223 48.5007L64.0925 48.5788L64.1705 48.727L64.2487 48.8051L64.3189 48.9533L64.3969 49.1016L64.4671 49.1797L64.5452 49.3279L64.6232 49.4761L64.6934 49.6246L64.7715 49.7025L64.8417 49.8509L64.9198 49.9991L64.9978 50.1552L65.068 50.3034L65.146 50.4516L65.2242 50.6L65.2944 50.7483L65.3724 50.9746L65.4426 51.1228L65.5207 51.2789L65.5909 51.4974L65.6689 51.6535L65.7469 51.872L65.8172 52.028L65.8953 52.2466L65.9733 52.4729L66.0435 52.6992L66.1215 53.0035L66.1918 53.222L66.2698 53.5265L66.3479 53.823L66.4181 54.1274L66.4962 54.502L66.5664 54.7984V55.0248H35.2337L35.3118 55.2511L35.382 55.5476L35.4601 55.9222L35.5381 56.2266L35.6083 56.5231L35.6863 56.8977L35.7566 57.2021L35.8347 57.5689L35.9127 57.8731V58.2477V58.4741H36.3575V60.4172H37.8558V58.4741H38.2304V60.4172H39.5805V58.4741H40.0331V60.3471H41.3052V56.3749H41.7578V60.4172H43.1078V58.4741H43.4824V60.4172H44.9808V58.4741H45.4334V60.3471L46.7054 60.4172V58.3961H47.1581V60.425L48.4301 60.3471V56.3749H48.9529V60.3471H50.0768V58.4741H50.5294V60.4172H52.0277V58.4741H52.4023V60.4172H53.7524V58.4741H54.1972V60.3471L55.399 60.4172V56.3749H55.8517V60.3471L56.9754 60.4172V58.3961H57.4203V60.4172H58.8483V58.3961H59.3009V60.425L60.573 60.3471V58.3961H61.0257V60.4172H62.3679V56.3749H62.8205V60.3471H64.0925V58.3961H64.5452V60.425L65.9733 60.3471V58.3961H66.4181V60.4172H67.6901L67.7681 58.4741H68.1428V60.4172H69.4929V56.3749H69.9454V60.4172H72.1228L72.0447 56.3749L71.9666 56.0003L71.8886 55.2511L71.8184 54.6502L71.7404 54.1274L71.6701 53.7528L71.5921 53.3781L71.514 53.0035L71.4438 52.6992L71.3658 52.3247L71.2955 52.0983L71.2175 51.8019L71.1395 51.5755L71.0693 51.2789L70.9911 51.0525L70.9131 50.8264L70.8429 50.6L70.7649 50.3737L70.6946 50.1552L70.6166 49.9991L70.5464 49.7728L70.4683 49.6246L70.3903 49.3982L70.32 49.25L70.242 49.0236L70.164 48.8754L70.0938 48.727L70.0157 48.5788L69.9454 48.4305L69.8674 48.2042L69.7894 48.056L69.7191 47.8999L69.6411 47.8296L69.5709 47.6736L69.4929 47.5252L69.4148 47.3769L69.3445 47.2287L69.2665 47.0805L69.1963 46.9244L69.1183 46.8541L69.0402 46.7059L68.97 46.5497L68.8919 46.4015L68.8217 46.3313L68.7436 46.1751L68.6656 46.105L68.5954 45.9566L68.5174 45.8005L68.4472 45.7304L68.369 45.582L68.291 45.5041L68.2208 45.3559L68.1428 45.2777L68.0725 45.1996L67.9945 45.0514L67.9165 44.9811L67.8462 44.8329L67.7681 44.7549L67.6901 44.6768L67.6199 44.5286L67.5419 44.4505L67.4717 44.3804L67.3936 44.2319L67.3155 44.154L67.2453 44.0759L67.1673 44.0056L67.097 43.8574L67.019 43.7794L66.941 43.7013L66.8708 43.631L66.7926 43.5531L66.7224 43.4049L66.6444 43.3268L66.5664 43.2565L66.4962 43.1785L66.4181 43.1082L66.3479 43.0301L66.2698 42.9522L66.1918 42.8819L66.1215 42.7337L66.0435 42.6555L65.9733 42.5776L65.8953 42.5073L65.8172 42.4294L65.7469 42.3513L65.6689 42.281L65.5909 42.203L65.5207 42.1327L65.4426 42.0546L65.3724 41.9845L65.2944 41.9064L65.2242 41.8285L65.146 41.7582L64.9978 41.6801L64.9198 41.6021L64.8417 41.5318L64.7715 41.4539L64.6934 41.3836L64.6232 41.3055L64.5452 41.2276L64.4671 41.1573L64.3189 41.0791L64.2487 41.009L64.1705 40.9309L64.0925 40.853L64.0223 40.7827L63.9443 40.7046L63.796 40.6345L63.718 40.5563L63.6477 40.4784L63.4994 40.4081L63.4214 40.33L63.3434 40.2599L63.2732 40.1818L63.1249 40.1037L63.0468 40.0335L62.8985 39.9554L62.8205 39.8775L62.7503 39.8072L62.5942 39.7291L62.5239 39.659L62.3679 39.5809L62.2977 39.5029L62.1494 39.4326L62.0713 39.3545L61.923 39.2844L61.845 39.2063L61.6968 39.1282L61.6188 39.0581L61.4704 38.9799L61.3222 38.9098L61.1739 38.8317L61.0959 38.7536L60.9475 38.6835L60.7993 38.6054L60.651 38.5353L60.573 38.4571L60.4247 38.379L60.2686 38.3089L60.1204 38.2308L59.972 38.1605L59.8238 38.0826L59.6755 38.0045L59.5195 37.9343L59.3712 37.8562L59.2229 37.7859L59.0747 37.708L58.8483 37.6299L58.7 37.5598L58.5518 37.4817L58.3254 37.4113L58.1772 37.3334L57.9509 37.2553L57.7245 37.185L57.5763 37.1071L57.3499 37.029L57.1237 36.9589L56.8974 36.8807L56.671 36.8104L56.4525 36.7325L56.1482 36.6544L55.9219 36.5843L55.6253 36.5062L55.3288 36.4359L55.0244 36.3579L54.7279 36.2798L54.3533 36.2095L53.9787 36.1316L53.526 36.0613L53.448 35.9834V35.9053L53.526 35.8349L53.6041 35.757L53.6743 35.6867L53.7524 35.6088L53.8226 35.5307L53.9007 35.4604L53.9787 35.3825L54.0489 35.3121L54.1269 35.234L54.1972 35.1561L54.2753 35.0858L54.3533 35.0079L54.4235 34.9376L54.5015 34.8595L54.5718 34.7815H55.0244L55.399 34.8595L55.6955 34.9376L55.9999 35.0079L56.2964 35.0858L56.5228 35.1561L56.8271 35.234L57.0456 35.3121L57.2719 35.3825L57.4983 35.4604L57.7245 35.5307L57.9509 35.6088L58.1772 35.6867L58.3254 35.757L58.5518 35.8349L58.7 35.9053L58.9263 35.9834L59.0747 36.0613L59.3009 36.1316L59.4492 36.2095L59.5975 36.2798L59.8238 36.3579L59.972 36.4359L60.1204 36.5062L60.2686 36.5843L60.4247 36.6544L60.573 36.7325L60.7213 36.8104L60.8695 36.8807L61.0257 36.9589L61.1739 37.029L61.3222 37.1071L61.4002 37.185L61.5484 37.2553L61.6968 37.3334L61.845 37.4113L61.923 37.4817L62.0713 37.5598L62.2196 37.6299L62.2977 37.708L62.4459 37.7859L62.5942 37.8562L62.6723 37.9343L62.8205 38.0045L62.8985 38.0826L63.0468 38.1605L63.1249 38.2308L63.2732 38.3089L63.3434 38.379L63.4994 38.4571L63.5697 38.5353L63.6477 38.6054L63.796 38.6835L63.874 38.7536L64.0223 38.8317L64.0925 38.9098L64.1705 38.9799L64.3189 39.0581L64.3969 39.1282L64.4671 39.2063L64.5452 39.2844L64.6934 39.3545L64.7715 39.4326L64.8417 39.5029L64.9198 39.5809L65.068 39.659L65.146 39.7291L65.2242 39.8072L65.2944 39.8775L65.3724 39.9554L65.4426 40.0335L65.5909 40.1037L65.6689 40.1818L65.7469 40.2599L65.8172 40.33L65.8953 40.4081L65.9733 40.4784L66.0435 40.5563L66.1215 40.6345L66.1918 40.7046L66.2698 40.7827L66.3479 40.853L66.4181 40.9309L66.4962 41.009L66.5664 41.0791L66.6444 41.1573L66.7926 41.2276L66.8708 41.3836L66.941 41.4539L67.019 41.5318L67.097 41.6021L67.1673 41.6801L67.2453 41.7582L67.3155 41.8285L67.3936 41.9064L67.4717 41.9845L67.5419 42.0546L67.6199 42.1327L67.6901 42.203L67.7681 42.3513L67.8462 42.4294L67.9165 42.5073L67.9945 42.5776L68.0725 42.6555L68.1428 42.7337L68.2208 42.8819L68.291 42.9522L68.369 43.0301L68.4472 43.1082L68.5174 43.2565L68.5954 43.3268L68.6656 43.4049L68.7436 43.4828L68.8217 43.631L68.8919 43.7013L68.97 43.7794L69.0402 43.9277L69.1183 44.0056L69.1963 44.154L69.2665 44.2319L69.3445 44.3022L69.4148 44.4505L69.4929 44.5286L69.5709 44.6768L69.6411 44.7549L69.7191 44.9032L69.7894 44.9811L69.8674 45.1295L69.9454 45.1996L70.0157 45.3559L70.0938 45.5041L70.164 45.582L70.242 45.7304L70.32 45.8787L70.3903 45.9566L70.4683 46.105L70.5464 46.2532L70.6166 46.4015L70.6946 46.4796L70.7649 46.6278L70.8429 46.776L70.9131 46.9244L70.9911 47.0805L71.0693 47.2287L71.1395 47.3769L71.2175 47.5252L71.2955 47.6736L71.3658 47.8296L71.4438 47.9779L71.514 48.2042L71.5921 48.3524L71.6701 48.5007L71.7404 48.727L71.8184 48.8754L71.8886 49.1016L71.9666 49.25L72.0447 49.4761L72.115 49.6246L72.193 49.8509L72.2632 50.0771L72.3413 50.3034L72.4193 50.5219L72.4895 50.7483L72.5675 51.0525L72.6378 51.2789L72.7159 51.4974L72.7939 51.8019L72.8641 52.0983L72.9421 52.4026L73.0124 52.7774L73.0904 53.1519L73.1685 53.5265L73.2387 53.9712L73.3168 54.4239L73.3948 55.0248L73.465 55.8521ZM34.4846 51.201V51.2789L34.5626 51.3492L34.6328 51.4271H34.7108H34.8592L34.7811 51.5755H34.7108L34.6328 51.6535L34.5626 51.7238L34.4846 51.5755L34.4065 51.4974L34.3285 51.0525L34.4846 51.201ZM29.615 50.9043V51.0525L29.6852 51.1228L29.7632 51.201L29.8334 51.2789L29.9115 51.3492L29.9895 51.4271L30.0597 51.4974L30.1378 51.5755L30.2158 51.6535L30.2861 51.7238L30.3641 51.8019L30.4343 51.872L30.5123 51.9501L30.5905 52.028L30.6607 52.0983L30.7387 52.1764L30.8089 52.2466L30.887 52.3247L30.965 52.4026L31.0352 52.4729L31.1133 52.551L31.1836 52.6289L31.2616 52.6992L31.3396 52.7774L31.4098 52.8475L31.4878 52.9256L31.5581 53.0035L31.6362 53.0738L31.7142 53.1519L31.7844 53.222L31.8625 53.3002L31.9405 53.3781L32.0107 53.4484L32.0887 53.5265L32.159 53.5966L32.2371 53.6747L32.3073 53.7528L32.3853 53.823V53.9011L32.3073 53.9712L32.2371 54.0493L32.159 54.1274L32.0887 54.1975L32.0107 54.2757L31.9405 54.3458L31.8625 54.4239L31.7844 54.502L31.7142 54.5721L31.6362 54.6502L31.5581 54.7283L31.4878 54.7984L31.4098 54.8766L31.3396 54.9467L31.2616 55.0248L31.1836 55.0951L31.1133 55.173L31.0352 55.2511L30.965 55.3212L30.887 55.3994L30.8089 55.4775H30.6607L30.5905 55.3994L30.5123 55.3212L30.4343 55.2511L30.3641 55.173L30.2861 55.0951L30.2158 55.0248L30.1378 54.9467L30.0597 54.8766L29.9895 54.7984L29.9115 54.7283L29.8334 54.6502L29.7632 54.5721L29.6852 54.502L29.615 54.4239L29.5369 54.3458L29.4588 54.2757L29.3886 54.1975L29.3106 54.1274L29.2403 54.0493L29.1623 53.9712L29.0843 53.9011L29.0141 53.823L28.936 53.7528L28.8657 53.6747L28.7877 53.5966L28.7097 53.5265L28.6395 53.4484L28.5614 53.3781L28.4912 53.3002L28.4131 53.222L28.3351 53.1519L28.2648 53.0738L28.1868 53.0035L28.1166 52.9256L28.0386 52.8475L27.9605 52.7774H27.742L27.664 52.8475L27.5859 52.9256L27.5157 53.0035L27.4377 53.0738L27.3674 53.1519L27.2893 53.222L27.2113 53.3002L27.1411 53.3781V53.5265L27.2113 53.5966L27.2893 53.6747L27.3674 53.7528L27.4377 53.823L27.5157 53.9011L27.5859 53.9712L27.664 54.0493L27.742 54.1274L27.8122 54.1975L27.8902 54.2757L27.9605 54.3458L28.0386 54.4239L28.1166 54.502L28.1868 54.5721L28.2648 54.6502L28.3351 54.7283L28.4131 54.7984L28.4912 54.8766L28.5614 54.9467L28.6395 55.0248L28.7097 55.0951L28.7877 55.173L28.8657 55.2511L28.936 55.3212L29.0141 55.3994L29.0843 55.4775L29.1623 55.5476L29.2403 55.6257L29.3106 55.696L29.3886 55.7739L29.4588 55.8521L29.5369 55.9222L29.615 56.0003L29.6852 56.0706L29.7632 56.1485L29.8334 56.2266L29.9115 56.2967V56.3749L29.8334 56.4452L29.7632 56.5231L29.6852 56.6012L29.615 56.6715L29.5369 56.7494L29.4588 56.8197L29.3886 56.8977L29.3106 56.9758L29.2403 57.0461L29.1623 57.124L29.0843 57.2021L29.0141 57.2722L28.936 57.3503L28.8657 57.4206L28.7877 57.4986L28.7097 57.5689L28.6395 57.647L28.5614 57.7249L28.4912 57.7952L28.4131 57.8731L28.3351 57.9513L28.2648 58.0216L28.1868 58.0995L28.1166 58.1698H28.0386L27.9605 58.0995L27.8902 58.0216L27.8122 57.9513L27.742 57.8731L27.664 57.7952L27.5859 57.7249L27.5157 57.647L27.4377 57.5689L27.3674 57.4986L27.2893 57.4206L27.2113 57.3503L27.1411 57.2722L27.0631 57.2021L26.9851 57.124L26.9148 57.0461L26.8367 56.9758L26.7665 56.8977L26.6885 56.8197L26.6182 56.7494L26.5402 56.6715L26.4622 56.6012L26.392 56.5231L26.3138 56.4452L26.2358 56.3749L26.1656 56.2967L26.0876 56.2266L26.0173 56.1485L25.9393 56.0706L25.8612 56.0003L25.791 55.9222L25.713 55.8521L25.6427 55.7739L25.5647 55.696L25.4867 55.6257L25.4165 55.5476L25.3384 55.4775L25.2681 55.3994H25.1121L25.0418 55.4775L24.9638 55.5476L24.8936 55.6257L24.8156 55.696L24.7375 55.7739L24.6672 55.8521L24.5892 55.9222L24.5112 56.0003V56.2266L24.5892 56.2967L24.6672 56.3749L24.7375 56.4452L24.8156 56.5231L24.8936 56.6012L24.9638 56.6715L25.0418 56.7494L25.1121 56.8197L25.1901 56.8977L25.2681 56.9758L25.3384 57.0461L25.4165 57.124L25.4867 57.2021L25.5647 57.2722L25.6427 57.3503L25.713 57.4206L25.791 57.4986L25.8612 57.5689L25.9393 57.647L26.0173 57.7249L26.0876 57.7952L26.1656 57.8731L26.2358 57.9513L26.3138 58.0216L26.392 58.0995L26.4622 58.1698L26.5402 58.2477L26.6182 58.3258L26.6885 58.3961L26.7665 58.4741L26.8367 58.5444L26.9148 58.6225L26.9851 58.7004L27.0631 58.7707L27.1411 58.8486L27.2113 58.9189V59.075L27.1411 59.1453L27.0631 59.2232L26.9851 59.2935L26.9148 59.3716L26.8367 59.4495L26.7665 59.5198L26.6885 59.598L26.6182 59.6681L26.5402 59.7462L26.4622 59.8241L26.392 59.8944L26.3138 59.9725L26.2358 60.0505L26.1656 60.1208L26.0876 60.1987L26.0173 60.269L25.9393 60.3471L25.8612 60.4172L25.791 60.4953L25.713 60.5734L25.6427 60.6436L25.5647 60.7217H25.4165L25.3384 60.6436L25.2681 60.5734L25.1901 60.4953L25.1121 60.4172L25.0418 60.3471L24.9638 60.269L24.8936 60.1987L24.8156 60.1208L24.7375 60.0505L24.6672 59.9725L24.5892 59.8944L24.5112 59.8241L24.441 59.7462L24.3629 59.6681L24.2927 59.598L24.2146 59.5198L24.1366 59.4495L24.0663 59.3716L23.9883 59.2935L23.9181 59.2232L23.8401 59.1453L23.762 59.075L23.6917 58.997L23.6137 58.9189L23.5435 58.8486L23.4655 58.7707L23.3874 58.7004L23.3172 58.6225L23.2392 58.5444L23.1689 58.4741L23.0908 58.3961L23.0128 58.3258L22.9426 58.2477L22.8646 58.1698L22.7944 58.0995L22.7163 58.0216L22.6382 57.9513L22.568 57.8731L22.49 57.7952L22.4119 57.7249L22.3417 57.647L22.2637 57.5689L22.1935 57.4986L22.1153 57.4206L22.0451 57.3503L21.9671 57.2722L21.8891 57.2021L21.8189 57.124L21.7408 57.0461L21.6628 56.9758L21.5925 56.8977L21.5145 56.8197L21.4442 56.7494L21.3662 56.6715L21.2882 56.6012L21.218 56.5231L21.1399 56.4452L21.0696 56.3749L20.9916 56.2967L20.9136 56.2266L20.8434 56.1485L20.7653 56.0706L20.6951 56.0003L20.6171 55.9222L20.539 55.8521L20.4687 55.7739L20.3907 55.696L20.3205 55.6257L20.2425 55.5476L20.1644 55.4775L20.0942 55.3994L20.0161 55.3212L19.9459 55.2511L19.8679 55.173L19.7898 55.0951L19.7196 55.0248L19.6416 54.9467L19.5635 54.8766L19.4932 54.7984L19.4152 54.7283L19.345 54.6502L19.267 54.5721L19.1889 54.502L19.1187 54.4239L19.0407 54.3458L18.9704 54.2757L18.8924 54.1975L18.8143 54.1274L18.7441 54.0493L18.6661 53.9712L18.5959 53.9011L18.5178 53.823L18.4397 53.7528L18.3695 53.6747L18.2915 53.5966L18.2212 53.5265L18.1432 53.4484L18.0652 53.3781L17.995 53.3002V53.222L18.0652 53.1519L18.1432 53.0738L18.2212 53.0035L18.2915 52.9256L18.3695 52.8475L18.4397 52.7774L18.5178 52.6992L18.5959 52.6289L18.6661 52.551L18.7441 52.4729L18.8143 52.4026L18.8924 52.3247L18.9704 52.2466L19.0407 52.1764L19.1187 52.0983L19.1889 52.028L19.267 51.9501L19.345 51.872L19.4152 51.8019L19.4932 51.7238L19.5635 51.6535L19.6416 51.5755L19.7196 51.4974L19.7898 51.4271L19.8679 51.3492L19.9459 51.2789L20.0161 51.201L20.0942 51.1228L20.1644 51.0525L20.2425 50.9746L20.3205 50.9043L20.3907 50.8264L20.4687 50.7483L20.539 50.678L20.6171 50.6L20.6951 50.5219L20.7653 50.4516L20.8434 50.3737L20.9136 50.3034L20.9916 50.2255L21.0696 50.1552L21.1399 50.0771L21.218 49.9991L21.2882 49.9288L21.3662 49.8509L21.4442 49.7728L21.5145 49.7025L21.5925 49.6246L21.6628 49.5543L21.7408 49.4761L21.8189 49.3982L21.8891 49.3279L21.9671 49.25L22.0451 49.1797L22.1153 49.1016L22.1935 49.0236L22.2637 48.9533L22.3417 48.8754L22.4119 48.8051L22.49 48.727L22.568 48.6491L22.6382 48.5788L22.7163 48.5007L22.7944 48.4305L22.8646 48.3524L22.9426 48.2745L23.0128 48.2042L23.0908 48.1261L23.1689 48.056L23.2392 47.9779L23.3172 47.8999L23.3874 47.8296L23.4655 47.7515L23.5435 47.6736L23.6137 47.6033L23.6917 47.5252L23.762 47.4551L23.8401 47.3769L23.9181 47.3068L23.9883 47.2287L24.0663 47.1506L24.1366 47.0805L24.2146 47.0024L24.2927 46.9244L24.3629 46.8541L24.441 46.776L24.5112 46.7059L24.5892 46.6278L24.6672 46.5497L24.7375 46.4796L24.8156 46.4015L24.8936 46.3313L24.9638 46.2532L25.0418 46.1751L25.1121 46.105L25.1901 46.0269L25.2681 45.9566L25.3384 45.8787L25.4165 45.8005L25.4867 45.7304L25.5647 45.6523L25.6427 45.582L25.713 45.5041L25.791 45.426L25.8612 45.3559L25.9393 45.2777L26.0173 45.1996L26.0876 45.1295L26.1656 45.0514L26.2358 44.9811L26.3138 44.9032V44.8329L26.4622 44.7393V44.9032V45.0514L26.5402 45.2777L26.6182 45.426L26.6885 45.6523L26.7665 45.8005L26.8367 46.0269L26.9148 46.2532L26.9851 46.4015L27.0631 46.6278L27.1411 46.776L27.2113 47.0024L27.2893 47.1506L27.3674 47.3769L27.4377 47.5252L27.5157 47.7515L27.5859 47.9779L27.664 48.1261L27.742 48.3524L27.8122 48.5007L27.8902 48.727L27.9605 48.8754L28.0386 49.1016L28.1166 49.1797L28.1868 49.25L28.2648 49.3279L28.3351 49.3982L28.4131 49.4761L28.4912 49.5543L28.5614 49.6246L28.6395 49.7025L28.7877 49.7728L28.8657 49.8509L28.936 49.9288L29.0141 49.9991L29.0843 50.0771L29.1623 50.1552L29.2403 50.2255L29.3106 50.3034L29.3886 50.3737L29.4588 50.4516L29.5369 50.5219L29.615 50.6L29.6852 50.678V50.8264L29.615 50.9043ZM36.8803 49.3982L36.8101 49.4761L36.7321 49.5543L36.6618 49.6246L36.5838 49.7025L36.5058 49.7728L36.4356 49.8509L36.3575 49.9288L36.2872 49.9991L36.2092 50.0771L36.1312 50.1552L36.061 50.2255L35.9829 50.3034L35.9127 50.3737L35.8347 50.4516L35.7566 50.5219L35.6863 50.6L35.6083 50.678H35.4601L35.382 50.6L35.3118 50.5219L35.2337 50.4516L35.1557 50.3737L35.0855 50.3034L35.0074 50.2255L34.9372 50.1552L34.8592 50.0771L34.7811 49.9991L34.7108 49.9288L34.6328 49.8509L34.5626 49.7728V49.4761L34.6328 48.5788L34.7108 47.6736L34.7811 47.0805L34.8592 47.1506L34.9372 47.2287L35.0074 47.3068L35.0855 47.3769L35.1557 47.4551L35.2337 47.5252L35.3118 47.6033L35.382 47.6736L35.4601 47.7515L35.5381 47.8296L35.6083 47.8999L35.6863 47.9779L35.7566 48.056L35.8347 48.1261L35.9127 48.2042L35.9829 48.2745L36.061 48.3524L36.1312 48.4305L36.2092 48.5007L36.2872 48.5788L36.3575 48.6491L36.4356 48.727L36.5058 48.8051L36.5838 48.8754L36.6618 48.9533L36.7321 49.0236L36.8101 49.1016L36.8803 49.1797L36.9584 49.25V49.3279L36.8803 49.3982ZM29.4588 32.3076L29.3886 32.0892L29.3106 31.8629L29.2403 31.7068L29.1623 31.4883L29.0843 31.262L29.0141 31.0356L29.5369 30.9575L29.5057 32.4716L29.4588 32.3076ZM49.5539 25.2608L49.4758 25.3387L49.4056 25.4169L49.3276 25.487L49.2495 25.5651L49.1793 25.6354L49.1013 25.7133L49.0311 25.7914V25.9397L49.1013 26.01L49.1793 26.0879L49.2495 26.166L49.3276 26.2363L49.4056 26.3142L49.4758 26.3845L49.5539 26.4625L49.6241 26.5406L49.7022 26.6109L49.7802 26.6888L49.8504 26.7669L49.9284 26.837L50.0065 26.9151L50.0768 26.9855L50.1548 27.0634L50.225 27.1337L50.3031 27.2118L50.3733 27.2897L50.4513 27.36L50.5294 27.4379L50.5996 27.5161L50.6777 27.5864L50.7557 27.6643L50.8259 27.7346L50.9039 27.8125L50.9742 27.8906L51.0522 27.9609L51.1303 28.0389L51.2005 28.1092L51.2786 28.1873L51.3488 28.2652L51.4268 28.3355L51.5048 28.4134L51.575 28.4837L51.6532 28.5619L51.7234 28.6398L51.8014 28.7101L51.8794 28.788L51.9497 28.8583L52.0277 28.9364L52.0979 29.0143L52.176 29.0847L52.2541 29.1628L52.3243 29.2329L52.4023 29.311L52.4803 29.3889L52.5505 29.4592L52.6287 29.5373L52.6989 29.6153L52.7769 29.6856L52.8549 29.7635L52.9252 29.8338L53.0032 29.9119L53.0734 29.9898L53.1514 30.0601L53.2296 30.1383L53.2998 30.2084L53.3778 30.2865L53.448 30.3644L53.526 30.4347L53.6041 30.5128L53.6743 30.5829L53.7524 30.6611L53.8226 30.739L53.9007 30.8093L53.9787 30.8874L54.0489 30.9575L54.1269 31.0356L54.1972 31.1137L54.2753 31.1839L54.3533 31.262L54.4235 31.3321L54.5015 31.4102L54.5718 31.4883V31.6365L54.5015 31.7068L54.4235 31.7848L54.3533 31.8629L54.2753 31.933L54.1972 32.0111L54.1269 32.0892L54.0489 32.1593L53.9787 32.2375L53.9007 32.3076L53.8226 32.3857L53.7524 32.456L53.6743 32.5339L53.6041 32.612L53.526 32.6823L53.448 32.7603L53.3778 32.8384L53.2998 32.9085L53.2296 32.9866L53.1514 33.0569L53.0734 33.1348L53.0032 33.2129H52.8549L52.7769 33.1348L52.6989 33.0569L52.6287 32.9866L52.5505 32.9085L52.4803 32.8384L52.4023 32.7603L52.3243 32.6823L52.2541 32.612L52.176 32.5339L52.0979 32.456L52.0277 32.3857L51.9497 32.3076L51.8794 32.2375L51.8014 32.1593L51.7234 32.0892L51.6532 32.0111L51.575 31.933L51.5048 31.8629L51.4268 31.7848L51.3488 31.7068L51.2786 31.6365L51.2005 31.5584L51.1303 31.4883L51.0522 31.4102L50.9742 31.3321L50.9039 31.262L50.8259 31.1839L50.7557 31.1137L50.6777 31.0356L50.5996 30.9575L50.5294 30.8874L50.4513 30.8093L50.3733 30.739L50.3031 30.6611L50.225 30.5829L50.1548 30.5128H50.0065L49.9284 30.5829L49.8504 30.6611L49.7802 30.739L49.7022 30.8093L49.6241 30.8874L49.5539 30.9575L49.4758 31.0356L49.4056 31.1137V31.3321L49.4758 31.4102L49.5539 31.4883L49.6241 31.5584L49.7022 31.6365L49.7802 31.7068L49.8504 31.7848L49.9284 31.8629L50.0065 31.933L50.0768 32.0111L50.1548 32.0892L50.225 32.1593L50.3031 32.2375L50.3733 32.3076L50.4513 32.3857L50.5294 32.456L50.5996 32.5339L50.6777 32.612L50.7557 32.6823L50.8259 32.7603L50.9039 32.8384L50.9742 32.9085L51.0522 32.9866L51.1303 33.0569L51.2005 33.1348L51.2786 33.2129L51.3488 33.2831L51.4268 33.3612L51.5048 33.4315L51.575 33.5094L51.6532 33.5875L51.7234 33.6578L51.8014 33.7357L51.8794 33.806L51.9497 33.884L52.0277 33.9621L52.0979 34.0324V34.1806L52.0277 34.2585L51.9497 34.3367L51.8794 34.407L51.8014 34.4849L51.7234 34.5552L51.6532 34.6333L51.575 34.7112L51.5048 34.7815L51.4268 34.8595L51.3488 34.9376L51.2786 35.0079L51.2005 35.0858L51.1303 35.1561L51.0522 35.234L50.9742 35.3121L50.9039 35.3825L50.8259 35.4604L50.7557 35.5307L50.6777 35.6088L50.5996 35.6867L50.5294 35.757H50.4513L50.3733 35.6867L50.3031 35.6088L50.225 35.5307L50.1548 35.4604L50.0768 35.3825L50.0065 35.3121L49.9284 35.234L49.8504 35.1561L49.7802 35.0858L49.7022 35.0079L49.6241 34.9376L49.5539 34.8595L49.4758 34.7815L49.4056 34.7112L49.3276 34.6333L49.2495 34.5552L49.1793 34.4849L49.1013 34.407L49.0311 34.3367L48.9529 34.2585L48.8749 34.1806L48.8047 34.1103L48.7267 34.0324L48.6564 33.9621L48.5784 33.884L48.5004 33.806L48.4301 33.7357L48.3521 33.6578L48.2818 33.5875L48.2038 33.5094L48.1258 33.4315L48.0556 33.3612L47.9775 33.2831L47.9073 33.2129L47.8292 33.1348L47.7512 33.0569L47.6809 32.9866H47.5249L47.4547 33.0569L47.3766 33.1348L47.3063 33.2129L47.2283 33.2831L47.1581 33.3612L47.0801 33.4315L47.002 33.5094L46.9318 33.5875V33.806L47.002 33.884L47.0801 33.9621L47.1581 34.0324L47.2283 34.1103L47.3063 34.1806L47.3766 34.2585L47.4547 34.3367L47.5249 34.407L47.6029 34.4849L47.6809 34.5552L47.7512 34.6333L47.8292 34.7112L47.9073 34.7815L47.9775 34.8595L48.0556 34.9376L48.1258 35.0079L48.2038 35.0858L48.2818 35.1561L48.3521 35.234L48.4301 35.3121L48.5004 35.3825L48.5784 35.4604L48.6564 35.5307L48.7267 35.6088L48.8047 35.6867L48.8749 35.757L48.9529 35.8349L49.0311 35.9053L49.1013 35.9834L49.1793 36.0613L49.2495 36.1316L49.3276 36.2095L49.4056 36.2798L49.4758 36.3579L49.5539 36.4359L49.6241 36.5062V36.5843L49.5539 36.6544L49.4758 36.7325L49.4056 36.8104L49.3276 36.8807L49.2495 36.9589L49.1793 37.029L49.1013 37.1071L49.0311 37.185L48.9529 37.2553L48.8749 37.3334L48.8047 37.4113L48.7267 37.4817L48.6564 37.5598L48.5784 37.6299L48.5004 37.708L48.4301 37.7859L48.3521 37.8562L48.2818 37.9343L48.2038 38.0045L48.1258 38.0826L48.0556 38.1605L47.9775 38.2308L47.9073 38.3089V38.379V38.5353L47.7512 38.4571V38.379L47.6809 38.3089L47.6029 38.2308L47.5249 38.1605L47.4547 38.0826L47.3766 38.0045L47.3063 37.9343L47.2283 37.8562L47.1581 37.7859L47.0801 37.708L47.002 37.6299L46.9318 37.5598L46.8537 37.4817L46.7757 37.4113L46.7054 37.3334L46.6274 37.2553L46.5572 37.185L46.4792 37.1071L46.4012 37.029L46.3309 36.9589L46.2528 36.8807L46.1826 36.8104L46.1046 36.7325L46.0265 36.6544L45.9563 36.5843L45.8783 36.5062L45.8002 36.4359L45.7299 36.3579L45.6519 36.2798L45.5817 36.2095L45.5037 36.1316L45.4334 36.0613L45.3554 35.9834L45.2773 35.9053L45.2071 35.8349L45.1291 35.757L45.051 35.6867L44.9808 35.6088H44.9028L44.8326 35.6867L44.7545 35.757L44.6764 35.8349L44.6062 35.9053L44.5282 35.9834L44.4579 36.0613L44.3799 36.1316L44.3019 36.2095L44.2317 36.2798V36.3579L44.3019 36.4359L44.3799 36.5062L44.4579 36.5843L44.5282 36.6544L44.6062 36.7325L44.6764 36.8104L44.7545 36.8807L44.8326 36.9589L44.9028 37.029L44.9808 37.1071L45.051 37.185L45.1291 37.2553L45.2071 37.3334L45.2773 37.4113L45.3554 37.4817L45.4334 37.5598L45.5037 37.6299L45.5817 37.708L45.6519 37.7859L45.7299 37.8562L45.8002 37.9343L45.8783 38.0045L45.9563 38.0826L46.0265 38.1605L46.1046 38.2308L46.1826 38.3089L46.2528 38.379L46.3309 38.4571L46.4012 38.5353L46.4792 38.6054L46.5572 38.6835L46.6274 38.7536L46.7054 38.8317L46.7757 38.9098L46.8537 38.9799L46.9318 39.0581L47.002 39.1282V39.2844L46.9318 39.3545L46.8537 39.4326L46.7757 39.5029L46.7054 39.5809L46.6274 39.659L46.5572 39.7291L46.4792 39.8072L46.4012 39.8775L46.3309 39.9554L46.2528 40.0335L46.1826 40.1037L46.1046 40.1818L46.0265 40.2599L45.9563 40.33L45.8783 40.4081L45.8002 40.4784L45.7299 40.5563L45.6519 40.6345L45.5817 40.7046L45.5037 40.7827L45.4334 40.853H45.2773L45.2071 40.7827L45.1291 40.7046L45.051 40.6345L44.9808 40.5563L44.9028 40.4784L44.8326 40.4081L44.7545 40.33L44.6764 40.2599L44.6062 40.1818L44.5282 40.1037L44.4579 40.0335L44.3799 39.9554L44.3019 39.8775L44.2317 39.8072L44.1536 39.7291L44.0833 39.659L44.0053 39.5809L43.9273 39.5029L43.8571 39.4326L43.779 39.3545L43.7088 39.2844L43.6307 39.2063L43.5527 39.1282L43.4824 39.0581L43.4044 38.9799L43.3342 38.9098L43.2562 38.8317L43.1781 38.7536L43.1078 38.6835L43.0298 38.6054L42.9596 38.5353L42.8816 38.4571L42.8035 38.379L42.7333 38.3089L42.6552 38.2308L42.585 38.1605L42.5069 38.0826L42.4289 38.0045L42.3587 37.9343L42.2807 37.8562L42.2027 37.7859L42.1324 37.708L42.0543 37.6299L41.9841 37.4817L41.9061 37.4113L41.8358 37.3334L41.7578 37.2553L41.6798 37.185L41.6096 37.1071L41.5314 37.029L41.4534 36.9589L41.3832 36.8807L41.3052 36.8104L41.2349 36.7325L41.1569 36.6544L41.0788 36.5843L41.0086 36.5062L40.9306 36.4359L40.8603 36.3579L40.7823 36.2798L40.7043 36.2095L40.6341 36.1316L40.556 36.0613L40.4779 35.9834L40.4077 35.9053L40.3297 35.8349L40.2594 35.757L40.1814 35.6867L40.1112 35.6088L40.0331 35.5307L39.9551 35.4604L39.8848 35.3825L39.8068 35.3121L39.7288 35.234H39.5805L39.5103 35.3121L39.4322 35.3825L39.3542 35.4604L39.2839 35.5307L39.2059 35.6088L39.1357 35.6867L39.0577 35.757L38.9796 35.8349L38.9093 35.9053V35.9834L38.9796 36.0613L39.0577 36.1316L39.1357 36.2095L39.2059 36.2798L39.2839 36.3579L39.3542 36.4359L39.4322 36.5062L39.5103 36.5843L39.5805 36.6544L39.6586 36.7325L39.7288 36.8104L39.8068 36.8807L39.8848 36.9589L39.9551 37.029L40.0331 37.1071L40.1112 37.185L40.1814 37.2553L40.2594 37.3334L40.3297 37.4113L40.4077 37.4817L40.4779 37.5598L40.556 37.6299L40.6341 37.708L40.7043 37.7859L40.7823 37.8562L40.8603 37.9343L40.9306 38.0045L41.0086 38.0826L41.0788 38.1605L41.1569 38.2308L41.2349 38.3089L41.3052 38.379L41.3832 38.4571L41.4534 38.5353L41.5314 38.6054L41.6096 38.6835L41.6798 38.7536L41.7578 38.8317L41.8358 38.9098L41.9061 38.9799L41.9841 39.0581L42.0543 39.1282L42.1324 39.2063L42.2027 39.2844L42.2807 39.3545L42.3587 39.4326L42.4289 39.5029L42.5069 39.5809L42.585 39.659L42.6552 39.7291L42.7333 39.8072L42.8035 39.8775L42.8816 39.9554L42.9596 40.0335L43.0298 40.1037L43.1078 40.1818L43.1781 40.2599L43.2562 40.33L43.3342 40.4081L43.4044 40.4784L43.4824 40.5563L43.5527 40.6345L43.6307 40.7046L43.7088 40.7827L43.779 40.853L43.8571 40.9309L43.9273 41.009L44.0053 41.0791L44.0833 41.1573L44.1536 41.2276L44.2317 41.3055L44.3019 41.3836L44.3799 41.4539L44.4579 41.5318L44.5282 41.6021H44.6062L44.6921 41.7504L44.5282 41.7582H44.4579L44.3799 41.8285L44.3019 41.9064L44.2317 41.9845L44.1536 42.0546L44.0833 42.1327L44.0053 42.203L43.9273 42.281L43.8571 42.3513L43.779 42.4294L43.7088 42.5073L43.6307 42.5776L43.5527 42.6555L43.4824 42.7337L43.4044 42.804L43.3342 42.8819L43.2562 42.9522L43.1781 43.0301L43.1078 43.1082L43.0298 43.1785L42.9596 43.2565L42.8816 43.3268H42.8035L42.7333 43.2565L42.6552 43.1785L42.585 43.1082L42.5069 43.0301L42.4289 42.9522L42.3587 42.8819L42.2807 42.804L42.2027 42.7337L42.1324 42.6555L42.0543 42.5776L41.9841 42.5073L41.9061 42.4294L41.8358 42.3513L41.7578 42.281L41.6798 42.203L41.6096 42.1327L41.5314 42.0546L41.4534 41.9845L41.3832 41.9064L41.3052 41.8285L41.2349 41.7582L41.1569 41.6801L41.0788 41.6021L41.0086 41.5318L40.9306 41.4539L40.8603 41.3836L40.7823 41.3055L40.7043 41.2276L40.6341 41.1573L40.556 41.0791L40.4779 41.009L40.4077 40.9309L40.3297 40.853L40.2594 40.7827L40.1814 40.7046L40.1112 40.6345H39.8848L39.8068 40.7046L39.7288 40.7827L39.6586 40.853L39.5805 40.9309L39.5103 41.009L39.4322 41.0791L39.3542 41.1573L39.2839 41.2276V41.3836L39.3542 41.4539L39.4322 41.5318L39.5103 41.6021L39.5805 41.6801L39.6586 41.7582L39.7288 41.8285L39.8068 41.9064L39.8848 41.9845L39.9551 42.0546L40.0331 42.1327L40.1112 42.203L40.1814 42.281L40.2594 42.3513L40.3297 42.4294L40.4077 42.5073L40.4779 42.5776L40.556 42.6555L40.6341 42.7337L40.7043 42.804L40.7823 42.8819L40.8603 42.9522L40.9306 43.0301L41.0086 43.1082L41.0788 43.1785L41.1569 43.2565L41.2349 43.3268L41.3052 43.4049L41.3832 43.4828L41.4534 43.5531L41.5314 43.631L41.6096 43.7013L41.6798 43.7794L41.7578 43.8574L41.8358 43.9277L41.9061 44.0056L41.9841 44.0759V44.2319L41.9061 44.3022L41.8358 44.3804L41.7578 44.4505L41.6798 44.5286L41.6096 44.6065L41.5314 44.6768L41.4534 44.7549L41.3832 44.8329L41.3052 44.9032L41.2349 44.9811L41.1569 45.0514L41.0788 45.1295L41.0086 45.1996L40.9306 45.2777L40.8603 45.3559L40.7823 45.426L40.7043 45.5041L40.6341 45.582L40.556 45.6523L40.4779 45.7304V45.8005V45.9566L40.3297 45.8787V45.8005L40.2594 45.7304L40.1814 45.6523L40.1112 45.582L40.0331 45.5041L39.9551 45.426L39.8848 45.3559L39.8068 45.2777L39.7288 45.1996L39.6586 45.1295L39.5805 45.0514L39.5103 44.9811L39.4322 44.9032L39.3542 44.8329L39.2839 44.7549L39.2059 44.6768L39.1357 44.6065L39.0577 44.5286L38.9796 44.4505L38.9093 44.3804L38.8313 44.3022L38.7611 44.2319L38.6831 44.154L38.605 44.0759L38.5348 44.0056L38.4567 43.9277L38.3865 43.8574L38.3084 43.7794L38.2304 43.7013L38.1602 43.631L38.0822 43.5531L38.012 43.4828L37.9339 43.4049L37.8558 43.3268L37.7856 43.2565L37.7076 43.1785L37.6373 43.1082H37.4111L37.3329 43.1785L37.2627 43.2565L37.1847 43.3268L37.1067 43.4049L37.0365 43.4828L36.9584 43.5531L36.8803 43.631L36.8101 43.7013V43.8574L36.8803 43.9277L36.9584 44.0056L37.0365 44.0759L37.1067 44.154L37.1847 44.2319L37.2627 44.3022L37.3329 44.3804L37.4111 44.4505L37.4813 44.5286L37.5593 44.6065L37.6373 44.6768L37.7076 44.7549L37.7856 44.8329L37.8558 44.9032L37.9339 44.9811L38.012 45.0514L38.0822 45.1295L38.1602 45.1996L38.2304 45.2777L38.3084 45.3559L38.3865 45.426L38.4567 45.5041L38.5348 45.582L38.605 45.6523L38.7611 45.7304L38.8313 45.8005L38.9093 45.8787L38.9796 45.9566L39.0577 46.0269L39.1357 46.105L39.2059 46.1751L39.2839 46.2532L39.3542 46.3313L39.4322 46.4015L39.5103 46.4796L39.5805 46.5497V46.7059L39.5103 46.776L39.4322 46.8541L39.3542 46.9244L39.2839 47.0024L39.2059 47.0805L39.1357 47.1506L39.0577 47.2287L38.9796 47.3068L38.9093 47.3769L38.8313 47.4551L38.7611 47.5252L38.6831 47.6033L38.605 47.6736L38.5348 47.7515L38.4567 47.8296L38.3865 47.8999L38.3084 47.9779L38.2304 48.056L38.1602 48.1261L38.0822 48.2042L38.012 48.2745L37.9339 48.3524L37.8558 48.4305L37.7856 48.5007H37.7076L37.6373 48.4305L37.5593 48.3524L37.4813 48.2745L37.4111 48.2042L37.3329 48.1261L37.2627 48.056L37.1847 47.9779L37.1067 47.8999L37.0365 47.8296L36.9584 47.7515L36.8803 47.6736L36.8101 47.6033L36.7321 47.5252L36.6618 47.4551L36.5838 47.3769L36.5058 47.3068L36.4356 47.2287L36.3575 47.1506L36.2872 47.0805L36.2092 47.0024L36.1312 46.9244L36.061 46.8541L35.9829 46.776L35.9127 46.7059L35.8347 46.6278L35.7566 46.5497L35.6863 46.4796L35.6083 46.4015L35.5381 46.3313L35.4601 46.2532L35.382 46.1751L35.3118 46.105L35.2337 46.0269L35.1557 45.9566L35.0855 45.8787L35.0074 45.8005L34.9372 45.7304H34.7811L34.7108 45.8005L34.6328 45.8787L34.5626 45.9566V46.0269L34.4143 46.1128L34.4065 45.9566V45.7304L34.3363 45.5041L34.2582 45.3559L34.188 45.1295L34.11 44.9032L34.0319 44.6768L33.9617 44.5286L33.8837 44.3022L33.8135 44.0759L33.7354 43.9277L33.6573 43.7013L33.5871 43.4828L33.5091 43.2565L33.4388 43.1082L33.3608 42.8819L33.2828 42.6555L33.2126 42.5073L33.1345 42.281L33.0642 42.0546L32.9862 41.8285L32.9082 41.6801L32.838 41.4539L32.7599 41.2276L32.6897 41.0791L32.6116 40.853L32.5336 40.6345L32.4633 40.4081L32.3853 40.2599L32.3073 40.0335L32.2371 39.8072L32.159 39.659L32.0887 39.4326V39.1282L32.159 39.0581L32.2371 38.9799L32.3073 38.9098L32.3853 38.8317L32.4633 38.7536L32.5336 38.6835L32.6116 38.6054L32.6897 38.5353L32.7599 38.4571L32.838 38.379L32.9082 38.3089L32.9862 38.2308L33.0642 38.1605L33.1345 38.0826L33.2126 38.0045L33.2828 37.9343L33.3608 37.8562L33.4388 37.7859L33.5091 37.708L33.5871 37.6299L33.6573 37.5598L33.7354 37.4817L33.8135 37.4113L33.8837 37.3334L33.9617 37.2553L34.0319 37.185L34.11 37.1071L34.188 37.029L34.2582 36.9589L34.3363 36.8807L34.4065 36.8104L34.4846 36.7325L34.5626 36.6544L34.6328 36.5843L34.7108 36.5062L34.7811 36.4359L34.8592 36.3579L34.9372 36.2798L35.0074 36.2095L35.0855 36.1316L35.1557 36.0613L35.2337 35.9834L35.3118 35.9053L35.382 35.8349L35.4601 35.757L35.5381 35.6867L35.6083 35.6088L35.6863 35.5307L35.7566 35.4604L35.8347 35.3825L35.9127 35.3121L35.9829 35.234L36.061 35.1561L36.1312 35.0858L36.2092 35.0079L36.2872 34.9376L36.3575 34.8595L36.4356 34.7815L36.5058 34.7112L36.5838 34.6333L36.6618 34.5552L36.7321 34.4849L36.8101 34.407L36.8803 34.3367L36.9584 34.2585L37.0365 34.1806L37.1067 34.1103L37.1847 34.0324L37.2627 33.9621L37.3329 33.884L37.4111 33.806L37.4813 33.7357L37.5593 33.6578L37.6373 33.5875L37.7076 33.5094L37.7856 33.4315L37.8558 33.3612L37.9339 33.2831L38.012 33.2129L38.0822 33.1348L38.1602 33.0569L38.2304 32.9866L38.3084 32.9085L38.3865 32.8384L38.4567 32.7603L38.5348 32.6823L38.605 32.612L38.6831 32.5339L38.7611 32.456L38.8313 32.3857L38.9093 32.3076L38.9796 32.2375L39.0577 32.1593L39.1357 32.0892L39.2059 32.0111L39.2839 31.933L39.3542 31.8629L39.4322 31.7848L39.5103 31.7068L39.5805 31.6365L39.6586 31.5584L39.7288 31.4883L39.8068 31.4102L39.8848 31.3321L39.9551 31.262L40.0331 31.1839L40.1112 31.1137L40.1814 31.0356L40.2594 30.9575L40.3297 30.8874L40.4077 30.8093L40.4779 30.739L40.556 30.6611L40.6341 30.5829L40.7043 30.5128L40.7823 30.4347L40.8603 30.3644L40.9306 30.2865L41.0086 30.2084L41.0788 30.1383L41.1569 30.0601L41.2349 29.9898L41.3052 29.9119L41.3832 29.8338L41.4534 29.7635L41.5314 29.6856L41.6096 29.6153L41.6798 29.5373L41.7578 29.4592L41.8358 29.3889L41.9061 29.311L41.9841 29.2329L42.0543 29.1628L42.1324 29.0847L42.2027 29.0143L42.2807 28.9364L42.3587 28.8583L42.4289 28.788L42.5069 28.7101L42.585 28.6398L42.6552 28.5619L42.7333 28.4837L42.8035 28.4134L42.8816 28.3355L42.9596 28.2652L43.0298 28.1873L43.1078 28.1092L43.1781 28.0389L43.2562 27.9609L43.3342 27.8906L43.4044 27.8125L43.4824 27.7346L43.5527 27.6643L43.6307 27.5864L43.7088 27.5161L43.779 27.4379L43.8571 27.36L43.9273 27.2897L44.0053 27.2118L44.0833 27.1337L44.1536 27.0634L44.2317 26.9855L44.3019 26.9151L44.3799 26.837L44.4579 26.7669L44.5282 26.6888L44.6062 26.6109L44.6764 26.5406L44.7545 26.4625L44.8326 26.3845L44.9028 26.3142L44.9808 26.2363L45.051 26.166L45.1291 26.0879L45.2071 26.01L45.2773 25.9397L45.3554 25.8615L45.4334 25.7914L45.5037 25.7133L45.5817 25.6354L45.6519 25.5651L45.7299 25.487L45.8002 25.4169L45.8783 25.3387L45.9563 25.2608L46.0265 25.1905L46.1046 25.1124L46.1826 25.0423L46.2528 24.9642L46.3309 24.8861L46.4012 24.8159L46.4792 24.7378L46.5572 24.6677L46.6274 24.5896L46.7054 24.5115L46.7757 24.4414L46.8537 24.3633L46.9318 24.2853L47.002 24.215L47.0801 24.1369L47.1581 24.0668L47.2283 23.9887L47.3063 23.9106L47.3766 23.8405L47.4547 23.7623L47.5249 23.6922L47.6029 23.6141L47.6809 23.536L47.7512 23.4659L47.8292 23.3878L47.9073 23.3177L47.9775 23.2395L48.0556 23.1614L48.1258 23.0913L48.2038 23.0132L48.2818 22.9429L48.3521 22.865L48.4301 22.7869L48.5004 22.7167L48.5784 22.6386L48.6564 22.5683L48.7267 22.4904L48.8047 22.4123L48.8749 22.3422L48.9529 22.2641L49.0311 22.1938L49.1013 22.1158L49.1793 22.0377L49.2495 21.9674L49.3276 21.8895L49.4056 21.8114L49.4758 21.7413L49.5539 21.6631L49.6241 21.5928L49.7022 21.5149L49.7802 21.4368H49.9284L50.0065 21.5149L50.0768 21.5928L50.1548 21.6631L50.225 21.7413L50.3031 21.8114L50.3733 21.8895L50.4513 21.9674L50.5294 22.0377L50.5996 22.1158L50.6777 22.1938L50.7557 22.2641L50.8259 22.3422L50.9039 22.4123L50.9742 22.4904L51.0522 22.5683L51.1303 22.6386L51.2005 22.7167L51.2786 22.7869L51.3488 22.865L51.4268 22.9429L51.5048 23.0132L51.575 23.0913L51.6532 23.1614L51.7234 23.2395L51.8014 23.3177L51.8794 23.3878L51.9497 23.4659L52.0277 23.536L52.0979 23.6141L52.176 23.6922L52.2541 23.7623L52.3243 23.8405L52.4023 23.9106L52.4803 23.9887L52.5505 24.0668L52.6287 24.1369L52.6989 24.215L52.7769 24.2853L52.8549 24.3633L52.9252 24.4414L53.0032 24.5115L53.0734 24.5896L53.1514 24.6677L53.2296 24.7378L53.2998 24.8159L53.3778 24.8861L53.448 24.9642L53.526 25.0423L53.6041 25.1124L53.6743 25.1905L53.7524 25.2608L53.8226 25.3387L53.9007 25.4169L53.9787 25.487L54.0489 25.5651L54.1269 25.6354L54.1972 25.7133L54.2753 25.7914L54.3533 25.8615L54.4235 25.9397L54.5015 26.01L54.5718 26.0879L54.6498 26.166L54.7279 26.2363L54.7981 26.3142L54.8762 26.3845L54.9464 26.4625L55.0244 26.5406L55.1024 26.6109L55.1727 26.6888L55.2507 26.7669L55.3288 26.837L55.399 26.9151L55.477 26.9855L55.5473 27.0634L55.6253 27.1337L55.6955 27.2118L55.7735 27.2897L55.8517 27.36L55.9219 27.4379L55.9999 27.5161L56.0779 27.5864L56.1482 27.6643L56.2262 27.7346L56.2964 27.8125L56.3745 27.8906L56.4525 27.9609L56.5228 28.0389L56.6008 28.1092L56.671 28.1873L56.749 28.2652L56.8271 28.3355L56.8974 28.4134L56.9754 28.4837L57.0456 28.5619L57.1237 28.6398L57.2017 28.7101L57.2719 28.788L57.3499 28.8583V28.9364L57.2719 29.0143L57.2017 29.0847L57.1237 29.1628L57.0456 29.2329L56.9754 29.311L56.8974 29.3889L56.8271 29.4592L56.749 29.5373L56.671 29.6153L56.6008 29.6856L56.5228 29.7635L56.4525 29.8338L56.3745 29.9119L56.2964 29.9898L56.2262 30.0601L56.1482 30.1383L56.0779 30.2084L55.9999 30.2865L55.9219 30.3644L55.8517 30.4347L55.7735 30.5128L55.6955 30.5829L55.6253 30.6611L55.5473 30.739L55.477 30.8093H55.399L55.3288 30.739L55.2507 30.6611L55.1727 30.5829L55.1024 30.5128L55.0244 30.4347L54.9464 30.3644L54.8762 30.2865L54.7981 30.2084L54.7279 30.1383L54.6498 30.0601L54.5718 29.9898L54.5015 29.9119L54.4235 29.8338L54.3533 29.7635L54.2753 29.6856L54.1972 29.6153L54.1269 29.5373L54.0489 29.4592L53.9787 29.3889L53.9007 29.311L53.8226 29.2329L53.7524 29.1628L53.6743 29.0847L53.6041 29.0143L53.526 28.9364L53.448 28.8583L53.3778 28.788L53.2998 28.7101L53.2296 28.6398L53.1514 28.5619L53.0734 28.4837L53.0032 28.4134L52.9252 28.3355L52.8549 28.2652L52.7769 28.1873L52.6989 28.1092L52.6287 28.0389L52.5505 27.9609L52.4803 27.8906L52.4023 27.8125L52.3243 27.7346L52.2541 27.6643L52.176 27.5864L52.0979 27.5161L52.0277 27.4379L51.9497 27.36L51.8794 27.2897L51.8014 27.2118L51.7234 27.1337L51.6532 27.0634L51.575 26.9855L51.5048 26.9151L51.4268 26.837L51.3488 26.7669L51.2786 26.6888L51.2005 26.6109L51.1303 26.5406L51.0522 26.4625L50.9742 26.3845L50.9039 26.3142L50.8259 26.2363L50.7557 26.166L50.6777 26.0879L50.5996 26.01L50.5294 25.9397L50.4513 25.8615L50.3733 25.7914L50.3031 25.7133L50.225 25.6354L50.1548 25.5651L50.0768 25.487L50.0065 25.4169L49.9284 25.3387L49.8504 25.2608L49.7802 25.1905H49.6241L49.5539 25.2608ZM24.5112 18.963C24.6517 18.8304 24.3785 19.1035 24.5112 18.963V18.963ZM12.899 15.4435L12.9692 14.9908L13.0472 14.6943L13.1175 14.468L13.1955 14.2416L13.2736 14.0934L13.3438 13.9452L13.4219 13.7968L13.4921 13.6407L13.5701 13.4925L13.6481 13.3443L13.7184 13.2661L13.7965 13.1179L13.8667 13.0476L13.9447 12.9697L14.0227 12.8916L14.093 12.7433L14.171 12.673L14.2412 12.5949L14.3193 12.517L14.3974 12.4467L14.4676 12.3688L14.5456 12.2985L14.6236 12.2204L14.7719 12.1424L14.8422 12.0721L14.9202 11.9942L15.0685 11.9161L15.1465 11.8458L15.2947 11.7679L15.4431 11.6976L15.5211 11.6194L15.6694 11.5493L15.8957 11.4712L16.044 11.3933L16.2702 11.323L16.4966 11.2449L16.7931 11.1669L17.1677 11.0966H18.5959L18.9704 11.1669L19.267 11.2449L19.4932 11.323L19.7196 11.3933L19.8679 11.4712L20.0942 11.5493L20.2425 11.6194L20.3205 11.6976L20.4687 11.7679L20.6171 11.8458L20.6951 11.9161L20.8434 11.9942L20.9136 12.0721L20.9916 12.1424L21.1399 12.2204L21.218 12.2985L21.2882 12.3688L21.3662 12.4467L21.4442 12.517L21.5145 12.5949L21.5925 12.673L21.6628 12.7433L21.7408 12.8213L21.8189 12.9697L21.8891 13.0476L21.9671 13.1179L22.0451 13.2661L22.1153 13.3443L22.1935 13.4925L22.2637 13.6407L22.3417 13.7188L22.4119 13.8671L22.49 14.0934L22.568 14.2416L22.6382 14.468L22.7163 14.6943L22.7944 14.9908L22.8646 15.4435V16.7154L22.7944 17.1681L22.7163 17.4647L22.6382 17.6909L22.568 17.9172L22.49 18.0655L22.4119 18.2139L22.3417 18.3699L22.2637 18.5181L22.1935 18.6664L22.1153 18.7445L22.0451 18.8927L21.9671 18.963L21.8891 19.1191L21.8189 19.1894L21.7408 19.2673L21.6628 19.3454L21.5925 19.4157L21.5145 19.5639L21.4442 19.6419L21.3662 19.72L21.218 19.7903L21.1399 19.8682L21.0696 19.9385L20.9916 20.0164L20.9136 20.0946L20.7653 20.1649L20.6951 20.2428L20.539 20.3131L20.3907 20.3912L20.3205 20.4691L20.1644 20.5394L20.0161 20.6174L19.8679 20.6877L19.6416 20.7658L19.4152 20.8437L19.1889 20.914L18.8924 20.9919L18.3695 21.0622H17.394L16.9415 20.9919L16.5668 20.914L16.3405 20.8437L16.122 20.7658L15.966 20.6877L15.7474 20.6174L15.5913 20.5394L15.4431 20.4691L15.3729 20.3912L15.2167 20.3131L15.0685 20.2428L14.9982 20.1649L14.9202 20.0946L14.7719 20.0164L14.6939 19.9385L14.6236 19.8682L14.5456 19.7903L14.4676 19.72L14.3974 19.6419L14.3193 19.5639L14.2412 19.4936L14.171 19.4157L14.093 19.3454L14.0227 19.2673L13.9447 19.1894L13.8667 19.1191L13.7965 18.963L13.7184 18.8927L13.6481 18.7445L13.5701 18.6664L13.4921 18.5181L13.4219 18.3699L13.3438 18.2139L13.2736 18.0655L13.1955 17.8393L13.1175 17.6208L13.0472 17.3944L12.9692 17.09L12.899 16.6453V15.4435Z" fill="#9D9E9E"/>
<path fill-rule="evenodd" clip-rule="evenodd" d="M17.1689 13.6415L16.9426 13.7196L16.7943 13.7975L16.6461 13.8678L16.4977 13.9459L16.4197 14.0239L16.2714 14.0942L16.1934 14.1721L16.1232 14.2424L16.0451 14.3205L15.9671 14.3906L15.8968 14.4687L15.8188 14.5467L15.7486 14.6951L15.6706 14.773L15.5925 14.9214L15.5223 15.0696L15.4442 15.296L15.374 15.5221V16.7943L15.4442 17.0206L15.5223 17.1688L15.5925 17.3952L15.6706 17.4655L15.7486 17.6215L15.8188 17.6916L15.8968 17.7698L15.9671 17.8401L16.0451 17.9961L16.1934 18.0662L16.2714 18.1443L16.3417 18.2146L16.4197 18.2926L16.5679 18.3707L16.7241 18.441L16.8723 18.5189L17.0206 18.5892L17.3172 18.6671H18.4409L18.7453 18.5892L18.8936 18.5189L19.0418 18.441L19.19 18.3707L19.3462 18.2926L19.4164 18.2146L19.5647 18.1443L19.6427 18.0662L19.7208 17.9961L19.791 17.918L19.8691 17.8401L19.9471 17.6916L20.0173 17.6215L20.0953 17.4655L20.1655 17.3952L20.2436 17.2392L20.3217 17.0206L20.3919 16.7943L20.4699 16.2715V15.967L20.3919 15.5221L20.3217 15.2179L20.2436 15.0696L20.1655 14.9214L20.0953 14.773L20.0173 14.6951L19.9471 14.5467L19.8691 14.4687L19.791 14.3906L19.7208 14.3205L19.6427 14.2424L19.5647 14.1721L19.4944 14.0942L19.3462 14.0239L19.2682 13.9459L19.1198 13.8678L18.9716 13.7975L18.8155 13.7196L18.597 13.6415L18.1443 13.5712H17.6215L17.1689 13.6415Z" fill="#9D9E9E"/>
<path fill-rule="evenodd" clip-rule="evenodd" d="M2.62988 33.5099H4.27649V33.432H2.70019V26.7674H4.19847V29.3115H8.24874V29.1633H8.17063L4.27649 29.2334V26.6893H2.62988V33.5099Z" fill="#9D9E9E"/>
<path fill-rule="evenodd" clip-rule="evenodd" d="M45.4344 58.4746V58.3967H44.9038V60.3477H43.5537V58.3967H43.0308V60.3477H41.8368V56.3754H41.7588V60.4178H43.1088V58.4746H43.4834V60.4178H44.9818V58.4746H45.4344Z" fill="#9D9E9E"/>
<path fill-rule="evenodd" clip-rule="evenodd" d="M40.0336 58.4749V58.397H39.5107V60.348H38.3088V58.397H37.786V60.348H36.436V58.397H35.9833V58.2486H35.9131V58.4749H36.3579V60.4181H37.8562V58.4749H38.2308V60.4181H39.5809V58.4749H40.0336Z" fill="#9D9E9E"/>
<path fill-rule="evenodd" clip-rule="evenodd" d="M54.1976 58.4748V58.3969H53.6747V60.3479H52.4807V58.3969H51.9501V60.3479H50.5999V58.3969H50.0771V58.4748H50.5297V60.418H52.0281V58.4748H52.4027V60.418H53.7528V58.4748H54.1976Z" fill="#9D9E9E"/>
<path fill-rule="evenodd" clip-rule="evenodd" d="M16.7236 8.77157L16.7938 0.0781152H18.7448L18.815 8.77157V0H16.7236V8.77157Z" fill="#9D9E9E"/>
<path fill-rule="evenodd" clip-rule="evenodd" d="M32.0898 33.432V33.5099H33.7365V26.6893H32.0898V26.7674H33.6584V33.432H32.0898Z" fill="#9D9E9E"/>
<path fill-rule="evenodd" clip-rule="evenodd" d="M54.1982 60.3477L55.4 60.4178V56.3754H55.3298V60.3477H54.1982Z" fill="#9D9E9E"/>
<path fill-rule="evenodd" clip-rule="evenodd" d="M29.5379 59.8952H29.4599L29.3896 59.9733V60.0512L29.4599 60.418H30.9661V58.4748H30.888V60.3478H29.5379V59.8952Z" fill="#9D9E9E"/>
<path fill-rule="evenodd" clip-rule="evenodd" d="M35.9138 60.3478H34.8602L34.9383 58.1705L34.7822 57.952L34.79 60.4257L35.9138 60.3478Z" fill="#9D9E9E"/>
<path fill-rule="evenodd" clip-rule="evenodd" d="M34.337 60.3479H33.2133V58.3969H32.6904V58.4748H33.1353V60.4258L34.337 60.3479Z" fill="#9D9E9E"/>
<path fill-rule="evenodd" clip-rule="evenodd" d="M32.691 60.3479H31.4892V58.3969H31.4111V60.4258L32.691 60.3479Z" fill="#9D9E9E"/>
<path fill-rule="evenodd" clip-rule="evenodd" d="M48.4312 60.3479H47.2294V58.3969H47.1592V60.4258L48.4312 60.3479Z" fill="#9D9E9E"/>
<path fill-rule="evenodd" clip-rule="evenodd" d="M45.4346 60.3479L46.7066 60.418V58.3969H46.6286V60.3479H45.4346Z" fill="#9D9E9E"/>
<path fill-rule="evenodd" clip-rule="evenodd" d="M46.5576 42.8047V42.8826H46.9322V42.8047L46.7058 42.7344H46.6278L46.5576 42.8047Z" fill="#9D9E9E"/>
<path fill-rule="evenodd" clip-rule="evenodd" d="M34.4071 51.4983L34.4852 51.2018L34.3291 51.0534L34.4071 51.4983Z" fill="#9D9E9E"/>
<path fill-rule="evenodd" clip-rule="evenodd" d="M35.1561 54.2761L35.0859 54.1979H35.0078L35.0234 54.4399L35.1561 54.2761Z" fill="#9D9E9E"/>
<path fill-rule="evenodd" clip-rule="evenodd" d="M34.3369 62.3688H34.4852V62.2206H34.4071L34.3369 62.3688Z" fill="#9D9E9E"/>
<path fill-rule="evenodd" clip-rule="evenodd" d="M34.5634 46.0276L34.4853 45.9573H34.4072L34.415 46.1136L34.5634 46.0276Z" fill="#9D9E9E"/>
<path fill-rule="evenodd" clip-rule="evenodd" d="M44.5293 41.6805V41.7586L44.6931 41.7508L44.6073 41.6026L44.5293 41.6805Z" fill="#9D9E9E"/>
<path fill-rule="evenodd" clip-rule="evenodd" d="M26.3926 44.9038H26.4628V44.74L26.3145 44.8335L26.3926 44.9038Z" fill="#9D9E9E"/>
<path fill-rule="evenodd" clip-rule="evenodd" d="M28.6406 14.3903V14.4684H28.7967L28.7108 14.3202L28.6406 14.3903Z" fill="#9D9E9E"/>
<path fill-rule="evenodd" clip-rule="evenodd" d="M34.7822 51.5761L34.8602 51.4277H34.7119V51.498L34.7822 51.5761Z" fill="#9D9E9E"/>
<path fill-rule="evenodd" clip-rule="evenodd" d="M30.4354 16.1933L30.5135 16.045H30.3652V16.1152L30.4354 16.1933Z" fill="#9D9E9E"/>
<path fill-rule="evenodd" clip-rule="evenodd" d="M47.752 38.4578L47.908 38.5359V38.3796H47.83L47.752 38.4578Z" fill="#9D9E9E"/>
<path fill-rule="evenodd" clip-rule="evenodd" d="M40.3311 45.8791L40.4793 45.9571V45.801H40.4091L40.3311 45.8791Z" fill="#9D9E9E"/>
</svg>
