<svg width="54" height="69" viewBox="0 0 54 69" fill="none" xmlns="http://www.w3.org/2000/svg">
<path fill-rule="evenodd" clip-rule="evenodd" d="M11.8704 3.88931H2.19228C0.858755 3.88931 0 4.62701 0 5.87971V67.1107C0 68.0502 0.919331 69 1.89927 69H51.654C52.6238 69 53.6543 68.1615 53.6543 67.2118V5.77859C53.6543 4.65721 52.8057 3.88931 51.654 3.88931H41.7838C41.6323 2.12137 38.6016 0 36.5003 0H16.558C16.0327 0 14.0324 1.07072 13.6485 1.3738C13.0221 1.86882 12.0927 3.0407 11.8704 3.88931Z" fill="#9D9E9E"/>
<path fill-rule="evenodd" clip-rule="evenodd" d="M3.88965 65.1108H49.7651V7.77917H41.7841C41.3901 9.48649 38.9049 11.5676 36.7935 11.5676H17.1542C14.8003 11.5676 12.305 9.66834 11.8706 7.77917H3.88965V64.8177V65.1108Z" fill="#FEFEFE"/>
<path fill-rule="evenodd" clip-rule="evenodd" d="M15.3564 5.77777C15.3564 6.94966 16.1747 7.67692 17.3567 7.67692H36.2989C37.3293 7.67692 38.2993 6.99012 38.2993 6.08089V5.48476C38.2993 4.70687 37.3193 3.88849 36.501 3.88849H17.3567C16.3061 3.88849 15.3564 4.70691 15.3564 5.77777Z" fill="#FEFEFE"/>
<path fill-rule="evenodd" clip-rule="evenodd" d="M13.4664 24.0344C12.7795 24.0344 11.2338 21.1349 9.67801 21.1349H9.27388C8.5364 21.1349 7.67773 22.0946 7.67773 22.9331V23.1351C7.67773 24.2666 9.42549 25.5294 10.1024 26.1962C10.6378 26.7316 12.3046 28.7218 13.0623 28.7218H13.7594C14.7091 28.7218 17.9116 25.1253 18.6794 24.3575C19.437 23.5897 23.0336 20.3772 23.0336 19.4478V19.0436C23.0336 18.2152 21.9728 17.2455 21.3464 17.2455H21.1443C19.6693 17.2455 18.0024 19.5488 17.1235 20.4176C16.7497 20.8015 13.6079 24.0344 13.4664 24.0344Z" fill="#9D9E9E"/>
<path fill-rule="evenodd" clip-rule="evenodd" d="M13.2644 54.7459C13.1129 54.1599 10.6075 51.7556 9.87002 51.7556H9.47601C8.30412 51.7556 7.67773 52.7355 7.67773 53.9478C7.67773 54.7964 9.6275 56.4431 10.1932 57.0088C10.8802 57.6857 12.2239 59.4333 13.3654 59.4333H13.5674C14.6585 59.4333 17.7095 55.9381 18.5278 55.1198C19.3158 54.3318 20.0331 53.6145 20.8211 52.8265C21.2252 52.4224 21.5586 52.0889 21.9627 51.6747C22.1748 51.4726 22.9528 50.3916 23.0336 50.3613V49.5634C23.0336 48.8563 22.0636 47.9672 21.1443 47.9672C19.538 47.9672 18.1339 50.3311 17.0731 51.1696C16.3861 51.7151 13.8504 54.6954 13.2644 54.7459Z" fill="#9D9E9E"/>
<path fill-rule="evenodd" clip-rule="evenodd" d="M13.4665 39.3902C12.729 39.3902 11.1227 36.3999 9.67809 36.3999H9.37509C8.73863 36.3999 7.59698 37.4404 7.65759 38.097L7.77882 39.1882C8.40517 39.4205 11.931 44.0776 13.1635 44.0776H13.3655C14.6687 44.0776 15.3861 42.9059 16.0832 42.2088C16.8913 41.4006 17.6187 40.6631 18.4269 39.865C19.2351 39.0568 19.9624 38.3192 20.7706 37.5211C21.0636 37.2281 22.9326 35.137 23.0337 35.0966V34.3996C23.0337 33.6217 22.1042 32.6115 21.2455 32.6115H21.0434C19.6896 32.6115 17.9016 34.9956 17.0732 35.824C16.6994 36.1978 13.608 39.3902 13.4665 39.3902Z" fill="#9D9E9E"/>
<path fill-rule="evenodd" clip-rule="evenodd" d="M26.8223 19.1447C26.8223 20.7005 28.0648 20.751 28.2264 21.1349H44.3803C45.0571 21.1349 45.9765 20.1449 45.9765 19.4478V19.2458C45.9765 18.1548 45.1178 17.2456 44.1783 17.2456H28.3174C27.782 17.2456 26.8223 18.3264 26.8223 19.1447Z" fill="#9D9E9E"/>
<path fill-rule="evenodd" clip-rule="evenodd" d="M26.8223 34.5005C26.8223 35.5612 27.59 36.3999 28.6204 36.3999H44.1783C45.037 36.3999 45.9765 35.5815 45.9765 34.8036V34.6016C45.9765 33.6419 45.2592 32.6114 44.3803 32.6114H28.6204C27.6304 32.6114 26.8223 33.5104 26.8223 34.5005Z" fill="#9D9E9E"/>
<path fill-rule="evenodd" clip-rule="evenodd" d="M26.8223 49.7554V50.0585C26.8223 50.9273 27.8021 51.7556 28.7214 51.7556H44.2793C45.2087 51.7556 45.9765 50.7555 45.9765 49.7554V49.5635C45.9765 48.8664 45.0874 47.9672 44.3803 47.9672H28.6204C27.6607 47.9672 26.8223 48.8158 26.8223 49.7554Z" fill="#9D9E9E"/>
<path fill-rule="evenodd" clip-rule="evenodd" d="M26.8223 26.7209V27.024C26.8223 28.2969 28.0749 28.4384 28.2264 28.8122H36.7934C37.4097 28.8122 38.2987 27.7715 38.2987 26.9229C38.2987 25.953 37.551 24.9226 36.7024 24.9226H28.6204C27.7516 24.9226 26.8223 25.8521 26.8223 26.7209Z" fill="#9D9E9E"/>
<path fill-rule="evenodd" clip-rule="evenodd" d="M26.8223 57.4322V57.6345C26.8223 58.6851 27.7921 58.9679 27.9234 59.3114L29.0245 59.4325L36.1064 59.4527L37.1974 59.3316C37.3692 58.9073 38.2987 58.7255 38.2987 57.8365V57.2404C38.2987 56.4524 37.2985 55.5432 36.5004 55.5432H28.2264C28.0345 55.9978 26.8223 55.9876 26.8223 57.4322Z" fill="#9D9E9E"/>
<path fill-rule="evenodd" clip-rule="evenodd" d="M26.8223 41.9757C26.8223 43.0163 27.5597 44.0769 28.4184 44.0769H36.5004C37.4702 44.0769 38.2987 43.2485 38.2987 42.2786V41.8746C38.2987 41.1978 37.3793 40.2885 36.7024 40.2885H28.4184C27.7011 40.2885 26.8223 41.2484 26.8223 41.9757Z" fill="#9D9E9E"/>
<path fill-rule="evenodd" clip-rule="evenodd" d="M3.88965 65.1109L49.8661 65.212V7.67816L41.7841 7.77929H49.7651V65.1109H3.88965Z" fill="#7A7A7A"/>
</svg>
