<svg width="50" height="50" viewBox="0 0 50 50" fill="none" xmlns="http://www.w3.org/2000/svg">
<path fill-rule="evenodd" clip-rule="evenodd" d="M17.2399 0.0498267L16.8306 0.0996535L16.4268 0.149345L16.0175 0.199172L15.7133 0.254535L15.4092 0.304227L15.1049 0.354053L14.9003 0.403745L14.6459 0.453572L14.4412 0.508935L14.2421 0.558627L14.0374 0.608453L13.8328 0.65828L13.678 0.707972L13.4788 0.757799L13.324 0.813027L13.1691 0.862853L12.97 0.91268L12.8649 0.962372L12.7156 1.01773L12.5607 1.06756L12.4058 1.11725L12.2565 1.16708L12.1514 1.21691L12.0021 1.2666L11.897 1.32196L11.7477 1.37165L11.6426 1.42148L11.4932 1.47131L11.3882 1.521L11.2886 1.57636L11.1891 1.62619L11.0342 1.67588L10.9346 1.72571L10.8296 1.77553L10.73 1.83076L10.6304 1.88059L10.5253 1.93028L10.4258 1.98011L10.3207 2.02993L10.2212 2.08516L10.1216 2.13499L10.0165 2.18481L9.91694 2.23451L9.86718 2.28433L9.76206 2.33956L9.66254 2.38939L9.55742 2.43921L9.50766 2.48891L9.40807 2.53873L9.30302 2.5941L9.25326 2.64379L9.15367 2.69361L9.04862 2.74344L8.99879 2.79313L8.89927 2.8485L8.79969 2.89819L8.74439 2.94801L8.64481 2.99784L8.59505 3.04753L8.48999 3.09736L8.44016 3.15272L8.34065 3.20241L8.29089 3.25224L8.18576 3.30193L8.13601 3.3573L8.03088 3.40712L7.98112 3.45681L7.93136 3.50664L7.83178 3.55647L7.78202 3.60616L7.72672 3.66152L7.62714 3.71135L7.57738 3.76104L7.52762 3.81087L7.4225 3.86056L7.37274 3.91592L7.32298 3.96575L7.21786 4.01544L7.1681 4.06527L7.11827 4.11509L7.06851 4.17032L6.96346 4.22015L6.91363 4.26984L6.86387 4.31967L6.81411 4.36949L6.76435 4.42472L6.65923 4.47455L6.60947 4.52438L6.55971 4.57407L6.50988 4.62389L6.45459 4.67926L6.40483 4.72895L6.30524 4.77878L6.25548 4.82847L6.20019 4.87829L6.15036 4.93366L6.1006 4.98335L6.05084 5.03318L6.00108 5.083L5.95126 5.13269L5.89596 5.18806L5.8462 5.23775L5.79644 5.28758L5.74662 5.3374L5.69132 5.38709L5.64156 5.44246L5.5918 5.49228L5.54198 5.54198L5.49222 5.5918L5.44246 5.64163L5.38716 5.69686L5.33734 5.74668L5.28758 5.79638L5.23782 5.8462L5.18245 5.89603L5.1327 5.94572L5.08294 6.00108L5.03318 6.05091L4.98335 6.1006L4.93359 6.15043L4.8783 6.20566L4.82854 6.25548L4.77871 6.30531L4.72895 6.355L4.67919 6.45466L4.6239 6.50988L4.57407 6.55971L4.52431 6.60954L4.47455 6.65923L4.42472 6.70906L4.36943 6.81411L4.31967 6.86394L4.26991 6.91363L4.22008 6.96346L4.17032 7.01882L4.11503 7.11834L4.06527 7.16816L4.01544 7.21786L3.96568 7.27322L3.91592 7.37274L3.86063 7.42256L3.8108 7.47226L3.76104 7.57745L3.71128 7.62714L3.66146 7.67696L3.60616 7.78202L3.5564 7.83185L3.50664 7.88154L3.45681 7.98119L3.40706 8.03642L3.35176 8.13607L3.302 8.18576L3.25217 8.23559L3.20241 8.34065L3.15266 8.39047L3.1029 8.48999L3.04753 8.54535L2.99777 8.64487L2.94802 8.69456L2.89826 8.79975L2.84843 8.89927L2.79313 8.9491L2.74337 9.04862L2.69355 9.10398L2.64379 9.2035L2.59403 9.30855L2.53873 9.35838L2.48891 9.4579L2.43915 9.55742L2.38939 9.66247L2.33963 9.7123L2.28427 9.81735L2.23451 9.91701L2.18475 10.0165L2.13499 10.1216L2.08516 10.2211L2.02987 10.3208L1.98011 10.4258L1.93035 10.5253L1.88052 10.6304L1.83076 10.73L1.77547 10.8296L1.72564 10.9346L1.67588 11.0343L1.62612 11.1393L1.57636 11.2388L1.521 11.3384L1.47124 11.4932L1.42148 11.5929L1.37172 11.6979L1.32189 11.7975L1.2666 11.9523L1.21684 12.0519L1.16708 12.2067L1.11725 12.3063L1.06749 12.4611L1.0122 12.6105L0.962439 12.7155L0.912613 12.8649L0.862853 13.0198L0.813094 13.1691L0.757731 13.324L0.707972 13.4789L0.658213 13.6779L0.608453 13.8328L0.558627 14.0375L0.503331 14.2421L0.453572 14.4412L0.403813 14.6458L0.353986 14.8505L0.304227 15.1049L0.248931 15.3593L0.199172 15.6636L0.149345 16.0176L0.099586 16.3771L0.0498267 16.8362L0 17.4445V20.5971L0.0498267 21.2055L0.099586 21.6646L0.149345 22.0241L0.199172 22.3781L0.248931 22.6822L0.304227 22.9366L0.353986 23.1912L0.403813 23.3957L0.453572 23.6501L0.503331 23.805L0.558627 24.0042L0.608453 24.2088L0.658213 24.3637L0.707972 24.5628L0.757731 24.7177L0.813094 24.8725L0.862853 25.0218L0.912613 25.1767L0.962439 25.326L1.0122 25.4311L1.06749 25.5804L1.11725 25.7353L1.16708 25.835L1.21684 25.9897L1.2666 26.0894L1.32189 26.2442L1.37172 26.3438L1.42148 26.4488L1.47124 26.5982L1.521 26.7032L1.57636 26.8029L1.62612 26.9024L1.67588 27.0074L1.72564 27.107L1.77547 27.2122L1.83076 27.3614L1.88052 27.4666L1.93035 27.5661L1.98011 27.6656L2.02987 27.7708L2.08516 27.8205L2.13499 27.92L2.18475 28.0252L2.23451 28.1247L2.28427 28.2242L2.33963 28.3293L2.38939 28.3791L2.43915 28.4842L2.48891 28.5838L2.53873 28.6833L2.59403 28.7332L2.64379 28.8382L2.69355 28.9377L2.74337 28.9876L2.79313 29.0926L2.84843 29.1921L2.89826 29.242L2.94802 29.347L2.99777 29.3968L3.04753 29.4964L3.1029 29.5517L3.15266 29.6512L3.20241 29.7011L3.25217 29.8061L3.302 29.8558L3.35176 29.9555L3.40706 30.0052L3.45681 30.1103L3.50664 30.16L3.5564 30.2099L3.60616 30.3149L3.66146 30.3647L3.71128 30.4144L3.76104 30.5141L3.8108 30.5693L3.86063 30.6191L3.91592 30.7187L3.96568 30.7685L4.01544 30.8237L4.06527 30.9234L4.11503 30.9731L4.17032 31.0229L4.22008 31.0782L4.26991 31.1778L4.31967 31.2276L4.36943 31.2773L4.42472 31.3326L4.47455 31.3823L4.52431 31.482L4.57407 31.5317L4.6239 31.587L4.67919 31.6369L4.72895 31.6866L4.77871 31.7364L4.82854 31.7861L4.8783 31.8359L4.93359 31.941L4.98335 31.9908L5.03318 32.0406L5.08294 32.0903L5.1327 32.1457L5.18245 32.1955L5.23782 32.2452L5.28758 32.295L5.33734 32.3447L5.38716 32.4001L5.44246 32.4499L5.49222 32.4996L5.54198 32.5494L5.5918 32.5992L5.64156 32.6545L5.69132 32.7043L5.74662 32.754L5.79644 32.8038L5.8462 32.8536L5.89596 32.9089L5.95126 32.9587L6.00108 33.0085L6.05084 33.0582L6.15036 33.108L6.20019 33.1634L6.25548 33.2131L6.30524 33.2629L6.35507 33.3126L6.40483 33.3624L6.45459 33.4178L6.50988 33.4675L6.60947 33.5173L6.65923 33.5672L6.70899 33.6168L6.76435 33.6722L6.81411 33.7219L6.91363 33.7717L6.96346 33.8216L7.01875 33.8712L7.06851 33.9266L7.1681 33.9764L7.21786 34.0261L7.27315 34.076L7.32298 34.1258L7.4225 34.181L7.47226 34.2308L7.52762 34.2805L7.62714 34.3304L7.6769 34.3802L7.72672 34.4354L7.83178 34.4852L7.88154 34.5351L7.98112 34.5848L8.03088 34.6346L8.13601 34.6844L8.18576 34.7396L8.23552 34.7895L8.34065 34.8392L8.44016 34.889L8.48999 34.9443L8.59505 34.994L8.64481 35.0439L8.74439 35.0937L8.79969 35.1434L8.89927 35.1932L8.99879 35.2484L9.04862 35.2983L9.15367 35.3481L9.25326 35.3978L9.30302 35.4476L9.40807 35.503L9.50766 35.5527L9.55742 35.6025L9.66254 35.6523L9.76206 35.702L9.86718 35.7574L9.9667 35.8071L10.0663 35.8569L10.1713 35.9067L10.2709 35.9564L10.376 36.0118L10.4756 36.0616L10.5253 36.1113L10.6802 36.1611L10.7798 36.2108L10.8793 36.2662L10.9844 36.316L11.084 36.3657L11.1891 36.4155L11.3384 36.4653L11.4435 36.5206L11.543 36.5704L11.6979 36.6202L11.7975 36.6699L11.9523 36.7197L12.0519 36.775L12.2067 36.8248L12.3561 36.8746L12.4611 36.9243L12.6105 36.9741L12.7654 37.024L12.9147 37.0792L13.0695 37.129L13.2244 37.1787L13.3738 37.2285L13.5286 37.2839L13.7333 37.3336L13.8826 37.3834L14.0873 37.4333L14.2919 37.4829L14.491 37.5328L14.6956 37.5881L14.9003 37.6378L15.1547 37.6877L15.3593 37.7373L15.6138 37.7872L15.918 37.8425L16.2222 37.8922L16.6315 37.9421L17.3394 37.9919H20.4976L21.2055 37.9421L21.6646 37.8922L21.9688 37.8425L22.2232 37.7872L22.5274 37.7373L22.7321 37.6877L22.9865 37.6378L23.1911 37.5881L23.4455 37.5328L23.6502 37.4829L23.7995 37.4333L24.0041 37.3834L24.2088 37.3336L24.3637 37.2839L24.513 37.2285L24.7176 37.1787L24.8725 37.129L25.0219 37.0792L25.1767 37.024L25.326 36.9741L25.4312 36.9243L25.5804 36.8746L25.7353 36.8248L25.8847 36.775L25.9898 36.7197L26.1391 36.6699L26.2442 36.6202L26.3935 36.5704L26.4986 36.5206L26.5982 36.4653L26.753 36.4155L26.8526 36.3657L26.9577 36.316L27.0572 36.2662L27.1568 36.2108L27.3116 36.1611L27.4112 36.1113L27.5162 36.0616L27.6158 36.0118L27.7209 35.9564L27.8205 35.9067L27.9201 35.8569L28.0251 35.8071L28.0749 35.7574L28.1745 35.702L28.2795 35.6523L28.3791 35.6025L28.4787 35.5527L28.534 35.503L28.6335 35.4476L28.7386 35.3978L28.8381 35.3481L28.888 35.2983L28.9875 35.2484L29.0428 35.1932L29.1424 35.1434L29.2419 35.0937L29.2972 35.0439L29.3968 34.994L29.4466 34.9443L29.5516 34.889L29.6014 34.8392L29.701 34.7895L29.7508 34.7396L29.8559 34.6844L29.9056 34.6346L29.9554 34.5848L30.0605 34.5351L30.1103 34.4852L30.16 34.4354L30.2596 34.3802L30.3149 34.3304L30.3647 34.2805L30.4643 34.2308L30.514 34.181L30.5693 34.1258L30.6689 34.076L30.7187 34.0261L30.7684 33.9764H30.8182L30.8735 34.0261L30.9233 34.076L30.9731 34.1258L31.0229 34.181L31.0782 34.2308L31.1279 34.2805L31.1777 34.3304L31.2275 34.3802L31.2773 34.4354L31.327 34.4852L31.3824 34.5351L31.4322 34.5848L31.4819 34.6346L31.5317 34.6844L31.5815 34.7396L31.6368 34.7895L31.6866 34.8392L31.7363 34.889L31.7862 34.9443L31.8359 34.994L31.8912 35.0439L31.941 35.0937L31.9908 35.1434L32.0406 35.1932L32.0903 35.2484L32.1456 35.2983L32.1954 35.3481L32.2452 35.3978L32.295 35.4476L32.3448 35.503L32.4001 35.5527L32.4498 35.6025L32.4996 35.6523L32.5494 35.702L32.5992 35.7574V35.9067L32.5494 35.9564L32.4996 36.0616L32.4498 36.1113L32.4001 36.2108L32.3448 36.316L32.295 36.3657L32.2452 36.5206L32.1954 36.6202L32.1456 36.775L32.0903 36.9741L32.0406 37.2839V38.1965L32.0903 38.5007L32.1456 38.6556L32.1954 38.8049L32.2452 38.9598L32.295 39.0593L32.3448 39.1644L32.4001 39.2142L32.4498 39.2639L32.4996 39.3137L32.5494 39.4188L32.5992 39.4686L32.6545 39.5184L32.7042 39.5681L32.7541 39.6235L32.8038 39.6732L32.8536 39.723L32.9089 39.7728L32.9587 39.8723L33.0085 39.9277L33.0582 39.9774L33.1081 40.0272L33.1633 40.077L33.2131 40.1323L33.2629 40.1821L33.3127 40.2318L33.3625 40.2816L33.4177 40.3314L33.4675 40.3811L33.5173 40.4365L33.5671 40.4863L33.6169 40.5858L33.6666 40.6355L33.722 40.6909L33.7717 40.7407L33.8215 40.7904L33.8713 40.8402L33.9266 40.8901L33.9764 40.9453L34.0261 40.9951L34.076 41.0449L34.1257 41.0946L34.1755 41.1445L34.2308 41.1997L34.2806 41.2495L34.3304 41.2993L34.3801 41.349L34.4299 41.3989L34.4852 41.4542L34.535 41.5039L34.5848 41.5537L34.6345 41.6034L34.6843 41.6533L34.7396 41.7086L34.7894 41.7583L34.8392 41.8081L34.889 41.858L34.9387 41.963L34.994 42.0129L35.0439 42.0625L35.0936 42.1124L35.1434 42.1621L35.1931 42.2174L35.2485 42.2673L35.2983 42.3169L35.348 42.3668L35.3978 42.4166L35.4476 42.4718L35.5029 42.5217L35.5527 42.5713L35.6024 42.6212L35.6523 42.671L35.702 42.7207L35.7573 42.7761L35.8071 42.8259L35.8569 42.8756L35.9067 42.9254L35.9564 42.9752L36.0118 43.0305L36.0615 43.0803L36.1113 43.13L36.1611 43.1798L36.2109 43.2296L36.2662 43.2849L36.3159 43.3347L36.3657 43.3845L36.4155 43.4342L36.4653 43.484L36.515 43.5393L36.5703 43.5891L36.6202 43.6389L36.6699 43.6886L36.7197 43.7384L36.775 43.7938L36.8248 43.8435L36.8746 43.8933L36.9243 43.9431L36.9741 43.9928L37.0239 44.0482L37.0792 44.0979L37.129 44.1477L37.1788 44.1975L37.2285 44.2472L37.2783 44.3026L37.3336 44.3524L37.3834 44.4519L37.4332 44.5018L37.4829 44.557L37.5328 44.6068L37.5881 44.6565L37.6378 44.7063L37.6876 44.7562L37.7374 44.8114L37.7872 44.8612L37.8425 44.911L37.8922 44.9607L37.9421 45.0106L37.9918 45.0658L38.0416 45.1156L38.0969 45.1654L38.1467 45.2151L38.1965 45.265L38.2462 45.3203L38.296 45.37L38.3513 45.4198L38.4011 45.4697L38.4509 45.5194L38.5007 45.5747L38.5504 45.6244L38.6057 45.6742L38.6555 45.7241L38.7053 45.7738L38.7551 45.8236L38.8048 45.879L38.8601 45.9286L38.91 45.9785L38.9597 46.0282L39.0095 46.0835L39.0592 46.1334L39.1091 46.183L39.1644 46.2329L39.2141 46.2827L39.2639 46.3324L39.3137 46.3878L39.369 46.4376L39.4188 46.4873L39.4686 46.5371L39.5183 46.5923L39.5681 46.6422L39.6179 46.692L39.6732 46.7417L39.723 46.7915L39.7727 46.8413L39.8225 46.8966L39.8779 46.9464L39.9276 46.9961L39.9774 47.0459L40.0271 47.0957L40.077 47.151L40.1267 47.2008L40.182 47.2506L40.2319 47.3003L40.2816 47.3501L40.3314 47.4055L40.3811 47.4552L40.4365 47.505L40.4863 47.5547L40.536 47.6045L40.5858 47.6599L40.6356 47.7096L40.6909 47.7594L40.7407 47.8092L40.7904 47.8589L40.8402 47.9143L40.89 47.964L40.9453 48.0138L40.9951 48.0636L41.0449 48.1133L41.0946 48.1687L41.1444 48.2185L41.1998 48.2682L41.2495 48.318L41.2993 48.3679L41.349 48.4231L41.3989 48.4729L41.4542 48.5226L41.5039 48.5724L41.5537 48.6223L41.6533 48.6719L41.7086 48.7273L41.7583 48.7771L41.8082 48.8268L41.8579 48.8767L41.9077 48.9265L41.9575 48.9817L42.0128 49.0315L42.0626 49.0812L42.1621 49.1311L42.2174 49.1809L42.2672 49.2361L42.317 49.2859L42.3668 49.3358L42.4663 49.3855L42.5216 49.4353L42.5714 49.4905L42.6212 49.5403L42.7262 49.5902L42.8258 49.6399L42.8756 49.6897L42.9752 49.745L43.0802 49.7947L43.1798 49.8446L43.3347 49.8944L43.6388 49.9441H44.5017L44.911 49.8944L45.1156 49.8446L45.265 49.7947L45.37 49.745L45.4696 49.6897L45.5691 49.6399L45.6245 49.5902L45.724 49.5403L45.7738 49.4905L45.8789 49.4353L45.9286 49.3855L45.9784 49.3358L46.0282 49.2859L46.1333 49.2361L46.183 49.1809L46.2329 49.1311L46.2826 49.0812L46.3324 49.0315L46.3877 48.9817L46.4873 48.9265L46.537 48.8767L46.5869 48.8268L46.6422 48.7771L46.6919 48.7273L46.7417 48.6719L46.7915 48.6223L46.8413 48.5724L46.8966 48.5226L46.9463 48.4729L46.9961 48.4231L47.0459 48.3679L47.0957 48.318L47.151 48.2682L47.2008 48.2185L47.2505 48.1687L47.3003 48.1133L47.3501 48.0636L47.4054 48.0138L47.4552 47.964L47.5049 47.9143L47.5548 47.8589L47.6045 47.8092L47.6543 47.7594L47.7096 47.7096L47.7594 47.6599L47.8092 47.6045L47.8589 47.5547L47.9142 47.505L47.9641 47.4552L48.0138 47.4055L48.0636 47.3501L48.1134 47.3003L48.1632 47.2506L48.2185 47.2008L48.2682 47.151L48.318 47.0957L48.3678 47.0459L48.4176 46.9961L48.4729 46.9464L48.5227 46.8966L48.5724 46.8413L48.6222 46.7915L48.672 46.7417L48.7273 46.692L48.7771 46.6422L48.8268 46.5371L48.8766 46.4873L48.9264 46.4376L48.9817 46.3878L49.0315 46.3324L49.0813 46.2827L49.1311 46.2329L49.1808 46.183L49.2361 46.0835L49.2859 46.0282L49.3357 45.9785L49.3855 45.879L49.4352 45.8236L49.4906 45.7738L49.5403 45.6742L49.5901 45.5747L49.6399 45.5194L49.6897 45.4198L49.745 45.265L49.7947 45.1156L49.8445 44.911V43.484L49.7947 43.3347L49.745 43.1798L49.6897 43.0803L49.6399 42.9752L49.5901 42.9254L49.5403 42.8259L49.4906 42.7761L49.4352 42.671L49.3855 42.6212L49.3357 42.5713L49.2859 42.4718L49.2361 42.4166L49.1808 42.3668L49.1311 42.3169L49.0813 42.2673L49.0315 42.1621L48.9817 42.1124L48.9264 42.0625L48.8766 42.0129L48.8268 41.963L48.7771 41.9077L48.7273 41.858L48.672 41.7583L48.6222 41.7086L48.5724 41.6533L48.5227 41.6034L48.4729 41.5537L48.4176 41.5039L48.3678 41.4542L48.318 41.3989L48.2682 41.349L48.2185 41.2993L48.1632 41.2495L48.1134 41.1445L48.0636 41.0946L48.0138 41.0449L47.9641 40.9951L47.9142 40.9453L47.8589 40.8901L47.8092 40.8402L47.7594 40.7904L47.7096 40.7407L47.6543 40.6909L47.6045 40.6355L47.5548 40.5858L47.5049 40.536L47.4552 40.4863L47.4054 40.4365L47.3501 40.3811L47.3003 40.3314L47.2505 40.2816L47.2008 40.2318L47.151 40.1821L47.0957 40.1323L47.0459 40.077L46.9961 40.0272L46.9463 39.9774L46.8966 39.9277L46.8413 39.8723L46.7915 39.8225L46.7417 39.7728L46.6919 39.723L46.6422 39.6732L46.5869 39.6235L46.537 39.5681L46.4873 39.4686L46.4375 39.4188L46.3877 39.3635L46.3324 39.3137L46.2826 39.2639L46.2329 39.2142L46.183 39.1644L46.1333 39.1145L46.078 39.0593L46.0282 39.0095L45.9784 38.9598L45.9286 38.91L45.8789 38.8601L45.8236 38.8049L45.7738 38.7551L45.724 38.7053L45.6742 38.6556L45.6245 38.6057L45.5691 38.5505L45.5194 38.5007L45.4696 38.4509L45.4198 38.4012L45.37 38.3513L45.3147 38.296L45.265 38.2463L45.2151 38.1965L45.1654 38.1466L45.1156 38.0969L45.0659 38.0416L45.0105 37.9919L44.9607 37.9421L44.911 37.8922L44.8612 37.8425L44.8059 37.7872L44.7561 37.7373L44.7063 37.6877L44.6566 37.6378L44.6068 37.5881L44.557 37.5328L44.5017 37.4829L44.4519 37.4333L44.4021 37.3834L44.3524 37.3336L44.3026 37.2839L44.2472 37.2285L44.1975 37.1787L44.1477 37.129L44.098 37.0792L44.0481 37.024L43.9928 36.9741L43.9431 36.9243L43.8933 36.8746L43.8435 36.8248L43.7937 36.775L43.7384 36.7197L43.6887 36.6699L43.6388 36.6202L43.5891 36.5704L43.5393 36.5206L43.484 36.4653L43.4342 36.4155L43.3844 36.3657L43.3347 36.316L43.2849 36.2662L43.2296 36.2108L43.1798 36.1611L43.13 36.1113L43.0802 36.0616L43.0305 36.0118L42.9752 35.9564L42.9254 35.9067L42.8756 35.8569L42.8258 35.8071L42.7761 35.702L42.7262 35.6523L42.6709 35.6025L42.6212 35.5527L42.5714 35.503L42.5216 35.4476L42.4663 35.3978L42.4165 35.3481L42.3668 35.2983L42.317 35.2484L42.2672 35.1932L42.2174 35.1434L42.1621 35.0937L42.1123 35.0439L42.0626 34.994L42.0128 34.9443L41.9575 34.889L41.9077 34.8392L41.8579 34.7895L41.8082 34.7396L41.7583 34.6844L41.7086 34.6346L41.6533 34.5848L41.6035 34.5351L41.5537 34.4852L41.5039 34.4354L41.4542 34.3802L41.3989 34.3304L41.349 34.2805L41.2993 34.2308L41.2495 34.181L41.1444 34.1258L41.0946 34.076L41.0449 34.0261L40.9951 33.9764L40.9453 33.9266L40.89 33.8712L40.8402 33.8216L40.7904 33.7717L40.7407 33.7219L40.6909 33.6722L40.6356 33.6168L40.5858 33.5672L40.536 33.5173L40.4863 33.4675L40.4365 33.4178L40.3811 33.3624L40.3314 33.3126L40.2816 33.2629L40.2319 33.2131L40.182 33.1634L40.1267 33.108L40.077 33.0582L39.9774 33.0085L39.9276 32.9587L39.8779 32.9089L39.8225 32.8536L39.7727 32.8038L39.723 32.754L39.6732 32.7043L39.5681 32.6545L39.5183 32.5992L39.4686 32.5494L39.4188 32.4996L39.3137 32.4499L39.2639 32.4001L39.1644 32.3447L39.1091 32.295L39.0095 32.2452L38.91 32.1955L38.8048 32.1457L38.6555 32.0903L38.4509 32.0406H37.0792L36.8746 32.0903L36.7197 32.1457L36.5703 32.1955L36.4653 32.2452L36.3657 32.295L36.2662 32.3447L36.2109 32.4001L36.1113 32.4499L36.0615 32.4996L35.9564 32.5494L35.9067 32.5992L35.8071 32.6545H35.7573L35.702 32.5992L35.6523 32.5494L35.6024 32.4996L35.5527 32.4499L35.5029 32.4001L35.4476 32.3447L35.3978 32.295L35.348 32.2452L35.2983 32.1955L35.2485 32.1457L35.1931 32.0903L35.1434 32.0406L35.0936 31.9908L35.0439 31.941L34.994 31.8913L34.9387 31.8359L34.889 31.7861L34.8392 31.7364L34.7894 31.6866L34.7396 31.6369L34.6843 31.587L34.6345 31.5317L34.5848 31.482L34.535 31.4322L34.4852 31.3823L34.4299 31.3326L34.3801 31.2773L34.3304 31.2276L34.2806 31.1778L34.2308 31.1279L34.1755 31.0782L34.1257 31.0229L34.076 30.9731L34.0261 30.9234L33.9764 30.8735V30.7685L34.0261 30.669L34.076 30.6191L34.1257 30.5693L34.1755 30.4643L34.2308 30.4144L34.2806 30.3647L34.3304 30.3149L34.3801 30.2099L34.4299 30.16L34.4852 30.0605L34.535 30.0052L34.5848 29.9555L34.6345 29.8558L34.6843 29.8061L34.7396 29.7011L34.7894 29.6512L34.8392 29.5517L34.889 29.4465L34.9387 29.3968L34.994 29.2972L35.0439 29.242L35.0936 29.1424L35.1434 29.0926L35.1931 28.9876L35.2485 28.8879L35.2983 28.8382L35.348 28.7332L35.3978 28.6335L35.4476 28.5838L35.5029 28.4842L35.5527 28.3791L35.6024 28.3293L35.6523 28.2242L35.702 28.1247L35.7573 27.9754V27.92L35.6024 27.8703H35.348L34.889 27.92H34.6345L34.5848 27.8205L34.535 27.721L34.4852 27.6656L34.4299 27.5661L34.3801 27.5162L34.3304 27.4112L34.2806 27.3117L34.2308 27.2122L34.1755 27.1568L34.1257 27.0573L34.076 26.9576L34.0261 26.8526L33.9764 26.753L33.9266 26.648L33.8713 26.5982L33.8215 26.4986L33.7717 26.3935L33.722 26.2939L33.6666 26.1944L33.6169 26.0894L33.5671 25.9897L33.5173 25.8847L33.4675 25.7851L33.4177 25.6856L33.3625 25.6358H33.2629L33.2131 25.7353L33.1633 25.7851L33.1081 25.8847L33.0582 25.9897L33.0085 26.0894L32.9587 26.1944L32.9089 26.2442L32.8536 26.3438L32.8038 26.4488L32.7541 26.5483L32.7042 26.648L32.6545 26.7032L32.5992 26.8029L32.5494 26.9024L32.4996 27.0074L32.4498 27.0573L32.4001 27.1568L32.3448 27.2122L32.295 27.3117L32.2452 27.4112L32.1954 27.4666L32.1456 27.5661L32.0903 27.6159L32.0406 27.721L31.9908 27.7708L31.941 27.8703L31.8912 27.92L31.8359 28.0252L31.7862 28.0749L31.7363 28.1745L31.6866 28.2242L31.6368 28.2796L31.5815 28.3791L31.5317 28.4289L31.4819 28.4842L31.4322 28.5838L31.3824 28.6335L31.327 28.6833L31.2773 28.7332L31.2275 28.8382L31.1777 28.8879L31.1279 28.9377L31.0782 28.9876L31.0229 29.0428L30.9731 29.1424L30.9233 29.1921L30.8735 29.242L30.8182 29.2972L30.7684 29.347L30.7187 29.3968L30.6689 29.4465L30.6191 29.5517L30.5693 29.6014L30.514 29.6512L30.4643 29.7011L30.4145 29.7508L30.3647 29.8061L30.3149 29.8558L30.2596 29.9056L30.2098 29.9555L30.16 30.0052L30.1103 30.0605L30.0605 30.1103L30.0052 30.16L29.9554 30.2099L29.9056 30.2597L29.8559 30.3149L29.806 30.3647L29.7508 30.4144L29.701 30.4643L29.6512 30.5141L29.6014 30.5693L29.5516 30.6191L29.4964 30.669L29.3968 30.7187L29.347 30.7685L29.2972 30.8237L29.2419 30.8735L29.1921 30.9234L29.1424 30.9731L29.0926 31.0229L28.9875 31.0782L28.9377 31.1279L28.888 31.1778L28.8381 31.2276L28.7884 31.2773L28.6833 31.3326L28.6335 31.3823L28.5837 31.4322L28.4787 31.482L28.4289 31.5317L28.3791 31.587L28.3293 31.6369L28.2298 31.6866L28.1745 31.7364L28.0749 31.7861L28.0251 31.8359L27.9698 31.8913L27.8702 31.941L27.8205 31.9908L27.7209 32.0406L27.6656 32.0903L27.5661 32.1457L27.5162 32.1955L27.4112 32.2452L27.3614 32.295L27.2618 32.3447L27.1568 32.4001L27.107 32.4499L27.0074 32.4996L26.9577 32.5494L26.8526 32.5992L26.753 32.6545L26.6479 32.7043L26.5982 32.754L26.4986 32.8038L26.3935 32.8536L26.2939 32.9089L26.1944 32.9587L26.0893 33.0085L25.9898 33.0582L25.8847 33.108L25.7851 33.1634L25.6856 33.2131L25.5804 33.2629L25.4809 33.3126L25.3813 33.3624L25.2265 33.4178L25.1269 33.4675L25.0219 33.5173L24.8725 33.5672L24.7674 33.6168L24.6181 33.6722L24.513 33.7219L24.3637 33.7717L24.2088 33.8216L24.1093 33.8712L23.9544 33.9266L23.7995 33.9764L23.6502 34.0261L23.4455 34.076L23.2907 34.1258L23.0915 34.181L22.9367 34.2308L22.7321 34.2805L22.4776 34.3304L22.2785 34.3802L22.0186 34.4354L21.7697 34.4852L21.4599 34.5351L21.1059 34.5848L20.6967 34.6346L20.138 34.6844H17.7985L17.2399 34.6346L16.8306 34.5848L16.5263 34.5351L16.2222 34.4852L15.918 34.4354L15.6636 34.3802L15.4589 34.3304L15.2045 34.2805L14.9998 34.2308L14.8505 34.181L14.6459 34.1258L14.4412 34.076L14.2919 34.0261L14.137 33.9764L13.9877 33.9266L13.8328 33.8712L13.678 33.8216L13.5286 33.7717L13.3738 33.7219L13.2742 33.6722L13.1194 33.6168L13.0198 33.5672L12.8649 33.5173L12.7654 33.4675L12.6602 33.4178L12.5109 33.3624L12.4058 33.3126L12.3063 33.2629L12.2067 33.2131L12.1016 33.1634L12.0021 33.108L11.897 33.0582L11.7975 33.0085L11.6979 32.9587L11.5928 32.9089L11.543 32.8536L11.4435 32.8038L11.3384 32.754L11.2388 32.7043L11.1392 32.6545L11.084 32.5992L10.9844 32.5494L10.8793 32.4996L10.8296 32.4499L10.73 32.4001L10.6802 32.3447L10.5751 32.295L10.4756 32.2452L10.4258 32.1955L10.3207 32.1457L10.2709 32.0903L10.1713 32.0406L10.1216 31.9908L10.0663 31.941L9.9667 31.8913L9.91694 31.8359L9.81189 31.7861L9.76206 31.7364L9.7123 31.6866L9.61271 31.6369L9.55742 31.587L9.50766 31.5317L9.40807 31.482L9.35831 31.4322L9.30302 31.3823L9.25326 31.3326L9.15367 31.2773L9.10391 31.2276L9.04862 31.1778L8.99879 31.1279L8.89927 31.0782L8.84945 31.0229L8.79969 30.9731L8.74439 30.9234L8.69463 30.8735L8.64481 30.8237L8.53975 30.7685L8.48999 30.7187L8.44016 30.669L8.39041 30.6191L8.34065 30.5693L8.29089 30.5141L8.23552 30.4643L8.18576 30.4144L8.13601 30.3647L8.08618 30.3149L8.03088 30.2597L7.98112 30.2099L7.93136 30.16L7.88154 30.1103L7.83178 30.0605L7.78202 30.0052L7.72672 29.9555L7.6769 29.9056L7.62714 29.8558L7.57738 29.8061L7.52762 29.7508L7.47226 29.7011L7.4225 29.6512L7.37274 29.6014L7.32298 29.5517L7.27315 29.4964L7.21786 29.4465L7.1681 29.3968L7.11827 29.2972L7.06851 29.242L7.01875 29.1921L6.96346 29.1424L6.91363 29.0926L6.86387 29.0428L6.81411 28.9377L6.76435 28.8879L6.70899 28.8382L6.65923 28.7884L6.60947 28.6833L6.55971 28.6335L6.50988 28.5838L6.45459 28.534L6.40483 28.4289L6.35507 28.3791L6.30524 28.3293L6.25548 28.2242L6.20019 28.1745L6.15036 28.0749L6.1006 28.0252L6.05084 27.9754L6.00108 27.8703L5.95126 27.8205L5.89596 27.721L5.8462 27.6656L5.79644 27.5661L5.74662 27.5162L5.69132 27.4112L5.64156 27.3614L5.5918 27.2618L5.54198 27.2122L5.49222 27.107L5.44246 27.0074L5.38716 26.9576L5.33734 26.8526L5.28758 26.753L5.23782 26.648L5.18245 26.5982L5.1327 26.4986L5.08294 26.3935L5.03318 26.2939L4.98335 26.1944L4.93359 26.0894L4.8783 25.9897L4.82854 25.8847L4.77871 25.7851L4.72895 25.6856L4.67919 25.5804L4.6239 25.4809L4.57407 25.3814L4.52431 25.2265L4.47455 25.127L4.42472 24.9721L4.36943 24.8725L4.31967 24.7674L4.26991 24.6181L4.22008 24.4632L4.17032 24.3084L4.11503 24.2088L4.06527 24.0539L4.01544 23.9045L3.96568 23.7498L3.91592 23.5451L3.86063 23.3957L3.8108 23.1912L3.76104 22.9865L3.71128 22.7874L3.66146 22.5827L3.60616 22.3781L3.5564 22.1236L3.50664 21.8692L3.45681 21.565L3.40706 21.2055L3.35176 20.8018L3.302 20.293V17.7985L3.35176 17.2399L3.40706 16.8362L3.45681 16.5264L3.50664 16.2222L3.5564 15.918L3.60616 15.7134L3.66146 15.459L3.71128 15.2543L3.76104 15.0551L3.8108 14.8505L3.86063 14.6956L3.91592 14.4966L3.96568 14.3417L4.01544 14.1868L4.06527 14.0375L4.11503 13.8826L4.17032 13.7333L4.22008 13.5784L4.26991 13.4789L4.31967 13.324L4.36943 13.1691L4.42472 13.0696L4.47455 12.9147L4.52431 12.8152L4.57407 12.7155L4.6239 12.6105L4.67919 12.4611L4.72895 12.3561L4.77871 12.2566L4.82854 12.1569L4.8783 12.0519L4.93359 11.9523L4.98335 11.8473L5.03318 11.7476L5.08294 11.6481L5.1327 11.5431L5.18245 11.4932L5.23782 11.3937L5.28758 11.2887L5.33734 11.189L5.38716 11.1393L5.44246 11.0343L5.49222 10.9346L5.54198 10.8849L5.5918 10.7797L5.64156 10.6802L5.69132 10.6304L5.74662 10.5253L5.79644 10.4756L5.8462 10.376L5.89596 10.3208L5.95126 10.2211L6.00108 10.1714L6.05084 10.0664L6.1006 10.0165L6.15036 9.91701L6.20019 9.86718L6.25548 9.81735L6.30524 9.7123L6.35507 9.66247L6.40483 9.61278L6.45459 9.50773L6.50988 9.4579L6.55971 9.40807L6.60947 9.30855L6.65923 9.25319L6.70899 9.2035L6.76435 9.15367L6.81411 9.04862L6.86387 8.99879L6.91363 8.9491L6.96346 8.89927L7.01875 8.84945L7.06851 8.74439L7.11827 8.69456L7.1681 8.64487L7.21786 8.59505L7.27315 8.54535L7.32298 8.48999L7.37274 8.44016L7.4225 8.39047L7.47226 8.34065L7.52762 8.23559L7.57738 8.18576L7.62714 8.13607L7.6769 8.08625L7.72672 8.03642L7.78202 7.98119L7.83178 7.93136L7.88154 7.88154L7.93136 7.83185L7.98112 7.78202L8.03088 7.72666L8.08618 7.67696L8.13601 7.62714L8.23552 7.57745L8.29089 7.52762L8.34065 7.47226L8.39041 7.42256L8.44016 7.37274L8.48999 7.32291L8.53975 7.27322L8.59505 7.21786L8.64481 7.16816L8.74439 7.11834L8.79969 7.06851L8.84945 7.01882L8.89927 6.96346L8.94903 6.91363L8.99879 6.86394L9.10391 6.81411L9.15367 6.76428L9.20343 6.70906L9.25326 6.65923L9.35831 6.60954L9.40807 6.55971L9.4579 6.50988L9.55742 6.45466L9.61271 6.40483L9.66254 6.355L9.76206 6.30531L9.81189 6.25548L9.91694 6.20566L9.9667 6.15043L10.0165 6.1006L10.1216 6.05091L10.1713 6.00108L10.2709 5.94572L10.3207 5.89603L10.4258 5.8462L10.4756 5.79638L10.5751 5.74668L10.6802 5.69686L10.73 5.64163L10.8296 5.5918L10.8793 5.54198L10.9844 5.49228L11.084 5.44246L11.1891 5.38709L11.2388 5.3374L11.3384 5.28758L11.4435 5.23775L11.543 5.18806L11.6426 5.13269L11.6979 5.083L11.7975 5.03318L11.897 4.98335L12.0021 4.93366L12.1016 4.87829L12.2067 4.82847L12.3561 4.77878L12.4611 4.72895L12.5607 4.67926L12.6602 4.62389L12.7654 4.57407L12.9147 4.52438L13.0198 4.47455L13.1691 4.42472L13.2742 4.36949L13.4235 4.31967L13.5286 4.26984L13.678 4.22015L13.8328 4.17032L13.9877 4.11509L14.137 4.06527L14.2919 4.01544L14.491 3.96575L14.6459 3.91592L14.8505 3.86056L15.0552 3.81087L15.2543 3.76104L15.4589 3.71135L15.7133 3.66152L15.918 3.60616L16.2222 3.55647L16.5263 3.50664L16.8859 3.45681L17.3394 3.40712L17.9035 3.3573H20.0385L20.6469 3.40712L21.0562 3.45681L21.4102 3.50664L21.7143 3.55647L22.0186 3.60616L22.2785 3.66152L22.4776 3.71135L22.6822 3.76104L22.8869 3.81087L23.0915 3.86056L23.2907 3.91592L23.4455 3.96575L23.6502 4.01544L23.7995 4.06527L23.9544 4.11509L24.1093 4.17032L24.2586 4.22015L24.4134 4.26984L24.5628 4.31967L24.7674 4.36949H24.8725V3.86056V3.55647L24.9223 3.45681L24.972 3.40712L25.0219 3.3573L25.0716 3.30193L25.1767 3.25224L25.2265 3.20241L25.2763 3.15272L25.3813 3.09736L25.4312 3.04753L25.4809 2.99784L25.5804 2.94801L25.6303 2.89819L25.7353 2.8485L25.7851 2.79313L25.8349 2.74344L25.94 2.69361L25.9898 2.64379L26.0893 2.5941L26.1391 2.53873L26.2442 2.48891L26.2939 2.43921L26.3935 2.38939L26.4488 2.33956L26.5483 2.28433L26.5982 2.23451L26.7032 2.18481L26.753 2.13499L26.8526 2.08516L26.9023 2.02993L27.0074 1.98011V1.93028L26.9577 1.77553V1.72571L26.8526 1.67588L26.753 1.62619L26.6479 1.57636L26.4986 1.521L26.3935 1.47131L26.2939 1.42148L26.1391 1.37165L26.0395 1.32196L25.8847 1.2666L25.7353 1.21691L25.6303 1.16708L25.4809 1.11725L25.326 1.06756L25.1767 1.01773L25.0219 0.962372L24.8725 0.91268L24.7176 0.862853L24.5628 0.813027L24.3637 0.757799L24.2088 0.707972L24.0041 0.65828L23.7995 0.608453L23.6502 0.558627L23.4455 0.508935L23.1911 0.453572L22.9865 0.403745L22.7321 0.354053L22.4776 0.304227L22.2232 0.254535L21.919 0.199172L21.5651 0.149345L21.0064 0.0996535L20.2432 0.0498267L19.0208 0H17.6989L17.2399 0.0498267Z" fill="#9D9E9E"/>
<path fill-rule="evenodd" clip-rule="evenodd" d="M39.7726 14.8508L39.7228 15.155L39.6731 15.4094L39.6177 15.614L39.5679 15.8187L39.5182 15.9681L39.4684 16.0731L39.4186 16.2225L39.3688 16.3773L39.3135 16.4769L39.2638 16.5764L39.214 16.6816L39.1642 16.7811L39.1089 16.8861L39.0591 16.9858L39.0093 17.0355L38.9596 17.1405L38.9098 17.2402L38.86 17.2899L38.8047 17.3951L38.7549 17.4448L38.7052 17.4946L38.6553 17.5443L38.6056 17.6495L38.5503 17.6992L38.5005 17.749L38.4507 17.7988L38.4009 17.8485L38.3512 17.9039L38.2959 18.0034L38.246 18.0532L38.1963 18.1029L38.1465 18.1583L38.0967 18.2081L37.9916 18.2578L37.9419 18.3076L37.8921 18.3574L37.8423 18.4127L37.787 18.4625L37.7372 18.5122L37.6874 18.562L37.5879 18.6118L37.5326 18.6671L37.4828 18.7169L37.3833 18.7667L37.3334 18.8164L37.2284 18.8662L37.1786 18.9216L37.079 18.9713L37.0237 19.0211L36.9242 19.0708L36.8246 19.1206L36.7749 19.176L36.6698 19.2257L36.5702 19.2755L36.4651 19.3253L36.3655 19.375L36.266 19.4304L36.1111 19.4801L36.0116 19.5299L35.8567 19.5797L35.7018 19.6294L35.5525 19.6848L35.3479 19.7346L35.0437 19.7843L34.5348 19.8341H33.4673L32.9087 19.7843L32.6543 19.7346L32.4497 19.6848L32.245 19.6294L32.0901 19.5797L31.9408 19.5299L31.8357 19.4801L31.6864 19.4304L31.5813 19.375L31.4818 19.3253L31.3822 19.2755L31.2771 19.2257L31.1775 19.176L31.078 19.1206L31.0227 19.0708L30.9231 19.0211L30.8734 18.9713L30.7683 18.9216L30.7185 18.8662L30.619 18.8164L30.5692 18.7667L30.4641 18.7169L30.4143 18.6671L30.3645 18.6118L30.3148 18.562L30.2096 18.5122L30.1599 18.4625L30.1101 18.4127L30.0604 18.3574L30.005 18.3076L29.9552 18.2578L29.9055 18.2081L29.8557 18.1583L29.8059 18.1029L29.7506 18.0532L29.7008 18.0034L29.6511 17.9537L29.6012 17.9039L29.5515 17.8485L29.4962 17.749L29.4464 17.6992L29.3966 17.6495L29.3468 17.5941L29.2971 17.4946L29.2417 17.4448L29.192 17.3951L29.1422 17.2899L29.0924 17.2402L29.0426 17.1405L28.9873 17.0355L28.9376 16.9858L28.8878 16.8861L28.838 16.7811L28.7882 16.6816L28.7385 16.5764L28.6832 16.4769L28.6333 16.3773L28.5836 16.2225L28.5338 16.1229L28.4785 15.9681L28.4287 15.8187L28.3789 15.6638L28.3292 15.4593L28.2793 15.2545L28.2296 15.0001L28.1743 14.5964V13.4238L28.2296 13.02L28.2793 12.7656L28.3292 12.5611L28.3789 12.3564L28.4287 12.207L28.4785 12.0521L28.5338 11.9526L28.5836 11.7977L28.6333 11.6982L28.6832 11.5932L28.7385 11.4935L28.7882 11.394L28.838 11.2889L28.8878 11.1893L28.9376 11.0842L28.9873 11.0345L29.0426 10.9349L29.0924 10.8298L29.1422 10.78L29.192 10.6805L29.2417 10.6306L29.2971 10.5754L29.3468 10.4759L29.3966 10.4261L29.4464 10.3762L29.4962 10.321L29.5515 10.2214L29.6012 10.1717L29.6511 10.1218L29.7008 10.0666L29.7506 10.0168L29.8059 9.96697L29.8557 9.91728L29.9055 9.86745L29.9552 9.81762L30.005 9.76239L30.0604 9.71257L30.1101 9.66274L30.1599 9.61305L30.2096 9.55769L30.3148 9.50799L30.3645 9.45817L30.4143 9.40834L30.4641 9.35865L30.5692 9.30882L30.619 9.25346L30.7185 9.20377L30.7683 9.15394L30.8734 9.10425L30.9231 9.04889L31.0227 8.99906L31.1278 8.94937L31.1775 8.89954L31.2771 8.84971L31.3822 8.80002L31.4818 8.74466L31.5813 8.69483L31.6864 8.64514L31.8357 8.59531L31.9408 8.54562L32.0901 8.49026L32.245 8.44043L32.4497 8.39074L32.599 8.34091L32.8534 8.29109L33.1632 8.23586L33.5172 8.18603H34.4297L34.7892 8.23586L35.0437 8.29109L35.2981 8.34091L35.5027 8.39074L35.7018 8.44043L35.8567 8.49026L36.0116 8.54562L36.1111 8.59531L36.266 8.64514L36.3655 8.69483L36.4651 8.74466L36.5702 8.80002L36.6698 8.84971L36.7749 8.89954L36.8744 8.94937L36.974 8.99906L37.0237 9.04889L37.1288 9.10425L37.1786 9.15394L37.2781 9.20377L37.3334 9.25346L37.433 9.30882L37.4828 9.35865L37.5326 9.40834L37.6377 9.45817L37.6874 9.50799L37.7372 9.55769L37.787 9.61305L37.8921 9.66274L37.9419 9.71257L37.9916 9.76239L38.0414 9.81762L38.0967 9.86745L38.1465 9.91728L38.1963 9.96697L38.246 10.0168L38.2959 10.0666L38.3512 10.1218L38.4009 10.2214L38.4507 10.2712L38.5005 10.321L38.5503 10.3762L38.6056 10.4261L38.6553 10.5256L38.7052 10.5754L38.7549 10.6306L38.8047 10.7303L38.86 10.78L38.9098 10.8852L38.9596 10.9349L39.0093 11.0345L39.0591 11.1396L39.1089 11.2391L39.1642 11.2889L39.214 11.394L39.2638 11.4935L39.3135 11.6484L39.3688 11.7479L39.4186 11.8476L39.4684 12.0024L39.5182 12.1572L39.5679 12.3065L39.6177 12.5112L39.6731 12.6661L39.7228 12.915L39.7726 13.2744L39.8223 13.8331V14.2423L39.7726 14.8508V14.8508ZM34.4851 1.72597L34.4297 1.7758L34.38 1.83103L34.3302 1.88086L34.2804 1.98037L34.2306 2.08543L34.1753 2.13526L34.1256 2.23477L34.0758 2.33983L34.026 2.48917L33.9762 2.59436L33.9264 2.69388L33.8712 2.7934L33.8213 2.94828L33.7716 3.0478L33.7218 3.15299L33.6664 3.3022L33.6167 3.40739L33.5669 3.55674L33.5172 3.66179L33.4673 3.81114L33.4176 3.96602L33.3623 4.11536L33.3125 4.27011L33.2627 4.36976L33.2129 4.52464L33.1632 4.62416L33.1079 4.72922L33.0581 4.82874L33.0083 4.87856L32.8534 4.93393L32.599 4.98362L32.2948 5.03344L31.9906 5.08327L31.786 5.13296L31.5813 5.18833L31.3822 5.23802L31.1775 5.28784L31.0227 5.33767L30.8734 5.38736L30.6687 5.44273H30.5692L30.5139 5.38736L30.4641 5.33767L30.4143 5.28784L30.3645 5.23802L30.3148 5.18833L30.2595 5.13296L30.2096 5.03344L30.1599 4.98362L30.1101 4.93393L30.0604 4.87856L30.005 4.82874L29.9552 4.77904L29.9055 4.72922L29.8557 4.67953L29.8059 4.62416L29.7506 4.52464L29.7008 4.47482L29.6511 4.42499L29.6012 4.36976L29.5515 4.31994L29.4962 4.27011L29.4464 4.22042L29.3966 4.17059L29.3468 4.11536L29.2971 4.06554L29.2417 4.01571L29.192 3.96602L29.1422 3.91619L29.0924 3.86083L29.0426 3.81114L28.9873 3.76131L28.9376 3.71162L28.8878 3.66179L28.838 3.60643L28.7882 3.55674L28.7385 3.50691L28.6832 3.45708L28.6333 3.40739L28.5338 3.35756L28.4785 3.3022L28.4287 3.25251L28.3789 3.20268L28.3292 3.15299L28.2793 3.09763L28.1743 3.0478H27.9697L27.8701 3.09763L27.7705 3.15299L27.7207 3.20268L27.6157 3.25251L27.5161 3.3022L27.4663 3.35756L27.3613 3.40739L27.2617 3.45708L27.2119 3.50691L27.1068 3.55674L27.057 3.60643L26.9575 3.66179L26.8524 3.71162L26.8026 3.76131L26.7031 3.81114L26.6478 3.86083L26.598 3.91619L26.4984 3.96602L26.4487 4.01571L26.3934 4.11536V4.36976L26.4487 4.67953L26.4984 4.93393L26.5482 5.13296L26.598 5.33767L26.6478 5.49255L26.7031 5.69713L26.7528 5.84647L26.8026 6.00135L26.8524 6.1507L26.9022 6.30558L26.9575 6.45492L27.0073 6.60981L27.057 6.76455L27.1068 6.86421L27.1566 7.01909L27.2119 7.11861L27.2617 7.27349L27.3114 7.37301V7.57771L27.2617 7.62741L27.2119 7.67723L27.1566 7.72692L27.1068 7.78229L27.057 7.88181L27.0073 7.93163L26.9575 7.98146L26.9022 8.03669L26.8524 8.08651L26.8026 8.13634L26.7528 8.23586L26.7031 8.29109L26.6478 8.34091L26.598 8.39074L26.5482 8.49026L26.4984 8.54562L26.4487 8.59531L26.3934 8.69483L26.3435 8.74466L26.2938 8.80002L26.244 8.89954L26.1943 8.94937L26.1389 9.04889L26.0891 9.10425L26.0394 9.20377L25.9896 9.30882L25.9398 9.35865L25.8845 9.45817L25.8347 9.50799L25.7351 9.55769H25.6301L25.3812 9.50799L25.0217 9.45817L24.6677 9.40834L24.2584 9.35865L23.7993 9.30882L23.2407 9.25346L22.4277 9.20377H22.3281L22.2783 9.25346L22.223 9.40834L22.1733 9.55769L22.1234 9.71257L22.0737 9.86745L22.0184 10.0168L21.9686 10.1717L21.9188 10.321L21.869 10.4759L21.8193 10.6306L21.7695 10.8298V11.2889L21.8193 11.3386L21.869 11.394L21.9188 11.4438L21.9686 11.4935L22.0184 11.5433L22.0737 11.5932L22.1733 11.6484L22.223 11.6982L22.2783 11.7479L22.3779 11.7977L22.4277 11.8476L22.5273 11.8972L22.5826 11.9526L22.6821 12.0024L22.7319 12.0521L22.7872 12.102L22.8867 12.1572L22.9863 12.207L23.0361 12.2568L23.1412 12.3065L23.1909 12.3564L23.2905 12.4062L23.3458 12.4614L23.4453 12.5112L23.5449 12.5611L23.6002 12.6108L23.6998 12.6661L23.7993 12.7158L23.9045 12.7656L23.9542 12.8155L24.0538 12.8652L24.1589 12.915L24.2584 12.9703L24.3635 13.02L24.4631 13.0699L24.5626 13.1196L24.6179 13.5787L24.6677 14.5964L24.7175 15.3596V15.7633L24.6677 15.8187L24.6179 15.8685L24.5626 15.9182L24.4631 15.9681L24.4133 16.0179L24.3082 16.0731L24.2584 16.1229L24.1589 16.1726L24.0538 16.2225L24.004 16.2723L23.9045 16.3275L23.8546 16.3773L23.7496 16.4272L23.65 16.4769L23.6002 16.5267L23.4952 16.5764L23.4453 16.6317L23.3458 16.6816L23.2905 16.7313L23.1909 16.7811L23.1412 16.8364L23.0361 16.8861L22.9863 16.936L22.8867 16.9858L22.837 17.0355L22.7872 17.0853L22.6821 17.1405L22.6323 17.1904L22.5273 17.2402L22.4774 17.2899L22.4277 17.3452L22.3779 17.3951L22.3281 17.4448L22.2783 17.4946L22.223 17.5443L22.1733 17.5941L22.1234 17.6495L22.0737 17.6992L22.0184 17.7988V18.1583L22.0737 18.3574L22.1234 18.4625L22.1733 18.6118L22.223 18.7169L22.2783 18.8164L22.3281 18.9713L22.3779 19.0708L22.4277 19.176L22.4774 19.2755L22.5273 19.4304L22.5826 19.5299L22.6323 19.6294L22.6821 19.7346H23.1909L23.6998 19.6848L24.1589 19.6294L24.5626 19.5797L24.9221 19.5299L25.2263 19.4801L25.5305 19.4304L25.8347 19.375L26.0394 19.3253H26.244H26.3435V19.4304L26.3934 19.4801L26.4487 19.5797L26.4984 19.6294L26.5482 19.6848L26.598 19.7346L26.6478 19.8341L26.7031 19.884L26.7528 19.9392L26.8026 19.989L26.8524 20.0387L26.9022 20.0885L26.9575 20.1384L27.0073 20.2434L27.057 20.2933L27.1068 20.3429L27.1566 20.3928L27.2119 20.448L27.2617 20.4978L27.3114 20.5477L27.3613 20.5973L27.411 20.6472L27.4663 20.697L27.5161 20.7522L27.5659 20.8021L27.6157 20.8519L27.6654 20.9016L27.7207 20.9569L27.7705 21.0066L27.8203 21.0565L27.8701 21.1063L27.9199 21.156L27.9697 21.2058V21.2612L27.9199 21.4105L27.8701 21.5653L27.8203 21.7146L27.7705 21.8695L27.7207 22.0244L27.6654 22.1737L27.6157 22.3286L27.5659 22.4779L27.5161 22.6825L27.4663 22.8374L27.411 22.9867L27.3613 23.1914L27.3114 23.396L27.2617 23.5454L27.2119 23.7501L27.1566 24.0045V24.5631L27.2119 24.6183L27.2617 24.6682L27.3114 24.718L27.411 24.7677L27.4663 24.8175L27.5659 24.8727L27.6157 24.9226L27.7207 24.9724L27.8203 25.0221L27.9199 25.0719L27.9697 25.1273L28.0747 25.177L28.1743 25.2268L28.2793 25.2766L28.3789 25.3263L28.4785 25.3817L28.5836 25.4314L28.6832 25.4812L28.7882 25.531L28.8878 25.5807H28.9873L29.0426 25.531L29.0924 25.4812L29.1422 25.4314L29.192 25.3817L29.2417 25.3263L29.2971 25.2766L29.3468 25.2268L29.3966 25.177L29.4464 25.1273L29.4962 25.0719L29.5515 25.0221L29.6012 24.9724L29.6511 24.9226L29.7008 24.8727L29.7506 24.8175L29.8059 24.7677L29.8557 24.718L29.9055 24.6682L29.9552 24.5631L30.005 24.5133L30.0604 24.4634L30.1101 24.4138L30.1599 24.3639L30.2096 24.3087L30.2595 24.2589L30.3148 24.209L30.3645 24.1594L30.4143 24.0542L30.4641 24.0045L30.5139 23.9546L30.5692 23.9048L30.619 23.8551L30.6687 23.8053L30.7185 23.7501L30.7683 23.6504L30.8181 23.6007L30.8734 23.5454L30.9231 23.4955L30.9729 23.4458L31.0227 23.396L31.078 23.2965L31.1278 23.2411L31.1775 23.1914L31.2274 23.1416L31.2771 23.0366L31.3269 22.9867H31.5315L31.786 23.0366L32.0901 23.0918L32.4497 23.1416L32.9585 23.1914L33.7218 23.2411H33.9762V23.3463L34.026 23.4955L34.0758 23.6504L34.1256 23.7501L34.1753 23.9048L34.2306 24.0542L34.2804 24.1594L34.3302 24.3087L34.38 24.4138L34.4297 24.5133L34.4851 24.6682L34.5348 24.7677L34.5846 24.8727L34.6344 24.9724L34.6842 25.1273L34.7395 25.2268L34.7892 25.3263L34.8391 25.4314L34.8888 25.531L34.9386 25.6361L34.9939 25.7356L35.0437 25.8352L35.0935 25.9403L35.1432 26.0398L35.193 26.1449L35.2483 26.2445L35.2981 26.344L35.3479 26.3937H35.6023L36.0614 26.344L36.3655 26.2942L36.5702 26.2445L36.8246 26.1947L36.974 26.1449L37.1786 26.0896L37.3833 26.0398L37.4828 25.99L37.5326 25.6361L37.5879 25.0221L37.6377 22.9369L37.6874 22.4779V22.3784H37.787L37.8921 22.3286L37.9916 22.2788L38.0967 22.2235L38.1465 22.1737L38.246 22.1239L38.3512 22.0742L38.4009 22.0244L38.5005 21.969L38.5503 21.9193L38.6553 21.8695L38.7052 21.8198L38.8047 21.77L38.9098 21.7146L38.9596 21.6649L39.0591 21.6151L39.1089 21.5653L39.214 21.5156L39.2638 21.4602L39.3135 21.4105L39.4186 21.3607L39.4684 21.3109L39.5679 21.2612L39.6177 21.2058L39.7228 21.156L39.7726 21.1063H39.9772L40.027 21.156L40.1266 21.2058L40.2317 21.2612L40.2815 21.3109L40.381 21.3607L40.4861 21.4105L40.5856 21.4602L40.6354 21.5156L40.7405 21.5653L40.8401 21.6151L40.9451 21.6649L41.0447 21.7146L41.1442 21.77L41.2494 21.8198L41.3489 21.8695L41.454 21.9193L41.5535 21.969L41.6531 22.0244L41.808 22.0742L41.9075 22.1239L42.0126 22.1737L42.1121 22.2235L42.2173 22.2788L42.3666 22.3286L42.4661 22.3784L42.5713 22.4281L42.7261 22.4779L42.8257 22.5332H42.975L43.0303 22.4779L43.0801 22.4281L43.1299 22.3784L43.1796 22.3286L43.2294 22.2788L43.2847 22.2235L43.3345 22.1239L43.3843 22.0742L43.434 22.0244L43.4838 21.969L43.5392 21.9193L43.5889 21.8695L43.6387 21.77L43.6885 21.7146L43.7383 21.6649L43.7936 21.6151L43.8433 21.5156L43.8931 21.4602L43.9429 21.4105L43.9927 21.3109L44.048 21.2612L44.0978 21.156L44.1475 21.0565L44.1973 20.9016V20.8021L44.1475 20.6472L44.0978 20.5477L44.048 20.4978L43.9927 20.3928L43.9429 20.3429L43.8931 20.2434L43.8433 20.1936L43.7936 20.0885L43.7383 20.0387L43.6885 19.9392L43.6387 19.884L43.5889 19.7843L43.5392 19.7346L43.4838 19.6848L43.434 19.5797L43.3843 19.5299L43.3345 19.4801L43.2847 19.4304L43.2294 19.3253L43.1796 19.2755L43.1299 19.2257L43.0801 19.176L43.0303 19.0708L42.975 19.0211L42.9252 18.9713L42.8754 18.9216L42.8257 18.8164L42.7759 18.7667L42.7261 18.7169L42.6708 18.6671L42.621 18.6118L42.5713 18.5122L42.5214 18.4625L42.4661 18.4127L42.4164 18.3574L42.3666 18.3076L42.3168 18.2081L42.267 18.1583L42.2173 18.1029V17.9039L42.267 17.749L42.3168 17.5941L42.3666 17.4448L42.4164 17.2899L42.4661 17.1904L42.5214 16.9858L42.5713 16.8364L42.621 16.6816L42.6708 16.4769L42.7261 16.3275L42.7759 16.1229L42.8257 15.9182L42.8754 15.7633L42.9252 15.6638L42.975 15.614L43.0303 15.5643L43.1796 15.5089L43.434 15.4593L43.6885 15.4094L43.8931 15.3596L44.1475 15.3099L44.3522 15.2545L44.5568 15.2047L44.7559 15.155L44.9606 15.1052L45.1652 15.0554L45.3699 15.0001L45.5192 14.9503L45.7238 14.9006L45.8787 14.8508L46.0281 14.801L46.1829 14.7457L46.2825 14.6959V13.6782L46.2327 12.9703L46.1829 12.6661L46.1331 12.5611L45.9782 12.5112L45.8234 12.4614L45.6741 12.4062L45.5192 12.3564L45.3146 12.3065L45.1652 12.2568L44.9606 12.207L44.7559 12.1572L44.5568 12.102L44.3024 12.0521L44.0978 12.0024L43.8931 11.9526L43.6387 11.8972L43.3843 11.8476L43.1299 11.7977L42.8754 11.7479L42.7759 11.6982L42.7261 11.6484L42.6708 11.5433L42.621 11.4438L42.5713 11.2889L42.5214 11.1396L42.4661 10.9847L42.4164 10.8852L42.3666 10.7303L42.3168 10.6306L42.267 10.4759L42.2173 10.3762L42.162 10.2712L42.1121 10.1218L42.0624 10.0168L42.0126 9.91728L41.9573 9.81762L41.9075 9.71257L41.8577 9.61305L41.808 9.50799L41.7582 9.40834V9.35865L41.808 9.30882L41.8577 9.25346L41.9075 9.20377L41.9573 9.10425L42.0126 9.04889L42.0624 8.99906L42.1121 8.94937L42.162 8.84971L42.2173 8.80002L42.267 8.74466L42.3168 8.64514L42.3666 8.59531L42.4164 8.54562L42.4661 8.44043L42.5214 8.39074L42.5713 8.34091L42.621 8.23586L42.6708 8.18603L42.7261 8.08651L42.7759 8.03669L42.8257 7.93163L42.8754 7.88181L42.9252 7.83211L42.975 7.72692L43.0303 7.67723L43.0801 7.57771L43.1299 7.52789L43.1796 7.42283L43.2294 7.37301L43.2847 7.27349L43.3345 7.21812L43.3843 7.11861L43.434 7.06878L43.4838 6.96372L43.5392 6.9139L43.5889 6.81438L43.6387 6.70932L43.6885 6.6595V6.4051L43.6387 6.35527L43.5889 6.30558L43.5392 6.20593L43.4838 6.1507L43.434 6.10087L43.3843 6.05118L43.3345 6.00135L43.2847 5.94599L43.2294 5.8963L43.1796 5.79664L43.1299 5.74695L43.0801 5.69713L43.0303 5.6419L42.975 5.59207L42.9252 5.54224L42.8754 5.49255L42.8257 5.44273L42.7759 5.38736L42.7261 5.33767L42.6708 5.28784L42.621 5.23802L42.5713 5.13296L42.5214 5.08327L42.4661 5.03344L42.4164 4.98362H42.2173L42.1121 5.03344L41.9573 5.08327L41.8577 5.13296L41.7582 5.18833L41.6033 5.23802L41.5038 5.28784L41.3987 5.33767L41.2991 5.38736L41.1996 5.44273L41.0945 5.49255L40.9949 5.54224L40.8898 5.59207L40.7903 5.6419L40.6907 5.69713L40.5856 5.74695L40.4861 5.79664L40.381 5.84647L40.2815 5.8963L40.2317 5.94599L40.1266 6.00135L40.027 6.05118L39.9275 6.10087L39.8777 6.1507L39.7726 6.20593L39.6731 6.25575L39.6177 6.30558L39.5182 6.35527L39.4186 6.4051L39.3135 6.45492L39.214 6.51015H39.0093L38.9596 6.45492L38.86 6.4051L38.8047 6.35527L38.7052 6.30558L38.6056 6.25575L38.5503 6.20593L38.4507 6.1507L38.3512 6.10087L38.246 6.05118L38.1465 6.00135L38.0414 5.94599L37.9419 5.8963L37.8423 5.84647L37.7372 5.79664L37.6377 5.74695L37.5326 5.69713L37.433 5.6419L37.3334 5.59207L37.2284 5.54224L37.1288 5.49255L36.974 5.44273L36.8744 5.38736L36.8246 4.06554L36.7749 3.3022L36.7195 2.7934L36.6698 2.43948L36.62 2.18508L36.5702 2.0302L36.5149 1.98037L36.4651 1.93055L36.3655 1.88086L36.2107 1.83103L35.9065 1.7758L35.6521 1.72597L35.2981 1.67615H34.5846L34.4851 1.72597V1.72597Z" fill="#9D9E9E"/>
<path fill-rule="evenodd" clip-rule="evenodd" d="M27.0079 1.93033H27.0577V1.77527H26.958L27.0079 1.93033Z" fill="#9D9E9E"/>
</svg>
