<svg width="70" height="57" viewBox="0 0 70 57" fill="none" xmlns="http://www.w3.org/2000/svg">
<path fill-rule="evenodd" clip-rule="evenodd" d="M55.289 56.6748H60.4837C60.8096 56.4656 61.403 56.3392 61.8992 56.0085C62.3175 55.7312 62.6531 55.449 62.9498 55.055C63.8156 53.9023 63.7037 53.7029 63.9907 52.0735C64.1901 50.9499 64.0587 49.4567 64.2387 48.3039C64.4138 47.1949 64.4333 45.7649 64.5646 44.6121C64.6862 43.5907 64.8516 41.7668 64.8516 40.8086C64.8516 39.4905 64.8905 38.2064 65.445 37.3844C65.8973 36.7083 67.1133 36.5088 67.8429 35.7695C68.2466 35.3609 68.4655 35.176 68.7282 34.641C68.879 34.3443 69.2097 33.3034 69.2826 33.1867V18.8477C69.2097 18.7261 68.8741 17.0627 68.5433 16.4644C68.1737 15.7932 67.7019 15.2338 67.1523 14.7377C66.053 13.7455 64.4722 13.2543 62.5606 13.0938L59.973 21.2165L59.3115 16.6979H56.5342L55.9554 21.0609H55.8435L53.3386 13.1667C51.8843 13.1667 50.4153 13.6336 49.5107 14.2464C48.8589 14.6842 47.8666 16.2845 47.3316 16.9849C45.9746 18.7797 44.4716 20.8031 43.2313 22.6563L42.6768 22.7146V28.7508C43.3042 28.7508 44.7877 28.5708 45.4249 28.4492C46.2275 28.2984 46.9036 27.8267 47.3073 27.2868C47.6769 26.7906 49.6371 23.9987 49.8852 23.8333C49.8852 24.6845 50.0505 27.4619 50.2013 28.2936C50.2888 28.78 50.3521 30.0689 50.3716 30.5505C50.3959 31.2703 50.5126 32.0535 50.5077 32.7733C50.5029 33.3473 50.5807 34.4514 50.6488 35.0545C50.7266 35.7209 50.6925 36.5818 50.7996 37.2579C50.8968 37.8853 50.9114 38.8435 50.9893 39.4952C51.0574 40.0838 51.1352 41.1782 51.1303 41.7084C51.1206 42.8125 51.3395 45.0256 51.4708 46.1492C51.6459 47.6279 51.6508 49.1502 51.821 50.5802C52.0302 52.3945 51.7335 53.2651 52.5993 54.5833C52.9543 55.1232 53.2364 55.4686 53.752 55.8528C54.3016 56.2711 54.8707 56.3829 55.289 56.6748Z" fill="#9D9E9E"/>
<path fill-rule="evenodd" clip-rule="evenodd" d="M0 18.8478V33.1187C0.0535036 33.2063 0.389124 34.3103 0.554499 34.6411C0.831745 35.1907 1.02141 35.3512 1.43971 35.7695C2.21795 36.5575 3.28805 36.6402 3.83767 37.3844C4.76183 38.6345 4.37756 42.5353 4.7375 44.5198C4.95151 45.7018 4.80562 47.1659 5.01477 48.3332C5.20933 49.4081 5.20442 50.9354 5.33088 52.0346C5.51085 53.6494 5.52547 53.9802 6.33289 55.0551C6.62959 55.4491 6.96522 55.7313 7.38352 56.0086C7.86019 56.3247 8.36113 56.4414 8.73079 56.6749H13.9936C14.4363 56.3684 14.9859 56.2663 15.5696 55.8237C16.1143 55.4102 16.3089 55.1524 16.6834 54.5833C17.5297 53.2944 17.2476 52.3119 17.5151 50.6339C17.5735 50.2496 17.6708 48.693 17.6708 48.3623C17.6659 47.5841 17.7972 46.8983 17.8021 46.1396C17.8167 44.8214 18.1037 43.1044 18.1572 41.7133C18.2058 40.3806 18.342 38.5907 18.4928 37.2677C18.5755 36.5721 18.59 35.6722 18.6387 34.9913C18.6873 34.3152 18.7798 33.4106 18.7749 32.7734C18.77 32.1168 18.8479 31.1439 18.9208 30.4921C18.9841 29.9036 18.9743 28.8774 19.0813 28.2937C19.1397 27.9678 19.2516 26.3335 19.2613 26.0562C19.2905 25.2926 19.3975 24.5095 19.3975 23.8334C19.6553 24.0036 21.6009 26.7858 21.9754 27.2868C22.3888 27.8462 23.0358 28.2936 23.8578 28.4493C24.3977 28.5563 26.0417 28.7509 26.5378 28.7509V22.8654C26.5378 22.5931 26.3043 22.6563 26.0514 22.6563C24.7868 20.7691 23.2984 18.7943 21.9219 16.946C21.3722 16.2067 20.4189 14.6745 19.7331 14.2173C18.8916 13.6628 17.3109 13.1667 15.9343 13.1667L13.4197 21.0561L13.3029 21.0609L12.729 16.7028L9.97599 16.698L9.34365 21.202L6.70742 13.0986C6.18212 13.0937 4.52351 13.4293 4.09548 13.5898C3.41939 13.8428 2.63627 14.2806 2.13042 14.7378C1.58079 15.2339 1.10899 15.7933 0.739332 16.4645C0.544773 16.8196 0.393955 17.194 0.27722 17.5977C0.243172 17.7291 0 18.8429 0 18.8478Z" fill="#9D9E9E"/>
<path fill-rule="evenodd" clip-rule="evenodd" d="M11.8485 0H10.8757C10.8367 0.0291838 9.32408 0.359905 8.89118 0.578783C8.22969 0.914397 7.85515 1.18679 7.35902 1.68291C6.55161 2.49033 5.74902 3.75497 5.74902 5.33575V6.09943C5.74902 8.73083 8.49235 11.2941 11.1529 11.2941C14.1881 11.2941 16.9751 8.89139 16.9751 6.02652V5.19955C16.9751 3.9106 16.0363 2.34928 15.3651 1.68291C14.9614 1.28407 14.4215 0.865776 13.8816 0.598258C13.6336 0.476659 13.1715 0.291814 12.9428 0.218855C12.6753 0.141031 12.0284 0.116735 11.8485 0Z" fill="#9D9E9E"/>
<path fill-rule="evenodd" clip-rule="evenodd" d="M58.406 0H57.4332C57.2046 0.145919 56.6404 0.126439 56.3388 0.218855C56.1102 0.291814 55.6482 0.476659 55.4001 0.598258C54.8116 0.890096 54.2862 1.31332 53.8485 1.75107C53.0313 2.56336 52.3066 3.98847 52.3066 5.61303V6.02652C52.3066 8.74547 55.0547 11.2941 57.8515 11.2941C60.7602 11.2941 63.5326 8.86702 63.5326 6.09943V5.33575C63.5326 3.78901 62.7447 2.50496 61.9567 1.71699C61.4655 1.22573 61.0958 0.933876 60.4392 0.603127C59.9771 0.369657 58.4644 0.0389117 58.406 0Z" fill="#9D9E9E"/>
<path fill-rule="evenodd" clip-rule="evenodd" d="M26.8828 9.77166V28.8919C26.8828 29.3881 27.4081 29.7236 27.9188 29.7236H41.3628C42.5934 29.7236 42.3308 28.4249 42.3308 27.2284C42.3308 26.0513 42.3308 24.8742 42.3308 23.6971C41.9854 24.0911 41.7763 25.8325 41.3628 25.9833V28.7509H27.8507V9.97591H41.3628V19.4023C41.5136 19.2272 42.3308 16.8098 42.3308 16.4207V9.77166C42.3308 9.35822 41.893 8.93994 41.499 8.93994H27.7826C27.3692 8.93994 26.8828 9.35336 26.8828 9.77166Z" fill="#9D9E9E"/>
<path fill-rule="evenodd" clip-rule="evenodd" d="M41.7764 19.6069C41.7764 19.9425 42.6616 20.2344 43.0264 20.2344H43.0945C43.3571 20.2344 43.9117 18.2839 44.0381 17.9191C44.291 17.1652 44.7288 16.1729 44.8942 15.4531C45.0012 15.526 45.1033 15.5455 45.1033 15.7303V16.0076C45.1033 16.3821 43.9263 18.3617 43.9263 19.1934V19.2616C43.9263 19.4221 44.004 19.6798 44.1305 19.6798C44.291 19.6798 44.2132 19.6555 44.4078 19.6069C44.3932 19.3929 44.3397 19.3637 44.3397 19.1254V19.0525C44.3397 18.4056 45.5167 16.353 45.5167 16.0076V15.9346C45.5167 15.3947 45.3027 15.3315 45.1033 15.0348L45.1714 14.4803C45.2249 14.1349 44.4175 13.8577 44.0624 13.8577C43.5614 13.8577 42.9972 16.0854 42.7929 16.6059C42.681 16.8977 41.7764 19.5339 41.7764 19.6069Z" fill="#9D9E9E"/>
<path fill-rule="evenodd" clip-rule="evenodd" d="M56.5534 15.9975L59.1653 16.0073C59.3599 16.0073 60.5905 13.4537 60.6245 13.0938L55.2012 13.1034L56.5534 15.9975Z" fill="#9D9E9E"/>
<path fill-rule="evenodd" clip-rule="evenodd" d="M10.1174 16.0073L12.7294 15.9975L14.0669 13.0938H8.66309C8.69227 13.4488 9.92771 16.0073 10.1174 16.0073Z" fill="#9D9E9E"/>
<path fill-rule="evenodd" clip-rule="evenodd" d="M29.1689 21.0609H40.0448V20.234H29.1689V21.0609Z" fill="#9D9E9E"/>
<path fill-rule="evenodd" clip-rule="evenodd" d="M29.1689 17.2527H40.0448V16.4891H29.1689V17.2527Z" fill="#9D9E9E"/>
<path fill-rule="evenodd" clip-rule="evenodd" d="M29.1689 19.1251H40.0448V18.3614H29.1689V19.1251Z" fill="#9D9E9E"/>
<path fill-rule="evenodd" clip-rule="evenodd" d="M29.2373 15.3801H39.9769V14.6213H29.2373V15.3801Z" fill="#9D9E9E"/>
<path fill-rule="evenodd" clip-rule="evenodd" d="M29.1689 22.9337H38.1721V22.1019H29.1689V22.9337Z" fill="#9D9E9E"/>
<path fill-rule="evenodd" clip-rule="evenodd" d="M40.0449 25.3609L41.1539 25.7062C41.3339 25.3317 42.8855 20.7742 42.8855 20.5067C42.8855 20.351 42.0976 20.137 41.9176 20.0932C41.6355 20.278 41.0615 22.1458 40.9205 22.6322C40.7405 23.2499 40.0449 24.8453 40.0449 25.3609Z" fill="#9D9E9E"/>
<path fill-rule="evenodd" clip-rule="evenodd" d="M31.8691 12.1941V12.8897C31.8691 13.0988 32.0734 13.1669 32.2874 13.1669H36.9277C37.1417 13.1669 37.3411 13.0988 37.3411 12.8897V12.1941C37.3411 12.0336 37.2292 11.9169 37.0687 11.9169H32.1464C31.9858 11.9169 31.8691 12.0336 31.8691 12.1941Z" fill="#9D9E9E"/>
<path fill-rule="evenodd" clip-rule="evenodd" d="M33.6006 26.742C33.6006 27.1166 33.946 27.3695 34.2962 27.3695H34.4324C34.6269 27.3695 34.5637 27.3403 34.6415 27.2284L34.6512 27.1506L34.0189 27.0922C33.9362 26.9658 33.8779 26.9707 33.8779 26.8151V26.5378C33.8779 25.9298 35.0987 24.3441 35.5413 24.1107C35.5413 25.4045 34.9869 26.387 34.9869 26.9513V27.2284C34.9869 27.3792 35.2641 27.6468 35.3371 27.6468C35.9791 27.6468 36.0423 26.7616 36.4606 26.4697L36.3828 27.637L36.5822 27.783C37.2534 27.4279 37.2388 26.8393 37.6912 26.5378C37.9101 26.9561 37.7009 27.7148 38.1046 27.7148C38.6688 27.7148 38.6543 27.0922 39.2136 27.0922C39.452 27.0922 39.4811 27.1409 39.7 27.1604C39.6708 26.9075 39.6173 26.8831 39.3547 26.8831H39.1455C38.664 26.8831 38.6105 27.3695 38.1046 27.5057C37.9636 27.2041 38.1241 26.3287 37.6912 26.3287H37.6231C37.3361 26.3287 37.0054 27.1993 36.6503 27.4377C36.6503 27.0923 36.7914 26.1876 36.4412 26.1876C36.0277 26.1876 35.8721 27.3695 35.4052 27.3695C35.2884 27.3695 35.196 27.3257 35.196 27.2284C35.196 26.4453 35.8186 25.3656 35.8186 24.3879V24.3198C35.8186 24.1058 35.7553 23.9016 35.5413 23.9016H35.4733C35.0355 23.9016 33.6006 26.0124 33.6006 26.742Z" fill="#9D9E9E"/>
<path fill-rule="evenodd" clip-rule="evenodd" d="M39.9765 26.7422C39.9765 27.0097 39.9522 26.7714 40.0446 26.9514L40.1079 27.0097L41.0855 25.9056L41.0125 25.8424L39.9765 25.5651V26.7422Z" fill="#9D9E9E"/>
</svg>
