<svg width="63" height="63" viewBox="0 0 63 63" fill="none" xmlns="http://www.w3.org/2000/svg">
<path fill-rule="evenodd" clip-rule="evenodd" d="M18 24.8969L17.7066 24.9973L17.6061 25.098L17.405 25.1984L17.2039 25.2991L17.0028 25.3995L16.9022 25.5002L16.8016 25.6006L16.7011 25.7013L16.6005 25.8017L16.5 25.9024L16.3994 26.0029L16.2989 26.1035H16.1983H16.1062L16.0056 26.2962V26.5978V26.7989L15.9051 26.8996L15.8045 27.4024V27.9974L15.9051 28.6007L16.0056 28.7011V29.0029V29.2963L16.1062 29.4974L16.1983 29.5978H16.2989H16.3994L16.5 29.6985L16.6005 29.799L16.7011 30.0001H16.6005V30.2012L16.7011 30.3018H16.8016V30.704V31.7012V31.9023H16.9022L16.8016 32.1034L16.7011 32.1957L16.5 32.2961L16.1983 32.3968L15.6033 32.4972L10.6005 32.5979H9.90505H9.40227L9.20117 32.6983L8.99996 32.799V32.8995H9.30172L9.10061 33.0001L8.99996 33.1006L8.8994 33.2012L8.70668 33.3017L8.60613 33.4023L8.50557 33.5028L8.40502 33.6034L8.30446 33.7962V33.6034H8.20391L8.10336 33.6957L8.0028 33.8968V34.299V34.3995L7.90225 34.5001V34.1984H7.80169L7.70114 34.3995L7.60059 34.8017V40.9023H7.50003V41.2961V41.3967L7.39948 41.4972L7.29892 41.5979V41.799H7.1062L6.90499 41.8994H5.89945L5.5894 41.8409L5.89945 41.799V41.6983H5.50562H5.40507L5.30451 41.5979L5.20396 41.4972L5.00285 41.3967L4.9023 41.2961L4.70119 41.1956H4.49998V41.0029L4.2067 40.9023H4.49998V40.8018L4.30726 40.7011L3.90504 40.6007H3.40227L2.50557 40.7011L2.0028 40.8018L1.70114 40.9023L1.50003 41.0029L1.39947 41.095L1.30731 41.1956L1.1062 41.2961L1.00564 41.3967V41.2961H0.804536L0.703981 41.3967L0.603427 41.4972V41.799V41.8994L0.502873 42.0001L0.402319 42.1005H0.301765H0.201108L0.100554 42.3016V42.595H0V42.9972V43.3994V44.3966V44.8995V45.3017L0.100554 45.5951L0.201108 45.7962L0.301765 45.8966H0.402319L0.603427 45.7962V45.9973L0.703981 46.0977L0.804536 46.1984L0.90509 46.2988L1.00564 46.3995L1.1062 46.4999L1.20675 46.6006L1.30731 46.7011L1.50003 46.8017V46.9022V47.0028H1.80169H2.10335L2.20391 47.0951H3.70393L3.80449 47.0028L4.10615 46.9022L4.39942 46.8017L4.60053 46.7011L4.80174 46.6006L4.9023 46.4999L5.00285 46.3995L5.1034 46.2988L5.30451 46.1984L5.50562 46.0977L5.70673 45.9973L5.80728 45.8966H6.30167H6.50278V45.7962L6.90499 45.8966L7.00565 45.9973L7.20676 46.0977H7.00565V46.1984L7.1062 46.2988L7.20676 46.3995L7.29892 46.4999H7.39948L7.61736 46.4079L7.50003 46.6006V47.0028L7.60059 52.9023H7.70114V47.1955H7.80169V52.8016L7.90225 53.2961L8.0028 53.4972V53.5979V53.8994L8.10336 54.1005L8.20391 54.2012H8.30446V54.4023L8.60613 54.4944H8.70668L8.79885 54.595L8.99996 54.6955H8.79885V54.7961L8.8994 54.8966L9.10061 54.9972H9.40227H9.60338L9.70394 55.0977L10.1983 55.1983L16.0056 55.2988L16.3994 55.3994H16.6005V55.6006L16.8016 55.701H16.6005V55.8017L16.7011 55.9023L16.8016 56.095H16.9022L17.0028 56.0028L17.1033 56.1955V56.2961V56.3966V56.7988V56.8995V56.9999L17.0028 57.1006H16.9022H16.8016V57.3938H16.7011L16.6005 57.4944V57.796H16.7011L16.6005 57.8966L16.5 57.9973L16.3994 58.1984L16.2989 58.0977H16.1983L16.1062 58.2988V58.5H16.0056V58.9022V58.9944L15.9051 59.0949L15.8045 59.7989V60.4022L15.9051 60.8967L16.0056 60.9971V61.0978V61.3993L16.1062 61.7011L16.1983 61.8016L16.2989 61.8938H16.5L16.6005 61.9943L16.7011 62.0949L16.8016 62.1954L17.0028 62.2961V62.3967V62.4972H17.2039H17.3044L17.405 62.5978L17.6061 62.6983L17.8995 62.7989L18.4022 62.8994L19.701 63H20.2039V62.8994L19.8016 62.7989H20.2039L20.5056 62.6983L20.7989 62.5978V62.3967H21L21.2011 62.2961L21.3016 62.1954L21.4022 62.0949L21.5027 61.9943L21.6033 61.8938L21.7038 61.8016H21.8044H21.905V61.6005V61.5H22.1061H22.2066L22.2989 61.2989V60.8967H22.3994V60.4022V59.7989V59.0949H22.2989V58.7011H22.2066L22.1061 58.8017L22.0055 58.5L21.905 58.3995V58.1984H21.8044V57.8966L21.7038 57.796H21.6033V57.5949H21.5027L21.3016 57.6955V57.4944L21.2011 57.3938H21.3016V57.1006H21.2011V56.095H21.3016L21.4022 55.9023V55.8017V55.701L21.5027 55.6006L21.6033 55.4999H21.7038H22.2066L28.1982 55.3994L28.6004 55.2988V55.1983H28.0977L22.1061 55.2988L28.0055 55.1983L28.4999 55.0977L28.6004 54.9972L28.8016 54.8966V54.9972H29.1033L29.3044 54.8966L29.405 54.7961V54.6955H29.2039L29.405 54.595L29.5055 54.4944L29.6061 54.4023L29.6983 54.3016L29.7988 54.2012L29.8994 54.0001L29.9999 53.8994L30.1005 54.0001H30.201L30.3016 53.799L30.4021 53.5979V53.1954V52.7012L30.5027 52.3994V48.9971L30.4021 48.8967H30.201L29.8994 48.9971L29.7988 49.0978H29.6061H29.1033V49.1984H28.1982H27.6033L26.606 49.0978H26.1033H25.8016L25.7011 48.9971L25.4999 48.8967L25.2988 48.796V48.6956V48.6033H25.0056H24.905L24.8045 48.4945L24.7039 48.4022L24.6033 48.3017L24.4021 48.2011L24.3016 48.1006L24.201 48L24.1005 47.8995L23.9999 47.7989L23.8994 47.6984H23.9999V47.4973L23.8994 47.2962L23.7988 47.1955H23.6983H23.5055V47.0951V46.7011L23.405 46.4999L23.3044 46.1984L23.2039 45.8966H23.1033V46.1984L23.0028 46.0977V45.9973L22.9022 45.7962H23.1033V45.5951L22.9022 45.5028V44.6984V43.1983V42.4023V42.1005L23.0028 42.0001V41.8994V41.799L23.1033 41.6983H23.2039H23.3044L23.405 41.4972V41.1956H23.5055V40.9023L23.5977 41.0029H23.6983L23.7988 40.8018L23.8994 40.6007L23.9999 40.5V40.2989H24.201L24.3016 40.1983L24.4021 39.9972V39.8967V39.7961L24.5027 39.6956L24.6033 39.6033L24.7039 39.5029L24.8045 39.4022L25.0056 39.3018L25.1983 39.2011L25.4999 39.1007V38.8996H25.7011H26.0027H26.5055L27.2011 38.7989L28.6004 38.6985V38.5978H27.1005L26.4049 38.6985L27 38.5978H28.701L29.3044 38.6985L29.6983 38.7989V38.8996V39H29.9999H30.1005L30.3016 39.1007H30.4021L30.5027 39V35.2962L30.4021 35.0028V34.9024V34.8017V34.6006V34.1984L30.3016 33.8968L30.201 33.7962H30.1005V33.6034H29.9999L29.8994 33.4023L29.7988 33.3017H29.6983H29.5055L29.405 33.2012L29.3044 33.1006L29.2039 33.0001L29.0028 32.8995L28.8016 32.799L28.3993 32.6983L27.7038 32.5979L22.5 32.4972L21.905 32.3968L21.6033 32.2961L21.5027 32.1957L21.3016 32.1034L21.2011 31.9023L21.1005 31.7012H21.2011L21.3016 30.704V30.3018V30.2012L21.4022 30.1007L21.5027 29.8996L21.6033 30.0001H21.7038L21.8044 29.799V29.5978H21.7038L21.8044 29.4974V29.2879L22.0055 29.3967H22.1061L22.2066 29.2963L22.2989 29.1034L22.3994 28.7011V27.9974V27.4024V26.7989L22.2989 26.4973H22.2066V26.204L22.1061 26.1035H22.0055L21.905 26.204L21.8044 26.1035H21.905V25.9024L21.8044 25.8017H21.7038H21.6033V25.7013V25.6006H21.4022L21.3016 25.5002L21.1005 25.3995L21 25.2991V25.1984V25.098H20.6983H20.6061L20.5056 24.9973L20.2039 24.8969L19.701 24.7962H18.5028L18 24.8969Z" fill="#9D9E9E"/>
<path fill-rule="evenodd" clip-rule="evenodd" d="M34.0979 32.698V32.7986H34.3995L34.0979 32.8991L33.9051 32.9998L33.8046 33.1002L33.704 33.2009L33.6035 33.3013L33.4024 33.402H33.3017H33.2012L33.1006 33.5024V33.6953H33.2012H33H32.8995L32.7989 33.7958V34.0976H32.6984L32.5978 34.2987V34.7009V40.0975V40.1979V40.2986L32.5057 40.6003V40.9019V41.0026L32.4051 41.0946H32.3046H32.204V41.3964H32.1034V41.5975V41.6979L32.0029 41.7986L31.8018 41.899L31.5001 41.9997H30.8045L30.5029 41.899V41.7986V41.6979H30.2012H30.1006L30.0001 41.5975L29.8995 41.4968L29.6984 41.3964L29.5057 41.2957L29.3046 41.1953L29.204 41.0946L29.1035 41.0026L28.8017 40.9019L28.3995 40.8014H27.2012L26.6985 40.9019L26.5057 41.0026L26.4051 41.0946L26.204 41.1953V41.0946H26.0029L25.9023 41.1953V41.2957V41.3964L25.8018 41.4968L25.6007 41.5975H25.5001H25.3996V41.7986H25.299L25.1985 41.899V42.1002H25.1063V42.4019V42.5024L25.0057 42.5946L24.947 42.9132L24.9052 42.5946H24.8046L24.7041 42.7958L24.6035 43.3991V44.698L24.7041 45.1002L24.8046 45.402H24.9052L25.0057 45.1002V45.402L25.1063 45.5024V45.5947V45.8963L25.1985 46.0974L25.299 46.198H25.3996V46.3991L25.8018 46.4996L25.9023 46.6002L26.0029 46.7007L26.204 46.8013L26.4051 46.9018L26.6062 47.0025L26.6985 47.0947L27.1007 47.1952H28.5001L28.8017 47.0947L28.9023 47.0025H29.1035H29.4052L29.6063 46.9018L29.6984 46.8013V46.7007H29.5057L29.6984 46.6002L29.8995 46.4996V46.2985H30.1006V46.3991H30.3018L30.5029 46.2985V46.198V46.0974L30.8045 45.9969L31.1062 45.8963H31.3996L31.5001 45.9969L31.8018 46.0974L32.0029 46.198V46.2985V46.3991L32.1034 46.6002H32.204V46.9018L32.3046 47.5974H32.4051V46.9018H32.5057V47.3963L32.5978 47.698V47.7985V47.8992V53.0946V53.5975L32.6984 53.8991L32.7989 54.1002L32.8995 54.2008H33V53.9997L33.1006 54.1002L33.2012 54.2008L33.3017 54.3013L33.4024 54.4019L33.5029 54.5947L33.704 54.6951L33.8046 54.7958V54.8962V54.9969H34.0979H34.1984L34.299 55.0973L34.6006 55.198L40.299 55.2984L41.0028 55.3991L41.3045 55.4995L41.4051 55.6002L41.4972 55.7006L41.6983 55.8013V55.902V56.1951H41.7989L41.6983 57.2007V57.494H41.7989L41.6983 57.5945H41.5978H41.4972L41.4051 57.6952V57.8963H41.3045L41.204 57.9969L41.1034 58.198V58.3991H41.204L41.1034 58.4996L41.0028 58.6002L40.9023 58.9018L40.8017 59.1952L40.743 59.6058L40.7012 59.1952H40.6006V59.899V60.4941V61.0974L40.7012 61.399H40.8017L40.8436 61.0807L40.9023 61.2985L41.0028 61.4996L41.1034 61.8935H41.204V62.0946H41.3045H41.4051L41.4972 62.195L41.6983 62.2957L41.7989 62.3963L41.8994 62.4968L42 62.5975L42.2012 62.6979L42.4023 62.7986L42.704 62.899H42.4023V62.9997H42.8045H43.0978H44.6984L45.1006 62.899L45.4023 62.7986L45.6034 62.6979L45.905 62.5975L45.9972 62.4968L46.0978 62.5975H46.1983V62.3963V62.2957L46.2989 62.195L46.3994 62.0946L46.5 61.9939L46.6006 61.8935H46.7012H46.8017L46.9023 61.8012V61.6001H46.8017L46.9023 61.399L47.0028 61.2985V61.1979V61.0974L47.1034 60.9968L47.204 60.4941V59.899L47.1034 59.2956L47.0028 59.0945V58.9941V58.6002H46.9023H46.8017L46.7012 58.3991H46.8017V58.198L46.7012 57.9969H46.6006L46.5 58.0974L46.3994 57.9969L46.2989 57.8963H46.3994V57.6952L46.2989 57.494H46.1983V57.2007H46.0978H45.9972L45.7877 57.1923L45.905 56.9996V56.8991V56.3962V56.2958V56.1951L45.9972 56.0947L46.0978 55.902L46.1983 55.8013L46.2989 55.7006L46.3994 55.6002L46.5 55.4995H46.7012H47.4972L53.2039 55.3991V55.2984H47.4051L53.1033 55.198L53.4972 55.0973L53.5978 54.9969H53.6983H54V54.8962V54.7958L54.1006 54.6951L54.3017 54.5947L54.4022 54.4019L54.5028 54.3013V54.4019H54.7039L54.8044 54.3013L54.8966 54.2008V53.9997H54.9972V53.698V53.5975L55.0977 53.4968L55.1983 53.0946V53.4968H55.2988L55.3995 53.1951L55.5 47.3963V46.7007V46.6002L55.6006 46.4996L55.7011 46.2985L55.8017 46.198L56.0028 46.0974L56.2961 45.9969L56.405 45.8963H56.7988L57 45.9969L57.3016 46.0974L57.6033 46.198L57.7039 46.2985L57.8967 46.3991L57.9972 46.4996L58.0978 46.6002L58.2989 46.7007L58.3994 46.8013L58.6005 46.9018L58.9022 47.0025L59.0028 47.0947L59.3044 47.1952H60.6033L61.0977 47.0947L61.1983 47.0025H61.2988H61.6005L61.701 46.9018V46.8013V46.7007L61.9022 46.6002L62.0027 46.4996H62.1034H62.2039L62.2961 46.3991L62.3966 46.2985V46.0974H62.4972L62.5474 45.6868L62.5977 45.8963H62.6983L62.7989 45.6951V45.5024H62.8994L63 45.2009V44.5973L62.8994 43.2986H63V42.7958L62.8994 42.5024H62.7989V42.2008H62.6983H62.4972L62.3966 41.9997L62.2961 41.899H62.3966V41.6979L62.2961 41.4968L62.2039 41.3964H62.0027V41.4968L61.9022 41.3964L61.701 41.2957V41.1953V41.0946H61.4999H61.3994L61.2988 41.0026L61.0977 40.9019L60.6033 40.8014H59.3044L59.0028 40.9019L58.7011 41.0026L58.6005 41.0946L58.3994 41.1953L58.2989 41.2957L58.0978 41.3964L57.8967 41.4968L57.8045 41.5975L57.7039 41.6979H57.6033H57.3016V41.7986H56.8994H56.405L56.0028 41.6979H55.8017V41.4968H55.7011V41.2957H55.5V40.9019L55.3995 34.8013L55.2988 34.4998H55.1983L55.1397 34.9104L55.0977 34.4998L54.9972 34.3991V34.2987V33.9969H54.8966V33.7958L54.8044 33.6031L54.7039 33.5024H54.6033V33.6953L54.5028 33.6031L54.4022 33.5024L54.3017 33.402L54.2011 33.3013V33.2009V33.1002H54L53.8995 32.9998L53.5978 32.8991L53.3967 32.7986L53.0028 32.698H48.8967H48.8044H48.7039V32.8991L48.8044 33.2009H48.8967L48.9973 32.8991V33.2009L49.0978 33.3013V33.402V33.8965H49.1984V34.7009V35.5974V36.5947V36.8963L49.0978 36.997V37.0974V37.1981L48.9973 37.2985H48.8967H48.8044L48.7039 37.4996V37.8014H48.6033V38.0025H48.4022V38.1952H48.3017L48.2011 38.2959L48.1006 38.497L48 38.5974V38.6981H47.7989L47.6983 38.7985L47.5978 38.9997V39.1003V39.2008L47.4972 39.3014L47.3045 39.4019L47.204 39.5025L47.1034 39.603L46.9023 39.6952L46.6006 39.7957L46.3994 39.8964L46.2989 39.9968H46.1983H46.0978V40.1979H45.7039L45.3017 40.2986V40.1979H44.3045H43.7011L42.704 40.0975H42.2012L41.8828 40.1562L42.1006 40.0975V39.8964H41.8994L41.7989 39.9968H41.5978L41.4972 39.8964L41.3045 39.7957L41.1034 39.6952V39.603V39.5025H40.8017H40.7012L40.6006 39.4019L40.5001 39.3014L40.3995 39.2008L40.1984 39.1003L40.0979 38.9997L39.9973 38.8992L39.905 38.7985H40.0979V38.6981L39.9973 38.5974L39.905 38.497L39.8045 38.2959L39.7039 38.1952H39.5028V38.0025L39.4023 37.8014H39.3017V37.6003L39.2012 37.3992H39.1006L39 37.6003V37.0974L38.8995 36.5947H38.7989V35.7985V34.6002L38.8995 33.8965L39 33.5024V32.9998L39.1006 32.8991V33.1002H39.2012L39.3017 32.8991V32.698H39.2012H39.1006L34.8017 32.5975H34.299L34.0979 32.698Z" fill="#9D9E9E"/>
<path fill-rule="evenodd" clip-rule="evenodd" d="M17.9004 0.10084L17.6071 0.201291L17.406 0.301948L17.1043 0.4024L17.0037 0.503056L16.9032 0.4024H16.8026V0.603508V0.704165L16.7021 0.804821L16.6015 0.905273L16.501 0.997541L16.4004 1.09799H16.2999H16.1993L16.1071 1.19865V1.39976H16.1993L16.1071 1.60087L16.0066 1.70132V1.80197V1.90243L15.906 2.00308L15.8055 2.50575V3.10089L15.906 3.70422L16.0066 3.90533V3.99739V4.39961H16.1071H16.1993L16.2999 4.60072H16.1993V4.80182L16.2999 5.00293H16.4004L16.501 4.90248L16.6015 5.00293L16.7021 5.10359H16.6015V5.3047L16.7021 5.49742H16.8026V5.79918H16.9032H17.0037L17.2216 5.80757L17.1043 6.00029V6.10074V6.60361V6.70407V6.80472L17.0037 6.89679L16.9032 7.0979L16.8026 7.19855L16.7021 7.29921L16.6015 7.39966L16.501 7.50032H16.2999H15.5037L9.80547 7.60077L9.50381 7.70143V7.80188H9.90602L9.50381 7.90253L9.40325 8.00299H9.3027H9.00093L8.90038 8.10364V8.20409V8.30475L8.70766 8.39681L8.6071 8.59792L8.50655 8.69858V8.59792H8.30544L8.20489 8.69858L8.10433 8.79903L8.00378 9.10079V9.40236V9.50301L7.90322 9.60367L7.80267 9.9975V9.60367H7.70212L7.60156 9.90523L7.50101 15.8967V16.2992V16.5003H7.2999H7.20773V16.7014V16.8018L7.00663 16.9025L6.70486 17.0029L6.60431 17.1036H6.20209L6.00098 17.0029L5.70771 16.9025L5.5066 16.8018L5.30549 16.7014L5.20494 16.5003H5.10438H5.00383L4.90327 16.3996L5.00383 16.2992V16.1985L4.80272 16.0981H4.60151V16.1985L4.4004 16.0981L4.10713 15.9974L4.00657 15.8967L3.70491 15.7963H2.40599L1.90322 15.8967L1.80267 15.9974H1.70211H1.501V16.0981H1.30828V16.1985V16.2992L1.10717 16.3996L1.00662 16.5003H0.906066H0.805512L0.704958 16.6007L0.604404 16.7014V16.9025H0.704958L0.50385 17.0029L0.461909 17.3131L0.403296 17.1036H0.302741L0.202085 17.3047L0.101531 17.4974V17.8996H0.000976562V18.4025L0.101531 19.7012H0.000976562V20.2041L0.101531 20.4975H0.202085V20.799H0.302741H0.50385L0.604404 21.0001L0.704958 21.1008H0.604404V21.3019L0.704958 21.4024H0.805512H0.906066L1.00662 21.503L1.10717 21.6035L1.30828 21.7041V21.7962V21.8968H1.501H1.60156L1.70211 21.9973L2.00377 22.098L2.40599 22.1984H3.60435L4.00657 22.098L4.30823 21.9973L4.4004 21.8968H4.50095H4.70217V21.7962V21.7041L4.90327 21.6035L5.10438 21.503L5.20494 21.4024H5.30549L5.40604 21.2013L5.60715 21.1008L6.00098 21.0001H6.80541L7.10718 21.1008V21.2013V21.3019L7.20773 21.503H7.2999L7.40045 21.4024L7.50101 21.503V21.6035V22.098L7.60156 28.1985L7.70212 28.5001H7.80267V27.9974L7.90322 28.5001L8.00378 28.6007V28.7012V29.003H8.10433V29.1957L8.20489 29.2963H8.30544H8.406L8.50655 29.3968L8.6071 29.4974L8.70766 29.5979L8.79982 29.6985L9.00093 29.799L9.10159 30.0001L9.40325 30.1008H9.10159V30.2012L9.3027 30.3019L9.60436 30.4023H10.1071L14.1043 30.3019V30.1008L14.0038 29.799L13.9032 29.6985V29.5979V29.1034H13.8027V28.299V27.4025V26.3967V26.1036L13.9032 26.0029V25.9024V25.8018L13.9116 25.5839L14.1043 25.7013H14.2049L14.3054 25.5002V25.1985H14.406V24.8969V24.7962L14.5066 24.704L14.6071 24.6035V24.7962H14.6993L14.7998 24.704L14.9004 24.5029L15.0009 24.4024L15.1015 24.3018V24.2013H14.9004L15.0009 24.1007L15.1015 24.0002L15.202 23.8995L15.4032 23.7991L15.5037 23.6984L15.7048 23.598L15.8055 23.4973H16.1071V23.3969V23.3046L16.2999 23.1958L16.6015 23.1035L16.7021 23.003H16.8026L16.9032 23.1035H17.1043V22.9024L16.9032 22.7852L17.2048 22.9024H17.7076L18.6043 22.8019L19.5009 22.7013V22.6006H18.5038L17.6071 22.7013L18.4032 22.6006H19.6015L20.406 22.7013L20.7998 22.8019L21.0009 22.9024V23.1035H21.1015L21.202 23.003H21.4032L21.5037 23.1035L21.7048 23.1958V23.3046V23.3969L21.9059 23.4973H22.2076V23.3969L22.2999 23.4973L22.4004 23.598L22.501 23.6984L22.7021 23.7991L22.8026 23.8995L22.9032 24.0002L23.0037 24.1007L23.1043 24.2013L23.2048 24.3018L23.3054 24.4024L23.406 24.6035L23.5065 24.704L23.5987 24.7962V24.8969V25.1985H23.6992V25.3996L23.7998 25.6007H23.9003L24.0009 25.3996V26.0029L24.1014 26.3967L24.202 27.2014V28.3996L24.1014 29.1034L24.0009 29.4974V30.0001L23.9003 30.1008V29.8997H23.7998L23.6992 30.1008V30.3019H23.7998H23.9003H28.1992L28.6014 30.2012L28.9031 30.1008L29.1043 30.0001L29.2049 29.8997L29.3054 29.799L29.406 29.6985L29.6071 29.5979H29.6992H29.7998V29.3968V29.2963H30.0009H30.1015V29.1034L30.0009 29.003L30.1015 28.9023H30.202H30.3026L30.4031 28.7012V28.299V22.7013L30.5037 22.3995V22.098V21.9973L30.6042 21.8968H30.7048H30.8053L30.9059 21.6035V21.4024H30.9981L31.1993 21.3019L31.5009 21.2013V21.1008H31.107L31.4004 21.0001H32.2048L32.5986 21.1008L32.7997 21.2013L32.9003 21.3019H33.1014V21.503L33.3025 21.6035L33.5037 21.7041L33.7048 21.7962L33.8054 21.8968L33.9059 21.9973L34.2998 22.098L34.6014 22.1984H35.7998L36.3026 22.098L36.5037 21.9973L36.6042 21.8968H36.7048H36.9059V21.7962V21.7041L37.0986 21.6035L37.1992 21.503L37.4003 21.4024V21.3019V21.2013H37.6014H37.7019L37.8026 21.1008V20.8997H37.9031V20.5979V20.4975L38.0037 20.2962L38.1043 20.1034V20.3968H38.2048L38.3054 20.1034L38.4059 19.6008V18.3019L38.3054 17.8996H38.2048V18.4025H38.1043V17.8996L38.0037 17.5979L37.9031 17.4974V17.3968V17.1036L37.8026 16.9025H37.7019H37.6014L37.5008 16.8018L37.4003 16.7014L37.2997 16.6007L37.1992 16.5003L37.0986 16.3996L36.9981 16.2992L36.8053 16.1985V16.0981V15.9974H36.6042H36.5037L36.4031 15.8967L36.0009 15.7963H34.5009L34.0987 15.8967L34.0065 15.9974H33.9059H33.6043V16.0981V16.1985L33.5037 16.2992L33.3025 16.3996L33.202 16.5003L33.1014 16.6007L32.9003 16.7014L32.6992 16.8018L32.5065 16.9025L32.1042 17.0029L31.8026 17.1036H31.702L31.6015 17.0029L31.1993 16.9025L30.9981 16.8018L30.9059 16.7014L30.8053 16.6007L30.7048 16.3996H30.8053V16.0981L30.7048 15.4025H30.6042V16.0981H30.5037V15.6036L30.4031 15.3018V15.2014V15.1007V9.90523V9.40236L30.3026 9.10079L30.202 8.89969L30.1015 8.79903H30.0009V9.00014L29.9003 8.89969L29.7998 8.79903L29.6992 8.69858L29.6071 8.59792L29.5065 8.39681L29.3054 8.30475L29.2049 8.20409V8.10364V8.00299H28.9031H28.8025L28.702 7.90253L28.4003 7.80188L22.7021 7.70143L22.0065 7.60077L21.7048 7.50032L21.6043 7.39966L21.5037 7.29921L21.3026 7.19855V7.0979V6.80472H21.202L21.3026 5.79918V5.49742H21.202L21.3026 5.40535H21.4032H21.5037L21.6043 5.3047V5.10359H21.7048L21.8054 5.00293L21.9059 4.80182V4.60072H21.8054L21.9059 4.50026L22.0065 4.39961L22.107 4.09805L22.2076 3.80467L22.2663 3.39407L22.2999 3.80467H22.4004V3.10089V2.50575V1.90243L22.2999 1.60087H22.2076L22.1574 1.9192L22.107 1.70132L22.0065 1.50021L21.9059 1.09799H21.8054V0.905273H21.7048H21.6043L21.5037 0.804821L21.3026 0.704165L21.202 0.603508L21.1015 0.503056L21.0009 0.4024L20.7998 0.301948L20.6071 0.201291L20.3055 0.10084H20.6071V0.000183105H20.2049H19.9031H18.3027L17.9004 0.10084Z" fill="#9D9E9E"/>
<path fill-rule="evenodd" clip-rule="evenodd" d="M42.9053 0.100656L42.6036 0.201108L42.302 0.301765L42.1008 0.402217L42.0002 0.502873L41.8996 0.603325L41.6985 0.703981L41.598 0.804638L41.4974 0.90509L41.4053 0.997358V0.804638H41.3047L41.2042 0.90509L41.1036 1.09781V1.29892V1.39957L41.003 1.50003V1.19847H40.9025L40.8019 1.39957L40.7014 1.60068L40.6008 1.90224V2.50557V3.40227V3.90514L40.7014 4.29897L40.8019 4.50008L40.9025 4.60053H41.003V4.39942L41.1036 4.50008L41.2042 4.60053H41.1036V4.80164L41.2042 5.00275H41.3047V5.20406L41.4053 5.30451H41.598L41.6985 5.40517V5.49723V5.89945L41.7991 6.80454H41.6985L41.598 6.99726L41.4974 7.09771V7.19837H41.6985L41.4974 7.29902L41.4053 7.39948L41.3047 7.50013L41.003 7.60058L40.1986 7.70124L34.6008 7.80169L34.2992 7.90235L34.1986 8.0028L34.0059 8.10346L33.8048 8.20391L33.7042 8.30457L33.5031 8.39663L33.4026 8.49729H33.3019H33.2014L33.1008 8.59774V8.79885H33.2014L33.1008 8.8995L33.0002 8.99996L32.8997 8.8995H32.7991L32.6986 9.10061L32.598 9.30172V9.70394V9.99731L32.5059 10.2989V13.9023L32.598 14.0029H32.8997L33.0002 13.9023L33.2014 13.8016L33.6037 13.7011L34.0981 13.6005H36.302L36.7042 13.7011L37.098 13.8016L37.2991 13.9023L37.3997 14.0029L37.6008 14.1034L37.802 14.204V14.3045V14.3967H38.1036V14.5978H38.2042H38.4053L38.5059 14.6983L38.6986 14.799L38.7991 14.8994L38.8997 15.0001L39.0002 15.2012L39.1008 15.3016L39.2014 15.4023L39.3019 15.6034L39.4025 15.7038L39.503 15.7961V15.8966V16.1983H39.6036V16.3994L39.7041 16.7012H39.8047L39.855 16.391L39.9052 16.7012L39.9975 16.8016V16.9023V17.0028L39.9052 17.1034V17.3045H39.9975L40.2153 17.2039L40.0981 17.3966V18.201V19.701V20.4973L40.1986 20.715L39.9975 20.5977H39.9052V20.7989L39.9975 20.8995V21V21.1006L39.9052 21.2011L39.8466 21.5112L39.8047 21.2011H39.7041L39.6036 21.5028V21.7039H39.503V21.9971V22.0978L39.4025 22.1982L39.3019 22.2989L39.2014 22.5H39.1008H39.0002L38.7991 22.6004V22.8018H38.8997V22.9022L38.7991 23.0029L38.6986 23.1033L38.5059 23.1956L38.4053 23.3044L38.3048 23.3967L38.2042 23.4971L38.1036 23.5978V23.4971H37.802L37.6008 23.5978V23.6983V23.7989L37.3997 23.8994L37.2991 24H37.1986H36.7042V24.1005L37.098 24.2011H36.7042L36.302 24.3016H34.0981L33.6037 24.2011L33.2014 24.1005L33.0002 24L32.8997 23.8994H32.598L32.5059 24V27.6034L32.598 27.9972V28.3994V28.8017L32.6986 29.0028L32.7991 29.1955L32.8997 29.2961H33.1008V29.4972L33.2014 29.5977H33.3019H33.4026L33.6037 29.6984L33.7042 29.7988H33.9053V29.9999L34.1986 30.1006L34.3997 30.201H34.9025V30.3017H34.3997V30.4021H35.003H40.9025L41.003 30.5028L41.2042 30.6032L41.4974 30.7039L41.598 30.796L41.6985 30.8966V31.2988V32.1955L41.598 32.5978H41.4974L41.4053 32.6982L41.3047 32.8993L41.2042 33.1004V33.3015H41.1036V33.5026V33.6033H40.9025H40.8019L40.7014 33.8967L40.6008 34.1982V34.9022V35.4972V36.2011L40.7014 36.4022H40.8019V36.6954L40.9025 36.7961H41.003H41.1036V36.9972H41.2042H41.3047L41.4053 37.0976L41.4974 37.1983V37.2987V37.3994H41.6985L41.7991 37.4998L42.0002 37.6005L42.2014 37.701L42.4025 37.8016H42.7042V38.0027L43.1986 38.1032H44.6986L45.1008 38.0027L45.2014 37.9021H45.4025H45.7041V37.8016V37.701L45.9052 37.6005L45.9974 37.4998L46.098 37.3994L46.1985 37.2987L46.2991 37.1983L46.3996 37.0976L46.5002 36.9972L46.6008 36.8965L46.7014 36.9972H46.8019L46.9025 36.7961V36.595H47.003V36.4022V36.2011L47.1036 36.1005V36.4022H47.2042L47.3047 36.2011L47.4053 35.6983V34.6004L47.3047 34.1982H47.2042V34.8016L47.3047 35.4972H47.2042V34.9022L47.1036 34.2989L47.003 34.1982V33.9971V33.6956L46.9025 33.5026H46.8019V33.3015L46.7014 33.1004H46.6008L46.5002 33.2011V33.1004L46.3996 33V32.7989H46.2991V32.5978L46.1985 32.296H46.098V31.1982H46.1985L46.2991 31.0977L46.3996 30.8966V30.796H46.1985L46.3996 30.7039L46.6008 30.6032L46.9025 30.5028L47.003 30.4021H52.7013H53.3969L53.598 30.3017V30.201H53.3047L53.598 30.1006L53.7991 29.9999L53.8997 29.8995L54.0002 29.7988L54.2013 29.6984L54.3019 29.5977L54.4024 29.4972L54.503 29.3966L54.6035 29.2961H54.7041H54.8046L54.8968 29.1955V29.0028H54.9974V28.701V28.6005L55.0979 28.4999L55.1985 27.9972V22.2989H55.299V27.9972H55.3997V21.9971H55.5002V21.7039H55.7013V21.5028H55.5002L55.6008 21.4022L55.7013 21.3017L55.8019 21.2011V21.3017H56.003L56.4052 21.2011H56.8996L57.3018 21.3017H57.6035V21.2011L57.7041 21.4022H57.8047L57.8969 21.5028L58.098 21.6033H57.8969V21.7039L57.9974 21.796L58.1985 21.8967H58.3996V21.796L58.6007 21.8967L58.7013 21.9971L59.003 22.0978L59.3968 22.1982H60.7041L61.0979 22.0978L61.3996 21.9971V21.796H61.6007L61.8018 21.7039L61.9024 21.6033L62.0029 21.5028L62.1036 21.4022L62.2041 21.3017L62.2963 21.2011H62.3968H62.4974V21V20.8995L62.5979 21H62.6985L62.7991 20.8995L62.8996 20.5977V20.296H63.0002V19.9022V19.4999V18.5028V18.4023V18.3017V18.1006V17.5977L62.8996 17.3045L62.7991 17.1034H62.6985H62.4974L62.3968 16.9023L62.2963 16.8016L62.2041 16.7012L62.1036 16.6005L62.0029 16.5001L61.9024 16.3994L61.8018 16.299L61.6007 16.1983L61.3996 16.0979L61.1985 15.9972L61.0979 15.8966L60.7041 15.7961H59.3046L59.003 15.8966L58.9024 15.9972L58.6007 16.0979L58.3996 16.1983L58.1985 16.299L58.098 16.3994L57.9974 16.5001L57.8969 16.6005L57.7041 16.7012L57.5029 16.8016L57.3018 16.9023L57.0002 17.0028L56.6985 17.1034H56.4052L56.2963 17.0028L56.003 16.9023L55.8019 16.8016V16.7012V16.5001H55.7013H55.5002V16.3994V15.9972H55.3997V10.0978L55.299 9.60348H55.1985V10.1984L55.299 15.7038H55.1985V10.2989L55.0979 9.70394L54.9974 9.50283V9.40217V9.10061L54.8968 8.8995H54.8046H54.7041L54.6035 8.79885L54.503 8.69839L54.4024 8.59774L54.3019 8.39663L54.1008 8.30457L54.0002 8.20391V8.10346V8.0028H53.6985H53.598L53.4974 7.90235L53.2041 7.80169L47.598 7.70124L46.8019 7.60058H46.5002V7.39948L46.2991 7.29902L46.1985 7.19837V7.09771V6.80454L46.098 5.799H46.1985V5.49723H46.2991L46.3996 5.30451V5.1034V5.00275L46.5002 4.9023L46.6008 5.00275H46.7014L46.8019 4.80164L46.9025 4.60053V4.39942H47.003V3.99721V3.90514L47.1036 3.70403L47.2042 2.8996L47.3047 2.59784V2.0029L47.2042 1.70113H47.1036V2.10335L47.003 1.90224V1.80179V1.50003H46.9025V1.29892H46.8019V1.09781L46.7014 0.997358H46.6008L46.3996 1.09781V0.90509L46.2991 0.804638L46.098 0.703981V0.603325V0.502873H45.9052L45.8047 0.402217L45.503 0.301765H45.8047V0.201108L45.6036 0.100656L45.3019 0H44.8997V0.100656L44.3969 0H43.3997L42.9053 0.100656Z" fill="#9D9E9E"/>
<path fill-rule="evenodd" clip-rule="evenodd" d="M34.4999 7.60057L34.1982 7.70123V7.80168H34.6005L40.1982 7.70123L41.0027 7.60057V7.50012H35.3043L34.4999 7.60057Z" fill="#9D9E9E"/>
<path fill-rule="evenodd" clip-rule="evenodd" d="M47.5978 7.70123L53.2039 7.80168H53.5978V7.70123L53.3045 7.60057L52.5 7.50012H46.8018V7.60057L47.5978 7.70123Z" fill="#9D9E9E"/>
<path fill-rule="evenodd" clip-rule="evenodd" d="M22.7015 7.70123H28.3997V7.60057L22.802 7.50012H22.0059V7.60057L22.7015 7.70123Z" fill="#9D9E9E"/>
<path fill-rule="evenodd" clip-rule="evenodd" d="M40.1984 55.4996H41.0028V55.3991L40.2989 55.2985H34.6006V55.3991L40.1984 55.4996Z" fill="#9D9E9E"/>
<path fill-rule="evenodd" clip-rule="evenodd" d="M10.0057 55.3994H16.0057V55.2987L10.1063 55.1982H9.60352V55.2987L10.0057 55.3994Z" fill="#9D9E9E"/>
<path fill-rule="evenodd" clip-rule="evenodd" d="M34.0979 24.3019H36.3018L36.704 24.2015V24.1008H36.2013H34.1985H33.6035V24.2015L34.0979 24.3019Z" fill="#9D9E9E"/>
<path fill-rule="evenodd" clip-rule="evenodd" d="M33.6035 13.7009V13.8014H34.1985H36.2013H36.704V13.7009L36.3018 13.6003H34.0979L33.6035 13.7009Z" fill="#9D9E9E"/>
<path fill-rule="evenodd" clip-rule="evenodd" d="M32.4053 40.3996H32.5058V34.7013H32.4053V40.3996Z" fill="#9D9E9E"/>
<path fill-rule="evenodd" clip-rule="evenodd" d="M40.9015 30.6031V30.5027H35.2031V30.6031H40.9015Z" fill="#9D9E9E"/>
<path fill-rule="evenodd" clip-rule="evenodd" d="M30.5029 28.299H30.6035V22.6007H30.5029V28.299Z" fill="#9D9E9E"/>
<path fill-rule="evenodd" clip-rule="evenodd" d="M52.6006 30.6031V30.5027H47.0029V30.6031H52.6006Z" fill="#9D9E9E"/>
<path fill-rule="evenodd" clip-rule="evenodd" d="M26.6064 40.7007L26.4053 40.8014V40.9018H26.6987L27.2014 40.8014H28.3997L28.8019 40.9018H29.2042V40.8014L28.9025 40.7007L28.5002 40.6003H27.1009L26.6064 40.7007Z" fill="#9D9E9E"/>
<path fill-rule="evenodd" clip-rule="evenodd" d="M32.4053 53.1953H32.5058V47.6982H32.4053V53.1953Z" fill="#9D9E9E"/>
<path fill-rule="evenodd" clip-rule="evenodd" d="M30.5029 15.3015H30.6035V9.80444H30.5029V15.3015Z" fill="#9D9E9E"/>
<path fill-rule="evenodd" clip-rule="evenodd" d="M38.8995 32.4972V32.3968H34.8018V32.4972H38.8995Z" fill="#9D9E9E"/>
<path fill-rule="evenodd" clip-rule="evenodd" d="M28.0978 30.6031V30.5027H24.1006V30.6031H28.0978Z" fill="#9D9E9E"/>
<path fill-rule="evenodd" clip-rule="evenodd" d="M52.902 32.4972V32.3968H48.9971V32.4972H52.902Z" fill="#9D9E9E"/>
<path fill-rule="evenodd" clip-rule="evenodd" d="M30.6035 38.9998H30.7041V35.1033H30.6035V38.9998Z" fill="#9D9E9E"/>
<path fill-rule="evenodd" clip-rule="evenodd" d="M32.3047 27.8967H32.4052V24.0002H32.3047V27.8967Z" fill="#9D9E9E"/>
<path fill-rule="evenodd" clip-rule="evenodd" d="M14.0027 30.6031V30.5027H10.1982V30.6031H14.0027Z" fill="#9D9E9E"/>
<path fill-rule="evenodd" clip-rule="evenodd" d="M32.3047 13.9025H32.4052V10.098H32.3047V13.9025Z" fill="#9D9E9E"/>
<path fill-rule="evenodd" clip-rule="evenodd" d="M30.6035 52.7011H30.7041V48.9971H30.6035V52.7011Z" fill="#9D9E9E"/>
<path fill-rule="evenodd" clip-rule="evenodd" d="M47.2041 59.7986C47.3717 59.7986 47.3549 60.3685 47.2041 60.4942L47.1035 60.9969V61.3991H47.2041L47.3046 61.0976L47.4052 60.5947V59.5975L47.3046 59.1953H47.2041V59.7986Z" fill="#9D9E9E"/>
<path fill-rule="evenodd" clip-rule="evenodd" d="M15.7041 1.90227L15.6035 2.39675V3.40229L15.7041 3.80451H15.8047V3.20119C15.6287 3.20119 15.6539 2.62291 15.8047 2.50559L15.9053 2.00292V1.60071H15.8047L15.7041 1.90227Z" fill="#9D9E9E"/>
<path fill-rule="evenodd" clip-rule="evenodd" d="M34.0977 15.7036V15.7959H34.4999C34.4999 15.6367 35.8742 15.645 35.9999 15.7959H36.4021V15.7036L36.1005 15.6031H34.3993L34.0977 15.7036Z" fill="#9D9E9E"/>
<path fill-rule="evenodd" clip-rule="evenodd" d="M17.8998 24.7037L17.6064 24.796V24.8966H18.0004L18.5031 24.796C18.5031 24.62 19.4835 24.7037 19.7014 24.7037V24.6033H18.4026L17.8998 24.7037Z" fill="#9D9E9E"/>
<path fill-rule="evenodd" clip-rule="evenodd" d="M60.6026 40.8014L61.097 40.9018H61.3987V40.8014L61.1976 40.7007L60.7032 40.6003H59.3037V40.7007C59.6557 40.7007 60.4267 40.5919 60.6026 40.8014Z" fill="#9D9E9E"/>
<path fill-rule="evenodd" clip-rule="evenodd" d="M58.9022 22.2988L59.3045 22.3993H60.7039V22.2988C60.3436 22.2988 59.5726 22.4077 59.3966 22.1982L59.0028 22.0977H58.6006V22.1982L58.9022 22.2988Z" fill="#9D9E9E"/>
<path fill-rule="evenodd" clip-rule="evenodd" d="M2.60639 47.3962H3.00022L3.80465 47.2957V47.1951H2.10352V47.2957L2.60639 47.3962Z" fill="#9D9E9E"/>
<path fill-rule="evenodd" clip-rule="evenodd" d="M3.60364 22.1982C3.60364 22.3825 2.62315 22.2988 2.40527 22.2988V22.3993H3.70419L4.10641 22.2988L4.39968 22.1982V22.0977H4.00585L3.60364 22.1982Z" fill="#9D9E9E"/>
<path fill-rule="evenodd" clip-rule="evenodd" d="M15.6035 27.3016V28.2987L15.7041 28.6005H15.8047V28.1983C15.6371 28.1983 15.6539 27.5279 15.8047 27.4022V26.7987H15.7041L15.6035 27.3016Z" fill="#9D9E9E"/>
<path fill-rule="evenodd" clip-rule="evenodd" d="M43.0977 38.1959V38.2966H44.7988L45.201 38.1959V38.1036H44.6982C44.6982 38.2796 43.3491 38.1959 43.0977 38.1959Z" fill="#9D9E9E"/>
<path fill-rule="evenodd" clip-rule="evenodd" d="M30.8046 41.9999H31.5002L31.8018 41.8993V41.7988H31.3996H30.9051H30.5029V41.8993L30.8046 41.9999Z" fill="#9D9E9E"/>
<path fill-rule="evenodd" clip-rule="evenodd" d="M15.6035 59.3965V60.402H15.7041L15.8047 59.6981V59.0947H15.7041L15.6035 59.3965Z" fill="#9D9E9E"/>
<path fill-rule="evenodd" clip-rule="evenodd" d="M60.7032 15.7959H61.1976V15.7036L60.7953 15.6031H59.3037V15.7036C59.664 15.7036 60.5188 15.5864 60.7032 15.7959Z" fill="#9D9E9E"/>
<path fill-rule="evenodd" clip-rule="evenodd" d="M27.0004 47.3962H28.5003V47.2957C28.1316 47.2957 27.2853 47.4129 27.1009 47.1951H26.6064V47.2957L27.0004 47.3962Z" fill="#9D9E9E"/>
<path fill-rule="evenodd" clip-rule="evenodd" d="M1.90234 15.7036V15.7959H2.40511C2.40511 15.6199 3.47778 15.7036 3.70403 15.7036V15.6031H2.30456L1.90234 15.7036Z" fill="#9D9E9E"/>
<path fill-rule="evenodd" clip-rule="evenodd" d="M59.3037 47.2957V47.3962H60.7032L61.097 47.2957V47.1951H60.6026C60.6026 47.3794 59.5216 47.2957 59.3037 47.2957Z" fill="#9D9E9E"/>
<path fill-rule="evenodd" clip-rule="evenodd" d="M20.3045 22.9025H20.7989V22.802L20.4051 22.7014H19.5V22.802L20.3045 22.9025Z" fill="#9D9E9E"/>
<path fill-rule="evenodd" clip-rule="evenodd" d="M47.2041 3.10071V3.80449H47.3047L47.4052 3.30182V2.59784H47.3047L47.2041 3.10071Z" fill="#9D9E9E"/>
<path fill-rule="evenodd" clip-rule="evenodd" d="M15.3018 32.2961V32.3968H16.1985L16.5001 32.2961V32.1957H16.1063L15.3018 32.2961Z" fill="#9D9E9E"/>
<path fill-rule="evenodd" clip-rule="evenodd" d="M5.89941 41.7988V41.8993H6.90496L7.10617 41.7988V41.6982H6.8044L5.89941 41.7988Z" fill="#9D9E9E"/>
<path fill-rule="evenodd" clip-rule="evenodd" d="M29.204 38.8993H29.6984V38.7986L29.3046 38.6982H28.6006V38.7986L29.204 38.8993Z" fill="#9D9E9E"/>
<path fill-rule="evenodd" clip-rule="evenodd" d="M6.70388 21.2012H7.1062V21.1008L6.80443 21.0001H6V21.1008L6.70388 21.2012Z" fill="#9D9E9E"/>
<path fill-rule="evenodd" clip-rule="evenodd" d="M31.8018 16.8016V16.9022H32.5056L32.6984 16.8016V16.7011H32.4051L31.8018 16.8016Z" fill="#9D9E9E"/>
<path fill-rule="evenodd" clip-rule="evenodd" d="M35.799 22.3993V22.2988H34.6006V22.3993H35.799Z" fill="#9D9E9E"/>
<path fill-rule="evenodd" clip-rule="evenodd" d="M7.207 41.3967L7.10645 41.4971V41.6982H7.207L7.29917 41.5978L7.39972 41.4971L7.50027 41.3967V41.296L7.39972 41.1956H7.29917L7.207 41.3967Z" fill="#9D9E9E"/>
<path fill-rule="evenodd" clip-rule="evenodd" d="M60.7031 22.1982V22.2988H61.1975L61.3986 22.1982V22.0977H61.097L60.7031 22.1982Z" fill="#9D9E9E"/>
<path fill-rule="evenodd" clip-rule="evenodd" d="M28.1982 30.3018V30.4022H28.701L28.9021 30.3018V30.2011H28.6005L28.1982 30.3018Z" fill="#9D9E9E"/>
<path fill-rule="evenodd" clip-rule="evenodd" d="M58.6006 40.8014V40.9019H59.0028L59.3045 40.8014V40.7007H58.9022L58.6006 40.8014Z" fill="#9D9E9E"/>
<path fill-rule="evenodd" clip-rule="evenodd" d="M56.7988 16.8016V16.9022H57.3016L57.5027 16.8016V16.7011H57.201L56.7988 16.8016Z" fill="#9D9E9E"/>
<path fill-rule="evenodd" clip-rule="evenodd" d="M57.997 46.8015L58.1981 46.9019H58.3993V46.8015L58.2987 46.7008L58.0976 46.6003H57.8965V46.7008L57.997 46.8015Z" fill="#9D9E9E"/>
<path fill-rule="evenodd" clip-rule="evenodd" d="M16.9023 6.80449H17.0029V5.79895H16.9023V6.80449Z" fill="#9D9E9E"/>
<path fill-rule="evenodd" clip-rule="evenodd" d="M45.9971 57.2009H46.0976V56.1953H45.9971V57.2009Z" fill="#9D9E9E"/>
<path fill-rule="evenodd" clip-rule="evenodd" d="M16.9023 57.1004H17.0029V56.0948H16.9023V57.1004Z" fill="#9D9E9E"/>
<path fill-rule="evenodd" clip-rule="evenodd" d="M5.40527 21.2009V21.3015H5.70694L6.00021 21.2009V21.1004H5.60638L5.40527 21.2009Z" fill="#9D9E9E"/>
<path fill-rule="evenodd" clip-rule="evenodd" d="M32.5058 21.3016H32.799V21.2009L32.5979 21.1005H32.2041V21.2009L32.5058 21.3016Z" fill="#9D9E9E"/>
<path fill-rule="evenodd" clip-rule="evenodd" d="M42.3018 0.100656V0.201108H42.6034L42.9051 0.100656V0H42.5029L42.3018 0.100656Z" fill="#9D9E9E"/>
<path fill-rule="evenodd" clip-rule="evenodd" d="M16.2988 25.8019L16.1982 25.9025V26.1036H16.2988L16.3994 26.003L16.4999 25.9025L16.6005 25.8019V25.7014H16.3994L16.2988 25.8019Z" fill="#9D9E9E"/>
<path fill-rule="evenodd" clip-rule="evenodd" d="M20.2041 62.7988V62.8993H20.6063L20.799 62.7988V62.6982H20.5058L20.2041 62.7988Z" fill="#9D9E9E"/>
<path fill-rule="evenodd" clip-rule="evenodd" d="M40.7012 58.8015V59.1953H40.8017L40.9023 58.902V58.6004H40.8017L40.7012 58.8015Z" fill="#9D9E9E"/>
<path fill-rule="evenodd" clip-rule="evenodd" d="M5.70697 16.9022H6.1008V16.8016L5.80752 16.7011H5.50586V16.8016L5.70697 16.9022Z" fill="#9D9E9E"/>
<path fill-rule="evenodd" clip-rule="evenodd" d="M22.1064 4.09813V4.39969H22.207L22.2993 4.19858V3.80475H22.207L22.1064 4.09813Z" fill="#9D9E9E"/>
<path fill-rule="evenodd" clip-rule="evenodd" d="M39.2012 22.0981V22.2992H39.3017L39.4023 22.1985L39.5028 22.0981V21.9974L39.4023 21.897H39.3017L39.2012 22.0981Z" fill="#9D9E9E"/>
<path fill-rule="evenodd" clip-rule="evenodd" d="M39.2012 15.7959L39.3017 15.997H39.4023L39.5028 15.8963V15.7959L39.4023 15.7036L39.3017 15.6031H39.2012V15.7959Z" fill="#9D9E9E"/>
<path fill-rule="evenodd" clip-rule="evenodd" d="M46.3994 37.0975L46.2988 37.1981V37.2986H46.4999L46.7011 37.1981V36.997H46.6006L46.3994 37.0975Z" fill="#9D9E9E"/>
<path fill-rule="evenodd" clip-rule="evenodd" d="M16.1064 23.3045V23.3967H16.3997L16.6008 23.3045V23.1956H16.2992L16.1064 23.3045Z" fill="#9D9E9E"/>
<path fill-rule="evenodd" clip-rule="evenodd" d="M22.802 32.3968V32.2961H22.0059V32.3968H22.802Z" fill="#9D9E9E"/>
<path fill-rule="evenodd" clip-rule="evenodd" d="M21.6035 32.2957H22.0057V32.1953L21.704 32.103H21.5029V32.1953L21.6035 32.2957Z" fill="#9D9E9E"/>
<path fill-rule="evenodd" clip-rule="evenodd" d="M21.4023 23.3041H21.7039V23.1952L21.5028 23.103H21.2012V23.1952L21.4023 23.3041Z" fill="#9D9E9E"/>
<path fill-rule="evenodd" clip-rule="evenodd" d="M25.4999 48.8964H25.8016V48.7958L25.6005 48.6953H25.2988V48.7958L25.4999 48.8964Z" fill="#9D9E9E"/>
<path fill-rule="evenodd" clip-rule="evenodd" d="M25.0059 39.3015V39.4019H25.2991L25.5002 39.3015V39.2008H25.1986L25.0059 39.3015Z" fill="#9D9E9E"/>
<path fill-rule="evenodd" clip-rule="evenodd" d="M40.3994 3.30182H40.5V2.59784H40.3994V3.30182Z" fill="#9D9E9E"/>
<path fill-rule="evenodd" clip-rule="evenodd" d="M30.6035 22.6007H30.7041V21.897H30.6035V22.6007Z" fill="#9D9E9E"/>
<path fill-rule="evenodd" clip-rule="evenodd" d="M32.3047 41.0949H32.4052V40.3995H32.3047V41.0949Z" fill="#9D9E9E"/>
<path fill-rule="evenodd" clip-rule="evenodd" d="M28.3996 32.4972V32.3968H27.7041V32.4972H28.3996Z" fill="#9D9E9E"/>
<path fill-rule="evenodd" clip-rule="evenodd" d="M32.2039 21.1008V21.0002H31.5V21.1008H32.2039Z" fill="#9D9E9E"/>
<path fill-rule="evenodd" clip-rule="evenodd" d="M38.598 22.9025L38.5059 23.0031V23.1036H38.6986L38.7991 23.0031V22.802H38.6986L38.598 22.9025Z" fill="#9D9E9E"/>
<path fill-rule="evenodd" clip-rule="evenodd" d="M55.7012 46.2988V46.4999H55.8017L55.9023 46.3995L56.0028 46.2988V46.1984H55.8017L55.7012 46.2988Z" fill="#9D9E9E"/>
<path fill-rule="evenodd" clip-rule="evenodd" d="M57.8965 41.296V41.3967H58.0976L58.2987 41.296V41.1956H57.997L57.8965 41.296Z" fill="#9D9E9E"/>
<path fill-rule="evenodd" clip-rule="evenodd" d="M41.8994 37.8013H42.2011V37.7007L41.9999 37.6002H41.7988V37.7007L41.8994 37.8013Z" fill="#9D9E9E"/>
<path fill-rule="evenodd" clip-rule="evenodd" d="M16.2988 29.799L16.3994 29.8997H16.6005V29.799L16.4999 29.6986L16.3994 29.5979H16.2988V29.799Z" fill="#9D9E9E"/>
<path fill-rule="evenodd" clip-rule="evenodd" d="M38.6982 15.201L38.7988 15.3015H38.9999V15.201L38.8994 15.1004L38.7988 14.9999H38.6982V15.201Z" fill="#9D9E9E"/>
<path fill-rule="evenodd" clip-rule="evenodd" d="M41.4042 30.8965H41.597V30.7958L41.4964 30.7037H41.2031V30.7958L41.4042 30.8965Z" fill="#9D9E9E"/>
<path fill-rule="evenodd" clip-rule="evenodd" d="M37.5 16.8016L37.6005 16.9022H37.7011V16.7011L37.6005 16.6005H37.3994V16.7011L37.5 16.8016Z" fill="#9D9E9E"/>
<path fill-rule="evenodd" clip-rule="evenodd" d="M41.8994 0.30134V0.401792H42.1005L42.3017 0.30134V0.200684H42L41.8994 0.30134Z" fill="#9D9E9E"/>
<path fill-rule="evenodd" clip-rule="evenodd" d="M16.7012 6.99753V7.19864H16.8017L16.9023 7.09798V6.80481H16.8017L16.7012 6.99753Z" fill="#9D9E9E"/>
<path fill-rule="evenodd" clip-rule="evenodd" d="M46.0977 55.9023V56.1955H46.1982L46.2988 56.0027V55.8016H46.1982L46.0977 55.9023Z" fill="#9D9E9E"/>
<path fill-rule="evenodd" clip-rule="evenodd" d="M54.6035 8.79901L54.704 8.89967H54.8046V8.69856L54.704 8.5979H54.5029V8.69856L54.6035 8.79901Z" fill="#9D9E9E"/>
<path fill-rule="evenodd" clip-rule="evenodd" d="M16.2988 57.8967V58.0978H16.3994L16.4999 57.9973L16.6005 57.8967V57.796H16.3994L16.2988 57.8967Z" fill="#9D9E9E"/>
<path fill-rule="evenodd" clip-rule="evenodd" d="M17.3047 62.7988H17.6063V62.6982L17.4052 62.5977H17.2041V62.6982L17.3047 62.7988Z" fill="#9D9E9E"/>
<path fill-rule="evenodd" clip-rule="evenodd" d="M3.20138 40.5V40.3995H2.60645V40.5H3.20138Z" fill="#9D9E9E"/>
<path fill-rule="evenodd" clip-rule="evenodd" d="M10.5002 32.4972V32.3968H9.90527V32.4972H10.5002Z" fill="#9D9E9E"/>
<path fill-rule="evenodd" clip-rule="evenodd" d="M21.1006 25.3993H21.3017V25.2988L21.2011 25.1982H21V25.2988L21.1006 25.3993Z" fill="#9D9E9E"/>
<path fill-rule="evenodd" clip-rule="evenodd" d="M30.9965 16.8016H31.1977V16.7011L31.1054 16.6005H30.9043V16.7011L30.9965 16.8016Z" fill="#9D9E9E"/>
<path fill-rule="evenodd" clip-rule="evenodd" d="M20.204 24.7962V24.7039H19.7012V24.7962H20.204Z" fill="#9D9E9E"/>
<path fill-rule="evenodd" clip-rule="evenodd" d="M15.7041 60.8963H15.8048V60.4019H15.7041V60.8963Z" fill="#9D9E9E"/>
<path fill-rule="evenodd" clip-rule="evenodd" d="M2.5057 40.7007V40.6003H2.00293V40.7007H2.5057Z" fill="#9D9E9E"/>
<path fill-rule="evenodd" clip-rule="evenodd" d="M56.8997 46.0977V45.9973H56.4053V46.0977H56.8997Z" fill="#9D9E9E"/>
<path fill-rule="evenodd" clip-rule="evenodd" d="M7.70117 53.3966H7.80173V52.9023H7.70117V53.3966Z" fill="#9D9E9E"/>
<path fill-rule="evenodd" clip-rule="evenodd" d="M18.4022 62.9997V62.899H17.8994V62.9997H18.4022Z" fill="#9D9E9E"/>
<path fill-rule="evenodd" clip-rule="evenodd" d="M55.1982 28.5H55.2988V27.9973H55.1982V28.5Z" fill="#9D9E9E"/>
<path fill-rule="evenodd" clip-rule="evenodd" d="M40.3994 35.5976H40.5V35.1033H40.3994V35.5976Z" fill="#9D9E9E"/>
<path fill-rule="evenodd" clip-rule="evenodd" d="M22.6006 24.0002H22.8017V23.8995L22.7011 23.7991H22.5V23.8995L22.6006 24.0002Z" fill="#9D9E9E"/>
<path fill-rule="evenodd" clip-rule="evenodd" d="M54 54.7961V54.8965H54.2011L54.3017 54.7961V54.6954H54.1006L54 54.7961Z" fill="#9D9E9E"/>
<path fill-rule="evenodd" clip-rule="evenodd" d="M33.1006 54.4022L33.2011 54.4943H33.3017V54.3016L33.2011 54.2011H33.1006V54.4022Z" fill="#9D9E9E"/>
<path fill-rule="evenodd" clip-rule="evenodd" d="M29.6982 8.69818L29.7988 8.79863H29.8994V8.59752L29.7988 8.49707H29.6982V8.69818Z" fill="#9D9E9E"/>
<path fill-rule="evenodd" clip-rule="evenodd" d="M33.5029 8.20409V8.30475H33.704L33.8046 8.20409V8.10364H33.6035L33.5029 8.20409Z" fill="#9D9E9E"/>
<path fill-rule="evenodd" clip-rule="evenodd" d="M54.1006 8.30475H54.3017V8.20409L54.2011 8.10364H54V8.20409L54.1006 8.30475Z" fill="#9D9E9E"/>
<path fill-rule="evenodd" clip-rule="evenodd" d="M15.4023 23.7985V23.899H15.6035L15.704 23.7985V23.6979H15.5029L15.4023 23.7985Z" fill="#9D9E9E"/>
<path fill-rule="evenodd" clip-rule="evenodd" d="M5.0029 41.3967H5.20401V41.296L5.10345 41.1956H4.90234V41.296L5.0029 41.3967Z" fill="#9D9E9E"/>
<path fill-rule="evenodd" clip-rule="evenodd" d="M61.9013 16.3996H62.1025V16.2991L62.0019 16.1985H61.8008V16.2991L61.9013 16.3996Z" fill="#9D9E9E"/>
<path fill-rule="evenodd" clip-rule="evenodd" d="M24.7041 48.4022H24.9052V48.3017L24.8046 48.201H24.6035V48.3017L24.7041 48.4022Z" fill="#9D9E9E"/>
<path fill-rule="evenodd" clip-rule="evenodd" d="M38.2041 23.1952V23.3041H38.4052L38.5058 23.1952V23.103H38.3047L38.2041 23.1952Z" fill="#9D9E9E"/>
<path fill-rule="evenodd" clip-rule="evenodd" d="M41.4053 0.704111V0.804767H41.598L41.6985 0.704111V0.603455H41.4974L41.4053 0.704111Z" fill="#9D9E9E"/>
<path fill-rule="evenodd" clip-rule="evenodd" d="M38.3047 14.799H38.5058V14.6984L38.4052 14.5979H38.2041V14.6984L38.3047 14.799Z" fill="#9D9E9E"/>
<path fill-rule="evenodd" clip-rule="evenodd" d="M23.1035 24.5026L23.2041 24.6033H23.3046V24.4022L23.2041 24.3015H23.1035V24.5026Z" fill="#9D9E9E"/>
<path fill-rule="evenodd" clip-rule="evenodd" d="M55.5 46.6002V46.7006L55.6006 46.8013H55.7011V46.4995H55.6006L55.5 46.6002Z" fill="#9D9E9E"/>
<path fill-rule="evenodd" clip-rule="evenodd" d="M24.4023 39.7959V39.8966H24.6036L24.7041 39.7959V39.6955H24.5029L24.4023 39.7959Z" fill="#9D9E9E"/>
<path fill-rule="evenodd" clip-rule="evenodd" d="M30.9973 46.1986V46.0979H30.5029V46.1986H30.9973Z" fill="#9D9E9E"/>
<path fill-rule="evenodd" clip-rule="evenodd" d="M31.701 16.9024V16.8018H31.1982V16.9024H31.701Z" fill="#9D9E9E"/>
<path fill-rule="evenodd" clip-rule="evenodd" d="M2.40511 22.2987V22.198H1.90234V22.2987H2.40511Z" fill="#9D9E9E"/>
<path fill-rule="evenodd" clip-rule="evenodd" d="M36.3016 22.2987V22.198H35.7988V22.2987H36.3016Z" fill="#9D9E9E"/>
<path fill-rule="evenodd" clip-rule="evenodd" d="M32.4053 10.0976H32.5058V9.7038H32.4053V10.0976Z" fill="#9D9E9E"/>
<path fill-rule="evenodd" clip-rule="evenodd" d="M37.0979 13.9026V13.8019H36.7041V13.9026H37.0979Z" fill="#9D9E9E"/>
<path fill-rule="evenodd" clip-rule="evenodd" d="M15.8047 29.003H15.9052V28.6008H15.8047V29.003Z" fill="#9D9E9E"/>
<path fill-rule="evenodd" clip-rule="evenodd" d="M45.704 40.1981V40.0977H45.3018V40.1981H45.704Z" fill="#9D9E9E"/>
<path fill-rule="evenodd" clip-rule="evenodd" d="M53.598 55.2987V55.1982H53.2041V55.2987H53.598Z" fill="#9D9E9E"/>
<path fill-rule="evenodd" clip-rule="evenodd" d="M34.6005 55.2987V55.1982H34.1982V55.2987H34.6005Z" fill="#9D9E9E"/>
<path fill-rule="evenodd" clip-rule="evenodd" d="M22.5 60.3015H22.6006V59.899H22.5V60.3015Z" fill="#9D9E9E"/>
<path fill-rule="evenodd" clip-rule="evenodd" d="M59.3046 15.7961V15.7039H58.9023V15.7961H59.3046Z" fill="#9D9E9E"/>
<path fill-rule="evenodd" clip-rule="evenodd" d="M48.8965 37.2983H48.997V36.8961H48.8965V37.2983Z" fill="#9D9E9E"/>
<path fill-rule="evenodd" clip-rule="evenodd" d="M30.5029 53.1955H30.6035V52.8016H30.5029V53.1955Z" fill="#9D9E9E"/>
<path fill-rule="evenodd" clip-rule="evenodd" d="M40.3994 60.4019H40.5V59.9997H40.3994V60.4019Z" fill="#9D9E9E"/>
<path fill-rule="evenodd" clip-rule="evenodd" d="M4.10632 15.7961V15.7039H3.7041V15.7961H4.10632Z" fill="#9D9E9E"/>
<path fill-rule="evenodd" clip-rule="evenodd" d="M31.3994 46.0977V45.9973H30.9971V46.0977H31.3994Z" fill="#9D9E9E"/>
<path fill-rule="evenodd" clip-rule="evenodd" d="M6.20145 46.0977V45.9973H5.80762V46.0977H6.20145Z" fill="#9D9E9E"/>
<path fill-rule="evenodd" clip-rule="evenodd" d="M47.0028 30.7038V30.6031H46.6006V30.7038H47.0028Z" fill="#9D9E9E"/>
<path fill-rule="evenodd" clip-rule="evenodd" d="M32.4053 28.2987H32.5058V27.8965H32.4053V28.2987Z" fill="#9D9E9E"/>
<path fill-rule="evenodd" clip-rule="evenodd" d="M26.204 48.9967V48.8962H25.8018V48.9967H26.204Z" fill="#9D9E9E"/>
<path fill-rule="evenodd" clip-rule="evenodd" d="M59.3046 47.2957V47.1951H58.9023V47.2957H59.3046Z" fill="#9D9E9E"/>
<path fill-rule="evenodd" clip-rule="evenodd" d="M28.9022 47.2957V47.1951H28.5V47.2957H28.9022Z" fill="#9D9E9E"/>
<path fill-rule="evenodd" clip-rule="evenodd" d="M6.60339 17.0032V16.9028H6.20117V17.0032H6.60339Z" fill="#9D9E9E"/>
<path fill-rule="evenodd" clip-rule="evenodd" d="M15.8047 61.2991H15.9052V60.8969H15.8047V61.2991Z" fill="#9D9E9E"/>
<path fill-rule="evenodd" clip-rule="evenodd" d="M22.5 27.8044H22.6006V27.4022H22.5V27.8044Z" fill="#9D9E9E"/>
<path fill-rule="evenodd" clip-rule="evenodd" d="M33.6035 13.9026V13.8019H33.2012V13.9026H33.6035Z" fill="#9D9E9E"/>
<path fill-rule="evenodd" clip-rule="evenodd" d="M32.9999 23.7985V23.6979H32.5977V23.7985H32.9999Z" fill="#9D9E9E"/>
<path fill-rule="evenodd" clip-rule="evenodd" d="M16.3997 55.4996V55.3991H16.0059V55.4996H16.3997Z" fill="#9D9E9E"/>
<path fill-rule="evenodd" clip-rule="evenodd" d="M43.0979 38.1959V38.1036H42.7041V38.1959H43.0979Z" fill="#9D9E9E"/>
<path fill-rule="evenodd" clip-rule="evenodd" d="M14.0029 29.7985H14.1035V29.3962H14.0029V29.7985Z" fill="#9D9E9E"/>
<path fill-rule="evenodd" clip-rule="evenodd" d="M34.1985 22.1982V22.0977H33.8047V22.1982H34.1985Z" fill="#9D9E9E"/>
<path fill-rule="evenodd" clip-rule="evenodd" d="M14.0029 26.1036H14.1035V25.7014H14.0029V26.1036Z" fill="#9D9E9E"/>
<path fill-rule="evenodd" clip-rule="evenodd" d="M47.1035 59.1955H47.2041V58.8017H47.1035V59.1955Z" fill="#9D9E9E"/>
<path fill-rule="evenodd" clip-rule="evenodd" d="M22.5 3.00006H22.6006V2.59784H22.5V3.00006Z" fill="#9D9E9E"/>
<path fill-rule="evenodd" clip-rule="evenodd" d="M15.8047 4.19858H15.9052V3.80475H15.8047V4.19858Z" fill="#9D9E9E"/>
<path fill-rule="evenodd" clip-rule="evenodd" d="M28.8016 7.80132V7.70087H28.3994V7.80132H28.8016Z" fill="#9D9E9E"/>
<path fill-rule="evenodd" clip-rule="evenodd" d="M47.1035 4.19858H47.2041V3.80475H47.1035V4.19858Z" fill="#9D9E9E"/>
<path fill-rule="evenodd" clip-rule="evenodd" d="M15.8047 59.0952H15.9052V58.7014H15.8047V59.0952Z" fill="#9D9E9E"/>
<path fill-rule="evenodd" clip-rule="evenodd" d="M57.3016 46.1986V46.0979H56.8994V46.1986H57.3016Z" fill="#9D9E9E"/>
<path fill-rule="evenodd" clip-rule="evenodd" d="M31.8016 46.1986V46.0979H31.3994V46.1986H31.8016Z" fill="#9D9E9E"/>
<path fill-rule="evenodd" clip-rule="evenodd" d="M28.8016 32.6979V32.5975H28.3994V32.6979H28.8016Z" fill="#9D9E9E"/>
<path fill-rule="evenodd" clip-rule="evenodd" d="M56.4051 46.1986V46.0979H56.0029V46.1986H56.4051Z" fill="#9D9E9E"/>
<path fill-rule="evenodd" clip-rule="evenodd" d="M56.4051 16.9024V16.8018H56.0029V16.9024H56.4051Z" fill="#9D9E9E"/>
<path fill-rule="evenodd" clip-rule="evenodd" d="M39.8047 17.1033H39.9052V16.7011H39.8047V17.1033Z" fill="#9D9E9E"/>
<path fill-rule="evenodd" clip-rule="evenodd" d="M32.9999 14.2041V14.1035H32.5977V14.2041H32.9999Z" fill="#9D9E9E"/>
<path fill-rule="evenodd" clip-rule="evenodd" d="M34.6005 22.2986V22.1979H34.1982V22.2986H34.6005Z" fill="#9D9E9E"/>
<path fill-rule="evenodd" clip-rule="evenodd" d="M7.00583 16.9024V16.8018H6.60352V16.9024H7.00583Z" fill="#9D9E9E"/>
<path fill-rule="evenodd" clip-rule="evenodd" d="M39.8047 21.2007H39.9052V20.7985H39.8047V21.2007Z" fill="#9D9E9E"/>
<path fill-rule="evenodd" clip-rule="evenodd" d="M33.6035 24.1006V24.0002H33.2012V24.1006H33.6035Z" fill="#9D9E9E"/>
<path fill-rule="evenodd" clip-rule="evenodd" d="M23.1035 42.1004H23.2041V41.6982H23.1035V42.1004Z" fill="#9D9E9E"/>
<path fill-rule="evenodd" clip-rule="evenodd" d="M53.3969 32.698V32.5975H53.0029V32.698H53.3969Z" fill="#9D9E9E"/>
<path fill-rule="evenodd" clip-rule="evenodd" d="M54.4023 33.5021H54.5029V33.301H54.3018V33.4017L54.4023 33.5021Z" fill="#9D9E9E"/>
<path fill-rule="evenodd" clip-rule="evenodd" d="M22.9023 42.3013H23.1035V42.2009L23.0029 42.1002H22.9023V42.3013Z" fill="#9D9E9E"/>
<path fill-rule="evenodd" clip-rule="evenodd" d="M38.598 14.9999H38.6986V14.7988H38.5059V14.8993L38.598 14.9999Z" fill="#9D9E9E"/>
<path fill-rule="evenodd" clip-rule="evenodd" d="M45.9052 40.0977H45.9974V39.8965H45.8047V39.997L45.9052 40.0977Z" fill="#9D9E9E"/>
<path fill-rule="evenodd" clip-rule="evenodd" d="M21.4023 30.1009V30.2014H21.6035V30.0002H21.5029L21.4023 30.1009Z" fill="#9D9E9E"/>
<path fill-rule="evenodd" clip-rule="evenodd" d="M25.7012 41.4969H25.8017L25.9023 41.3965V41.2958H25.7012V41.4969Z" fill="#9D9E9E"/>
<path fill-rule="evenodd" clip-rule="evenodd" d="M24.8047 39.6034H24.9052L25.0058 39.5029V39.4023H24.8047V39.6034Z" fill="#9D9E9E"/>
<path fill-rule="evenodd" clip-rule="evenodd" d="M15.2012 24.1006H15.3017L15.4023 24.0002V23.8995H15.2012V24.1006Z" fill="#9D9E9E"/>
<path fill-rule="evenodd" clip-rule="evenodd" d="M41.3047 37.2988H41.4974V37.1983L41.4052 37.0977H41.3047V37.2988Z" fill="#9D9E9E"/>
<path fill-rule="evenodd" clip-rule="evenodd" d="M8.30469 33.6028H8.40524L8.5058 33.5021V33.4017H8.30469V33.6028Z" fill="#9D9E9E"/>
<path fill-rule="evenodd" clip-rule="evenodd" d="M7.29883 21.7039H7.39938L7.49994 21.6033V21.5028H7.29883V21.7039Z" fill="#9D9E9E"/>
<path fill-rule="evenodd" clip-rule="evenodd" d="M14.5058 24.9973H14.6064V24.7961H14.4053V24.8968L14.5058 24.9973Z" fill="#9D9E9E"/>
<path fill-rule="evenodd" clip-rule="evenodd" d="M23.5049 47.0953V47.1958H23.6976V47.0031H23.597L23.5049 47.0953Z" fill="#9D9E9E"/>
<path fill-rule="evenodd" clip-rule="evenodd" d="M45.704 62.8993V62.7988H45.4023V62.8993H45.704Z" fill="#9D9E9E"/>
<path fill-rule="evenodd" clip-rule="evenodd" d="M17.6063 0.201099V0.100647H17.3047V0.201099H17.6063Z" fill="#9D9E9E"/>
<path fill-rule="evenodd" clip-rule="evenodd" d="M29.7982 48.9967V48.8962H29.5049V48.9967H29.7982Z" fill="#9D9E9E"/>
<path fill-rule="evenodd" clip-rule="evenodd" d="M6.90518 46.0977V45.9973H6.60352V46.0977H6.90518Z" fill="#9D9E9E"/>
<path fill-rule="evenodd" clip-rule="evenodd" d="M36.6034 22.1982V22.0977H36.3018V22.1982H36.6034Z" fill="#9D9E9E"/>
<path fill-rule="evenodd" clip-rule="evenodd" d="M48.8965 33.5025H48.997V33.2009H48.8965V33.5025Z" fill="#9D9E9E"/>
<path fill-rule="evenodd" clip-rule="evenodd" d="M34.3993 30.3018V30.2011H34.0977V30.3018H34.3993Z" fill="#9D9E9E"/>
<path fill-rule="evenodd" clip-rule="evenodd" d="M41.598 39.7959V39.6954H41.3047V39.7959H41.598Z" fill="#9D9E9E"/>
<path fill-rule="evenodd" clip-rule="evenodd" d="M53.6981 32.7991V32.6985H53.3965V32.7991H53.6981Z" fill="#9D9E9E"/>
<path fill-rule="evenodd" clip-rule="evenodd" d="M4.10635 47.1952V47.0948H3.80469V47.1952H4.10635Z" fill="#9D9E9E"/>
<path fill-rule="evenodd" clip-rule="evenodd" d="M17.8998 0.100656V0H17.6064V0.100656H17.8998Z" fill="#9D9E9E"/>
<path fill-rule="evenodd" clip-rule="evenodd" d="M4.39874 47.0029V46.9022H4.10547V47.0029H4.39874Z" fill="#9D9E9E"/>
<path fill-rule="evenodd" clip-rule="evenodd" d="M37.3993 14.1034V14.003H37.0977V14.1034H37.3993Z" fill="#9D9E9E"/>
<path fill-rule="evenodd" clip-rule="evenodd" d="M29.2041 47.1952V47.0948H28.9023V47.1952H29.2041Z" fill="#9D9E9E"/>
<path fill-rule="evenodd" clip-rule="evenodd" d="M58.9022 47.1952V47.0948H58.6006V47.1952H58.9022Z" fill="#9D9E9E"/>
<path fill-rule="evenodd" clip-rule="evenodd" d="M30.4022 48.7958V48.6953H30.1006V48.7958H30.4022Z" fill="#9D9E9E"/>
<path fill-rule="evenodd" clip-rule="evenodd" d="M17.8998 62.8993V62.7988H17.6064V62.8993H17.8998Z" fill="#9D9E9E"/>
<path fill-rule="evenodd" clip-rule="evenodd" d="M4.39874 15.8966V15.7961H4.10547V15.8966H4.39874Z" fill="#9D9E9E"/>
<path fill-rule="evenodd" clip-rule="evenodd" d="M34.098 15.8966V15.7961H33.8047V15.8966H34.098Z" fill="#9D9E9E"/>
<path fill-rule="evenodd" clip-rule="evenodd" d="M41.3046 7.39971V7.29926H41.0029V7.39971H41.3046Z" fill="#9D9E9E"/>
<path fill-rule="evenodd" clip-rule="evenodd" d="M46.8018 7.39971V7.29926H46.5V7.39971H46.8018Z" fill="#9D9E9E"/>
<path fill-rule="evenodd" clip-rule="evenodd" d="M56.6985 17.0032V16.9028H56.4053V17.0032H56.6985Z" fill="#9D9E9E"/>
<path fill-rule="evenodd" clip-rule="evenodd" d="M58.9022 15.8966V15.7961H58.6006V15.8966H58.9022Z" fill="#9D9E9E"/>
<path fill-rule="evenodd" clip-rule="evenodd" d="M38.1035 17.8995H38.2041V17.5978H38.1035V17.8995Z" fill="#9D9E9E"/>
<path fill-rule="evenodd" clip-rule="evenodd" d="M37.3993 23.8995V23.7991H37.0977V23.8995H37.3993Z" fill="#9D9E9E"/>
<path fill-rule="evenodd" clip-rule="evenodd" d="M20.5058 24.8968V24.7961H20.2041V24.8968H20.5058Z" fill="#9D9E9E"/>
<path fill-rule="evenodd" clip-rule="evenodd" d="M13.8018 26.3962H13.9023V26.103H13.8018V26.3962Z" fill="#9D9E9E"/>
<path fill-rule="evenodd" clip-rule="evenodd" d="M53.8993 30.2009V30.1005H53.5977V30.2009H53.8993Z" fill="#9D9E9E"/>
<path fill-rule="evenodd" clip-rule="evenodd" d="M45.4022 62.9997V62.899H45.1006V62.9997H45.4022Z" fill="#9D9E9E"/>
<path fill-rule="evenodd" clip-rule="evenodd" d="M41.204 30.7038V30.6031H40.9023V30.7038H41.204Z" fill="#9D9E9E"/>
<path fill-rule="evenodd" clip-rule="evenodd" d="M30.5029 34.902H30.6035V34.6002H30.5029V34.902Z" fill="#9D9E9E"/>
<path fill-rule="evenodd" clip-rule="evenodd" d="M49.0977 36.8969H49.1982V36.5953H49.0977V36.8969Z" fill="#9D9E9E"/>
<path fill-rule="evenodd" clip-rule="evenodd" d="M30.2011 39.201V39.1005H29.8994V39.201H30.2011Z" fill="#9D9E9E"/>
<path fill-rule="evenodd" clip-rule="evenodd" d="M46.9022 39.6957V39.6034H46.6006V39.6957H46.9022Z" fill="#9D9E9E"/>
<path fill-rule="evenodd" clip-rule="evenodd" d="M7.80176 9.60377H7.90231V9.302H7.80176V9.60377Z" fill="#9D9E9E"/>
<path fill-rule="evenodd" clip-rule="evenodd" d="M55.0977 28.8019H55.1982V28.5001H55.0977V28.8019Z" fill="#9D9E9E"/>
<path fill-rule="evenodd" clip-rule="evenodd" d="M5.80752 46.1986V46.0979H5.50586V46.1986H5.80752Z" fill="#9D9E9E"/>
<path fill-rule="evenodd" clip-rule="evenodd" d="M55.0977 34.5H55.1982V34.1982H55.0977V34.5Z" fill="#9D9E9E"/>
<path fill-rule="evenodd" clip-rule="evenodd" d="M7.80176 28.8019H7.90231V28.5001H7.80176V28.8019Z" fill="#9D9E9E"/>
<path fill-rule="evenodd" clip-rule="evenodd" d="M24.9053 42.5946H25.0058V42.3013H24.9053V42.5946Z" fill="#9D9E9E"/>
<path fill-rule="evenodd" clip-rule="evenodd" d="M42.704 38.1034V38.003H42.4023V38.1034H42.704Z" fill="#9D9E9E"/>
<path fill-rule="evenodd" clip-rule="evenodd" d="M16.9022 23.1952V23.103H16.6006V23.1952H16.9022Z" fill="#9D9E9E"/>
<path fill-rule="evenodd" clip-rule="evenodd" d="M26.0028 39.0001V38.8997H25.7012V39.0001H26.0028Z" fill="#9D9E9E"/>
<path fill-rule="evenodd" clip-rule="evenodd" d="M30.1005 48.8966V48.796H29.7988V48.8966H30.1005Z" fill="#9D9E9E"/>
<path fill-rule="evenodd" clip-rule="evenodd" d="M41.8993 39.8966V39.7959H41.5977V39.8966H41.8993Z" fill="#9D9E9E"/>
<path fill-rule="evenodd" clip-rule="evenodd" d="M46.3993 39.8966V39.7959H46.0977V39.8966H46.3993Z" fill="#9D9E9E"/>
<path fill-rule="evenodd" clip-rule="evenodd" d="M14.1035 30.1005H14.2041V29.7988H14.1035V30.1005Z" fill="#9D9E9E"/>
<path fill-rule="evenodd" clip-rule="evenodd" d="M55.0977 53.7988H55.1982V53.497H55.0977V53.7988Z" fill="#9D9E9E"/>
<path fill-rule="evenodd" clip-rule="evenodd" d="M38.0029 20.6985H38.1035V20.3967H38.0029V20.6985Z" fill="#9D9E9E"/>
<path fill-rule="evenodd" clip-rule="evenodd" d="M16.7012 32.103H16.8017V31.9019H16.7012V32.103Z" fill="#9D9E9E"/>
<path fill-rule="evenodd" clip-rule="evenodd" d="M5.10345 21.7037V21.603H4.90234V21.7037H5.10345Z" fill="#9D9E9E"/>
<path fill-rule="evenodd" clip-rule="evenodd" d="M33.3017 21.7037V21.603H33.1006V21.7037H33.3017Z" fill="#9D9E9E"/>
<path fill-rule="evenodd" clip-rule="evenodd" d="M46.1982 37.5H46.2988V37.2989H46.1982V37.5Z" fill="#9D9E9E"/>
<path fill-rule="evenodd" clip-rule="evenodd" d="M61.2988 47.1952V47.0948H61.0977V47.1952H61.2988Z" fill="#9D9E9E"/>
<path fill-rule="evenodd" clip-rule="evenodd" d="M29.3046 30.1009V30.0002H29.1035V30.1009H29.3046Z" fill="#9D9E9E"/>
<path fill-rule="evenodd" clip-rule="evenodd" d="M46.098 37.7007V37.6002H45.9053V37.7007H46.098Z" fill="#9D9E9E"/>
<path fill-rule="evenodd" clip-rule="evenodd" d="M26.6064 47.1952V47.0948H26.4053V47.1952H26.6064Z" fill="#9D9E9E"/>
<path fill-rule="evenodd" clip-rule="evenodd" d="M22.0059 1.39972H22.1064V1.19861H22.0059V1.39972Z" fill="#9D9E9E"/>
<path fill-rule="evenodd" clip-rule="evenodd" d="M42.4023 37.9016V37.8011H42.2012V37.9016H42.4023Z" fill="#9D9E9E"/>
<path fill-rule="evenodd" clip-rule="evenodd" d="M16.1064 4.6004H16.1986V4.39929H16.1064V4.6004Z" fill="#9D9E9E"/>
<path fill-rule="evenodd" clip-rule="evenodd" d="M22.0059 4.6004H22.1064V4.39929H22.0059V4.6004Z" fill="#9D9E9E"/>
<path fill-rule="evenodd" clip-rule="evenodd" d="M4.90228 21.7957V21.7037H4.70117V21.7957H4.90228Z" fill="#9D9E9E"/>
<path fill-rule="evenodd" clip-rule="evenodd" d="M46.6006 30.7958V30.7037H46.3994V30.7958H46.6006Z" fill="#9D9E9E"/>
<path fill-rule="evenodd" clip-rule="evenodd" d="M29.8994 41.3965V41.2958H29.6982V41.3965H29.8994Z" fill="#9D9E9E"/>
<path fill-rule="evenodd" clip-rule="evenodd" d="M33.503 21.7957V21.7037H33.3018V21.7957H33.503Z" fill="#9D9E9E"/>
<path fill-rule="evenodd" clip-rule="evenodd" d="M16.7011 7.29908V7.19843H16.5V7.29908H16.7011Z" fill="#9D9E9E"/>
<path fill-rule="evenodd" clip-rule="evenodd" d="M21.704 7.29908V7.19843H21.5029V7.29908H21.704Z" fill="#9D9E9E"/>
<path fill-rule="evenodd" clip-rule="evenodd" d="M41.4974 7.29908V7.19843H41.3047V7.29908H41.4974Z" fill="#9D9E9E"/>
<path fill-rule="evenodd" clip-rule="evenodd" d="M46.4999 7.29908V7.19843H46.2988V7.29908H46.4999Z" fill="#9D9E9E"/>
<path fill-rule="evenodd" clip-rule="evenodd" d="M29.6976 41.296V41.1956H29.5049V41.296H29.6976Z" fill="#9D9E9E"/>
<path fill-rule="evenodd" clip-rule="evenodd" d="M25.7011 39.201V39.1005H25.5V39.201H25.7011Z" fill="#9D9E9E"/>
<path fill-rule="evenodd" clip-rule="evenodd" d="M39.1006 22.4999H39.2011V22.2988H39.1006V22.4999Z" fill="#9D9E9E"/>
<path fill-rule="evenodd" clip-rule="evenodd" d="M58.6005 47.0029V46.9022H58.3994V47.0029H58.6005Z" fill="#9D9E9E"/>
<path fill-rule="evenodd" clip-rule="evenodd" d="M58.6005 41.0026V40.902H58.3994V41.0026H58.6005Z" fill="#9D9E9E"/>
<path fill-rule="evenodd" clip-rule="evenodd" d="M40.7011 39.3015V39.2008H40.5V39.3015H40.7011Z" fill="#9D9E9E"/>
<path fill-rule="evenodd" clip-rule="evenodd" d="M33.9052 30.1009V30.0002H33.7041V30.1009H33.9052Z" fill="#9D9E9E"/>
<path fill-rule="evenodd" clip-rule="evenodd" d="M61.9023 41.296V41.1956H61.7012V41.296H61.9023Z" fill="#9D9E9E"/>
<path fill-rule="evenodd" clip-rule="evenodd" d="M37.098 21.7957V21.7037H36.9053V21.7957H37.098Z" fill="#9D9E9E"/>
<path fill-rule="evenodd" clip-rule="evenodd" d="M26.204 46.9021V46.8016H26.0029V46.9021H26.204Z" fill="#9D9E9E"/>
<path fill-rule="evenodd" clip-rule="evenodd" d="M38.1035 23.4973H38.2041V23.3046H38.1035V23.4973Z" fill="#9D9E9E"/>
<path fill-rule="evenodd" clip-rule="evenodd" d="M4.60052 46.9021V46.8016H4.39941V46.9021H4.60052Z" fill="#9D9E9E"/>
<path fill-rule="evenodd" clip-rule="evenodd" d="M22.4999 23.7985V23.6979H22.2988V23.7985H22.4999Z" fill="#9D9E9E"/>
<path fill-rule="evenodd" clip-rule="evenodd" d="M37.8018 14.3044V14.2039H37.6006V14.3044H37.8018Z" fill="#9D9E9E"/>
<path fill-rule="evenodd" clip-rule="evenodd" d="M61.9023 46.8015V46.7008H61.7012V46.8015H61.9023Z" fill="#9D9E9E"/>
<path fill-rule="evenodd" clip-rule="evenodd" d="M36.6035 15.8966V15.7961H36.4023V15.8966H36.6035Z" fill="#9D9E9E"/>
<path fill-rule="evenodd" clip-rule="evenodd" d="M61.3994 15.8966V15.7961H61.1982V15.8966H61.3994Z" fill="#9D9E9E"/>
<path fill-rule="evenodd" clip-rule="evenodd" d="M4.60052 16.098V15.9974H4.39941V16.098H4.60052Z" fill="#9D9E9E"/>
<path fill-rule="evenodd" clip-rule="evenodd" d="M58.6005 16.0981V15.9974H58.3994V16.0981H58.6005Z" fill="#9D9E9E"/>
<path fill-rule="evenodd" clip-rule="evenodd" d="M46.6006 39.7959V39.6955H46.3994V39.7959H46.6006Z" fill="#9D9E9E"/>
<path fill-rule="evenodd" clip-rule="evenodd" d="M16.6006 25.7012H16.7011V25.5001H16.6006V25.7012Z" fill="#9D9E9E"/>
<path fill-rule="evenodd" clip-rule="evenodd" d="M36.9964 16.1985V16.098H36.8037V16.1985H36.9964Z" fill="#9D9E9E"/>
<path fill-rule="evenodd" clip-rule="evenodd" d="M20.7992 0.201099V0.100647H20.6064V0.201099H20.7992Z" fill="#9D9E9E"/>
<path fill-rule="evenodd" clip-rule="evenodd" d="M61.8017 16.1985V16.098H61.6006V16.1985H61.8017Z" fill="#9D9E9E"/>
<path fill-rule="evenodd" clip-rule="evenodd" d="M47.1035 34.1983H47.2041V33.9972H47.1035V34.1983Z" fill="#9D9E9E"/>
<path fill-rule="evenodd" clip-rule="evenodd" d="M29.8994 46.7008V46.6003H29.6982V46.7008H29.8994Z" fill="#9D9E9E"/>
<path fill-rule="evenodd" clip-rule="evenodd" d="M58.1982 16.2991V16.1985H57.9971V16.2991H58.1982Z" fill="#9D9E9E"/>
<path fill-rule="evenodd" clip-rule="evenodd" d="M5.00287 46.7008V46.6003H4.80176V46.7008H5.00287Z" fill="#9D9E9E"/>
<path fill-rule="evenodd" clip-rule="evenodd" d="M32.0029 41.7989V41.6982H31.8018V41.7989H32.0029Z" fill="#9D9E9E"/>
<path fill-rule="evenodd" clip-rule="evenodd" d="M33.3017 16.3996V16.2991H33.1006V16.3996H33.3017Z" fill="#9D9E9E"/>
<path fill-rule="evenodd" clip-rule="evenodd" d="M42.4023 62.8993V62.7988H42.2012V62.8993H42.4023Z" fill="#9D9E9E"/>
<path fill-rule="evenodd" clip-rule="evenodd" d="M41.9999 62.6982V62.5977H41.7988V62.6982H41.9999Z" fill="#9D9E9E"/>
<path fill-rule="evenodd" clip-rule="evenodd" d="M41.6982 62.5977H41.7988V62.3966H41.6982V62.5977Z" fill="#9D9E9E"/>
<path fill-rule="evenodd" clip-rule="evenodd" d="M21.6035 62.0947H21.7041V61.8936H21.6035V62.0947Z" fill="#9D9E9E"/>
<path fill-rule="evenodd" clip-rule="evenodd" d="M14.2041 30.3016H14.3047V30.1005H14.2041V30.3016Z" fill="#9D9E9E"/>
<path fill-rule="evenodd" clip-rule="evenodd" d="M40.9023 61.8016H41.0029V61.6005H40.9023V61.8016Z" fill="#9D9E9E"/>
<path fill-rule="evenodd" clip-rule="evenodd" d="M54.2011 29.8994V29.7988H54V29.8994H54.2011Z" fill="#9D9E9E"/>
<path fill-rule="evenodd" clip-rule="evenodd" d="M22.0059 61.7009H22.1064V61.4998H22.0059V61.7009Z" fill="#9D9E9E"/>
<path fill-rule="evenodd" clip-rule="evenodd" d="M5.5058 16.7011V16.6005H5.30469V16.7011H5.5058Z" fill="#9D9E9E"/>
<path fill-rule="evenodd" clip-rule="evenodd" d="M21.2011 0.401966V0.301514H21V0.401966H21.2011Z" fill="#9D9E9E"/>
<path fill-rule="evenodd" clip-rule="evenodd" d="M32.8994 16.7011V16.6005H32.6982V16.7011H32.8994Z" fill="#9D9E9E"/>
<path fill-rule="evenodd" clip-rule="evenodd" d="M17.204 25.2988V25.1982H17.0029V25.2988H17.204Z" fill="#9D9E9E"/>
<path fill-rule="evenodd" clip-rule="evenodd" d="M5.40521 41.4968V41.3963H5.2041V41.4968H5.40521Z" fill="#9D9E9E"/>
<path fill-rule="evenodd" clip-rule="evenodd" d="M29.003 32.7991V32.6985H28.8018V32.7991H29.003Z" fill="#9D9E9E"/>
<path fill-rule="evenodd" clip-rule="evenodd" d="M57.7041 16.7011V16.6005H57.5029V16.7011H57.7041Z" fill="#9D9E9E"/>
<path fill-rule="evenodd" clip-rule="evenodd" d="M57.7041 46.3994V46.2988H57.5029V46.3994H57.7041Z" fill="#9D9E9E"/>
<path fill-rule="evenodd" clip-rule="evenodd" d="M7.20697 16.8016V16.7011H7.00586V16.8016H7.20697Z" fill="#9D9E9E"/>
<path fill-rule="evenodd" clip-rule="evenodd" d="M46.8018 58.6003H46.9023V58.3992H46.8018V58.6003Z" fill="#9D9E9E"/>
<path fill-rule="evenodd" clip-rule="evenodd" d="M56.0029 16.8016V16.7011H55.8018V16.8016H56.0029Z" fill="#9D9E9E"/>
<path fill-rule="evenodd" clip-rule="evenodd" d="M29.4052 33.0003V32.8996H29.2041V33.0003H29.4052Z" fill="#9D9E9E"/>
<path fill-rule="evenodd" clip-rule="evenodd" d="M33.9052 33.0003V32.8996H33.7041V33.0003H33.9052Z" fill="#9D9E9E"/>
<path fill-rule="evenodd" clip-rule="evenodd" d="M22.1064 58.7009H22.207V58.4998H22.1064V58.7009Z" fill="#9D9E9E"/>
<path fill-rule="evenodd" clip-rule="evenodd" d="M8.99994 29.8994V29.7988H8.79883V29.8994H8.99994Z" fill="#9D9E9E"/>
<path fill-rule="evenodd" clip-rule="evenodd" d="M32.0029 46.2988V46.1984H31.8018V46.2988H32.0029Z" fill="#9D9E9E"/>
<path fill-rule="evenodd" clip-rule="evenodd" d="M22.0059 58.4998H22.1064V58.2987H22.0059V58.4998Z" fill="#9D9E9E"/>
<path fill-rule="evenodd" clip-rule="evenodd" d="M46.4999 55.8017V55.701H46.2988V55.8017H46.4999Z" fill="#9D9E9E"/>
<path fill-rule="evenodd" clip-rule="evenodd" d="M41.4974 55.8017V55.701H41.3047V55.8017H41.4974Z" fill="#9D9E9E"/>
<path fill-rule="evenodd" clip-rule="evenodd" d="M29.6976 33.3014V33.2009H29.5049V33.3014H29.6976Z" fill="#9D9E9E"/>
<path fill-rule="evenodd" clip-rule="evenodd" d="M5.5058 46.2988V46.1984H5.30469V46.2988H5.5058Z" fill="#9D9E9E"/>
<path fill-rule="evenodd" clip-rule="evenodd" d="M21.6035 55.8017V55.701H21.4023V55.8017H21.6035Z" fill="#9D9E9E"/>
<path fill-rule="evenodd" clip-rule="evenodd" d="M16.6005 55.701V55.6006H16.3994V55.701H16.6005Z" fill="#9D9E9E"/>
<path fill-rule="evenodd" clip-rule="evenodd" d="M21.2012 0.603452H21.3017V0.402344H21.2012V0.603452Z" fill="#9D9E9E"/>
<path fill-rule="evenodd" clip-rule="evenodd" d="M58.6005 22.0977V21.9971H58.3994V22.0977H58.6005Z" fill="#9D9E9E"/>
<path fill-rule="evenodd" clip-rule="evenodd" d="M29.6064 54.5951H29.6986V54.4024H29.6064V54.5951Z" fill="#9D9E9E"/>
<path fill-rule="evenodd" clip-rule="evenodd" d="M30 54.2007H30.1006V53.9996H30V54.2007Z" fill="#9D9E9E"/>
<path fill-rule="evenodd" clip-rule="evenodd" d="M40.9023 58.6003H41.0029V58.3992H40.9023V58.6003Z" fill="#9D9E9E"/>
<path fill-rule="evenodd" clip-rule="evenodd" d="M37.6005 23.7985V23.6979H37.3994V23.7985H37.6005Z" fill="#9D9E9E"/>
<path fill-rule="evenodd" clip-rule="evenodd" d="M62.5977 42.2009H62.6982V41.9998H62.5977V42.2009Z" fill="#9D9E9E"/>
<path fill-rule="evenodd" clip-rule="evenodd" d="M61.6005 22.0977V21.9971H61.3994V22.0977H61.6005Z" fill="#9D9E9E"/>
<path fill-rule="evenodd" clip-rule="evenodd" d="M57.5019 46.2988V46.1984H57.3008V46.2988H57.5019Z" fill="#9D9E9E"/>
<path fill-rule="evenodd" clip-rule="evenodd" d="M5.30462 46.3994V46.2988H5.10352V46.3994H5.30462Z" fill="#9D9E9E"/>
<path fill-rule="evenodd" clip-rule="evenodd" d="M5.00293 46.6005H5.10348V46.3994H5.00293V46.6005Z" fill="#9D9E9E"/>
<path fill-rule="evenodd" clip-rule="evenodd" d="M25.9023 46.7008V46.6003H25.7012V46.7008H25.9023Z" fill="#9D9E9E"/>
<path fill-rule="evenodd" clip-rule="evenodd" d="M4.8018 46.8015V46.7008H4.60059V46.8015H4.8018Z" fill="#9D9E9E"/>
<path fill-rule="evenodd" clip-rule="evenodd" d="M26.4052 47.0029V46.9022H26.2041V47.0029H26.4052Z" fill="#9D9E9E"/>
<path fill-rule="evenodd" clip-rule="evenodd" d="M21.2012 31.9022H21.3017V31.701H21.2012V31.9022Z" fill="#9D9E9E"/>
<path fill-rule="evenodd" clip-rule="evenodd" d="M62.1036 21.7037V21.603H61.9023V21.7037H62.1036Z" fill="#9D9E9E"/>
<path fill-rule="evenodd" clip-rule="evenodd" d="M24.2011 47.7987V47.6982H24V47.7987H24.2011Z" fill="#9D9E9E"/>
<path fill-rule="evenodd" clip-rule="evenodd" d="M24.3018 48.1003H24.4023V47.8992H24.3018V48.1003Z" fill="#9D9E9E"/>
<path fill-rule="evenodd" clip-rule="evenodd" d="M16.0059 1.60077H16.1064V1.39966H16.0059V1.60077Z" fill="#9D9E9E"/>
<path fill-rule="evenodd" clip-rule="evenodd" d="M22.1064 1.60077H22.207V1.39966H22.1064V1.60077Z" fill="#9D9E9E"/>
<path fill-rule="evenodd" clip-rule="evenodd" d="M24.6036 48.2009V48.1004H24.4023V48.2009H24.6036Z" fill="#9D9E9E"/>
<path fill-rule="evenodd" clip-rule="evenodd" d="M57.8968 21.6033V21.5028H57.7041V21.6033H57.8968Z" fill="#9D9E9E"/>
<path fill-rule="evenodd" clip-rule="evenodd" d="M33.1005 21.6033V21.5028H32.8994V21.6033H33.1005Z" fill="#9D9E9E"/>
<path fill-rule="evenodd" clip-rule="evenodd" d="M21.5029 7.19862V7.09796H21.3018V7.19862H21.5029Z" fill="#9D9E9E"/>
<path fill-rule="evenodd" clip-rule="evenodd" d="M5.30462 21.6033V21.5028H5.10352V21.6033H5.30462Z" fill="#9D9E9E"/>
<path fill-rule="evenodd" clip-rule="evenodd" d="M16.4999 7.39971V7.29926H16.2988V7.39971H16.4999Z" fill="#9D9E9E"/>
<path fill-rule="evenodd" clip-rule="evenodd" d="M21.9052 7.39971V7.29926H21.7041V7.39971H21.9052Z" fill="#9D9E9E"/>
<path fill-rule="evenodd" clip-rule="evenodd" d="M55.7012 21.5032H55.8017V21.3021H55.7012V21.5032Z" fill="#9D9E9E"/>
<path fill-rule="evenodd" clip-rule="evenodd" d="M32.7988 21.5032H32.8994V21.3021H32.7988V21.5032Z" fill="#9D9E9E"/>
<path fill-rule="evenodd" clip-rule="evenodd" d="M37.6005 21.3017V21.201H37.3994V21.3017H37.6005Z" fill="#9D9E9E"/>
<path fill-rule="evenodd" clip-rule="evenodd" d="M34.0058 8.10401V8.00336H33.8047V8.10401H34.0058Z" fill="#9D9E9E"/>
<path fill-rule="evenodd" clip-rule="evenodd" d="M41.3046 55.701V55.6006H41.1035V55.701H41.3046Z" fill="#9D9E9E"/>
<path fill-rule="evenodd" clip-rule="evenodd" d="M8.89975 8.30476V8.2041H8.70703V8.30476H8.89975Z" fill="#9D9E9E"/>
<path fill-rule="evenodd" clip-rule="evenodd" d="M29.5058 8.30476V8.2041H29.3047V8.30476H29.5058Z" fill="#9D9E9E"/>
<path fill-rule="evenodd" clip-rule="evenodd" d="M46.7012 55.701V55.6006H46.5V55.701H46.7012Z" fill="#9D9E9E"/>
<path fill-rule="evenodd" clip-rule="evenodd" d="M41.6982 55.9024V55.8017H41.4971V55.9024H41.6982Z" fill="#9D9E9E"/>
<path fill-rule="evenodd" clip-rule="evenodd" d="M62.2031 21.5032H62.2953V21.3021H62.2031V21.5032Z" fill="#9D9E9E"/>
<path fill-rule="evenodd" clip-rule="evenodd" d="M62.1035 16.6003H62.2041V16.3992H62.1035V16.6003Z" fill="#9D9E9E"/>
<path fill-rule="evenodd" clip-rule="evenodd" d="M40.8018 61.6005H40.9023V61.3994H40.8018V61.6005Z" fill="#9D9E9E"/>
<path fill-rule="evenodd" clip-rule="evenodd" d="M33.2011 14.1035V14.0031H33V14.1035H33.2011Z" fill="#9D9E9E"/>
<path fill-rule="evenodd" clip-rule="evenodd" d="M46.9023 61.6005H47.0029V61.3994H46.9023V61.6005Z" fill="#9D9E9E"/>
<path fill-rule="evenodd" clip-rule="evenodd" d="M21.5029 62.296V62.1954H21.3018V62.296H21.5029Z" fill="#9D9E9E"/>
<path fill-rule="evenodd" clip-rule="evenodd" d="M39.1006 15.6036H39.2011V15.4025H39.1006V15.6036Z" fill="#9D9E9E"/>
<path fill-rule="evenodd" clip-rule="evenodd" d="M61.6005 16.0981V15.9974H61.3994V16.0981H61.6005Z" fill="#9D9E9E"/>
<path fill-rule="evenodd" clip-rule="evenodd" d="M33.6035 16.1985V16.098H33.4023V16.1985H33.6035Z" fill="#9D9E9E"/>
<path fill-rule="evenodd" clip-rule="evenodd" d="M58.3994 16.1985V16.098H58.1982V16.1985H58.3994Z" fill="#9D9E9E"/>
<path fill-rule="evenodd" clip-rule="evenodd" d="M20.9999 62.6982V62.5977H20.7988V62.6982H20.9999Z" fill="#9D9E9E"/>
<path fill-rule="evenodd" clip-rule="evenodd" d="M37.1982 16.2991V16.1985H36.9971V16.2991H37.1982Z" fill="#9D9E9E"/>
<path fill-rule="evenodd" clip-rule="evenodd" d="M32.8994 16.6003H33V16.3992H32.8994V16.6003Z" fill="#9D9E9E"/>
<path fill-rule="evenodd" clip-rule="evenodd" d="M33.704 54.7961V54.6954H33.5029V54.7961H33.704Z" fill="#9D9E9E"/>
<path fill-rule="evenodd" clip-rule="evenodd" d="M33.6035 29.7986V29.6981H33.4023V29.7986H33.6035Z" fill="#9D9E9E"/>
<path fill-rule="evenodd" clip-rule="evenodd" d="M29.6064 29.7986V29.6981H29.4053V29.7986H29.6064Z" fill="#9D9E9E"/>
<path fill-rule="evenodd" clip-rule="evenodd" d="M29.204 32.8992V32.7988H29.0029V32.8992H29.204Z" fill="#9D9E9E"/>
<path fill-rule="evenodd" clip-rule="evenodd" d="M53.8994 32.8992V32.7988H53.6982V32.8992H53.8994Z" fill="#9D9E9E"/>
<path fill-rule="evenodd" clip-rule="evenodd" d="M8.89975 33.201V33.1003H8.70703V33.201H8.89975Z" fill="#9D9E9E"/>
<path fill-rule="evenodd" clip-rule="evenodd" d="M33.6035 33.3014V33.2009H33.4023V33.3014H33.6035Z" fill="#9D9E9E"/>
<path fill-rule="evenodd" clip-rule="evenodd" d="M34.098 30.2009V30.1005H33.9053V30.2009H34.098Z" fill="#9D9E9E"/>
<path fill-rule="evenodd" clip-rule="evenodd" d="M45.9052 37.8013V37.7007H45.7041V37.8013H45.9052Z" fill="#9D9E9E"/>
<path fill-rule="evenodd" clip-rule="evenodd" d="M30.1006 29.1028H30.2011V28.9017H30.1006V29.1028Z" fill="#9D9E9E"/>
<path fill-rule="evenodd" clip-rule="evenodd" d="M40.3994 39.1004V38.9998H40.1982V39.1004H40.3994Z" fill="#9D9E9E"/>
<path fill-rule="evenodd" clip-rule="evenodd" d="M29.1036 30.2009V30.1005H28.9023V30.2009H29.1036Z" fill="#9D9E9E"/>
<path fill-rule="evenodd" clip-rule="evenodd" d="M47.598 39.201V39.1006H47.4053V39.201H47.598Z" fill="#9D9E9E"/>
<path fill-rule="evenodd" clip-rule="evenodd" d="M30.4023 39.3015V39.2008H30.2012V39.3015H30.4023Z" fill="#9D9E9E"/>
<path fill-rule="evenodd" clip-rule="evenodd" d="M15.8047 26.7984H15.9052V26.5973H15.8047V26.7984Z" fill="#9D9E9E"/>
<path fill-rule="evenodd" clip-rule="evenodd" d="M47.1035 39.6032V39.5027H46.9023V39.6032H47.1035Z" fill="#9D9E9E"/>
<path fill-rule="evenodd" clip-rule="evenodd" d="M41.3046 39.6957V39.6034H41.1035V39.6957H41.3046Z" fill="#9D9E9E"/>
<path fill-rule="evenodd" clip-rule="evenodd" d="M17.0029 25.3993V25.2988H16.8018V25.3993H17.0029Z" fill="#9D9E9E"/>
<path fill-rule="evenodd" clip-rule="evenodd" d="M17.4052 25.1984V25.0979H17.2041V25.1984H17.4052Z" fill="#9D9E9E"/>
<path fill-rule="evenodd" clip-rule="evenodd" d="M4.70121 41.0026V40.902H4.5V41.0026H4.70121Z" fill="#9D9E9E"/>
<path fill-rule="evenodd" clip-rule="evenodd" d="M26.4052 41.0026V40.902H26.2041V41.0026H26.4052Z" fill="#9D9E9E"/>
<path fill-rule="evenodd" clip-rule="evenodd" d="M34.098 32.8992V32.7988H33.9053V32.8992H34.098Z" fill="#9D9E9E"/>
<path fill-rule="evenodd" clip-rule="evenodd" d="M30.1005 41.4968V41.3963H29.8994V41.4968H30.1005Z" fill="#9D9E9E"/>
<path fill-rule="evenodd" clip-rule="evenodd" d="M57.8968 41.4968V41.3963H57.7041V41.4968H57.8968Z" fill="#9D9E9E"/>
<path fill-rule="evenodd" clip-rule="evenodd" d="M30.1006 41.6981H30.2011V41.4969H30.1006V41.6981Z" fill="#9D9E9E"/>
<path fill-rule="evenodd" clip-rule="evenodd" d="M33.2011 23.8995V23.7991H33V23.8995H33.2011Z" fill="#9D9E9E"/>
<path fill-rule="evenodd" clip-rule="evenodd" d="M34.1986 7.90217V7.80151H34.0059V7.90217H34.1986Z" fill="#9D9E9E"/>
<path fill-rule="evenodd" clip-rule="evenodd" d="M28.8017 55.1981V55.0974H28.6006V55.1981H28.8017Z" fill="#9D9E9E"/>
<path fill-rule="evenodd" clip-rule="evenodd" d="M47.3046 39.4019V39.3015H47.1035V39.4019H47.3046Z" fill="#9D9E9E"/>
<path fill-rule="evenodd" clip-rule="evenodd" d="M17.6064 24.9974V24.897H17.4053V24.9974H17.6064Z" fill="#9D9E9E"/>
<path fill-rule="evenodd" clip-rule="evenodd" d="M33.503 8.39657V8.3045H33.3018V8.39657H33.503Z" fill="#9D9E9E"/>
<path fill-rule="evenodd" clip-rule="evenodd" d="M55.0977 9.60378H55.1982V9.40247H55.0977V9.60378Z" fill="#9D9E9E"/>
<path fill-rule="evenodd" clip-rule="evenodd" d="M9.60345 55.1981V55.0974H9.40234V55.1981H9.60345Z" fill="#9D9E9E"/>
<path fill-rule="evenodd" clip-rule="evenodd" d="M15.9053 23.6981V23.5977H15.7041V23.6981H15.9053Z" fill="#9D9E9E"/>
<path fill-rule="evenodd" clip-rule="evenodd" d="M24.9053 45.5948H25.0058V45.4021H24.9053V45.5948Z" fill="#9D9E9E"/>
<path fill-rule="evenodd" clip-rule="evenodd" d="M20.6986 24.9974V24.897H20.5059V24.9974H20.6986Z" fill="#9D9E9E"/>
<path fill-rule="evenodd" clip-rule="evenodd" d="M4.90228 41.1954V41.0947H4.70117V41.1954H4.90228Z" fill="#9D9E9E"/>
<path fill-rule="evenodd" clip-rule="evenodd" d="M46.6006 62.0947H46.7011V61.8936H46.6006V62.0947Z" fill="#9D9E9E"/>
<path fill-rule="evenodd" clip-rule="evenodd" d="M61.8017 21.897V21.7964H61.6006V21.897H61.8017Z" fill="#9D9E9E"/>
<path fill-rule="evenodd" clip-rule="evenodd" d="M16.2988 1.09775H16.3994V0.905029H16.2988V1.09775Z" fill="#9D9E9E"/>
<path fill-rule="evenodd" clip-rule="evenodd" d="M16.7011 32.1953V32.103H16.5V32.1953H16.7011Z" fill="#9D9E9E"/>
<path fill-rule="evenodd" clip-rule="evenodd" d="M7.80176 53.5977H7.90231V53.3964H7.80176V53.5977Z" fill="#9D9E9E"/>
<path fill-rule="evenodd" clip-rule="evenodd" d="M38.0029 17.5982H38.1035V17.3971H38.0029V17.5982Z" fill="#9D9E9E"/>
<path fill-rule="evenodd" clip-rule="evenodd" d="M34.1986 55.1981V55.0974H34.0059V55.1981H34.1986Z" fill="#9D9E9E"/>
<path fill-rule="evenodd" clip-rule="evenodd" d="M9.50287 7.90217V7.80151H9.30176V7.90217H9.50287Z" fill="#9D9E9E"/>
<path fill-rule="evenodd" clip-rule="evenodd" d="M29.003 7.90217V7.80151H28.8018V7.90217H29.003Z" fill="#9D9E9E"/>
<path fill-rule="evenodd" clip-rule="evenodd" d="M20.9999 0.30134V0.200684H20.7988V0.30134H20.9999Z" fill="#9D9E9E"/>
<path fill-rule="evenodd" clip-rule="evenodd" d="M45.4023 38.1034V38.003H45.2012V38.1034H45.4023Z" fill="#9D9E9E"/>
<path fill-rule="evenodd" clip-rule="evenodd" d="M45.9052 62.7988V62.6982H45.7041V62.7988H45.9052Z" fill="#9D9E9E"/>
<path fill-rule="evenodd" clip-rule="evenodd" d="M57.8047 46.6005H57.8969V46.3994H57.8047V46.6005Z" fill="#9D9E9E"/>
<path fill-rule="evenodd" clip-rule="evenodd" d="M42.2012 62.7988V62.6982H42V62.7988H42.2012Z" fill="#9D9E9E"/>
<path fill-rule="evenodd" clip-rule="evenodd" d="M21.5029 0.704111V0.603455H21.3018V0.704111H21.5029Z" fill="#9D9E9E"/>
<path fill-rule="evenodd" clip-rule="evenodd" d="M46.2988 0.704111V0.603455H46.0977V0.704111H46.2988Z" fill="#9D9E9E"/>
<path fill-rule="evenodd" clip-rule="evenodd" d="M41.6982 62.3967V62.296H41.4971V62.3967H41.6982Z" fill="#9D9E9E"/>
<path fill-rule="evenodd" clip-rule="evenodd" d="M29.5058 41.1954V41.0947H29.3047V41.1954H29.5058Z" fill="#9D9E9E"/>
<path fill-rule="evenodd" clip-rule="evenodd" d="M17.2011 62.472V62.3713H17V62.472H17.2011Z" fill="#9D9E9E"/>
<path fill-rule="evenodd" clip-rule="evenodd" d="M29.6064 54.6952V54.5947H29.4053V54.6952H29.6064Z" fill="#9D9E9E"/>
<path fill-rule="evenodd" clip-rule="evenodd" d="M30.8047 16.6003H30.9052V16.3992H30.8047V16.6003Z" fill="#9D9E9E"/>
<path fill-rule="evenodd" clip-rule="evenodd" d="M17.3046 0.30134V0.200684H17.1035V0.30134H17.3046Z" fill="#9D9E9E"/>
<path fill-rule="evenodd" clip-rule="evenodd" d="M37.6005 14.2041V14.1035H37.3994V14.2041H37.6005Z" fill="#9D9E9E"/>
<path fill-rule="evenodd" clip-rule="evenodd" d="M57.8047 16.6003H57.8969V16.3992H57.8047V16.6003Z" fill="#9D9E9E"/>
<path fill-rule="evenodd" clip-rule="evenodd" d="M33.704 21.897V21.7964H33.5029V21.897H33.704Z" fill="#9D9E9E"/>
<path fill-rule="evenodd" clip-rule="evenodd" d="M17.1026 0.40109V0.301514H17.0029V0.40109H17.1026Z" fill="#9D9E9E"/>
<path fill-rule="evenodd" clip-rule="evenodd" d="M45.9044 0.40109V0.301514H45.8047V0.40109H45.9044Z" fill="#9D9E9E"/>
<path fill-rule="evenodd" clip-rule="evenodd" d="M41.8985 0.602384V0.502808H41.7988V0.602384H41.8985Z" fill="#9D9E9E"/>
<path fill-rule="evenodd" clip-rule="evenodd" d="M45.9966 62.6973V62.5977H45.9053V62.6973H45.9966Z" fill="#9D9E9E"/>
<path fill-rule="evenodd" clip-rule="evenodd" d="M16.7003 0.804064V0.704285H16.6006V0.804064H16.7003Z" fill="#9D9E9E"/>
<path fill-rule="evenodd" clip-rule="evenodd" d="M21.6026 0.804064V0.704285H21.5029V0.804064H21.6026Z" fill="#9D9E9E"/>
<path fill-rule="evenodd" clip-rule="evenodd" d="M46.3985 0.804064V0.704285H46.2988V0.804064H46.3985Z" fill="#9D9E9E"/>
<path fill-rule="evenodd" clip-rule="evenodd" d="M16.5997 0.904508V0.804932H16.5V0.904508H16.5997Z" fill="#9D9E9E"/>
<path fill-rule="evenodd" clip-rule="evenodd" d="M21.7032 0.904508V0.804932H21.6035V0.904508H21.7032Z" fill="#9D9E9E"/>
<path fill-rule="evenodd" clip-rule="evenodd" d="M46.4991 0.904508V0.804932H46.3994V0.904508H46.4991Z" fill="#9D9E9E"/>
<path fill-rule="evenodd" clip-rule="evenodd" d="M16.5997 5.10271V5.00293H16.5V5.10271H16.5997Z" fill="#9D9E9E"/>
<path fill-rule="evenodd" clip-rule="evenodd" d="M46.4991 5.10271V5.00293H46.3994V5.10271H46.4991Z" fill="#9D9E9E"/>
<path fill-rule="evenodd" clip-rule="evenodd" d="M37.3985 16.5996V16.5H37.2988V16.5996H37.3985Z" fill="#9D9E9E"/>
<path fill-rule="evenodd" clip-rule="evenodd" d="M46.2979 7.19774V7.09796H46.1982V7.19774H46.2979Z" fill="#9D9E9E"/>
<path fill-rule="evenodd" clip-rule="evenodd" d="M4.49909 22.0968V21.9971H4.39941V22.0968H4.49909Z" fill="#9D9E9E"/>
<path fill-rule="evenodd" clip-rule="evenodd" d="M29.3038 8.20321V8.10364H29.2041V8.20321H29.3038Z" fill="#9D9E9E"/>
<path fill-rule="evenodd" clip-rule="evenodd" d="M37.2979 16.3987V16.2991H37.1982V16.3987H37.2979Z" fill="#9D9E9E"/>
<path fill-rule="evenodd" clip-rule="evenodd" d="M16.8008 62.2952V62.1954H16.7012V62.2952H16.8008Z" fill="#9D9E9E"/>
<path fill-rule="evenodd" clip-rule="evenodd" d="M29.6978 8.49639V8.39661H29.6064V8.49639H29.6978Z" fill="#9D9E9E"/>
<path fill-rule="evenodd" clip-rule="evenodd" d="M39.0997 15.4017V15.3019H39V15.4017H39.0997Z" fill="#9D9E9E"/>
<path fill-rule="evenodd" clip-rule="evenodd" d="M33.4015 16.2983V16.1985H33.3018V16.2983H33.4015Z" fill="#9D9E9E"/>
<path fill-rule="evenodd" clip-rule="evenodd" d="M5.10261 16.3987V16.2991H5.00293V16.3987H5.10261Z" fill="#9D9E9E"/>
<path fill-rule="evenodd" clip-rule="evenodd" d="M15.2003 24.2006V24.1008H15.1006V24.2006H15.2003Z" fill="#9D9E9E"/>
<path fill-rule="evenodd" clip-rule="evenodd" d="M23.1026 24.3007V24.2011H23.0029V24.3007H23.1026Z" fill="#9D9E9E"/>
<path fill-rule="evenodd" clip-rule="evenodd" d="M61.9005 21.7949V21.7037H61.8008V21.7949H61.9005Z" fill="#9D9E9E"/>
<path fill-rule="evenodd" clip-rule="evenodd" d="M26.002 46.8006V46.7008H25.9023V46.8006H26.002Z" fill="#9D9E9E"/>
<path fill-rule="evenodd" clip-rule="evenodd" d="M21.7032 25.801V25.7014H21.6035V25.801H21.7032Z" fill="#9D9E9E"/>
<path fill-rule="evenodd" clip-rule="evenodd" d="M53.9991 30.1V30.0002H53.8994V30.1H53.9991Z" fill="#9D9E9E"/>
<path fill-rule="evenodd" clip-rule="evenodd" d="M24.8038 39.6949V39.6034H24.7041V39.6949H24.8038Z" fill="#9D9E9E"/>
<path fill-rule="evenodd" clip-rule="evenodd" d="M47.4044 39.3006V39.2008H47.3047V39.3006H47.4044Z" fill="#9D9E9E"/>
<path fill-rule="evenodd" clip-rule="evenodd" d="M40.4991 39.2002V39.1006H40.3994V39.2002H40.4991Z" fill="#9D9E9E"/>
<path fill-rule="evenodd" clip-rule="evenodd" d="M40.1973 38.8986V38.7988H40.0977V38.8986H40.1973Z" fill="#9D9E9E"/>
<path fill-rule="evenodd" clip-rule="evenodd" d="M8.40436 29.3957V29.2961H8.30469V29.3957H8.40436Z" fill="#9D9E9E"/>
<path fill-rule="evenodd" clip-rule="evenodd" d="M29.8985 29.3957V29.2961H29.7988V29.3957H29.8985Z" fill="#9D9E9E"/>
<path fill-rule="evenodd" clip-rule="evenodd" d="M54.7032 29.3957V29.2961H54.6035V29.3957H54.7032Z" fill="#9D9E9E"/>
<path fill-rule="evenodd" clip-rule="evenodd" d="M23.505 24.7953V24.7039H23.4053V24.7953H23.505Z" fill="#9D9E9E"/>
<path fill-rule="evenodd" clip-rule="evenodd" d="M8.60554 29.597V29.4974H8.50586V29.597H8.60554Z" fill="#9D9E9E"/>
<path fill-rule="evenodd" clip-rule="evenodd" d="M22.9014 24.2006V24.1008H22.8018V24.2006H22.9014Z" fill="#9D9E9E"/>
<path fill-rule="evenodd" clip-rule="evenodd" d="M24.3008 47.8985V47.7987H24.2012V47.8985H24.3008Z" fill="#9D9E9E"/>
<path fill-rule="evenodd" clip-rule="evenodd" d="M23.4044 24.7028V24.6033H23.3047V24.7028H23.4044Z" fill="#9D9E9E"/>
<path fill-rule="evenodd" clip-rule="evenodd" d="M62.2032 21.6024V21.5028H62.1035V21.6024H62.2032Z" fill="#9D9E9E"/>
<path fill-rule="evenodd" clip-rule="evenodd" d="M54.502 29.597V29.4974H54.4023V29.597H54.502Z" fill="#9D9E9E"/>
<path fill-rule="evenodd" clip-rule="evenodd" d="M41.3028 37.0965V36.9969H41.2031V37.0965H41.3028Z" fill="#9D9E9E"/>
<path fill-rule="evenodd" clip-rule="evenodd" d="M37.2979 21.6024V21.5028H37.1982V21.6024H37.2979Z" fill="#9D9E9E"/>
<path fill-rule="evenodd" clip-rule="evenodd" d="M8.70612 29.6977V29.5979H8.60645V29.6977H8.70612Z" fill="#9D9E9E"/>
<path fill-rule="evenodd" clip-rule="evenodd" d="M57.7033 21.5019V21.4022H57.6035V21.5019H57.7033Z" fill="#9D9E9E"/>
<path fill-rule="evenodd" clip-rule="evenodd" d="M53.9991 32.9994V32.8996H53.8994V32.9994H53.9991Z" fill="#9D9E9E"/>
<path fill-rule="evenodd" clip-rule="evenodd" d="M29.6978 29.6977V29.5979H29.6064V29.6977H29.6978Z" fill="#9D9E9E"/>
<path fill-rule="evenodd" clip-rule="evenodd" d="M29.7979 54.4012V54.3014H29.6982V54.4012H29.7979Z" fill="#9D9E9E"/>
<path fill-rule="evenodd" clip-rule="evenodd" d="M33.4015 29.6977V29.5979H33.3018V29.6977H33.4015Z" fill="#9D9E9E"/>
<path fill-rule="evenodd" clip-rule="evenodd" d="M33.4015 54.5937V54.4939H33.3018V54.5937H33.4015Z" fill="#9D9E9E"/>
<path fill-rule="evenodd" clip-rule="evenodd" d="M54.4014 29.6977V29.5979H54.3018V29.6977H54.4014Z" fill="#9D9E9E"/>
<path fill-rule="evenodd" clip-rule="evenodd" d="M33.8038 54.8952V54.7957H33.7041V54.8952H33.8038Z" fill="#9D9E9E"/>
<path fill-rule="evenodd" clip-rule="evenodd" d="M5.40436 21.5019V21.4022H5.30469V21.5019H5.40436Z" fill="#9D9E9E"/>
<path fill-rule="evenodd" clip-rule="evenodd" d="M62.3956 21.3008V21.201H62.2959V21.3008H62.3956Z" fill="#9D9E9E"/>
<path fill-rule="evenodd" clip-rule="evenodd" d="M33.4015 33.4008V33.301H33.3018V33.4008H33.4015Z" fill="#9D9E9E"/>
<path fill-rule="evenodd" clip-rule="evenodd" d="M8.60554 33.4008V33.301H8.50586V33.4008H8.60554Z" fill="#9D9E9E"/>
<path fill-rule="evenodd" clip-rule="evenodd" d="M21.7032 55.7002V55.6006H21.6035V55.7002H21.7032Z" fill="#9D9E9E"/>
<path fill-rule="evenodd" clip-rule="evenodd" d="M29.3038 41.0018V40.902H29.2041V41.0018H29.3038Z" fill="#9D9E9E"/>
<path fill-rule="evenodd" clip-rule="evenodd" d="M8.70612 33.3005V33.2009H8.60645V33.3005H8.70612Z" fill="#9D9E9E"/>
<path fill-rule="evenodd" clip-rule="evenodd" d="M33.7032 33.2001V33.1003H33.6035V33.2001H33.7032Z" fill="#9D9E9E"/>
<path fill-rule="evenodd" clip-rule="evenodd" d="M62.6973 17.1026V17.0028H62.5977V17.1026H62.6973Z" fill="#9D9E9E"/>
<path fill-rule="evenodd" clip-rule="evenodd" d="M21.502 57.5935V57.494H21.4023V57.5935H21.502Z" fill="#9D9E9E"/>
<path fill-rule="evenodd" clip-rule="evenodd" d="M46.4991 57.9961V57.8963H46.3994V57.9961H46.4991Z" fill="#9D9E9E"/>
<path fill-rule="evenodd" clip-rule="evenodd" d="M23.5962 24.8959V24.7961H23.5049V24.8959H23.5962Z" fill="#9D9E9E"/>
<path fill-rule="evenodd" clip-rule="evenodd" d="M62.3956 16.8007V16.7011H62.2959V16.8007H62.3956Z" fill="#9D9E9E"/>
<path fill-rule="evenodd" clip-rule="evenodd" d="M8.99909 32.9994V32.8996H8.89941V32.9994H8.99909Z" fill="#9D9E9E"/>
<path fill-rule="evenodd" clip-rule="evenodd" d="M62.2945 16.7002V16.6005H62.2031V16.7002H62.2945Z" fill="#9D9E9E"/>
<path fill-rule="evenodd" clip-rule="evenodd" d="M29.4044 29.8985V29.7988H29.3047V29.8985H29.4044Z" fill="#9D9E9E"/>
<path fill-rule="evenodd" clip-rule="evenodd" d="M33.8038 22.0968V21.9971H33.7041V22.0968H33.8038Z" fill="#9D9E9E"/>
<path fill-rule="evenodd" clip-rule="evenodd" d="M33.7032 29.8985V29.7988H33.6035V29.8985H33.7032Z" fill="#9D9E9E"/>
<path fill-rule="evenodd" clip-rule="evenodd" d="M9.09978 30.1V30.0002H9V30.1H9.09978Z" fill="#9D9E9E"/>
<path fill-rule="evenodd" clip-rule="evenodd" d="M16.7003 62.1943V62.0947H16.6006V62.1943H16.7003Z" fill="#9D9E9E"/>
<path fill-rule="evenodd" clip-rule="evenodd" d="M21.6026 62.1943V62.0947H21.5029V62.1943H21.6026Z" fill="#9D9E9E"/>
<path fill-rule="evenodd" clip-rule="evenodd" d="M41.4044 62.1943V62.0947H41.3047V62.1943H41.4044Z" fill="#9D9E9E"/>
<path fill-rule="evenodd" clip-rule="evenodd" d="M46.4991 62.1943V62.0947H46.3994V62.1943H46.4991Z" fill="#9D9E9E"/>
<path fill-rule="evenodd" clip-rule="evenodd" d="M41.4966 62.2951V62.1953H41.4053V62.2951H41.4966Z" fill="#9D9E9E"/>
<path fill-rule="evenodd" clip-rule="evenodd" d="M46.3985 62.2952V62.1954H46.2988V62.2952H46.3985Z" fill="#9D9E9E"/>
<path fill-rule="evenodd" clip-rule="evenodd" d="M21.0997 62.4962V62.3966H21V62.4962H21.0997Z" fill="#9D9E9E"/>
<path fill-rule="evenodd" clip-rule="evenodd" d="M57.7033 41.5967V41.4969H57.6035V41.5967H57.7033Z" fill="#9D9E9E"/>
<path fill-rule="evenodd" clip-rule="evenodd" d="M57.9962 16.3987V16.2991H57.8965V16.3987H57.9962Z" fill="#9D9E9E"/>
<path fill-rule="evenodd" clip-rule="evenodd" d="M16.8008 0.703233V0.603455H16.7012V0.703233H16.8008Z" fill="#9D9E9E"/>
<path fill-rule="evenodd" clip-rule="evenodd" d="M41.6973 5.49641V5.40515H41.5977V5.49641H41.6973Z" fill="#9D9E9E"/>
<path fill-rule="evenodd" clip-rule="evenodd" d="M53.6973 7.90129V7.80151H53.5977V7.90129H53.6973Z" fill="#9D9E9E"/>
<path fill-rule="evenodd" clip-rule="evenodd" d="M8.70612 8.39577V8.3045H8.60645V8.39577H8.70612Z" fill="#9D9E9E"/>
<path fill-rule="evenodd" clip-rule="evenodd" d="M54.4014 8.39577V8.3045H54.3018V8.39577H54.4014Z" fill="#9D9E9E"/>
<path fill-rule="evenodd" clip-rule="evenodd" d="M53.6973 55.1972V55.0974H53.5977V55.1972H53.6973Z" fill="#9D9E9E"/>
<path fill-rule="evenodd" clip-rule="evenodd" d="M54.3008 29.7977V29.6981H54.2012V29.7977H54.3008Z" fill="#9D9E9E"/>
<path fill-rule="evenodd" clip-rule="evenodd" d="M29.8985 54.3007V54.2011H29.7988V54.3007H29.8985Z" fill="#9D9E9E"/>
<path fill-rule="evenodd" clip-rule="evenodd" d="M32.1026 41.6975V41.598H32.0029V41.6975H32.1026Z" fill="#9D9E9E"/>
<path fill-rule="evenodd" clip-rule="evenodd" d="M29.6046 8.39577V8.3045H29.5049V8.39577H29.6046Z" fill="#9D9E9E"/>
<path fill-rule="evenodd" clip-rule="evenodd" d="M8.79839 29.7977V29.6981H8.70703V29.7977H8.79839Z" fill="#9D9E9E"/>
<path fill-rule="evenodd" clip-rule="evenodd" d="M21.4014 32.102V32.0024H21.3018V32.102H21.4014Z" fill="#9D9E9E"/>
<path fill-rule="evenodd" clip-rule="evenodd" d="M61.4991 41.0018V40.902H61.3994V41.0018H61.4991Z" fill="#9D9E9E"/>
<path fill-rule="evenodd" clip-rule="evenodd" d="M36.7032 22.0968V21.9971H36.6035V22.0968H36.7032Z" fill="#9D9E9E"/>
<path fill-rule="evenodd" clip-rule="evenodd" d="M62.002 41.3956V41.2958H61.9023V41.3956H62.002Z" fill="#9D9E9E"/>
<path fill-rule="evenodd" clip-rule="evenodd" d="M29.505 33.2001V33.1003H29.4053V33.2001H29.505Z" fill="#9D9E9E"/>
<path fill-rule="evenodd" clip-rule="evenodd" d="M33.502 54.6943V54.5947H33.4023V54.6943H33.502Z" fill="#9D9E9E"/>
<path fill-rule="evenodd" clip-rule="evenodd" d="M21.8038 61.8926V61.8011H21.7041V61.8926H21.8038Z" fill="#9D9E9E"/>
<path fill-rule="evenodd" clip-rule="evenodd" d="M62.002 46.6999V46.6003H61.9023V46.6999H62.002Z" fill="#9D9E9E"/>
<path fill-rule="evenodd" clip-rule="evenodd" d="M54.4014 54.6943V54.5947H54.3018V54.6943H54.4014Z" fill="#9D9E9E"/>
<path fill-rule="evenodd" clip-rule="evenodd" d="M41.002 33.6025V33.5027H40.9023V33.6025H41.002Z" fill="#9D9E9E"/>
<path fill-rule="evenodd" clip-rule="evenodd" d="M54.3008 33.3005V33.2009H54.2012V33.3005H54.3008Z" fill="#9D9E9E"/>
<path fill-rule="evenodd" clip-rule="evenodd" d="M25.005 48.4938V48.4023H24.9053V48.4938H25.005Z" fill="#9D9E9E"/>
<path fill-rule="evenodd" clip-rule="evenodd" d="M21.4014 30.3009V30.2011H21.3018V30.3009H21.4014Z" fill="#9D9E9E"/>
<path fill-rule="evenodd" clip-rule="evenodd" d="M21.3008 62.3958V62.296H21.2012V62.3958H21.3008Z" fill="#9D9E9E"/>
<path fill-rule="evenodd" clip-rule="evenodd" d="M16.8008 25.4993V25.3995H16.7012V25.4993H16.8008Z" fill="#9D9E9E"/>
<path fill-rule="evenodd" clip-rule="evenodd" d="M46.2979 62.3958V62.296H46.1982V62.3958H46.2979Z" fill="#9D9E9E"/>
<path fill-rule="evenodd" clip-rule="evenodd" d="M41.7979 37.5994V37.4996H41.6982V37.5994H41.7979Z" fill="#9D9E9E"/>
<path fill-rule="evenodd" clip-rule="evenodd" d="M46.5998 33.0998V33.0002H46.5V33.0998H46.5998Z" fill="#9D9E9E"/>
<path fill-rule="evenodd" clip-rule="evenodd" d="M21.9044 29.597V29.4974H21.8047V29.597H21.9044Z" fill="#9D9E9E"/>
<path fill-rule="evenodd" clip-rule="evenodd" d="M31.8008 17.0023V16.9028H31.7012V17.0023H31.8008Z" fill="#9D9E9E"/>
<path fill-rule="evenodd" clip-rule="evenodd" d="M37.1973 21.7028V21.603H37.0977V21.7028H37.1973Z" fill="#9D9E9E"/>
<path fill-rule="evenodd" clip-rule="evenodd" d="M62.4962 41.9991V41.8993H62.3965V41.9991H62.4962Z" fill="#9D9E9E"/>
<path fill-rule="evenodd" clip-rule="evenodd" d="M58.3985 41.1945V41.0947H58.2988V41.1945H58.3985Z" fill="#9D9E9E"/>
<path fill-rule="evenodd" clip-rule="evenodd" d="M46.1973 37.5994V37.4996H46.0977V37.5994H46.1973Z" fill="#9D9E9E"/>
<path fill-rule="evenodd" clip-rule="evenodd" d="M8.79839 54.6943V54.5947H8.70703V54.6943H8.79839Z" fill="#9D9E9E"/>
<path fill-rule="evenodd" clip-rule="evenodd" d="M40.8008 39.401V39.3015H40.7012V39.401H40.8008Z" fill="#9D9E9E"/>
<path fill-rule="evenodd" clip-rule="evenodd" d="M22.2985 23.6972V23.5977H22.207V23.6972H22.2985Z" fill="#9D9E9E"/>
<path fill-rule="evenodd" clip-rule="evenodd" d="M62.4962 16.9015V16.8018H62.3965V16.9015H62.4962Z" fill="#9D9E9E"/>
<path fill-rule="evenodd" clip-rule="evenodd" d="M21.4014 25.4993V25.3995H21.3018V25.4993H21.4014Z" fill="#9D9E9E"/>
<path fill-rule="evenodd" clip-rule="evenodd" d="M7.39851 16.4989V16.3992H7.29883V16.4989H7.39851Z" fill="#9D9E9E"/>
<path fill-rule="evenodd" clip-rule="evenodd" d="M55.7003 16.4989V16.3992H55.6006V16.4989H55.7003Z" fill="#9D9E9E"/>
<path fill-rule="evenodd" clip-rule="evenodd" d="M29.9991 46.5993V46.4995H29.8994V46.5993H29.9991Z" fill="#9D9E9E"/>
</svg>
