<svg width="82" height="69" viewBox="0 0 82 69" fill="none" xmlns="http://www.w3.org/2000/svg">
<path fill-rule="evenodd" clip-rule="evenodd" d="M52.1684 22.1202C51.1511 23.0114 48.8474 23.7511 47.3509 25.1047C46.8633 25.5419 45.745 26.6265 45.3835 27.1226C44.8874 27.7952 44.3325 28.9386 43.8869 29.4431C43.6095 30.6453 43.0967 31.3263 43.0967 32.9489V33.7392C43.0967 35.0591 43.5507 35.6057 43.5675 36.6062L44.8454 38.8341C45.9047 40.8435 48.5195 42.6847 50.6382 43.8029L49.1416 46.3167L46.9137 50.2934L52.0086 49.4948L54.3963 49.0241L59.0121 48.0655L66.4862 46.3167L71.102 44.5681L75.7177 42.1803C76.7518 41.2807 77.5169 40.7847 78.5426 39.7506C79.7449 38.5568 80.0139 37.5311 80.8126 36.6062L81.4516 34.2184L81.2919 31.8306L80.6529 29.4431C79.9214 28.6023 79.5263 27.4252 78.551 26.4584C78.0466 25.9623 76.0624 24.2807 75.8774 24.0369C71.783 21.8678 68.5124 20.2117 62.19 20.2117H61.7192C57.1876 20.2117 55.4557 21.3551 52.1684 22.1202Z" fill="#9D9E9E"/>
<path fill-rule="evenodd" clip-rule="evenodd" d="M35.294 0.47912C34.8063 0.899493 34.1758 1.18534 33.7386 1.62252C33.2594 2.11016 33.0156 2.69036 32.5868 3.1864C32.4102 3.95148 32.1076 4.17845 32.1076 5.25461V5.89358C32.1076 8.44105 33.5873 8.81932 34.0244 10.03H29.8796V10.3496V12.7372V15.7555H16.5117V23.8771V27.0551L19.2189 29.6026V24.6673V22.2797V18.4627H29.8796V21.8089H45.467L45.6436 18.4627H56.3042V18.7821H56.7835L58.8433 18.4291L58.8517 15.7555H45.4838V10.03H41.339C41.6249 9.23969 43.2558 8.33165 43.2558 6.20455V5.25461C43.2558 2.44651 41.4819 1.70661 40.0695 0.47912L38.3207 -6.10352e-05L35.294 0.47912Z" fill="#9D9E9E"/>
<path fill-rule="evenodd" clip-rule="evenodd" d="M1.39567 20.1154L0 21.5867L0.756693 22.5032L16.1928 37.9478L17.4707 39.2174C19.3288 40.4617 22.2714 44.6485 24.1211 45.4556C26.1221 46.3216 31.6625 48.4234 33.0665 49.4071L34.3529 49.878L34.025 48.6084L33.2263 46.5402L31.4776 41.605L30.5192 39.2174V38.7381L6.80161 15.0291L1.39567 20.1154Z" fill="#9D9E9E"/>
<path fill-rule="evenodd" clip-rule="evenodd" d="M16.5117 46.1567V68.5962H58.8517V49.9738L56.2958 50.411L56.1446 65.889H19.2189V62.8709V60.4831V58.0953V48.0652L16.5538 45.3244L16.5117 46.1567Z" fill="#9D9E9E"/>
<path fill-rule="evenodd" clip-rule="evenodd" d="M59.0117 27.0552C57.7421 27.9043 57.1031 29.0982 56.9434 31.0403H61.0799C61.0967 30.3172 61.3657 29.443 62.0299 29.443H62.5091C62.9967 29.443 63.4676 29.5943 63.4676 30.0819V30.561C63.4676 31.3177 61.9374 31.6877 61.3994 32.1501C62.0636 32.3687 60.9201 34.2183 62.0299 34.2183H63.9468V31.8305H66.3345V29.443H63.9468V27.0552H65.3761C65.9814 27.0552 65.4349 27.1057 65.8553 26.8955C65.1658 26.3069 63.9132 25.9453 62.6689 25.9453C61.391 25.9453 59.5329 26.3489 59.0117 27.0552Z" fill="#FEFEFE"/>
<path fill-rule="evenodd" clip-rule="evenodd" d="M28.1309 50.7724V48.5445H30.5187V50.9405L28.9296 51.092L30.2664 51.6384L31.7966 49.9737C31.4687 48.5781 29.8124 43.5671 28.9296 42.9702L28.9212 46.35L26.256 45.9886L26.8613 48.3848L26.3821 48.4182L23.3555 48.2249C23.902 49.0404 27.0043 50.5117 28.1309 50.7724Z" fill="#FEFEFE"/>
<path fill-rule="evenodd" clip-rule="evenodd" d="M61.3995 32.1499C60.7774 32.5619 60.2812 33.3521 60.2812 34.3778V35.4961H63.947C63.947 32.7216 67.7639 33.9575 67.7639 30.2414V29.9218C67.7639 28.5094 66.797 27.3997 65.8554 26.8953C65.435 27.1055 65.9816 27.055 65.3762 27.055H63.947V29.4428H66.3347V31.8303H63.947V34.2181H62.0301C60.9203 34.2181 62.0637 32.3685 61.3995 32.1499Z" fill="#FEFEFE" stroke="#FEFEFE" stroke-width="0.756672" stroke-miterlimit="22.9256"/>
<path fill-rule="evenodd" clip-rule="evenodd" d="M59.9619 40.5829H64.2581V36.6062H59.9619V40.5829Z" fill="#FEFEFE"/>
<path fill-rule="evenodd" clip-rule="evenodd" d="M35.1349 7.16324C35.8075 6.93624 34.6725 5.57411 35.7739 5.57411H37.2031C37.5731 5.57411 37.6824 5.68346 37.6824 6.04498V7.96191H38.6408C39.2461 7.96191 38.6913 7.91142 39.1116 8.1216L40.0701 7.32293V5.57411H38.1616C36.4885 5.57411 39.3891 3.18652 36.2531 3.18652C35.3955 3.41353 34.8154 4.32145 34.8154 5.41442V5.8937C34.8154 6.46541 34.95 6.7765 35.1349 7.16324Z" fill="#FEFEFE"/>
<path fill-rule="evenodd" clip-rule="evenodd" d="M28.1309 50.7726L28.9296 51.0922L30.5187 50.9407V48.5447H28.1309V50.7726Z" fill="#FEFEFE" stroke="#FEFEFE" stroke-width="0.756672" stroke-miterlimit="22.9256"/>
<path d="M37.8081 8.62599C39.5122 8.62599 40.8937 7.24441 40.8937 5.54031C40.8937 3.83621 39.5122 2.45483 37.8081 2.45483C36.104 2.45483 34.7227 3.83621 34.7227 5.54031C34.7227 7.24441 36.104 8.62599 37.8081 8.62599Z" fill="#FEFEFE"/>
</svg>
