<svg width="109" height="46" viewBox="0 0 109 46" fill="none" xmlns="http://www.w3.org/2000/svg">
<path fill-rule="evenodd" clip-rule="evenodd" d="M0 24.6354V26.8626C0 32.2112 3.30944 37.5086 6.15177 40.0661C9.37573 42.9768 14.0578 45.5172 20.1583 45.5172H20.6653C31.2258 45.5172 39.8097 37.0073 39.8097 26.2532C39.8097 19.0192 36.2156 13.1294 32.0973 10.0536C29.3746 8.02576 27.5803 7.30809 24.4474 5.74737C23.0006 5.02397 22.1178 4.25499 21.0412 3.17274C20.3805 2.50061 18.7856 0.370244 18.2331 0C18.1533 3.6113 16.2793 4.94421 14.0407 6.44797C13.0781 7.09732 11.6485 7.81501 10.5719 8.35044C9.23903 9.01118 8.47005 9.66624 7.35363 10.5036C3.99295 13.0212 0 18.8369 0 24.6354Z" fill="#434242"/>
<path fill-rule="evenodd" clip-rule="evenodd" d="M18.8424 2.43755L19.0759 3.74767C19.224 5.17738 17.726 6.11723 17.726 6.38495C17.726 6.51596 18.0335 6.6014 18.0335 7.09695V7.19944C18.0335 10.1785 7.52438 17.5378 3.95295 17.5378C3.60549 17.5378 3.04152 17.1619 3.04152 16.8258V16.5239C3.04152 16.1764 3.1156 16.1309 3.13838 15.8119C1.80551 17.3555 0.301758 21.9465 0.301758 24.937V26.6629C0.301758 29.6191 1.8169 34.2614 3.13838 35.7823C3.46306 35.8677 4.3061 36.5569 4.94976 36.8132C5.62189 37.0752 6.43638 37.3032 7.39332 37.3032L9.11924 37.3373L10.6343 37.1037C10.2527 36.5284 9.70589 36.443 9.21603 35.4804C8.85718 34.7798 8.61235 34.1133 8.61235 33.0481V32.638C8.61235 29.3116 12.1268 26.0534 15.3963 26.0534H16.1083C20.1411 26.0534 22.2429 28.7932 24.9201 30.2058C25.8201 29.4255 27.2668 28.497 28.3035 27.7166C29.4541 26.8508 30.377 25.911 31.3795 24.9142C32.8491 23.4446 35.3553 19.8219 35.3553 17.0308V15.51C35.3553 14.5702 35.0079 14.0803 34.9509 13.3797C33.3674 11.0216 29.5282 8.45258 26.7428 7.19944C25.3074 6.55009 23.1543 5.64443 22.1063 4.64192C21.343 3.90713 19.0247 1.24142 18.5405 0.916748L18.8424 2.43755Z" fill="#898989"/>
<path fill-rule="evenodd" clip-rule="evenodd" d="M10.6343 37.1038C11.9159 37.4 12.1608 37.9126 14.1829 37.9126H15.1968C19.1043 37.9126 24.3618 32.6381 27.1472 32.6381H27.2498C29.2662 32.6381 32.5585 37.7076 33.9369 37.7076H34.6432C35.3951 37.7076 36.1868 36.7279 36.5684 36.2893L37.8843 33.857L38.4881 30.428L38.3912 30.2058C38.3912 28.5027 37.5026 26.7598 35.8621 26.7598H35.4577C33.5553 26.7598 29.3972 31.0204 27.3523 31.0204H26.8454C26.253 31.0204 25.2504 30.4963 24.92 30.2058C22.2429 28.7932 20.1411 26.0535 16.1083 26.0535H15.3963C12.1267 26.0535 8.6123 29.3116 8.6123 32.6381V33.0482C8.6123 34.1133 8.85713 34.7798 9.21598 35.4804C9.70584 36.443 10.2527 36.5285 10.6343 37.1038Z" fill="#FDFEFE"/>
<path fill-rule="evenodd" clip-rule="evenodd" d="M10.6346 37.1039L9.11953 37.3375L7.39361 37.3033C6.43667 37.3033 5.62218 37.0754 4.95005 36.8134C4.30639 36.5571 3.46335 35.8679 3.13867 35.7824C3.60005 37.514 8.07722 41.4614 9.75756 42.3386C12.748 43.8993 15.6301 45.2094 20.1584 45.2094C23.8438 45.2094 27.8937 43.9791 30.1664 42.5551C31.5847 41.6665 32.5987 41.0285 33.7607 39.8608C34.3417 39.2798 36.5061 37.0869 36.5688 36.2894C36.1872 36.728 35.3955 37.7077 34.6436 37.7077H33.9373C32.5588 37.7077 29.2665 32.6382 27.2501 32.6382H27.1475C24.3621 32.6382 19.1047 37.9128 15.1972 37.9128H14.1833C12.1612 37.9128 11.9162 37.4001 10.6346 37.1039Z" fill="#9D9E9E"/>
<path fill-rule="evenodd" clip-rule="evenodd" d="M45.791 33.3504H48.9295C54.318 33.3504 57.2344 31.727 57.2344 26.3556V25.6493C57.2344 21.0013 54.8933 18.7571 50.2454 18.7571H45.791V33.3504Z" fill="#9D9E9E"/>
<path fill-rule="evenodd" clip-rule="evenodd" d="M80.126 28.0813V37.0014H83.1677V31.4249C83.7202 31.573 84.2443 33.6521 86.5114 33.6521H86.6139C89.2284 33.6521 91.877 30.9351 91.877 28.3832V27.4719C91.877 24.6182 89.1258 21.998 86.2038 21.998H85.7994C82.6039 21.998 80.126 24.8232 80.126 28.0813Z" fill="#9D9E9E"/>
<path fill-rule="evenodd" clip-rule="evenodd" d="M93.0967 27.3693V28.2807C93.0967 30.9464 95.6998 33.6521 98.3655 33.6521H98.4625C100.729 33.6521 101.253 31.573 101.806 31.4249V33.3502H104.848V27.6769C104.848 24.789 102.108 21.998 99.1745 21.998H98.7699C95.8934 21.998 93.0967 24.5897 93.0967 27.3693Z" fill="#9D9E9E"/>
<path fill-rule="evenodd" clip-rule="evenodd" d="M24.9199 30.2061C25.2503 30.4966 26.2529 31.0207 26.8453 31.0207H27.3521C29.397 31.0207 33.5551 26.76 35.4576 26.76H35.862C37.5025 26.76 38.391 28.503 38.391 30.2061L38.488 30.4283L37.8841 33.8573C38.7044 32.9174 39.5076 28.3606 39.5076 26.3556V26.2531C39.5076 20.8418 37.4627 16.2793 34.9507 13.38C35.0077 14.0806 35.3551 14.5705 35.3551 15.5103V17.0311C35.3551 19.8222 32.8489 23.4449 31.3793 24.9145C30.3768 25.9113 29.4539 26.8511 28.3033 27.7169C27.2667 28.4973 25.8199 29.4257 24.9199 30.2061Z" fill="#9D9E9E"/>
<path fill-rule="evenodd" clip-rule="evenodd" d="M68.4775 28.1781C68.4775 31.0774 70.8186 33.652 73.7464 33.652C76.8792 33.652 79.1177 31.0204 79.1177 27.8762V22.2029H76.0761V28.3831C76.0761 29.5281 75.1135 30.7128 73.9515 30.7128H73.5414C71.844 30.7128 71.4168 28.9243 71.4168 27.1699V22.2029H68.4775V28.1781Z" fill="#9D9E9E"/>
<path fill-rule="evenodd" clip-rule="evenodd" d="M4.45438 13.8866C4.33476 14.3423 3.95312 14.5531 3.95312 15.1056C3.95312 15.3904 4.27207 15.8119 4.55687 15.8119H4.65943C7.69543 15.8119 16.7123 9.67153 16.7123 7.19944C16.7123 6.93173 16.2111 6.78932 16.006 6.69249C17.0541 5.25708 18.8426 6.49314 18.8426 2.43755L18.5407 0.916748C18.3755 1.17307 18.0679 2.8705 17.766 3.48567C17.316 4.39704 16.9629 4.6932 16.2338 5.30268C15.1174 6.23114 13.4541 7.26213 12.087 7.93996C9.35293 9.30701 6.09484 11.5284 4.45438 13.8866Z" fill="#FDFEFE"/>
<path fill-rule="evenodd" clip-rule="evenodd" d="M61.4889 24.2251L61.187 22.2031H58.5498V33.3502H61.5915V27.2669C61.5915 26.1846 63.4028 24.9371 64.6275 24.9371C65.5901 24.9371 66.6211 25.5124 67.2648 25.8485V22.5049C66.6098 22.3511 66.3249 21.998 65.3395 21.998C62.9414 21.998 62.1383 24.1739 61.4889 24.2251Z" fill="#9D9E9E"/>
<path fill-rule="evenodd" clip-rule="evenodd" d="M48.8262 30.8154H51.0534C53.292 30.8154 54.1975 29.1009 54.1975 26.8623V25.0396C54.1975 22.5846 53.047 21.2859 50.5464 21.2859H48.8262V30.8154Z" fill="#FDFEFE"/>
<path fill-rule="evenodd" clip-rule="evenodd" d="M106.061 33.3504H109V18.7571H106.061V33.3504Z" fill="#9D9E9E"/>
<path fill-rule="evenodd" clip-rule="evenodd" d="M83.0654 27.7736V28.0812C83.0654 29.3742 84.421 30.8154 85.7026 30.8154H86.3065C87.7703 30.8154 89.0406 29.3173 89.0406 27.7736C89.0406 26.4578 87.7133 24.937 86.4089 24.937H85.7026C84.3413 24.937 83.0654 26.3553 83.0654 27.7736Z" fill="#FDFEFE"/>
<path fill-rule="evenodd" clip-rule="evenodd" d="M95.9326 27.8762C95.9326 29.4483 97.277 30.8154 98.8719 30.8154H99.2763C100.524 30.8154 101.908 29.3401 101.908 28.0812V27.6768C101.908 26.3668 100.569 24.937 99.2763 24.937H98.5643C97.1972 24.937 95.9326 26.4294 95.9326 27.8762Z" fill="#FDFEFE"/>
<path fill-rule="evenodd" clip-rule="evenodd" d="M4.45467 13.8867L3.13885 15.8119C3.11607 16.1309 3.04199 16.1765 3.04199 16.524V16.8259C3.04199 17.1619 3.60596 17.5379 3.95342 17.5379C7.52484 17.5379 18.034 10.1786 18.034 7.19952V7.09703C18.034 6.60147 17.7265 6.51603 17.7265 6.38502C17.7265 6.1173 19.2245 5.17745 19.0764 3.74774L18.8429 2.43762C18.8429 6.49321 17.0544 5.25715 16.0063 6.69256C16.2113 6.78939 16.7126 6.9318 16.7126 7.19952C16.7126 9.6716 7.69572 15.8119 4.65972 15.8119H4.55716C4.27236 15.8119 3.95342 15.3904 3.95342 15.1056C3.95342 14.5531 4.33506 14.3424 4.45467 13.8867Z" fill="#EBECEC"/>
<path fill-rule="evenodd" clip-rule="evenodd" d="M24.4137 41.9682H23.2004C22.3916 41.9682 21.3036 41.7461 20.6657 41.5638C20.022 41.3816 18.9625 40.6468 18.6378 40.6468H18.4386C18.1595 40.6468 17.7266 41.0227 17.7266 41.3588C17.7266 42.5721 21.3036 43.3866 22.8928 43.3866H23.0979C24.6643 43.3866 26.0769 43.2157 27.2901 42.8169C28.0135 42.572 30.292 41.6435 30.292 40.9543C30.292 40.7208 30.178 40.3449 29.9843 40.3449C29.9843 40.3449 28.0763 41.3246 27.5523 41.4613C26.6181 41.7062 25.5928 41.9682 24.4137 41.9682Z" fill="#FDFEFE"/>
<path fill-rule="evenodd" clip-rule="evenodd" d="M21.9814 38.1121V38.3171C21.9814 38.5108 22.1637 38.7216 22.2891 38.7216C23.0637 38.7216 23.7814 36.8988 26.1339 36.8988C28.3098 36.8988 27.8541 38.0779 28.6686 38.6191C28.8281 38.5393 29.278 38.3172 29.278 38.1121C29.278 36.5571 28.0306 35.6799 26.3389 35.6799H25.4274C24.3965 35.6799 21.9814 37.2862 21.9814 38.1121Z" fill="#FDFEFE"/>
</svg>
