<svg width="114" height="30" viewBox="0 0 114 30" fill="none" xmlns="http://www.w3.org/2000/svg">
<path fill-rule="evenodd" clip-rule="evenodd" d="M10.8972 13.2637L12.579 11.6123L13.8924 10.3033L15.6523 8.53906L17.1867 7.00466C17.4944 6.58421 18.5087 6.29379 19.2846 6.29379C19.9825 6.29379 20.923 6.67954 21.1918 7.07832C20.8017 6.98729 20.65 6.77926 20.0345 6.77926H19.9218C19.4146 6.77926 19.0939 6.93097 18.7471 7.10435C18.331 7.31241 18.2313 7.55514 17.9365 7.75453L16.4021 9.28898L14.6379 11.0531L13.3289 12.3622L11.6818 14.0483L12.2063 14.6118C12.579 14.3604 13.6497 13.1857 14.0484 12.7826C14.6726 12.1628 15.2621 11.5689 15.8863 10.9491C16.5061 10.3293 17.1 9.73543 17.7198 9.11125C18.2876 8.54776 18.9075 7.68083 19.9954 7.68083H20.2946C21.1961 7.68083 22.0544 8.65176 22.0544 9.62704V9.73974C22.0544 10.5633 21.6903 10.8147 21.3695 11.2872L24.6768 14.6118C25.5437 14.0309 26.9784 11.4302 26.8397 9.81345L26.662 8.31799C27.3122 8.30065 28.4869 7.35141 28.7946 6.93096C29.2758 6.2721 29.7309 5.44418 29.7309 4.30853V3.97047C29.7309 2.86516 28.9984 1.75549 28.4305 1.18766C27.8107 0.567823 26.766 0 25.535 0H25.4267C24.291 0 23.4934 0.429119 22.8259 0.918924C22.3665 1.25269 21.4735 2.36234 21.4172 3.03853L20.1081 2.92149H19.8828C18.4654 2.92149 17.0956 3.52398 16.2287 4.09614C15.3792 4.65963 14.4646 5.69993 13.732 6.43247C12.9171 7.24737 12.1326 8.03629 11.3177 8.85119C10.8019 9.367 9.22841 10.8017 8.90332 11.2872L10.8972 13.2637Z" fill="#9D9E9E"/>
<path fill-rule="evenodd" clip-rule="evenodd" d="M16.476 10.9016L18.4959 12.9649L19.4322 13.9011L20.5548 15.0238L21.7165 16.1854C21.9289 16.3284 22.7264 17.165 22.8998 17.3991C23.2119 17.8282 23.4416 18.5001 23.4416 19.2196C23.4416 19.9695 23.0818 20.9188 22.6527 21.2049C22.7307 20.9144 22.9518 20.6197 22.9518 20.1949V19.9305C22.9518 18.3527 21.5604 17.8195 20.9709 16.9353L19.8093 15.7736L18.6823 14.651L17.746 13.7104L15.6871 11.6905L15.1279 12.215C15.375 12.5834 16.5367 13.641 16.9355 14.0398C17.5553 14.6597 18.1491 15.2535 18.769 15.8777C19.3888 16.4975 19.9826 17.0913 20.6025 17.7112C21.1226 18.2313 22.0545 18.9639 22.0545 19.9305V20.2686C22.0545 20.7064 21.7511 21.2308 21.5214 21.4606C21.309 21.673 20.7499 22.0674 20.3684 22.0674H19.9956C19.1721 22.0674 18.9207 21.7033 18.4526 21.3825L15.1279 24.6898C15.7434 25.6131 18.2835 26.9742 19.9956 26.8398L21.4174 26.7141C21.4737 27.3859 22.3537 28.4825 22.8045 28.812C23.42 29.2671 24.2869 29.7483 25.3489 29.7483H25.6133C26.7966 29.7483 27.8499 29.1414 28.448 28.5432C29.0115 27.9797 29.7311 26.8658 29.7311 25.7778V25.2923C29.7311 24.291 29.2109 23.3894 28.7731 22.8043C28.4263 22.3405 27.3514 21.4909 26.6752 21.4345L26.8096 20.1559V19.7831C26.8096 18.5651 26.1377 16.8876 25.6002 16.1941C24.8764 15.2535 24.1092 14.5513 23.2813 13.7234C22.475 12.9128 21.6905 12.1326 20.8842 11.322C20.3684 10.8062 18.9337 9.23281 18.4526 8.90771L16.476 10.9016Z" fill="#9D9E9E"/>
<path fill-rule="evenodd" clip-rule="evenodd" d="M13.2551 18.8814L11.7943 17.3469L10.2946 15.8472L9.17189 14.7245L7.78485 13.3374C7.09999 12.878 6.2894 11.8074 6.2894 10.6414V10.5633C6.2894 9.7961 6.63619 8.83381 7.07398 8.53906C6.98295 8.93351 6.77487 9.08524 6.77487 9.70508V9.81345C6.77487 11.3435 7.98423 11.7597 8.53472 12.5876L9.92176 13.9746L11.0054 15.0626L12.5442 16.597L14.0786 18.0578L14.6031 17.5723C14.5424 17.3469 11.3912 14.304 10.9621 13.8706C10.3379 13.2507 9.74839 12.6569 9.12422 12.0371C8.6084 11.5169 7.67649 10.7887 7.67649 9.81345V9.44068C7.67649 8.61712 8.62576 7.68083 9.471 7.68083H9.88276C10.5026 7.68083 10.9187 8.11865 11.2785 8.36138L13.5151 6.10738C13.4111 5.71293 12.2148 5.06279 11.907 4.79405C11.6079 4.72469 11.0835 4.41692 10.6197 4.28255C10.1862 4.16118 9.62705 4.04412 9.09824 4.04412H8.50006L7.93655 4.08751C8.13161 3.79276 8.59105 3.67136 9.05919 3.67136H10.1472C10.4853 3.67136 10.9838 3.78408 11.2699 3.85777C11.634 3.94879 11.972 4.13086 12.2408 4.19588C12.6092 4.3866 12.9386 4.52528 13.2767 4.77235C13.4241 4.87638 14.0916 5.45287 14.1523 5.47021L14.6031 5.05845C13.9486 4.08317 11.6166 2.92149 9.92176 2.92149L9.5837 2.90847L8.30932 3.03419C8.2573 2.36667 7.36005 1.25269 6.90492 0.918924C6.24607 0.437788 5.42684 0 4.30419 0H4.19148C2.97347 0 1.91588 0.567823 1.30037 1.18766C0.732541 1.75549 0 2.86949 0 3.97047V4.38223C0 5.43987 0.485428 6.31545 0.931888 6.93096C1.23964 7.34707 2.41866 8.3007 3.06017 8.31371L2.91715 9.47968V9.85244C2.91715 11.1701 3.53264 12.7436 4.09614 13.5108C4.78533 14.4514 5.61324 15.1927 6.42813 16.0075C7.24303 16.8224 8.0319 17.607 8.8468 18.4262C9.36261 18.942 10.7973 20.5154 11.2785 20.8405L13.2551 18.8814Z" fill="#9D9E9E"/>
<path fill-rule="evenodd" clip-rule="evenodd" d="M18.8349 16.4843L17.825 17.4595L16.9623 18.3221L15.6533 19.6312L14.1535 21.1309L13.33 21.9545L12.5454 22.7433C12.281 23.1335 11.2668 23.4542 10.5602 23.4542H10.4475C9.73667 23.4542 8.80906 23.0771 8.53598 22.6697C8.82206 22.7434 9.06913 22.9688 9.51125 22.9688H9.81031C10.2568 22.9688 10.6989 22.8214 10.985 22.6437C11.3751 22.4053 11.5182 22.1799 11.7956 21.9935L12.5801 21.2046L13.4037 20.381L14.9034 18.8813L16.2125 17.5723L17.075 16.7097L18.0503 15.6997L17.5258 15.1362C17.1487 15.3876 16.0824 16.5623 15.6793 16.9611C15.0595 17.5852 14.4657 18.1791 13.8458 18.7989C13.226 19.4188 12.6321 20.0126 12.0123 20.6368C11.4401 21.2046 10.829 22.0672 9.73666 22.0672H9.43755C8.53162 22.0672 7.67774 21.1006 7.67774 20.121V19.9302C7.67774 19.2367 8.08517 18.8639 8.35825 18.4608L5.28072 15.3963C5.103 15.6607 4.73889 15.9511 4.51349 16.2806C4.26209 16.6577 4.10174 16.9351 3.89368 17.3468C3.65528 17.8236 3.19578 19.2974 3.2608 20.0863L3.48187 21.6944C1.97344 21.8201 0.374023 23.6233 0.374023 25.2921V25.5131C0.374023 26.6054 0.881141 27.6154 1.43163 28.1659C1.95611 28.6904 2.91406 29.3752 3.93268 29.3752H4.53085C6.13897 29.3752 7.66905 27.9275 7.9768 26.6011C8.57931 26.7442 9.08648 26.8265 9.84936 26.8265H10.0357C11.3101 26.8265 12.7882 26.1373 13.5684 25.6041C14.392 25.045 15.3152 23.996 16.0348 23.2765C16.8453 22.4659 17.6255 21.6857 18.4318 20.8795C18.9432 20.3637 20.5037 18.9419 20.8288 18.4608L18.8349 16.4843Z" fill="#9D9E9E"/>
<path fill-rule="evenodd" clip-rule="evenodd" d="M1.7211 3.10804L6.7405 3.4071C6.82286 3.25106 6.88786 3.12537 6.88786 2.88263V2.65723C6.88786 2.50119 6.84018 2.37982 6.77516 2.28446L1.79475 1.98535C1.66905 2.13273 1.6084 2.34516 1.6084 2.62257V2.65723C1.6084 2.83928 1.64308 2.99968 1.7211 3.10804Z" fill="#FEFEFE"/>
<path fill-rule="evenodd" clip-rule="evenodd" d="M22.8788 2.95614L27.3001 3.22488L27.8592 3.18154C27.9416 3.0255 28.011 2.89981 28.011 2.65708V2.39702C28.011 2.25831 27.9893 2.21497 27.9329 2.13261C27.6858 2.29299 23.5073 1.8725 22.8398 1.8725C22.7661 2.01554 22.7314 2.17162 22.7314 2.39702C22.7314 2.61808 22.8051 2.8131 22.8788 2.95614Z" fill="#FEFEFE"/>
<path fill-rule="evenodd" clip-rule="evenodd" d="M22.8398 1.87263C23.5074 1.87263 27.6859 2.29313 27.933 2.13275C27.8723 1.40021 26.3985 0.710999 25.4623 0.710999H24.9768C23.9582 0.710999 23.1996 1.1921 22.8398 1.87263Z" fill="#FEFEFE"/>
<path fill-rule="evenodd" clip-rule="evenodd" d="M24.6772 24.3558L28.535 24.5423C28.5913 24.4339 28.6477 24.3299 28.6477 24.1651V24.0178C28.6477 23.7751 28.4526 23.4369 28.3096 23.3416L25.0153 23.1552C24.8376 23.2722 24.6035 23.5757 24.6035 23.8661V24.0178C24.6035 24.1782 24.6469 24.2215 24.6772 24.3558Z" fill="#FEFEFE"/>
<path fill-rule="evenodd" clip-rule="evenodd" d="M6.74108 3.40691L1.72168 3.10785C1.88639 3.81005 3.19111 4.45589 4.1187 4.45589H4.71682C5.54906 4.45589 6.45066 3.9574 6.74108 3.40691Z" fill="#FEFEFE"/>
<path fill-rule="evenodd" clip-rule="evenodd" d="M1.7959 1.98533L6.7763 2.28444C6.57258 1.51289 5.18124 0.936401 4.11927 0.936401C3.25669 0.936401 1.95628 1.38283 1.7959 1.98533Z" fill="#FEFEFE"/>
<path fill-rule="evenodd" clip-rule="evenodd" d="M27.8593 3.18158L27.3002 3.22492L22.8789 2.95618C23.2907 3.73206 24.3483 4.23056 25.536 4.23056C26.611 4.23056 27.4259 3.82743 27.8593 3.18158Z" fill="#FEFEFE"/>
<path fill-rule="evenodd" clip-rule="evenodd" d="M1.98145 23.7923H3.52023V23.827H3.25578V23.8443L5.99091 23.9397C5.81753 23.1985 4.90729 22.6697 4.0057 22.6697H3.74125C3.02605 22.6697 1.99878 23.1291 1.98145 23.7923Z" fill="#FEFEFE"/>
<path fill-rule="evenodd" clip-rule="evenodd" d="M2.09407 24.4297L5.83913 24.6161L5.99083 23.9399L3.2557 23.8446V23.8272H3.52016V23.7925H1.98137C1.86433 23.9833 2.00304 24.3213 2.09407 24.4297Z" fill="#FEFEFE"/>
<path fill-rule="evenodd" clip-rule="evenodd" d="M28.5345 24.5422L24.6768 24.3558C25.0669 24.9367 25.665 25.3658 26.623 25.3658H26.7747C27.5636 25.3658 28.2614 25.0537 28.5345 24.5422Z" fill="#FEFEFE"/>
<path fill-rule="evenodd" clip-rule="evenodd" d="M5.83979 24.6159L2.09473 24.4295C2.22476 24.9063 3.23906 25.3658 3.89358 25.3658H4.26634C4.93387 25.3658 5.57105 25.0147 5.83979 24.6159Z" fill="#FEFEFE"/>
<path fill-rule="evenodd" clip-rule="evenodd" d="M25.0156 23.1551L28.3099 23.3415C28.0888 23.0121 27.2392 22.6697 26.6627 22.6697H26.6237C26.0386 22.6697 25.2454 22.8387 25.0156 23.1551Z" fill="#FEFEFE"/>
<path fill-rule="evenodd" clip-rule="evenodd" d="M48.3545 19.7753V20.2214C48.3545 22.7741 51.4924 24.2662 54.1694 24.2662C57.2267 24.2662 60.423 22.9789 60.423 20.0312C60.423 17.3908 57.5266 15.7963 54.8642 15.7963H54.3522C51.5728 15.7963 48.3545 17.1714 48.3545 19.7753Z" fill="#9D9E9E"/>
<path fill-rule="evenodd" clip-rule="evenodd" d="M93.6006 20.0313C93.6006 22.6717 96.5629 24.2662 99.218 24.2662H99.7299C101.975 24.2662 102.729 23.6884 104.148 22.935V24.1419H105.603V15.8549H104.148V17.2446C102.897 16.4108 101.756 15.7963 99.6641 15.7963H99.2838C96.5409 15.7963 93.6006 17.3396 93.6006 20.0313Z" fill="#9D9E9E"/>
<path fill-rule="evenodd" clip-rule="evenodd" d="M60.9287 20.1556C60.9287 22.6424 63.986 24.2662 66.5533 24.2662H67.1823C69.7569 24.2662 72.9972 22.7887 72.9972 20.4116V19.6509C72.9972 17.3103 69.8374 15.7963 67.314 15.7963H66.9337C63.9056 15.7963 60.9287 17.2007 60.9287 20.1556Z" fill="#9D9E9E"/>
<path fill-rule="evenodd" clip-rule="evenodd" d="M49.7441 19.9655C49.7441 22.1598 51.8799 23.2569 54.1034 23.2569H54.5423C56.4733 23.2569 58.9674 22.2183 58.9674 20.4702V19.651C58.9674 17.859 56.6049 16.8057 54.6739 16.8057H54.0376C51.9311 16.8057 49.7441 17.9029 49.7441 19.9655Z" fill="#FEFEFE"/>
<path fill-rule="evenodd" clip-rule="evenodd" d="M62.3838 19.7169V20.28C62.3838 22.189 64.7316 23.2569 66.743 23.2569H67.3136C69.442 23.2569 71.607 22.1525 71.607 20.0313C71.607 17.6761 69.3323 16.8057 66.9332 16.8057H66.6772C64.7243 16.8057 62.3838 17.8883 62.3838 19.7169Z" fill="#FEFEFE"/>
<path fill-rule="evenodd" clip-rule="evenodd" d="M95.0488 19.5852V20.4117C95.0488 22.2183 97.5137 23.2569 99.4739 23.2569C100.549 23.2569 101.5 23.0375 102.275 22.7084C102.78 22.4889 104.148 21.8233 104.148 21.2309V20.5361C104.148 18.1736 102.195 16.8057 99.8542 16.8057H99.5397C97.5429 16.8057 95.0488 17.7786 95.0488 19.5852Z" fill="#FEFEFE"/>
<path fill-rule="evenodd" clip-rule="evenodd" d="M75.1466 16.6155V15.8548H73.7568V24.1418H75.1466V18.3855C75.1466 18.0344 75.9877 17.4055 76.2657 17.2299C76.7338 16.952 77.4432 16.8056 78.182 16.8056H78.2405C79.5278 16.8056 81.1516 17.5737 81.1516 18.7001V24.1418H82.5998V18.8903C82.5998 17.5152 84.0846 16.8056 85.5109 16.8056H85.701C87.0981 16.8056 88.6706 17.603 88.6706 18.8903V24.1418H89.9287V18.5099C89.9287 17.7127 89.0143 16.8861 88.4877 16.5423C87.8148 16.0888 86.9298 15.7963 85.8253 15.7963H85.3207C84.5381 15.7963 83.8871 16.0158 83.3019 16.2425C82.5778 16.5278 82.3657 16.8935 81.8464 17.2446C81.3125 16.4546 79.8497 15.7963 78.4965 15.7963H77.7358C76.6314 15.7963 75.8707 16.2351 75.1466 16.6155Z" fill="#9D9E9E"/>
<path fill-rule="evenodd" clip-rule="evenodd" d="M46.2045 20.536C46.2045 21.955 44.9172 23.2496 43.4251 23.0667L43.4177 23.1325L39.512 22.6205L39 23.7542L43.1618 24.2736L43.1691 24.2004H44.12C46.1972 24.2004 47.5942 22.4742 47.5942 20.2799V12.1246H46.2045V20.536Z" fill="#9D9E9E"/>
<path fill-rule="evenodd" clip-rule="evenodd" d="M91.1357 24.1419H92.584V12.1246H91.1357V24.1419Z" fill="#9D9E9E"/>
<path fill-rule="evenodd" clip-rule="evenodd" d="M107.687 21.4868H109.142V12.1246H107.687V21.4868Z" fill="#9D9E9E"/>
<path fill-rule="evenodd" clip-rule="evenodd" d="M107.308 23.381V23.4469C107.308 23.9297 107.871 24.2661 108.383 24.2661C108.939 24.2661 109.524 23.9735 109.524 23.4469V23.381C109.524 22.9349 108.975 22.5618 108.573 22.5618H108.258C107.893 22.5618 107.308 22.9861 107.308 23.381Z" fill="#9D9E9E"/>
<path fill-rule="evenodd" clip-rule="evenodd" d="M111.607 13.2653H111.798V12.2487C112.119 12.6217 112.054 13.2507 112.529 13.2507L112.997 12.3804V13.2653H113.246V12H113.056C112.858 12 112.536 12.8119 112.493 13.0094H112.361C112.31 12.7826 112.024 12 111.798 12H111.607V13.2653Z" fill="#9D9E9E"/>
</svg>
