<svg width="90" height="27" viewBox="0 0 90 27" fill="none" xmlns="http://www.w3.org/2000/svg">
<path fill-rule="evenodd" clip-rule="evenodd" d="M0 3.46417V18.8895C0 19.8972 0.561124 20.4527 1.56887 20.4527H16.9828C17.9905 20.4527 18.5459 19.8972 18.5459 18.8895V3.46417C18.5459 2.45642 17.9905 1.90103 16.9828 1.90103H1.56887C0.561124 1.90103 0 2.45642 0 3.46417Z" fill="#9D9E9E"/>
<path fill-rule="evenodd" clip-rule="evenodd" d="M65.7725 13.5241V13.7761C65.7725 17.5952 67.5704 20.7043 71.3723 20.7043H71.7846C72.5805 20.7043 73.3935 20.3092 73.9317 20.0401C74.3669 19.8225 75.5178 18.9236 75.661 18.8892V19.7939C75.661 20.0802 75.7239 20.1146 75.7411 20.3723H77.0638V7.09406C77.0638 6.90511 77.0065 6.84789 76.8118 6.84789H75.9072C75.5121 6.84789 75.661 7.62661 75.661 7.99878C74.6017 7.43765 73.7486 6.51575 72.1167 6.51575H71.7846C68.1773 6.51575 65.7725 9.87107 65.7725 13.5241Z" fill="#9D9E9E"/>
<path fill-rule="evenodd" clip-rule="evenodd" d="M46.1562 13.1978V13.9364C46.1562 17.3319 48.6527 20.7043 51.9278 20.7043H52.9127C53.6628 20.7043 54.4587 20.481 55.0255 20.2577C55.5867 20.0287 56.4398 19.4733 56.7891 19.3817C56.7719 19.1756 56.2565 18.1449 56.1306 18.1449C56.0046 18.1449 54.2697 19.3015 52.9986 19.3015H52.2542C49.7463 19.3015 47.8052 16.8051 47.8052 14.2685V14.0223H56.9551C57.1441 14.0223 57.2815 13.8849 57.2815 13.6902V12.0412C57.2815 9.20689 55.2488 6.51575 52.4203 6.51575H52.008C48.7329 6.51575 46.1562 9.88255 46.1562 13.1978Z" fill="#9D9E9E"/>
<path fill-rule="evenodd" clip-rule="evenodd" d="M67.4219 13.2783V13.6104C67.4219 16.0782 68.2521 18.3228 70.0271 18.9984C71.1952 19.4393 72.2946 19.342 73.3424 18.8782C73.7547 18.695 75.5754 17.4525 75.5754 17.0745V9.73401C75.5754 9.24732 73.2909 7.99915 72.6095 7.99915H71.6247C69.2485 7.99915 67.4219 10.8391 67.4219 13.2783Z" fill="white"/>
<path fill-rule="evenodd" clip-rule="evenodd" d="M83.8195 20.4526C83.8195 20.9851 82.9835 22.846 82.7487 23.2582C82.3823 23.8938 81.4833 24.9073 80.5214 24.9073L80.3496 24.9359L79.1186 24.7413C79.0671 24.8615 78.7922 25.6746 78.7922 25.812V25.8978C78.7922 26.2585 79.7656 26.3903 80.1893 26.3903H80.2752C84.3692 26.3903 85.0735 20.7389 86.3732 17.7329C86.7053 16.9713 87.0374 15.8204 87.3237 14.973C87.6557 14.011 87.965 13.1637 88.2799 12.2189C88.5776 11.3199 88.967 10.3866 89.2475 9.47621C89.3735 9.06968 90.387 6.84808 89.8373 6.84808H88.7608C88.4173 6.84808 87.7588 9.24715 87.6214 9.65941C87.3008 10.6271 86.9457 11.5947 86.6079 12.6082C86.2529 13.6847 84.7127 17.7901 84.644 18.6375C83.871 17.75 80.4355 6.84808 79.863 6.84808H78.7063C78.1738 6.84808 78.8781 8.13062 79.0041 8.44554C79.2446 9.05247 79.4679 9.59642 79.6854 10.1576C80.1435 11.3199 80.5959 12.3849 81.0654 13.5587C81.3631 14.3145 83.8195 20.2808 83.8195 20.4526Z" fill="#9D9E9E"/>
<path fill-rule="evenodd" clip-rule="evenodd" d="M41.4606 3.2179V6.84812C40.9739 6.95691 39.6455 6.77938 39.6455 7.17446V8.25092H41.3747V20.1263C41.3747 20.3152 41.432 20.3725 41.621 20.3725H42.9436V8.25092H45.9898V7.09429C45.9898 6.90534 45.9325 6.84812 45.7435 6.84812H43.0238V3.79622C43.0238 2.58235 43.5047 1.40287 44.6728 1.40287H44.9992C45.6748 1.40287 46.0527 1.72349 46.5681 1.73494L46.8944 0.412312C46.4707 0.314973 45.7779 0 45.3313 0H44.3407C42.7776 0 41.4606 1.70056 41.4606 3.2179Z" fill="#9D9E9E"/>
<path fill-rule="evenodd" clip-rule="evenodd" d="M24.0654 20.3726H33.9597V18.9697H25.6343V1.98126H24.0654V20.3726Z" fill="#9D9E9E"/>
<path fill-rule="evenodd" clip-rule="evenodd" d="M47.8047 12.6198H55.798C55.798 9.94007 54.6757 7.91888 52.0075 7.91888C49.7687 7.91888 47.8047 10.3867 47.8047 12.6198Z" fill="white"/>
<path fill-rule="evenodd" clip-rule="evenodd" d="M60.9917 8.98934C60.9917 8.44539 61.1692 6.84789 60.6596 6.84789H59.835C59.6461 6.84789 59.5889 6.90511 59.5889 7.09406V20.3723H60.9058C61.3524 20.3723 61.1577 17.3318 61.1577 16.742C61.1577 15.448 61.1577 14.1598 61.1577 12.8657C61.1577 11.148 61.1405 10.7929 61.9192 9.75658C62.3659 9.15537 63.2362 8.08461 64.2038 8.08461H64.6962C65.1257 8.08461 65.7785 8.33087 65.8987 8.1362C65.9503 8.06176 66.1793 7.00249 66.185 6.84789C65.9102 6.78491 65.3605 6.51575 65.1086 6.51575H64.536C63.763 6.51575 62.8984 7.02534 62.4231 7.37462C61.8219 7.81551 61.3295 8.74313 60.9917 8.98934Z" fill="#9D9E9E"/>
<path fill-rule="evenodd" clip-rule="evenodd" d="M35.8545 7.09425V20.3725H37.3375V7.09425C37.3375 6.9053 37.2802 6.84808 37.0913 6.84808H36.1007C35.9118 6.84808 35.8545 6.9053 35.8545 7.09425Z" fill="#9D9E9E"/>
<path fill-rule="evenodd" clip-rule="evenodd" d="M2.71973 5.03303V7.01414C2.71973 7.20309 2.94309 7.42645 3.13204 7.42645H5.11315C5.3021 7.42645 5.52539 7.20309 5.52539 7.01414V5.03303C5.52539 4.83835 5.3021 4.62079 5.11315 4.62079H3.13204C2.94309 4.62079 2.71973 4.83835 2.71973 5.03303Z" fill="white"/>
<path fill-rule="evenodd" clip-rule="evenodd" d="M13.0254 15.3395V17.3207C13.0254 17.5153 13.243 17.733 13.4377 17.733H15.4131C15.6078 17.733 15.8253 17.5153 15.8253 17.3207V15.3395C15.8253 15.1506 15.6078 14.9273 15.4131 14.9273H13.4377C13.243 14.9273 13.0254 15.1506 13.0254 15.3395Z" fill="white"/>
<path fill-rule="evenodd" clip-rule="evenodd" d="M2.71973 11.8754V13.7765C2.71973 13.9998 2.75982 13.9997 2.80563 14.1887C2.98885 14.2288 2.99456 14.2689 3.21787 14.2689H5.03298C5.25056 14.2689 5.25626 14.2288 5.43949 14.1887C5.48529 13.9997 5.52539 13.9998 5.52539 13.7765V11.8754C5.52539 11.6865 5.38799 11.5491 5.19332 11.5491H3.05187C2.85719 11.5491 2.71973 11.6865 2.71973 11.8754Z" fill="white"/>
<path fill-rule="evenodd" clip-rule="evenodd" d="M9.64844 15.2594V17.4008C9.64844 17.5955 9.7801 17.733 9.97478 17.733H11.8701C12.0934 17.733 12.0991 17.6929 12.2823 17.6528C12.3281 17.4638 12.3625 17.4581 12.3625 17.2405V15.4255C12.3625 15.2021 12.3281 15.1964 12.2823 15.0132C12.0991 14.9674 12.0934 14.9273 11.8701 14.9273H9.97478C9.7801 14.9273 9.64844 15.0647 9.64844 15.2594Z" fill="white"/>
<path fill-rule="evenodd" clip-rule="evenodd" d="M9.64844 4.95286V7.09431C9.64844 7.28899 9.7801 7.42645 9.97478 7.42645H11.8701C12.0934 7.42645 12.0991 7.38636 12.2823 7.34055C12.3281 7.15732 12.3625 7.15161 12.3625 6.92831V5.1132C12.3625 4.88989 12.3281 4.88991 12.2823 4.70096C12.0991 4.66088 12.0934 4.62079 11.8701 4.62079H9.97478C9.7801 4.62079 9.64844 4.75818 9.64844 4.95286Z" fill="white"/>
<path fill-rule="evenodd" clip-rule="evenodd" d="M13.0254 11.8755V13.7765C13.0254 13.9998 13.0655 13.9998 13.1056 14.1887C13.2888 14.2288 13.2946 14.2689 13.5179 14.2689H15.3329C15.5562 14.2689 15.5562 14.2288 15.7452 14.1887C15.7852 13.9998 15.8253 13.9998 15.8253 13.7765V11.8755C15.8253 11.6865 15.6879 11.5491 15.4933 11.5491H13.3518C13.1628 11.5491 13.0254 11.6865 13.0254 11.8755Z" fill="white"/>
<path fill-rule="evenodd" clip-rule="evenodd" d="M2.80563 8.16501C2.75982 8.35396 2.71973 8.35394 2.71973 8.57725V10.4783C2.71973 10.6672 2.85719 10.8046 3.05187 10.8046H5.19332C5.38799 10.8046 5.52539 10.6672 5.52539 10.4783V8.57725C5.52539 8.35394 5.48529 8.35396 5.43949 8.16501C5.25626 8.12493 5.25056 8.08484 5.03298 8.08484H3.21787C3.08618 8.08484 2.90297 8.13065 2.80563 8.16501Z" fill="white"/>
<path fill-rule="evenodd" clip-rule="evenodd" d="M13.1056 8.16501C13.0655 8.35396 13.0254 8.35394 13.0254 8.57725V10.4783C13.0254 10.6672 13.1628 10.8046 13.3518 10.8046H15.4933C15.6879 10.8046 15.8253 10.6672 15.8253 10.4783V8.57725C15.8253 8.35394 15.7852 8.35396 15.7452 8.16501C15.5562 8.12493 15.5562 8.08484 15.3329 8.08484H13.5179C13.3862 8.08484 13.2086 8.13065 13.1056 8.16501Z" fill="white"/>
<path fill-rule="evenodd" clip-rule="evenodd" d="M6.26376 4.70096C6.22368 4.88991 6.18359 4.88989 6.18359 5.1132V6.92831C6.18359 7.15161 6.22368 7.15732 6.26376 7.34055C6.45272 7.38636 6.4527 7.42645 6.67601 7.42645H8.57128C8.76596 7.42645 8.90336 7.28899 8.90336 7.09431V4.95286C8.90336 4.75818 8.76596 4.62079 8.57128 4.62079H6.67601C6.55004 4.62079 6.36683 4.6666 6.26376 4.70096Z" fill="white"/>
<path fill-rule="evenodd" clip-rule="evenodd" d="M6.26376 15.0132C6.22368 15.1964 6.18359 15.2021 6.18359 15.4255V17.2405C6.18359 17.4581 6.22368 17.4638 6.26376 17.6528C6.45272 17.6929 6.4527 17.733 6.67601 17.733H8.57128C8.76596 17.733 8.90336 17.5955 8.90336 17.4008V15.2594C8.90336 15.0647 8.76596 14.9273 8.57128 14.9273H6.67601C6.55004 14.9273 6.36683 14.9731 6.26376 15.0132Z" fill="white"/>
<path fill-rule="evenodd" clip-rule="evenodd" d="M6.18359 8.41125V10.4783C6.18359 10.6672 6.32099 10.8046 6.51567 10.8046H8.65711C8.84607 10.8046 8.90336 10.7474 8.90336 10.5584V8.41125C8.90336 8.2223 8.76596 8.08484 8.57128 8.08484H6.51567C6.32099 8.08484 6.18359 8.2223 6.18359 8.41125Z" fill="white"/>
<path fill-rule="evenodd" clip-rule="evenodd" d="M9.64844 11.7954V13.9368C9.64844 14.1315 9.7801 14.2689 9.97478 14.2689H12.0361C12.2307 14.2689 12.3625 14.1315 12.3625 13.9368V11.8755C12.3625 11.6865 12.2307 11.5491 12.0361 11.5491H9.89461C9.70566 11.5491 9.64844 11.6064 9.64844 11.7954Z" fill="white"/>
<path fill-rule="evenodd" clip-rule="evenodd" d="M35.6084 2.22737V3.55007C35.6084 3.73902 35.7401 3.87641 35.9347 3.87641H37.2517C37.4464 3.87641 37.5838 3.73902 37.5838 3.55007V2.22737C37.5838 1.97544 37.3433 1.90103 37.0914 1.90103H36.1008C35.8489 1.90103 35.6084 1.97544 35.6084 2.22737Z" fill="#9D9E9E"/>
</svg>
