<?xml version="1.0" encoding="UTF-8" standalone="no"?>
<!DOCTYPE svg PUBLIC "-//W3C//DTD SVG 1.1//EN" "http://www.w3.org/Graphics/SVG/1.1/DTD/svg11.dtd">
<svg width="100%" height="100%" viewBox="0 0 2280 815" version="1.1" xmlns="http://www.w3.org/2000/svg" xmlns:xlink="http://www.w3.org/1999/xlink" xml:space="preserve" xmlns:serif="http://www.serif.com/" style="fill-rule:evenodd;clip-rule:evenodd;stroke-linejoin:round;stroke-miterlimit:2;">
    <g transform="matrix(1,0,0,1,-5648.73,-2297)">
        <g transform="matrix(8.06918,0,0,8.06918,-22954,-20734.7)">
            <path d="M3661.67,2914.79L3665.35,2913.51C3665.6,2913.44 3665.79,2913.32 3665.93,2913.16C3666.08,2913 3666.15,2912.76 3666.15,2912.42L3666.15,2887.88C3666.15,2887.58 3666.07,2887.35 3665.91,2887.2C3665.75,2887.05 3665.57,2886.93 3665.35,2886.86L3661.67,2885.54L3661.67,2883.7L3687.81,2883.7L3687.81,2892.01L3684.7,2892.01L3684.01,2887.65C3683.97,2887.36 3683.85,2887.15 3683.67,2887C3683.49,2886.86 3683.28,2886.79 3683.04,2886.79L3671.13,2886.79L3671.13,2898.4L3678.4,2898.4C3678.72,2898.4 3678.95,2898.33 3679.08,2898.2C3679.22,2898.06 3679.32,2897.85 3679.38,2897.56L3680.06,2893.99L3682.54,2893.99L3682.54,2905.9L3680.06,2905.9L3679.38,2902.38C3679.32,2902.09 3679.22,2901.88 3679.08,2901.73C3678.95,2901.59 3678.72,2901.51 3678.4,2901.51L3671.13,2901.51L3671.13,2912.42C3671.13,2912.76 3671.21,2913 3671.38,2913.16C3671.54,2913.32 3671.74,2913.44 3671.97,2913.51L3675.81,2914.79L3675.81,2916.67L3661.67,2916.67L3661.67,2914.79Z" style="fill:white;fill-rule:nonzero;"/>
            <path d="M3708.65,2917.42C3706.06,2917.42 3703.76,2917.03 3701.76,2916.24C3699.76,2915.45 3698.08,2914.31 3696.71,2912.82C3695.34,2911.33 3694.3,2909.51 3693.59,2907.38C3692.89,2905.24 3692.54,2902.83 3692.54,2900.13C3692.54,2897.6 3692.9,2895.28 3693.64,2893.17C3694.37,2891.07 3695.43,2889.25 3696.82,2887.73C3698.21,2886.21 3699.9,2885.03 3701.9,2884.19C3703.9,2883.35 3706.16,2882.92 3708.7,2882.92C3711.44,2882.92 3713.82,2883.36 3715.84,2884.22C3717.87,2885.08 3719.54,2886.28 3720.87,2887.81C3722.19,2889.34 3723.18,2891.16 3723.82,2893.26C3724.46,2895.37 3724.79,2897.66 3724.79,2900.13C3724.79,2901.6 3724.65,2903.05 3724.38,2904.48C3724.1,2905.91 3723.69,2907.27 3723.13,2908.55C3722.57,2909.83 3721.85,2911.01 3720.98,2912.1C3720.11,2913.18 3719.07,2914.11 3717.88,2914.9C3716.68,2915.69 3715.32,2916.31 3713.79,2916.75C3712.26,2917.2 3710.54,2917.42 3708.65,2917.42ZM3709.06,2914.45C3710.76,2914.45 3712.24,2914.12 3713.53,2913.47C3714.81,2912.82 3715.87,2911.9 3716.73,2910.72C3717.59,2909.54 3718.23,2908.12 3718.66,2906.46C3719.09,2904.8 3719.31,2902.95 3719.31,2900.92C3719.31,2898.61 3719.08,2896.52 3718.63,2894.66C3718.17,2892.81 3717.49,2891.23 3716.57,2889.94C3715.65,2888.64 3714.5,2887.65 3713.12,2886.96C3711.73,2886.27 3710.1,2885.92 3708.22,2885.92C3706.41,2885.92 3704.87,2886.27 3703.58,2886.97C3702.29,2887.67 3701.24,2888.62 3700.41,2889.83C3699.59,2891.05 3698.98,2892.47 3698.59,2894.1C3698.21,2895.72 3698.01,2897.46 3698.01,2899.31C3698.01,2901.61 3698.24,2903.7 3698.68,2905.56C3699.13,2907.42 3699.81,2909.01 3700.72,2910.33C3701.63,2911.65 3702.78,2912.67 3704.16,2913.38C3705.55,2914.09 3707.18,2914.45 3709.06,2914.45Z" style="fill:white;fill-rule:nonzero;"/>
            <path d="M3730.45,2914.79L3734.13,2913.51C3734.37,2913.44 3734.56,2913.32 3734.71,2913.16C3734.85,2913 3734.92,2912.76 3734.92,2912.42L3734.92,2887.88C3734.92,2887.58 3734.84,2887.35 3734.68,2887.2C3734.53,2887.05 3734.34,2886.93 3734.13,2886.86L3730.45,2885.54L3730.45,2883.7L3744.31,2883.7C3745.99,2883.7 3747.46,2883.81 3748.72,2884.04C3749.98,2884.26 3751.06,2884.58 3751.96,2884.98C3752.86,2885.38 3753.6,2885.85 3754.18,2886.39C3754.77,2886.93 3755.23,2887.51 3755.57,2888.13C3755.91,2888.75 3756.15,2889.4 3756.28,2890.07C3756.4,2890.75 3756.47,2891.42 3756.47,2892.08C3756.47,2893.43 3756.24,2894.63 3755.78,2895.67C3755.31,2896.72 3754.72,2897.62 3754,2898.37C3753.28,2899.12 3752.49,2899.73 3751.62,2900.2C3750.74,2900.67 3749.9,2901 3749.08,2901.2L3757.38,2912.2C3757.44,2912.29 3757.53,2912.41 3757.66,2912.55C3757.79,2912.69 3757.93,2912.84 3758.09,2912.98C3758.25,2913.12 3758.41,2913.25 3758.58,2913.37C3758.75,2913.48 3758.91,2913.56 3759.08,2913.61L3762.88,2914.79L3762.88,2916.67L3757.15,2916.67C3756.36,2916.67 3755.74,2916.63 3755.29,2916.54C3754.83,2916.45 3754.45,2916.29 3754.14,2916.07C3753.83,2915.85 3753.54,2915.55 3753.26,2915.17C3752.99,2914.8 3752.64,2914.31 3752.22,2913.72L3744.31,2902.76L3739.9,2901.86L3739.9,2912.42C3739.9,2912.76 3739.98,2913 3740.14,2913.16C3740.3,2913.32 3740.5,2913.44 3740.74,2913.51L3744.4,2914.79L3744.4,2916.67L3730.45,2916.67L3730.45,2914.79ZM3739.9,2899.11C3740.07,2899.14 3740.32,2899.17 3740.67,2899.2C3741.02,2899.23 3741.39,2899.26 3741.79,2899.29C3742.18,2899.32 3742.57,2899.34 3742.95,2899.36C3743.32,2899.37 3743.64,2899.38 3743.88,2899.38C3745.12,2899.38 3746.2,2899.21 3747.1,2898.87C3748.01,2898.53 3748.77,2898.06 3749.37,2897.48C3749.96,2896.9 3750.41,2896.23 3750.71,2895.47C3751,2894.71 3751.15,2893.92 3751.15,2893.08C3751.15,2891.98 3750.98,2891.02 3750.65,2890.22C3750.32,2889.42 3749.83,2888.76 3749.18,2888.24C3748.54,2887.73 3747.73,2887.35 3746.76,2887.11C3745.79,2886.86 3744.67,2886.74 3743.4,2886.74L3739.9,2886.74L3739.9,2899.11Z" style="fill:white;fill-rule:nonzero;"/>
            <path d="M3793.99,2909.06L3793.99,2912.42C3793.32,2912.97 3792.55,2913.53 3791.67,2914.12C3790.79,2914.7 3789.84,2915.24 3788.82,2915.72C3787.8,2916.2 3786.71,2916.6 3785.55,2916.91C3784.39,2917.22 3783.2,2917.38 3781.97,2917.38C3779.51,2917.38 3777.28,2917 3775.25,2916.24C3773.23,2915.49 3771.5,2914.38 3770.06,2912.92C3768.62,2911.47 3767.51,2909.68 3766.72,2907.55C3765.93,2905.42 3765.54,2902.99 3765.54,2900.24C3765.54,2897.61 3765.95,2895.22 3766.76,2893.1C3767.58,2890.97 3768.73,2889.15 3770.2,2887.65C3771.66,2886.15 3773.41,2885 3775.43,2884.19C3777.46,2883.38 3779.66,2882.97 3782.06,2882.97C3782.92,2882.97 3783.87,2883.03 3784.9,2883.14C3785.93,2883.25 3786.96,2883.4 3787.99,2883.57C3789.02,2883.75 3790.01,2883.93 3790.95,2884.12C3791.89,2884.31 3792.7,2884.48 3793.38,2884.63L3793.38,2893.26L3790.29,2893.26L3789.58,2888.4C3789.55,2888.19 3789.41,2888 3789.17,2887.82C3788.93,2887.65 3788.72,2887.51 3788.54,2887.42C3788.02,2887.18 3787.51,2886.97 3787,2886.79C3786.49,2886.61 3785.97,2886.45 3785.43,2886.33C3784.9,2886.21 3784.34,2886.12 3783.76,2886.07C3783.19,2886.02 3782.57,2885.99 3781.92,2885.99C3780.3,2885.99 3778.82,2886.26 3777.48,2886.8C3776.14,2887.34 3774.99,2888.15 3774.04,2889.24C3773.08,2890.33 3772.34,2891.7 3771.81,2893.36C3771.28,2895.01 3771.01,2896.95 3771.01,2899.17C3771.01,2903.92 3772.07,2907.5 3774.18,2909.94C3776.3,2912.37 3779.35,2913.58 3783.35,2913.58C3784.45,2913.58 3785.46,2913.41 3786.39,2913.07C3787.32,2912.73 3788.17,2912.32 3788.95,2911.85C3789.72,2911.37 3790.41,2910.87 3791.03,2910.36C3791.64,2909.84 3792.16,2909.41 3792.6,2909.06L3793.99,2909.06Z" style="fill:white;fill-rule:nonzero;"/>
            <path d="M3799.51,2914.79L3803.2,2913.51C3803.42,2913.44 3803.61,2913.32 3803.76,2913.16C3803.91,2913 3803.99,2912.76 3803.99,2912.42L3803.99,2887.88C3803.99,2887.58 3803.91,2887.35 3803.75,2887.2C3803.59,2887.05 3803.41,2886.93 3803.2,2886.86L3799.51,2885.54L3799.51,2883.7L3825.56,2883.7L3825.56,2892.01L3822.45,2892.01L3821.76,2887.65C3821.72,2887.36 3821.6,2887.15 3821.42,2887C3821.24,2886.86 3821.03,2886.79 3820.79,2886.79L3808.97,2886.79L3808.97,2897.99L3815.88,2897.99C3816.2,2897.99 3816.42,2897.92 3816.56,2897.79C3816.7,2897.65 3816.79,2897.43 3816.85,2897.13L3817.54,2893.58L3820.04,2893.58L3820.04,2905.49L3817.54,2905.49L3816.85,2901.97C3816.79,2901.67 3816.7,2901.44 3816.56,2901.3C3816.42,2901.16 3816.2,2901.08 3815.88,2901.08L3808.97,2901.08L3808.97,2913.58L3822.49,2913.58C3822.7,2913.58 3822.9,2913.51 3823.09,2913.36C3823.28,2913.2 3823.4,2912.99 3823.45,2912.7L3824.15,2907.83L3827.24,2907.83L3827.24,2916.67L3799.51,2916.67L3799.51,2914.79Z" style="fill:white;fill-rule:nonzero;"/>
        </g>
        <path d="M6056.23,3112C5831.33,3112 5648.73,2929.41 5648.73,2704.5C5648.73,2479.6 5831.33,2297 6056.23,2297C6281.14,2297 6463.73,2479.6 6463.73,2704.5C6463.73,2929.41 6281.14,3112 6056.23,3112ZM6056.23,2352.15C6250.7,2352.15 6408.58,2510.03 6408.58,2704.5C6408.58,2898.97 6250.7,3056.85 6056.23,3056.85C5861.77,3056.85 5703.88,2898.97 5703.88,2704.5C5703.88,2510.03 5861.77,2352.15 6056.23,2352.15ZM6056.23,2375.33C6237.91,2375.33 6385.4,2522.83 6385.4,2704.5C6385.4,2886.17 6237.91,3033.67 6056.23,3033.67C5874.56,3033.67 5727.07,2886.17 5727.07,2704.5C5727.07,2522.83 5874.56,2375.33 6056.23,2375.33ZM5887.75,2518.41C5899.92,2506.65 5916.49,2499.4 5934.73,2499.4C5950.52,2499.4 5965.05,2504.83 5976.56,2513.91C5976.92,2513.98 5977.12,2514.02 5977.12,2514.02L5980.87,2517.6L5981.21,2517.92C5981.34,2518.05 5981.48,2518.18 5981.62,2518.31L5981.95,2518.64L6134.84,2664.6L6135.71,2730.57L5976.92,2571.79L5976.39,2571.79L5955.54,2550.94L5955.36,2551.13C5950.92,2546.78 5944.85,2544.1 5938.15,2544.1C5924.57,2544.1 5913.54,2555.12 5913.54,2568.7C5913.54,2569.75 5913.61,2570.78 5913.73,2571.79L5913.15,2571.79L5913.15,2912.3L5867.11,2868.65L5867.11,2556.81C5867.11,2540.78 5875.31,2526.65 5887.75,2518.41ZM6224.72,2889.45C6212.55,2901.21 6195.98,2908.45 6177.74,2908.45C6161.95,2908.45 6147.42,2903.03 6135.9,2893.95C6135.55,2893.88 6135.35,2893.84 6135.35,2893.84L6131.6,2890.25L6131.26,2889.94C6131.12,2889.8 6130.99,2889.67 6130.85,2889.54L6130.52,2889.22L5977.63,2743.26L5976.76,2677.28L6135.55,2836.07L6136.08,2836.07L6156.93,2856.91L6157.11,2856.73C6161.55,2861.08 6167.62,2863.76 6174.32,2863.76C6187.9,2863.76 6198.93,2852.74 6198.93,2839.16C6198.93,2838.11 6198.86,2837.08 6198.73,2836.07L6199.32,2836.07L6199.32,2615.41L6245.36,2659.06L6245.36,2851.04C6245.36,2867.08 6237.16,2881.2 6224.72,2889.45ZM6199.32,2556.05L6199.32,2496.7L6245.36,2540.35L6245.36,2599.71L6199.32,2556.05Z" style="fill:white;"/>
    </g>
</svg>
