<svg width="193" height="193" viewBox="0 0 193 193" fill="none" xmlns="http://www.w3.org/2000/svg">
<rect x="0.707107" y="96.066" width="134.858" height="134.858" transform="rotate(-45 0.707107 96.066)" stroke="#00A9C6"/>
<rect x="15" y="96.066" width="114.645" height="114.645" transform="rotate(-45 15 96.066)" fill="#00A9C6"/>
<path d="M91.75 118.816C91.75 115.716 92.2167 112.949 93.15 110.516C94.1167 108.049 95.3333 105.833 96.8 103.866C98.2667 101.866 99.75 99.9827 101.25 98.216C102.45 96.816 103.567 95.4327 104.6 94.066C105.633 92.666 106.467 91.216 107.1 89.716C107.733 88.216 108.05 86.616 108.05 84.916C108.05 81.816 107.25 79.4827 105.65 77.916C104.05 76.3494 101.717 75.566 98.65 75.566C95.3833 75.566 92.85 76.616 91.05 78.716C89.25 80.7827 88.35 83.9494 88.35 88.216H74.7C74.7 82.716 75.7667 78.2494 77.9 74.816C80.0333 71.3494 82.9 68.816 86.5 67.216C90.1 65.5827 94.0833 64.766 98.45 64.766C102.85 64.766 106.783 65.5494 110.25 67.116C113.75 68.6827 116.5 71.016 118.5 74.116C120.533 77.216 121.55 81.116 121.55 85.816C121.55 88.716 121.067 91.2827 120.1 93.516C119.133 95.7494 117.883 97.7494 116.35 99.516C114.85 101.283 113.3 102.966 111.7 104.566C109.533 106.699 107.617 108.866 105.95 111.066C104.317 113.233 103.5 115.816 103.5 118.816H91.75ZM98.35 140.566C96.05 140.566 94.1 139.766 92.5 138.166C90.9 136.566 90.1 134.616 90.1 132.316C90.1 130.049 90.9 128.116 92.5 126.516C94.1 124.916 96.05 124.116 98.35 124.116C100.583 124.116 102.5 124.916 104.1 126.516C105.733 128.116 106.55 130.049 106.55 132.316C106.55 134.616 105.733 136.566 104.1 138.166C102.5 139.766 100.583 140.566 98.35 140.566Z" fill="white"/>
</svg>
