<svg width="143" height="29" viewBox="0 0 143 29" fill="none" xmlns="http://www.w3.org/2000/svg">
<path fill-rule="evenodd" clip-rule="evenodd" d="M7.40208 10.4183L7.23685 10.5036L7.15696 10.5835L7.07701 10.6635L6.99706 10.7434L6.91178 10.8286L6.83183 10.9885L6.75195 11.2336V12.049L6.83183 12.2888L6.91178 12.454L6.99706 12.534L7.07701 12.6192L7.15696 12.6991L7.23685 12.7791L7.32213 12.859L7.40208 12.9443L7.56191 13.0242L7.64719 13.1041L7.72714 13.1894L7.88704 13.2694L8.05221 13.3493L8.13216 13.4292L8.29732 13.5145L8.37727 13.5944L8.54251 13.6744L8.62245 13.7543L8.78229 13.8396L8.86757 13.9195L9.0274 13.9995L9.10735 14.0793L9.19264 14.1646L9.27258 14.2446L9.35253 14.3245L9.43242 14.4097L9.5177 14.4897L9.59765 14.5696L9.6776 14.6496L9.76282 14.7349L9.84277 14.8148L9.92272 14.8947L10.0027 15.0599L10.0879 15.2198L10.1678 15.385L10.2478 15.5448L10.3277 15.79L10.413 16.0351L10.4929 16.5254V17.4207L10.413 17.9056L10.3277 18.2307L10.2478 18.4758L10.1678 18.6411L10.0879 18.801L10.0027 18.9661L9.92272 19.0461L9.84277 19.2112L9.76282 19.2912L9.6776 19.3711L9.59765 19.4564L9.5177 19.5364L9.43242 19.6162L9.27258 19.6962L9.19264 19.7815L9.0274 19.8614L8.86757 19.9413L8.62245 20.0266L8.37727 20.1065L7.97226 20.1865H6.75195L6.26165 20.1065L5.93659 20.0266L5.69147 19.9413L5.53157 19.8614L5.36634 19.7815L5.20651 19.6962L5.04127 19.6162L4.96132 19.5364C4.56697 19.3765 4.87611 17.2555 4.88144 17.2555L4.96132 17.3355L5.04127 17.4207L5.12656 17.5006L5.20651 17.5806L5.28646 17.6659L5.45162 17.7457L5.53157 17.8257L5.61152 17.9056L5.77669 17.9909L5.93659 18.0709L6.10175 18.1508L6.34693 18.2307L6.75195 18.316H7.48203L7.80709 18.2307L7.97226 18.1508L8.05221 18.0709L8.13216 17.9909L8.21211 17.9056L8.29732 17.8257L8.37727 17.5806V16.6054L8.29732 16.4401L8.21211 16.2803L8.13216 16.2004L8.05221 16.1151L7.97226 16.0351L7.88704 15.9552L7.80709 15.8752L7.72714 15.79L7.64719 15.7101L7.56191 15.6301L7.40208 15.5448L7.32213 15.465L7.23685 15.385L7.07701 15.3051L6.91178 15.2198L6.83183 15.1399L6.672 15.0599L6.58672 14.98L6.42682 14.8947L6.34693 14.8148L6.26165 14.7349L6.10175 14.6496L6.01653 14.5696L5.93659 14.4897L5.85664 14.4097L5.77669 14.3245L5.69147 14.2446L5.61152 14.1646L5.53157 13.9995L5.45162 13.9195L5.36634 13.7543L5.28646 13.6744L5.20651 13.5145L5.12656 13.3493L5.04127 13.1894L4.96132 12.9443L4.88144 12.534V11.0685L4.96132 10.7434L5.04127 10.5036L5.12656 10.2584L5.20651 10.0932L5.28646 9.93338L5.36634 9.8481L5.45162 9.6882L5.53157 9.60298L5.61152 9.52303L5.69147 9.36314L5.77669 9.27792L5.93659 9.19797L6.01653 9.11802L6.10175 9.03274L6.1817 8.95279L6.34693 8.8729L6.50677 8.79295L6.672 8.70767L6.83183 8.62772L7.07701 8.54777L7.48203 8.46789H9.35253L9.6776 8.54777L9.92272 8.62772H10.1732L10.0879 10.9086L9.92272 10.8286L9.84277 10.7434L9.6776 10.6635L9.5177 10.5835L9.35253 10.5036L9.10735 10.4183L8.78229 10.3384H7.64719L7.40208 10.4183ZM15.9446 0.079949L15.5342 0.165167L15.0493 0.245116L14.559 0.325065L14.154 0.405014L13.6637 0.490232L13.2587 0.570181L12.7684 0.65013L12.2835 0.735413L11.8732 0.815362L11.3882 0.895246L10.9832 0.975195L10.4929 1.06048L10.0027 1.14043L9.59765 1.22031L9.10735 1.30559L8.70234 1.38554L8.21211 1.46549L7.72714 1.54544L7.32213 1.63066L6.83183 1.71061L6.42682 1.79056L5.93659 1.87051L5.45162 1.95572L5.04127 2.03567L4.55638 2.11562L4.14603 2.20091L3.66106 2.28085L3.17077 2.36074L2.76575 2.44069L2.27552 2.52597L1.87051 2.60592L1.38021 2.6858L0.895311 2.76575L0.484963 2.85104L0 2.93098V25.6381L0.245116 25.7234L0.65013 25.8033L1.14043 25.8832L1.62539 25.9632L2.03034 26.0485L2.52064 26.1284L2.92565 26.2083L3.41595 26.2936L3.90618 26.3735L4.31119 26.4535L4.79616 26.5334L5.20651 26.6186L5.69147 26.6986L6.1817 26.7785L6.58672 26.8638L7.07701 26.9437L7.48203 27.0237L7.97226 27.1036L8.45722 27.1889L8.86757 27.2688L9.35253 27.3487L9.76282 27.4287L10.2478 27.514L10.7381 27.5939L11.1431 27.6738L11.6333 27.7537L12.0383 27.839L12.5286 27.919L13.0136 27.9989L13.4186 28.0841L13.9088 28.1641L14.3139 28.244L14.8042 28.324L15.2891 28.4092L15.6994 28.4892L16.1844 28.5691H16.6747V0H16.4295L15.9446 0.079949Z" fill="#9D9E9E"/>
<path fill-rule="evenodd" clip-rule="evenodd" d="M19.2749 4.07116L19.115 4.15104L18.9498 4.23099L18.79 4.31628L18.6247 4.39623L18.5449 4.47617L18.4649 4.55606L18.385 4.64134L18.2997 4.72129L18.2197 4.80124V8.87265L18.2997 8.95254L18.4649 9.03249L18.5449 9.11777L18.6247 9.19772L18.71 9.27767L18.8699 9.36288L19.0351 9.44283L19.195 9.52278L19.4401 9.60273L19.8451 9.68795H20.6605L20.9855 9.60273L21.2307 9.52278L21.3906 9.44283L21.5557 9.36288L21.7156 9.27767L21.8009 9.19772L21.9607 9.11777L22.046 9.03249L22.126 8.95254L22.2059 8.87265H22.451L22.6109 8.95254L22.7761 9.03249L22.936 9.11777L23.0212 9.19772L23.1811 9.27767L23.3463 9.36288L23.4262 9.44283L23.5861 9.52278L23.6714 9.60273L23.7513 9.68795L23.8312 9.7679L23.9112 9.84785L24.0764 9.93313L24.1563 10.013L24.2416 10.093L24.3215 10.1729L24.4015 10.3381L24.4814 10.418L24.5667 10.5033L24.6466 10.5833L24.7266 10.6632L24.8065 10.8284L24.8917 10.9083L24.9717 11.0682L25.0516 11.1534L25.1316 11.3133L25.2168 11.4785L25.2967 11.6384L25.3767 11.8036L25.462 11.9635L25.5419 12.1287V12.2885L25.462 12.3738L25.3767 12.4538L25.2967 12.5337L25.2168 12.6189L25.1316 12.7788L25.0516 12.944L24.9717 13.1039L24.8917 13.2691L24.8065 13.5142L24.7266 13.9193V14.7346L24.8065 15.1396L24.8917 15.3848L24.9717 15.5446L25.0516 15.7098L25.1316 15.875L25.2168 16.0349L25.2967 16.1148L25.3767 16.2001L25.462 16.28L25.5419 16.3599V16.4399L25.462 16.685L25.3767 16.8502L25.2967 17.0101L25.2168 17.1753L25.1316 17.3352L25.0516 17.5004L24.9717 17.5803L24.8917 17.7455L24.8065 17.8254L24.7266 17.9054L24.6466 18.0706L24.5667 18.1505L24.4814 18.2305L24.4015 18.3157L24.3215 18.3957L24.2416 18.4756V18.6408H24.0764L23.9965 18.7208L23.9112 18.8007L23.8312 18.8859L23.7513 18.9659L23.6714 19.0458L23.5062 19.1258L23.4262 19.211L23.2611 19.2909L23.1811 19.3709L23.0212 19.4562L22.8561 19.5361L22.7761 19.616L22.531 19.6959L22.3711 19.7812H22.2059L22.126 19.6959L22.046 19.616L21.9607 19.5361L21.8808 19.4562L21.7156 19.3709L21.5557 19.2909L21.4758 19.211L21.2307 19.1258L21.0655 19.0458L20.6605 18.9659H19.7652L19.4401 19.0458L19.195 19.1258L19.0351 19.211L18.8699 19.2909L18.71 19.3709L18.6247 19.4562L18.5449 19.5361L18.385 19.616L18.2997 19.6959L18.2197 19.7812V23.8473L18.2997 23.9326L18.385 24.0125L18.4649 24.0924L18.5449 24.1724L18.71 24.2577L18.79 24.3375L18.9498 24.4175L19.115 24.5028L19.2749 24.5827L19.6053 24.6627H20.9056L21.1507 24.5827L21.3906 24.5028L21.5557 24.4175L21.6357 24.3375L21.8009 24.2577L21.8808 24.1724L22.046 24.0924L22.126 24.0125L22.2059 23.9326L22.2858 23.8473L22.3711 23.7674L22.451 23.6021L22.531 23.5222L22.6109 23.3623L22.6962 23.2771L22.7761 23.1172L22.8561 22.872L22.936 22.6269L23.0212 22.2219V21.4066L23.1012 21.3267L23.2611 21.2467L23.4262 21.1614L23.5861 21.0815L23.7513 21.0016L23.8312 20.9163L23.9965 20.8364L24.1563 20.7564L24.2416 20.6765L24.4015 20.5913L24.4814 20.5113L24.5667 20.4314L24.7266 20.3514L24.8065 20.2662L24.8917 20.1862L24.9717 20.1063L25.0516 20.0263L25.1316 19.9411L25.2168 19.8612L25.2967 19.7812L25.3767 19.6959L25.462 19.616L25.5419 19.5361L25.6218 19.4562L25.7018 19.3709L25.787 19.2909L25.867 19.211L25.9469 19.1258L26.0268 18.9659L26.1121 18.8859L26.1921 18.8007L26.272 18.6408L26.3519 18.5609L26.4372 18.3957L26.5171 18.2305L26.5971 18.1505L26.6823 17.9907L26.7622 17.8254L26.8422 17.6656L26.9221 17.5004L27.0074 17.2553L28.0626 17.1753L28.3876 17.0954L28.5528 17.0101L28.7926 16.9302L28.8779 16.8502L29.0378 16.765L29.1177 16.685L29.2829 16.6051L29.3628 16.5252L29.4481 16.4399L29.5281 16.3599L29.6079 16.28L29.6879 16.2001L29.7732 16.0349L29.8531 15.9549L29.9331 15.7898L30.0129 15.7098L30.0982 15.4647L30.1782 15.3048L30.2581 14.9797V13.6741L30.1782 13.349L30.0982 13.1892L30.0129 12.944L29.9331 12.8588L29.8531 12.6989L29.7732 12.6189L29.6879 12.4538L29.6079 12.3738L29.5281 12.2885L29.4481 12.2087L29.3628 12.1287L29.2829 12.0488L29.203 11.9635L29.0378 11.8835L28.9578 11.8036L28.7926 11.7237L28.6327 11.6384L28.3876 11.5585L28.0626 11.4785H27.0074V11.3133L26.9221 11.1534L26.8422 10.9883L26.7622 10.8284L26.6823 10.6632L26.5971 10.5033L26.5171 10.3381L26.4372 10.2582L26.3519 10.093L26.272 10.013L26.1921 9.84785L26.1121 9.7679L26.0268 9.68795L25.9469 9.52278L25.867 9.44283L25.787 9.36288L25.7018 9.27767L25.6218 9.19772L25.5419 9.03249L25.462 8.95254L25.3767 8.87265L25.2967 8.7927L25.2168 8.70742L25.1316 8.62747L24.9717 8.54752L24.8917 8.46764L24.8065 8.38235L24.7266 8.30241L24.6466 8.22246L24.4814 8.14257L24.4015 8.05729L24.2416 7.97734L24.1563 7.89739L23.9965 7.81217L23.9112 7.73222L23.7513 7.65228L23.5861 7.57233L23.4262 7.48704L23.2611 7.40716L23.1012 7.32721L23.0212 7.24193V6.35195L22.936 6.02155L22.8561 5.78177L22.7761 5.53665L22.6962 5.37142L22.6109 5.29147L22.531 5.1263L22.451 5.04636L22.3711 4.88646L22.2858 4.80124L22.2059 4.72129L22.126 4.64134L22.046 4.55606L21.8808 4.47617L21.8009 4.39623L21.6357 4.31628L21.5557 4.23099L21.3906 4.15104L21.1507 4.07116L20.9056 3.99121H19.6053L19.2749 4.07116Z" fill="#9D9E9E"/>
<path fill-rule="evenodd" clip-rule="evenodd" d="M101.759 11.8836L101.679 12.2087L101.599 12.4539L101.519 12.619L101.434 12.7789L101.354 12.9441L101.274 13.024L101.194 13.1893L101.109 13.2692L101.029 13.3491L100.949 13.4291L100.869 13.5143L100.784 13.5943L100.704 13.6742L100.624 13.7541L100.459 13.8394L100.299 13.9194L100.214 13.9993L100.054 14.0792L99.8085 14.1645L99.6486 14.2444L99.3236 14.3244L98.9932 14.4096L98.5082 14.4895L95.5772 14.5695V7.64703L98.7533 7.73232L99.3236 7.81226L99.6486 7.89748L99.8884 7.97743L100.134 8.05738L100.299 8.14266L100.459 8.22255L100.539 8.3025L100.704 8.38245L100.784 8.46773L100.869 8.54761L101.029 8.62756L101.109 8.79279L101.194 8.87274L101.274 8.95263L101.354 9.11786L101.434 9.19781L101.519 9.36298L101.599 9.52287L101.679 9.76799L101.759 10.0931L101.844 10.8285V11.1535L101.759 11.8836ZM93.5469 22.9521H95.5772V16.44H98.8333L99.4035 16.36L99.8085 16.2801L100.134 16.2002L100.379 16.1149L100.624 16.035L100.784 15.955L100.949 15.8751L101.194 15.7899L101.274 15.7099L101.434 15.63L101.599 15.5447L101.679 15.4648L101.844 15.3848L101.924 15.3049L102.084 15.2196L102.169 15.1397L102.249 15.0598L102.329 14.9798L102.414 14.8945L102.494 14.8146L102.574 14.7347L102.654 14.6494L102.74 14.5695L102.819 14.4895L102.899 14.4096L102.979 14.3244L103.065 14.2444L103.145 14.0792L103.224 13.9993L103.304 13.8394L103.39 13.7541L103.47 13.5943L103.549 13.4291L103.629 13.2692L103.715 13.104L103.795 12.8589L103.875 12.619L103.96 12.2886L104.04 11.8836V9.84794L103.96 9.44292L103.875 9.11786L103.795 8.87274L103.715 8.62756L103.629 8.46773L103.549 8.3025L103.47 8.14266L103.39 8.05738L103.304 7.89748L103.224 7.81226L103.145 7.65237L103.065 7.57242L102.979 7.48713L102.899 7.40725L102.819 7.3273L102.74 7.24202L102.654 7.16207L102.574 7.08212L102.494 7.00224L102.414 6.91695L102.329 6.837L102.169 6.75706L102.084 6.67717L101.924 6.59189L101.844 6.51194L101.679 6.43199L101.519 6.35204L101.354 6.26682L101.109 6.18687L100.949 6.10693L100.704 6.02164L100.379 5.94176L100.054 5.86181L99.4835 5.78186H93.5469V22.9521Z" fill="#9D9E9E"/>
<path fill-rule="evenodd" clip-rule="evenodd" d="M49.0488 22.9523H51.0845L51.1645 15.2198L51.2444 14.8148L51.3296 14.4897L51.4096 14.3246L51.4895 14.0794L51.5695 13.9196L51.6547 13.7543L51.7346 13.6744L51.8146 13.5146L51.8945 13.4293L51.9798 13.3493L52.0597 13.1895L52.1396 13.1042L52.2249 13.0243L52.3049 12.9443L52.3848 12.8591L52.55 12.7791L52.6299 12.6992L52.7099 12.6192L52.8751 12.534L53.035 12.4541L53.2001 12.3741L53.44 12.2888L53.6851 12.209H55.1506L55.3957 12.2888L55.6409 12.3741L55.8007 12.4541L55.8807 12.534L56.0459 12.6192L56.1258 12.6992L56.2057 12.7791L56.291 12.8591L56.371 12.9443L56.4509 13.0243L56.5308 13.1895L56.6161 13.2694L56.696 13.4293L56.776 13.5945L56.8612 13.8396L56.9411 14.0794L57.0211 14.4098L57.101 14.8948L57.1863 22.9523H59.2167V14.1647L59.1367 13.5945L59.0568 13.2694L58.9715 12.9443L58.8916 12.6992L58.8116 12.534L58.7317 12.3741L58.6465 12.209L58.5665 12.0491L58.4866 11.8838L58.4066 11.8039L58.3213 11.6387L58.2415 11.5588L58.1615 11.4788L58.0816 11.3936L57.9963 11.3136L57.9164 11.2337L57.8364 11.1537L57.7512 11.0685L57.5913 10.9886L57.5114 10.9086L57.3462 10.8287L57.1863 10.7435L57.0211 10.6635L56.8612 10.5836L56.6161 10.5036L56.291 10.4183L55.8007 10.3384H54.4205L53.9302 10.4183L53.6051 10.5036L53.36 10.5836L53.2001 10.6635L52.955 10.7435L52.8751 10.8287L52.7099 10.9086L52.55 10.9886L52.4647 11.0685L52.3049 11.1537L52.2249 11.2337L52.1396 11.3136L52.0597 11.3936L51.9798 11.4788L51.8945 11.5588L51.8146 11.6387L51.7346 11.724L51.6547 11.8039L51.5695 11.8838L51.4895 11.9638L51.4096 12.0491L51.3296 12.129L51.2444 12.2888L51.1645 12.3741L51.0845 12.534V4.80154H49.0488V22.9523Z" fill="#9D9E9E"/>
<path fill-rule="evenodd" clip-rule="evenodd" d="M82.6428 15.3849L82.7281 15.0598L82.8081 14.7347L82.888 14.5695L82.9679 14.3244L83.0532 14.1645L83.1331 13.9993L83.2131 13.8394L83.293 13.7541L83.3783 13.5943L83.4582 13.5144L83.5381 13.3491L83.6234 13.2692L83.7033 13.1893L83.7833 13.104L83.8632 13.0241L83.9485 12.9441L84.0284 12.8589L84.1083 12.7789L84.2736 12.699L84.3535 12.619L84.5133 12.5338L84.6786 12.4539L84.8384 12.3739L85.0836 12.2886L85.3287 12.2088H86.7942L87.1193 12.2886L87.2792 12.3739L87.5243 12.4539L87.6042 12.5338L87.7694 12.619L87.8493 12.699L87.9293 12.7789L88.0945 12.8589L88.1744 13.0241L88.2597 13.104L88.3396 13.1893L88.4196 13.2692L88.4995 13.4291L88.5848 13.5943L88.6647 13.7541L88.7447 13.9194L88.8246 14.1645L88.9098 14.4896L88.9898 15.0598L89.0697 15.5447H82.5523L82.6428 15.3849ZM84.8384 10.4181L84.5133 10.5034L84.2736 10.5834L84.1083 10.6633L83.8632 10.7433L83.7033 10.8285L83.5381 10.9084L83.3783 10.9884L83.293 11.0683L83.1331 11.1536L83.0532 11.2335L82.888 11.3135L82.8081 11.3934L82.7281 11.4786L82.563 11.5586L82.483 11.6385L82.4031 11.7238L82.3178 11.8037L82.2378 11.8836L82.1579 11.9636L82.0727 12.0489L81.9927 12.1288L81.9128 12.2088L81.8328 12.3739L81.7476 12.4539L81.6676 12.5338L81.5877 12.699L81.5077 12.7789L81.4225 12.9441L81.3426 13.104L81.2626 13.1893L81.1827 13.3491L81.0975 13.5144L81.0175 13.6743L80.9376 13.9194L80.8576 14.0792L80.7723 14.3244L80.6924 14.5695L80.6125 14.8946L80.5272 15.3049L80.4473 15.7899V17.9908L80.5272 18.561L80.6125 18.966L80.6924 19.291L80.7723 19.6161L80.8576 19.8613L80.9376 20.0265L81.0175 20.1864L81.0975 20.4315L81.1827 20.5914L81.2626 20.6766L81.3426 20.8365L81.4225 21.0017L81.5077 21.0816L81.5877 21.2468L81.6676 21.3268L81.7476 21.4067L81.8328 21.4866L81.9128 21.5719L81.9927 21.7318L82.0727 21.817L82.1579 21.897L82.3178 21.9769L82.4031 22.0569L82.483 22.1421L82.563 22.222L82.6428 22.302L82.8081 22.3819L82.888 22.4672L83.0532 22.5471L83.2131 22.627L83.3783 22.7123L83.5381 22.7923L83.7033 22.8722L83.9485 22.9521L84.1883 23.0374L84.5133 23.1173L84.9237 23.1973H87.2792L87.7694 23.1173L88.1744 23.0374L88.4995 22.9521L88.7447 22.8722L88.9898 22.7923L89.1497 22.7123L89.3948 22.627L89.56 22.5471L89.7199 22.4672L89.8051 22.3819L89.965 22.302L90.1302 22.222L90.2101 22.1421L90.2901 22.0569V20.1064H90.2101L90.1302 20.1864L89.965 20.2663L89.8851 20.3515L89.7199 20.4315L89.6399 20.5114L89.4801 20.5914L89.3148 20.6766L89.2349 20.7565L89.0697 20.8365L88.9098 20.9164L88.6647 21.0017L88.4995 21.0816L88.2597 21.1616L87.9293 21.2468L87.6042 21.3268L87.0393 21.4067H85.9788L85.4087 21.3268L85.0836 21.2468L84.8384 21.1616L84.6786 21.0816L84.5133 21.0017L84.3535 20.9164L84.1883 20.8365L84.1083 20.7565L84.0284 20.6766L83.8632 20.5914L83.7833 20.5114L83.7033 20.4315L83.6234 20.3515L83.5381 20.2663L83.4582 20.1064L83.3783 20.0265L83.293 19.9412L83.2131 19.7813L83.1331 19.6161L83.0532 19.4563L82.9679 19.291L82.888 19.1259L82.8081 18.8008L82.7281 18.561L82.6428 18.0707L82.563 17.3353H91.1853V15.7899L91.1054 14.8946L91.0254 14.4096L90.9402 13.9993L90.8603 13.7541L90.7803 13.5144L90.7004 13.2692L90.6152 13.104L90.5352 12.9441L90.4553 12.7789L90.37 12.619L90.2901 12.4539L90.2101 12.3739L90.1302 12.2088L90.0449 12.1288L89.965 11.9636L89.8851 11.8836L89.8051 11.8037L89.7199 11.7238L89.6399 11.6385L89.56 11.5586L89.4801 11.4786L89.3948 11.3934L89.3148 11.3135L89.1497 11.2335L89.0697 11.1536L88.9898 11.0683L88.8246 10.9884L88.6647 10.9084L88.4995 10.8285L88.3396 10.7433L88.1744 10.6633L87.9293 10.5834L87.6895 10.5034L87.3644 10.4181L86.8741 10.3383H85.4087L84.8384 10.4181Z" fill="#9D9E9E"/>
<path fill-rule="evenodd" clip-rule="evenodd" d="M41.0768 5.53688L40.7518 5.61677L40.4267 5.69672L40.1816 5.782L39.9417 5.86195L39.7766 5.9419L39.6167 6.02178L39.4515 6.10706L39.2863 6.18701L39.1264 6.26696L39.0465 6.35218L38.8812 6.43213L38.8013 6.51208L38.7214 6.59203L38.5562 6.67731L38.4762 6.75719L38.3964 6.83714L38.3111 6.91709L38.2311 7.00238L38.1512 7.08226L38.066 7.16221L37.986 7.24216L37.9061 7.32744L37.8261 7.48727L37.7462 7.57256L37.6609 7.65251L37.581 7.8124L37.501 7.97757L37.4158 8.1428L37.3358 8.30264L37.2559 8.54775L37.176 8.79293L37.0907 9.118L37.0107 9.84808V10.3384L37.0907 11.0685L37.176 11.3935L37.2559 11.6386L37.3358 11.8838L37.4158 12.049L37.501 12.2089L37.581 12.2888L37.6609 12.454L37.7462 12.5339L37.8261 12.6991L37.9061 12.7791L37.986 12.859L38.066 12.9442L38.1512 13.0242L38.2311 13.1041L38.3111 13.1894L38.3964 13.2694L38.4762 13.3492L38.5562 13.4292L38.6361 13.5145L38.7214 13.5944L38.8013 13.6744L38.8812 13.7543L39.0465 13.8395L39.1264 13.9195L39.2063 13.9994L39.3715 14.0793L39.4515 14.1646L39.6167 14.2446L39.6966 14.3245L39.8565 14.4097L39.9417 14.4897L40.1016 14.5696L40.1816 14.6496L40.3467 14.7349L40.5066 14.8147L40.5919 14.8947L40.7518 14.98L40.917 15.0599L41.0768 15.1399L41.1621 15.2198L41.322 15.305L41.4872 15.385L41.5671 15.4649L41.727 15.5448L41.8922 15.6301L41.9721 15.71L42.1373 15.79L42.2172 15.8752L42.3825 15.9552L42.4624 16.0351L42.6223 16.1151L42.7075 16.2003L42.8674 16.2802L42.9473 16.3602L43.0326 16.4401L43.1126 16.5254L43.2724 16.6054L43.3577 16.6852L43.4376 16.7652L43.5176 16.8505L43.6028 16.9304L43.6827 17.0103L43.7627 17.0956L43.8426 17.1755L43.9279 17.3354L44.0078 17.4207L44.0878 17.5806L44.1677 17.7457L44.253 17.9056L44.3329 18.2307V19.4564L44.253 19.6962L44.1677 19.9413L44.0878 20.1065L44.0078 20.2664L43.9279 20.3516L43.8426 20.4316L43.7627 20.5115L43.6827 20.5915L43.6028 20.6767L43.4376 20.7567L43.3577 20.8366L43.1925 20.9166L43.0326 21.0018L42.7875 21.0817L42.4624 21.1617L41.9721 21.247H40.5066L40.1016 21.1617L39.7766 21.0817L39.4515 21.0018L39.2063 20.9166L38.9612 20.8366L38.8013 20.7567L38.5562 20.6767L38.3964 20.5915L38.2311 20.5115L38.066 20.4316L37.9061 20.3516L37.8261 20.2664L37.6609 20.1865L37.581 20.1065L37.4158 20.0266L37.3358 19.9413L37.2559 19.8614L37.176 19.7815H37.0107V22.3021L37.176 22.382L37.3358 22.4673L37.501 22.5472L37.6609 22.6272L37.9061 22.7124L38.1512 22.7924L38.4762 22.8723L38.7214 22.9522L39.0465 23.0375L39.4515 23.1175L39.9417 23.1974H42.1373L42.6223 23.1175L43.0326 23.0375L43.3577 22.9522L43.6028 22.8723L43.7627 22.7924L44.0078 22.7124L44.1677 22.6272L44.3329 22.5472L44.4928 22.4673L44.5781 22.382L44.7379 22.3021L44.8178 22.2221L44.9831 22.1422L45.063 22.057L45.1482 21.977L45.3081 21.8971L45.3881 21.8171L45.4733 21.7319L45.5532 21.652L45.6332 21.572L45.7131 21.4068L45.7984 21.3269L45.8783 21.247L45.9583 21.0817L46.0382 21.0018L46.1235 20.8366L46.2034 20.6767L46.2833 20.5115L46.3633 20.3516L46.4486 20.1065L46.5284 19.8614L46.6084 19.3711V17.8257L46.5284 17.4207L46.4486 17.1755L46.3633 16.9304L46.2833 16.7652L46.2034 16.6054L46.1235 16.4401L46.0382 16.3602L45.9583 16.2003L45.8783 16.1151L45.7984 16.0351L45.7131 15.8752L45.6332 15.79L45.5532 15.71L45.4733 15.6301L45.3881 15.5448L45.3081 15.4649L45.2282 15.385L45.1482 15.305L45.063 15.2198L44.9831 15.1399L44.8178 15.0599L44.7379 14.98L44.658 14.8947L44.5781 14.8147L44.4128 14.7349L44.3329 14.6496L44.253 14.5696L44.0878 14.4897L44.0078 14.4097L43.8426 14.3245L43.7627 14.2446L43.6028 14.1646L43.5176 14.0793L43.3577 13.9994L43.1925 13.9195L43.1126 13.8395L42.9473 13.7543L42.7875 13.6744L42.6223 13.5944L42.5423 13.5145L42.3825 13.4292L42.2172 13.3492L42.0521 13.2694L41.9721 13.1894L41.8122 13.1041L41.6471 13.0242L41.5671 12.9442L41.4019 12.859L41.2421 12.7791L41.1621 12.6991L40.9969 12.6192L40.917 12.5339L40.7518 12.454L40.6718 12.374L40.5066 12.2888L40.4267 12.2089L40.3467 12.1289L40.2668 12.049L40.1016 11.9637L40.0217 11.8838L39.9417 11.8039L39.8565 11.6386L39.7766 11.5587L39.6966 11.4787L39.6167 11.3136L39.5314 11.2336L39.4515 10.9885L39.3715 10.7434L39.2863 10.3384V9.60296L39.3715 9.19795L39.4515 8.95277L39.5314 8.79293L39.6167 8.6277L39.6966 8.54775L39.7766 8.46787L39.8565 8.30264L39.9417 8.22269L40.1016 8.1428L40.1816 8.05752L40.2668 7.97757L40.4267 7.89762L40.5919 7.8124L40.7518 7.73245L40.917 7.65251L41.1621 7.57256L41.4019 7.48727L41.9721 7.40739H42.9473L43.6028 7.48727L44.0078 7.57256L44.3329 7.65251L44.5781 7.73245L44.7379 7.8124L44.9831 7.89762L45.1482 7.97757L45.2282 8.05752L45.3881 8.1428L45.5532 8.22269L45.6332 8.30264L45.7984 8.38258H45.8783V6.02178L45.7131 5.9419L45.5532 5.86195L45.3081 5.782L45.063 5.69672L44.7379 5.61677L44.3329 5.53688L43.5176 5.4516H41.727L41.0768 5.53688Z" fill="#9D9E9E"/>
<path fill-rule="evenodd" clip-rule="evenodd" d="M114.287 18.2306L114.207 18.6409L114.127 18.886L114.042 19.1259L113.962 19.371L113.882 19.5362L113.802 19.6961L113.717 19.7813L113.637 19.9412L113.557 20.0265L113.477 20.1864L113.392 20.2663L113.312 20.3515L113.232 20.4315L113.147 20.5114L113.067 20.5914L112.987 20.6766L112.907 20.7565L112.742 20.8365L112.662 20.9164L112.497 21.0017L112.337 21.0816L112.092 21.1616L111.926 21.2468L111.601 21.3268L111.116 21.4067H110.056L109.571 21.3268L109.246 21.2468L109.001 21.1616L108.835 21.0816L108.676 21.0017L108.51 20.9164L108.351 20.8365L108.271 20.7565L108.105 20.6766L108.025 20.5914L107.946 20.5114L107.86 20.4315L107.78 20.3515L107.7 20.2663L107.62 20.1864L107.535 20.1064L107.455 19.9412L107.375 19.8613L107.29 19.6961L107.21 19.6161L107.13 19.4563L107.05 19.291L106.965 19.1259L106.885 18.886L106.805 18.6409L106.725 18.3158L106.64 17.9055V15.7899L106.725 15.3049L106.805 14.9799L106.885 14.7347L106.965 14.4896L107.05 14.3244L107.13 14.1645L107.21 13.9993L107.29 13.8394L107.375 13.7541L107.455 13.5943L107.535 13.5144L107.62 13.4291L107.7 13.3491L107.78 13.1893L107.86 13.104L108.025 13.0241L108.105 12.9441L108.185 12.8589L108.271 12.7789L108.43 12.699L108.596 12.619L108.756 12.5338L108.921 12.4539L109.081 12.3739L109.326 12.2886L109.731 12.2088H111.441L111.766 12.2886L112.012 12.3739L112.257 12.4539L112.417 12.5338L112.582 12.619L112.662 12.699L112.822 12.7789L112.907 12.8589L112.987 12.9441L113.147 13.0241L113.232 13.104L113.312 13.1893L113.392 13.3491L113.477 13.4291L113.557 13.5144L113.637 13.6743L113.717 13.7541L113.802 13.9194L113.882 14.0792L113.962 14.2444L114.042 14.4896L114.127 14.7347L114.207 14.9799L114.287 15.3849L114.367 15.955V17.6657L114.287 18.2306ZM109.246 10.4181L108.835 10.5034L108.51 10.5834L108.271 10.6633L108.025 10.7433L107.86 10.8285L107.7 10.9084L107.535 10.9884L107.375 11.0683L107.21 11.1536L107.13 11.2335L106.965 11.3135L106.885 11.3934L106.725 11.4786L106.64 11.5586L106.56 11.6385L106.48 11.7238L106.4 11.8037L106.235 11.8836L106.155 11.9636L106.07 12.0489L105.99 12.2088L105.91 12.2886L105.83 12.3739L105.745 12.4539L105.665 12.5338L105.585 12.699L105.505 12.7789L105.42 12.9441L105.34 13.0241L105.26 13.1893L105.18 13.3491L105.094 13.5144L105.015 13.6743L104.935 13.8394L104.849 14.0792L104.769 14.3244L104.689 14.5695L104.61 14.8946L104.524 15.3049L104.444 15.955V17.8256L104.524 18.3958L104.61 18.8008L104.689 19.1259L104.769 19.371L104.849 19.6161L104.935 19.8613L105.015 20.0265L105.094 20.1864L105.18 20.3515L105.26 20.5114L105.34 20.5914L105.42 20.7565L105.505 20.8365L105.585 21.0017L105.665 21.0816L105.745 21.1616L105.83 21.3268L105.91 21.4067L105.99 21.4866L106.07 21.5719L106.155 21.6518L106.235 21.7318L106.315 21.817L106.4 21.897L106.48 21.9769L106.64 22.0569L106.725 22.1421L106.805 22.222L106.965 22.302L107.05 22.3819L107.21 22.4672L107.375 22.5471L107.455 22.627L107.62 22.7123L107.86 22.7923L108.025 22.8722L108.271 22.9521L108.51 23.0374L108.835 23.1173L109.326 23.1973H111.521L112.012 23.1173L112.337 23.0374L112.582 22.9521L112.822 22.8722L113.067 22.7923L113.232 22.7123L113.392 22.627L113.557 22.5471L113.717 22.4672L113.802 22.3819L113.962 22.302L114.042 22.222L114.207 22.1421L114.287 22.0569L114.367 21.9769L114.452 21.897L114.532 21.817L114.612 21.7318L114.777 21.6518L114.857 21.5719L114.937 21.4067L115.023 21.3268L115.102 21.2468L115.182 21.1616L115.262 21.0816L115.348 20.9164L115.428 20.8365L115.507 20.7565L115.587 20.5914L115.673 20.4315L115.753 20.3515L115.833 20.1864L115.912 20.0265L115.998 19.8613L116.078 19.6161L116.158 19.4563L116.238 19.2111L116.323 18.886L116.403 18.561L116.483 18.0707L116.563 17.2554V16.2002L116.483 15.3049L116.403 14.8146L116.323 14.4896L116.238 14.1645L116.158 13.9194L116.078 13.7541L115.998 13.5144L115.912 13.3491L115.833 13.1893L115.753 13.0241L115.673 12.8589L115.587 12.7789L115.507 12.619L115.428 12.5338L115.348 12.3739L115.262 12.2886L115.182 12.2088L115.102 12.1288L115.023 12.0489L114.937 11.9636L114.857 11.8836L114.777 11.8037L114.692 11.7238L114.612 11.6385L114.532 11.5586L114.452 11.4786L114.367 11.3934L114.207 11.3135L114.127 11.2335L114.042 11.1536L113.882 11.0683L113.717 10.9884L113.557 10.9084L113.392 10.8285L113.232 10.7433L112.987 10.6633L112.742 10.5834L112.497 10.5034L112.092 10.4181L111.521 10.3383H109.816L109.246 10.4181Z" fill="#9D9E9E"/>
<path fill-rule="evenodd" clip-rule="evenodd" d="M68.7338 18.8008L68.6538 19.1259L68.574 19.371L68.4887 19.5362L68.4087 19.6961L68.3288 19.8613L68.2488 19.9412L68.1636 20.1064L68.0837 20.1864L68.0037 20.3515L67.9238 20.4315L67.8385 20.5114L67.7586 20.5914L67.6786 20.6766L67.5134 20.7565L67.4335 20.8365L67.3536 20.9164L67.1883 21.0017L67.0285 21.0816L66.8633 21.1616L66.7034 21.2468L66.373 21.3268L65.968 21.4067H65.158L64.7477 21.3268L64.5025 21.2468L64.3426 21.1616L64.1775 21.0816L64.0975 21.0017L63.9376 20.9164L63.8523 20.8365L63.7725 20.7565L63.6925 20.6766L63.6072 20.5114L63.5273 20.4315L63.4473 20.1864L63.3674 19.9412V18.886L63.4473 18.561L63.5273 18.3958L63.6072 18.2306L63.6925 18.1506L63.7725 17.9908L63.9376 17.9055L64.0176 17.8256L64.1775 17.7456L64.2627 17.6657L64.5025 17.5804L64.6677 17.5005L64.9928 17.4205L65.3178 17.3353L65.7229 17.2554L66.2131 17.1754L66.7833 17.0955L67.4335 17.0102L68.0037 16.9303L68.574 16.8504L68.9044 16.7651L68.8137 18.2306L68.7338 18.8008ZM65.3178 10.4181L64.9128 10.5034L64.5025 10.5834L64.2627 10.6633L63.9376 10.7433L63.6925 10.8285L63.4473 10.9084L63.2822 10.9884L63.0424 11.0683L62.8771 11.1536L62.7173 11.2335L62.5521 11.3135L62.4721 11.3934L62.3922 11.4786V13.5943H62.4721L62.5521 13.5144L62.7173 13.4291L62.7972 13.3491L62.8771 13.2692L63.0424 13.1893L63.1223 13.104L63.2822 13.0241L63.4473 12.9441L63.5273 12.8589L63.6925 12.7789L63.8523 12.699L64.0176 12.619L64.2627 12.5338L64.5025 12.4539L64.7477 12.3739L65.0727 12.2886L65.4831 12.2088H67.1085L67.3536 12.2886L67.5934 12.3739L67.6786 12.4539L67.8385 12.5338L67.9238 12.619L68.0037 12.699H68.1636V12.8589L68.2488 12.9441L68.3288 13.0241L68.4087 13.1893L68.4887 13.3491L68.574 13.5144L68.6538 13.7541L68.7338 14.0792L68.8137 14.8146L68.899 15.1397H68.3288L67.7586 15.2196L67.1883 15.3049L66.6182 15.3849L66.0479 15.4648L65.4831 15.5447L64.9128 15.63L64.5025 15.7099L64.1775 15.7899L63.9376 15.8751L63.6925 15.955L63.4473 16.035L63.2822 16.1149L63.1223 16.2002L62.9571 16.2801L62.7972 16.3601L62.7173 16.44L62.5521 16.5253L62.4721 16.6052L62.3922 16.6851L62.307 16.7651L62.227 16.8504L62.1471 16.9303L62.0618 17.0102L61.9818 17.0955L61.902 17.1754L61.822 17.2554L61.7367 17.4205L61.6568 17.5005L61.5769 17.6657L61.4969 17.8256L61.4117 17.9908L61.3317 18.2306L61.2518 18.561L61.1719 19.0459V20.1864L61.2518 20.6766L61.3317 20.9164L61.4117 21.1616L61.4969 21.3268L61.5769 21.4866L61.6568 21.6518L61.7367 21.7318L61.822 21.897L61.902 21.9769L61.9818 22.0569L62.0618 22.1421L62.1471 22.222L62.227 22.302L62.307 22.3819L62.3922 22.4672L62.5521 22.5471L62.632 22.627L62.7972 22.7123L62.9571 22.7923L63.1223 22.8722L63.2822 22.9521L63.5273 23.0374L63.7725 23.1173L64.1775 23.1973H65.968L66.373 23.1173L66.6182 23.0374L66.8633 22.9521L67.0285 22.8722L67.1883 22.7923L67.3536 22.7123L67.4335 22.627L67.5934 22.5471L67.6786 22.4672L67.8385 22.3819L67.9238 22.302L68.0037 22.222L68.0837 22.1421L68.1636 22.0569L68.2488 21.9769L68.3288 21.897L68.4087 21.817L68.4887 21.6518L68.574 21.5719L68.6538 21.4866L68.7338 21.3268L68.8137 21.2468L68.899 21.0816V22.9521H70.9294V14.4096L70.8494 13.6743L70.7695 13.2692L70.6842 12.9441L70.6043 12.699L70.5243 12.5338L70.4444 12.2886L70.3592 12.1288L70.2792 12.0489L70.1993 11.8836L70.1193 11.8037L70.0341 11.6385L69.9542 11.5586L69.8742 11.4786L69.7943 11.3934L69.709 11.3135L69.6291 11.2335L69.5491 11.1536L69.3839 11.0683L69.304 10.9884L69.1441 10.9084L69.0589 10.8285L68.899 10.7433L68.6538 10.6633L68.4887 10.5834L68.2488 10.5034L67.9238 10.4181L67.3536 10.3383H65.8081L65.3178 10.4181Z" fill="#9D9E9E"/>
<path fill-rule="evenodd" clip-rule="evenodd" d="M128.932 10.4181L128.607 10.5034L128.362 10.5834L128.197 10.6633L128.037 10.7433L127.872 10.8285L127.712 10.9084L127.547 10.9884L127.467 11.0683L127.387 11.1536L127.222 11.2335L127.142 11.3135L127.062 11.3934L126.976 11.4786L126.896 11.5586L126.817 11.6385L126.737 11.7238L126.651 11.8037L126.571 11.8836L126.491 11.9636L126.406 12.1288L126.326 12.2088L126.246 12.3739L126.166 12.4539L126.081 12.619V10.6633H124.051V22.9521H126.081L126.166 15.5447L126.246 14.9799L126.326 14.6495L126.406 14.4096L126.491 14.1645L126.571 13.9993L126.651 13.8394L126.737 13.6743L126.817 13.5943L126.896 13.4291L126.976 13.3491L127.062 13.2692L127.142 13.1893L127.222 13.104L127.301 13.0241L127.387 12.9441L127.467 12.8589L127.547 12.7789L127.627 12.699L127.792 12.619L127.957 12.5338L128.037 12.4539L128.282 12.3739L128.442 12.2886L128.767 12.2088H130.153L130.478 12.2886L130.637 12.3739L130.803 12.4539L130.963 12.5338L131.043 12.619L131.208 12.699L131.288 12.7789L131.373 12.8589L131.453 13.0241L131.533 13.104L131.613 13.2692L131.698 13.3491L131.778 13.5144L131.858 13.7541L131.938 13.9194L132.023 14.2444L132.103 14.6495L132.183 15.3049L132.263 22.9521H134.299V14.6495L134.219 13.9194L134.139 13.5144L134.053 13.1893L133.973 12.9441L133.894 12.699L133.814 12.5338L133.728 12.3739L133.648 12.2088L133.568 12.0489L133.483 11.9636L133.403 11.8037L133.323 11.7238L133.243 11.6385L133.158 11.5586L133.078 11.3934L132.998 11.3135L132.918 11.2335L132.753 11.1536L132.673 11.0683L132.593 10.9884L132.428 10.9084L132.348 10.8285L132.183 10.7433L132.023 10.6633L131.858 10.5834L131.613 10.5034L131.288 10.4181L130.803 10.3383H129.417L128.932 10.4181Z" fill="#9D9E9E"/>
<path fill-rule="evenodd" clip-rule="evenodd" d="M139.505 7.08233L139.26 7.16227L139.02 7.24222L138.775 7.32751L138.529 7.40746L138.284 7.48734L138.039 7.57262L137.879 7.65257V10.6635H135.764V12.3741H137.879V20.5116L137.959 20.9166L138.039 21.247L138.124 21.4868L138.204 21.652L138.284 21.8172L138.364 21.9771L138.45 22.057L138.529 22.2222L138.609 22.3022L138.689 22.3821L138.775 22.4674L138.854 22.5473L138.934 22.6272L139.1 22.7125L139.18 22.7925L139.345 22.8723L139.505 22.9523L139.67 23.0376L139.995 23.1175L140.4 23.1975H141.865L142.27 23.1175L142.516 23.0376L142.761 22.9523L142.921 22.8723L143.001 22.7925V21.0818H142.761L142.675 21.1617L142.516 21.247L142.27 21.327L141.78 21.4069H141.54L140.97 21.327L140.805 21.247L140.645 21.1617L140.48 21.0818L140.4 21.0019L140.32 20.9166L140.235 20.7567L140.155 20.5916L140.075 20.3517L139.995 20.0266L139.91 12.3741H143.001V10.6635H139.91V7.00244H139.75L139.505 7.08233Z" fill="#9D9E9E"/>
<path fill-rule="evenodd" clip-rule="evenodd" d="M78.1725 10.5034L77.9274 10.5834L77.7676 10.6633L77.6023 10.7433L77.5224 10.8285L77.3572 10.9084L77.2773 10.9884L77.112 11.0683L77.0322 11.1536L76.9522 11.2335L76.8723 11.3135L76.787 11.3934L76.707 11.4786L76.6271 11.5586L76.5472 11.7238L76.4619 11.8038L76.382 11.9636L76.3021 12.0489L76.2168 12.2088L76.1368 12.3739L76.0569 12.5338L75.977 12.699L75.8917 12.8589V10.6633H73.8613V22.9521H75.8917L75.977 15.7099L76.0569 15.2196L76.1368 14.8946L76.2168 14.5695L76.3021 14.4096L76.382 14.1645L76.4619 13.9993L76.5472 13.8394L76.6271 13.6743L76.707 13.5943L76.787 13.4291L76.8723 13.3491L76.9522 13.2693L77.0322 13.104L77.112 13.0241L77.1973 12.9441L77.3572 12.8589L77.4371 12.779L77.5224 12.699L77.6823 12.6191L77.8475 12.5338L78.0873 12.4539L78.4177 12.3739H79.2277L79.638 12.4539L79.8779 12.5338L80.043 12.6191L80.123 12.699H80.2882V10.5834L80.123 10.5034L79.7979 10.4182H78.5775L78.1725 10.5034Z" fill="#9D9E9E"/>
<path fill-rule="evenodd" clip-rule="evenodd" d="M118.844 22.9521H120.879V10.6633H118.844V22.9521Z" fill="#9D9E9E"/>
<path fill-rule="evenodd" clip-rule="evenodd" d="M119.329 5.04662L119.169 5.12657L119.089 5.21186L118.924 5.29174L118.844 5.37169L118.764 5.53692L118.678 5.6168L118.599 5.78204L118.519 6.1071V6.51212L118.599 6.83718L118.678 7.00241L118.764 7.16225L118.844 7.2422L118.924 7.32748L119.003 7.40743L119.169 7.48731L119.329 7.57259L119.659 7.65254H120.064L120.389 7.57259L120.549 7.48731L120.714 7.40743L120.794 7.32748L120.879 7.2422L120.959 7.16225L121.039 7.00241L121.119 6.91713L121.204 6.67735V5.94194L121.119 5.69675L121.039 5.6168L120.959 5.45164L120.879 5.37169L120.794 5.29174L120.714 5.21186L120.549 5.12657L120.389 5.04662L120.064 4.96667H119.659L119.329 5.04662Z" fill="#9D9E9E"/>
</svg>
